%FSLAX45Y45*%
G04 Gerber Fmt 4.5, Leading zero omitted, Abs format (unit mm)*
G04 Created by KiCad (PCBNEW (5.1.10)-1) date 2022-05-23 20:21:30*
%MOMM*%
%LPD*%
G01*
G04 APERTURE LIST*
%TA.AperFunction,Profile*%
%ADD10C,0.050000*%
%TD*%
%ADD11C,0.200000*%
%ADD12C,0.300000*%
G04 APERTURE END LIST*
D10*
X17300000Y-6200000D02*
X25300000Y-6200000D01*
X17300000Y-14500000D02*
X17300000Y-6200000D01*
X25300000Y-14500000D02*
X17300000Y-14500000D01*
X25300000Y-6200000D02*
X25300000Y-14500000D01*
D11*
X17640000Y-6340000D02*
X17960000Y-6660000D01*
X17960000Y-6340000D02*
X17640000Y-6660000D01*
X24240000Y-13140000D02*
X24560000Y-13460000D01*
X24560000Y-13140000D02*
X24240000Y-13460000D01*
D12*
X17583928Y-14968214D02*
X17583928Y-14668214D01*
X17655357Y-14668214D01*
X17698214Y-14682500D01*
X17726786Y-14711071D01*
X17741071Y-14739643D01*
X17755357Y-14796786D01*
X17755357Y-14839643D01*
X17741071Y-14896786D01*
X17726786Y-14925357D01*
X17698214Y-14953929D01*
X17655357Y-14968214D01*
X17583928Y-14968214D01*
X17883928Y-14968214D02*
X17883928Y-14768214D01*
X17883928Y-14825357D02*
X17898214Y-14796786D01*
X17912500Y-14782500D01*
X17941071Y-14768214D01*
X17969643Y-14768214D01*
X18069643Y-14968214D02*
X18069643Y-14768214D01*
X18069643Y-14668214D02*
X18055357Y-14682500D01*
X18069643Y-14696786D01*
X18083928Y-14682500D01*
X18069643Y-14668214D01*
X18069643Y-14696786D01*
X18255357Y-14968214D02*
X18226786Y-14953929D01*
X18212500Y-14925357D01*
X18212500Y-14668214D01*
X18412500Y-14968214D02*
X18383928Y-14953929D01*
X18369643Y-14925357D01*
X18369643Y-14668214D01*
X18755357Y-14968214D02*
X18755357Y-14668214D01*
X18855357Y-14882500D01*
X18955357Y-14668214D01*
X18955357Y-14968214D01*
X19226786Y-14968214D02*
X19226786Y-14811071D01*
X19212500Y-14782500D01*
X19183928Y-14768214D01*
X19126786Y-14768214D01*
X19098214Y-14782500D01*
X19226786Y-14953929D02*
X19198214Y-14968214D01*
X19126786Y-14968214D01*
X19098214Y-14953929D01*
X19083928Y-14925357D01*
X19083928Y-14896786D01*
X19098214Y-14868214D01*
X19126786Y-14853929D01*
X19198214Y-14853929D01*
X19226786Y-14839643D01*
X19369643Y-14768214D02*
X19369643Y-15068214D01*
X19369643Y-14782500D02*
X19398214Y-14768214D01*
X19455357Y-14768214D01*
X19483928Y-14782500D01*
X19498214Y-14796786D01*
X19512500Y-14825357D01*
X19512500Y-14911071D01*
X19498214Y-14939643D01*
X19483928Y-14953929D01*
X19455357Y-14968214D01*
X19398214Y-14968214D01*
X19369643Y-14953929D01*
X19641071Y-14939643D02*
X19655357Y-14953929D01*
X19641071Y-14968214D01*
X19626786Y-14953929D01*
X19641071Y-14939643D01*
X19641071Y-14968214D01*
X19641071Y-14782500D02*
X19655357Y-14796786D01*
X19641071Y-14811071D01*
X19626786Y-14796786D01*
X19641071Y-14782500D01*
X19641071Y-14811071D01*
X16977500Y-15302500D02*
X17297500Y-15622500D01*
X17297500Y-15302500D02*
X16977500Y-15622500D01*
X17555357Y-15298214D02*
X17741071Y-15298214D01*
X17641071Y-15412500D01*
X17683928Y-15412500D01*
X17712500Y-15426786D01*
X17726786Y-15441071D01*
X17741071Y-15469643D01*
X17741071Y-15541071D01*
X17726786Y-15569643D01*
X17712500Y-15583929D01*
X17683928Y-15598214D01*
X17598214Y-15598214D01*
X17569643Y-15583929D01*
X17555357Y-15569643D01*
X17869643Y-15569643D02*
X17883928Y-15583929D01*
X17869643Y-15598214D01*
X17855357Y-15583929D01*
X17869643Y-15569643D01*
X17869643Y-15598214D01*
X17998214Y-15326786D02*
X18012500Y-15312500D01*
X18041071Y-15298214D01*
X18112500Y-15298214D01*
X18141071Y-15312500D01*
X18155357Y-15326786D01*
X18169643Y-15355357D01*
X18169643Y-15383929D01*
X18155357Y-15426786D01*
X17983928Y-15598214D01*
X18169643Y-15598214D01*
X18355357Y-15298214D02*
X18383928Y-15298214D01*
X18412500Y-15312500D01*
X18426786Y-15326786D01*
X18441071Y-15355357D01*
X18455357Y-15412500D01*
X18455357Y-15483929D01*
X18441071Y-15541071D01*
X18426786Y-15569643D01*
X18412500Y-15583929D01*
X18383928Y-15598214D01*
X18355357Y-15598214D01*
X18326786Y-15583929D01*
X18312500Y-15569643D01*
X18298214Y-15541071D01*
X18283928Y-15483929D01*
X18283928Y-15412500D01*
X18298214Y-15355357D01*
X18312500Y-15326786D01*
X18326786Y-15312500D01*
X18355357Y-15298214D01*
X18641071Y-15298214D02*
X18669643Y-15298214D01*
X18698214Y-15312500D01*
X18712500Y-15326786D01*
X18726786Y-15355357D01*
X18741071Y-15412500D01*
X18741071Y-15483929D01*
X18726786Y-15541071D01*
X18712500Y-15569643D01*
X18698214Y-15583929D01*
X18669643Y-15598214D01*
X18641071Y-15598214D01*
X18612500Y-15583929D01*
X18598214Y-15569643D01*
X18583928Y-15541071D01*
X18569643Y-15483929D01*
X18569643Y-15412500D01*
X18583928Y-15355357D01*
X18598214Y-15326786D01*
X18612500Y-15312500D01*
X18641071Y-15298214D01*
X18869643Y-15598214D02*
X18869643Y-15398214D01*
X18869643Y-15426786D02*
X18883928Y-15412500D01*
X18912500Y-15398214D01*
X18955357Y-15398214D01*
X18983928Y-15412500D01*
X18998214Y-15441071D01*
X18998214Y-15598214D01*
X18998214Y-15441071D02*
X19012500Y-15412500D01*
X19041071Y-15398214D01*
X19083928Y-15398214D01*
X19112500Y-15412500D01*
X19126786Y-15441071D01*
X19126786Y-15598214D01*
X19269643Y-15598214D02*
X19269643Y-15398214D01*
X19269643Y-15426786D02*
X19283928Y-15412500D01*
X19312500Y-15398214D01*
X19355357Y-15398214D01*
X19383928Y-15412500D01*
X19398214Y-15441071D01*
X19398214Y-15598214D01*
X19398214Y-15441071D02*
X19412500Y-15412500D01*
X19441071Y-15398214D01*
X19483928Y-15398214D01*
X19512500Y-15412500D01*
X19526786Y-15441071D01*
X19526786Y-15598214D01*
X20112500Y-15283929D02*
X19855357Y-15669643D01*
X20498214Y-15298214D02*
X20526786Y-15298214D01*
X20555357Y-15312500D01*
X20569643Y-15326786D01*
X20583928Y-15355357D01*
X20598214Y-15412500D01*
X20598214Y-15483929D01*
X20583928Y-15541071D01*
X20569643Y-15569643D01*
X20555357Y-15583929D01*
X20526786Y-15598214D01*
X20498214Y-15598214D01*
X20469643Y-15583929D01*
X20455357Y-15569643D01*
X20441071Y-15541071D01*
X20426786Y-15483929D01*
X20426786Y-15412500D01*
X20441071Y-15355357D01*
X20455357Y-15326786D01*
X20469643Y-15312500D01*
X20498214Y-15298214D01*
X20726786Y-15569643D02*
X20741071Y-15583929D01*
X20726786Y-15598214D01*
X20712500Y-15583929D01*
X20726786Y-15569643D01*
X20726786Y-15598214D01*
X21026786Y-15598214D02*
X20855357Y-15598214D01*
X20941071Y-15598214D02*
X20941071Y-15298214D01*
X20912500Y-15341071D01*
X20883928Y-15369643D01*
X20855357Y-15383929D01*
X21141071Y-15326786D02*
X21155357Y-15312500D01*
X21183928Y-15298214D01*
X21255357Y-15298214D01*
X21283928Y-15312500D01*
X21298214Y-15326786D01*
X21312500Y-15355357D01*
X21312500Y-15383929D01*
X21298214Y-15426786D01*
X21126786Y-15598214D01*
X21312500Y-15598214D01*
X21569643Y-15298214D02*
X21512500Y-15298214D01*
X21483928Y-15312500D01*
X21469643Y-15326786D01*
X21441071Y-15369643D01*
X21426786Y-15426786D01*
X21426786Y-15541071D01*
X21441071Y-15569643D01*
X21455357Y-15583929D01*
X21483928Y-15598214D01*
X21541071Y-15598214D01*
X21569643Y-15583929D01*
X21583928Y-15569643D01*
X21598214Y-15541071D01*
X21598214Y-15469643D01*
X21583928Y-15441071D01*
X21569643Y-15426786D01*
X21541071Y-15412500D01*
X21483928Y-15412500D01*
X21455357Y-15426786D01*
X21441071Y-15441071D01*
X21426786Y-15469643D01*
X21783928Y-15298214D02*
X21812500Y-15298214D01*
X21841071Y-15312500D01*
X21855357Y-15326786D01*
X21869643Y-15355357D01*
X21883928Y-15412500D01*
X21883928Y-15483929D01*
X21869643Y-15541071D01*
X21855357Y-15569643D01*
X21841071Y-15583929D01*
X21812500Y-15598214D01*
X21783928Y-15598214D01*
X21755357Y-15583929D01*
X21741071Y-15569643D01*
X21726786Y-15541071D01*
X21712500Y-15483929D01*
X21712500Y-15412500D01*
X21726786Y-15355357D01*
X21741071Y-15326786D01*
X21755357Y-15312500D01*
X21783928Y-15298214D01*
X21998214Y-15298214D02*
X21998214Y-15355357D01*
X22112500Y-15298214D02*
X22112500Y-15355357D01*
X22555357Y-15712500D02*
X22541071Y-15698214D01*
X22512500Y-15655357D01*
X22498214Y-15626786D01*
X22483928Y-15583929D01*
X22469643Y-15512500D01*
X22469643Y-15455357D01*
X22483928Y-15383929D01*
X22498214Y-15341071D01*
X22512500Y-15312500D01*
X22541071Y-15269643D01*
X22555357Y-15255357D01*
X22655357Y-15326786D02*
X22669643Y-15312500D01*
X22698214Y-15298214D01*
X22769643Y-15298214D01*
X22798214Y-15312500D01*
X22812500Y-15326786D01*
X22826786Y-15355357D01*
X22826786Y-15383929D01*
X22812500Y-15426786D01*
X22641071Y-15598214D01*
X22826786Y-15598214D01*
X23183928Y-15598214D02*
X23183928Y-15298214D01*
X23312500Y-15598214D02*
X23312500Y-15441071D01*
X23298214Y-15412500D01*
X23269643Y-15398214D01*
X23226786Y-15398214D01*
X23198214Y-15412500D01*
X23183928Y-15426786D01*
X23498214Y-15598214D02*
X23469643Y-15583929D01*
X23455357Y-15569643D01*
X23441071Y-15541071D01*
X23441071Y-15455357D01*
X23455357Y-15426786D01*
X23469643Y-15412500D01*
X23498214Y-15398214D01*
X23541071Y-15398214D01*
X23569643Y-15412500D01*
X23583928Y-15426786D01*
X23598214Y-15455357D01*
X23598214Y-15541071D01*
X23583928Y-15569643D01*
X23569643Y-15583929D01*
X23541071Y-15598214D01*
X23498214Y-15598214D01*
X23769643Y-15598214D02*
X23741071Y-15583929D01*
X23726786Y-15555357D01*
X23726786Y-15298214D01*
X23998214Y-15583929D02*
X23969643Y-15598214D01*
X23912500Y-15598214D01*
X23883928Y-15583929D01*
X23869643Y-15555357D01*
X23869643Y-15441071D01*
X23883928Y-15412500D01*
X23912500Y-15398214D01*
X23969643Y-15398214D01*
X23998214Y-15412500D01*
X24012500Y-15441071D01*
X24012500Y-15469643D01*
X23869643Y-15498214D01*
X24126786Y-15583929D02*
X24155357Y-15598214D01*
X24212500Y-15598214D01*
X24241071Y-15583929D01*
X24255357Y-15555357D01*
X24255357Y-15541071D01*
X24241071Y-15512500D01*
X24212500Y-15498214D01*
X24169643Y-15498214D01*
X24141071Y-15483929D01*
X24126786Y-15455357D01*
X24126786Y-15441071D01*
X24141071Y-15412500D01*
X24169643Y-15398214D01*
X24212500Y-15398214D01*
X24241071Y-15412500D01*
X24355357Y-15712500D02*
X24369643Y-15698214D01*
X24398214Y-15655357D01*
X24412500Y-15626786D01*
X24426786Y-15583929D01*
X24441071Y-15512500D01*
X24441071Y-15455357D01*
X24426786Y-15383929D01*
X24412500Y-15341071D01*
X24398214Y-15312500D01*
X24369643Y-15269643D01*
X24355357Y-15255357D01*
X24898214Y-15712500D02*
X24883928Y-15698214D01*
X24855357Y-15655357D01*
X24841071Y-15626786D01*
X24826786Y-15583929D01*
X24812500Y-15512500D01*
X24812500Y-15455357D01*
X24826786Y-15383929D01*
X24841071Y-15341071D01*
X24855357Y-15312500D01*
X24883928Y-15269643D01*
X24898214Y-15255357D01*
X25012500Y-15398214D02*
X25012500Y-15598214D01*
X25012500Y-15426786D02*
X25026786Y-15412500D01*
X25055357Y-15398214D01*
X25098214Y-15398214D01*
X25126786Y-15412500D01*
X25141071Y-15441071D01*
X25141071Y-15598214D01*
X25326786Y-15598214D02*
X25298214Y-15583929D01*
X25283928Y-15569643D01*
X25269643Y-15541071D01*
X25269643Y-15455357D01*
X25283928Y-15426786D01*
X25298214Y-15412500D01*
X25326786Y-15398214D01*
X25369643Y-15398214D01*
X25398214Y-15412500D01*
X25412500Y-15426786D01*
X25426786Y-15455357D01*
X25426786Y-15541071D01*
X25412500Y-15569643D01*
X25398214Y-15583929D01*
X25369643Y-15598214D01*
X25326786Y-15598214D01*
X25512500Y-15398214D02*
X25626786Y-15398214D01*
X25555357Y-15298214D02*
X25555357Y-15555357D01*
X25569643Y-15583929D01*
X25598214Y-15598214D01*
X25626786Y-15598214D01*
X25955357Y-15398214D02*
X25955357Y-15698214D01*
X25955357Y-15412500D02*
X25983928Y-15398214D01*
X26041071Y-15398214D01*
X26069643Y-15412500D01*
X26083928Y-15426786D01*
X26098214Y-15455357D01*
X26098214Y-15541071D01*
X26083928Y-15569643D01*
X26069643Y-15583929D01*
X26041071Y-15598214D01*
X25983928Y-15598214D01*
X25955357Y-15583929D01*
X26269643Y-15598214D02*
X26241071Y-15583929D01*
X26226786Y-15555357D01*
X26226786Y-15298214D01*
X26512500Y-15598214D02*
X26512500Y-15441071D01*
X26498214Y-15412500D01*
X26469643Y-15398214D01*
X26412500Y-15398214D01*
X26383928Y-15412500D01*
X26512500Y-15583929D02*
X26483928Y-15598214D01*
X26412500Y-15598214D01*
X26383928Y-15583929D01*
X26369643Y-15555357D01*
X26369643Y-15526786D01*
X26383928Y-15498214D01*
X26412500Y-15483929D01*
X26483928Y-15483929D01*
X26512500Y-15469643D01*
X26612500Y-15398214D02*
X26726786Y-15398214D01*
X26655357Y-15298214D02*
X26655357Y-15555357D01*
X26669643Y-15583929D01*
X26698214Y-15598214D01*
X26726786Y-15598214D01*
X26941071Y-15583929D02*
X26912500Y-15598214D01*
X26855357Y-15598214D01*
X26826786Y-15583929D01*
X26812500Y-15555357D01*
X26812500Y-15441071D01*
X26826786Y-15412500D01*
X26855357Y-15398214D01*
X26912500Y-15398214D01*
X26941071Y-15412500D01*
X26955357Y-15441071D01*
X26955357Y-15469643D01*
X26812500Y-15498214D01*
X27212500Y-15598214D02*
X27212500Y-15298214D01*
X27212500Y-15583929D02*
X27183928Y-15598214D01*
X27126786Y-15598214D01*
X27098214Y-15583929D01*
X27083928Y-15569643D01*
X27069643Y-15541071D01*
X27069643Y-15455357D01*
X27083928Y-15426786D01*
X27098214Y-15412500D01*
X27126786Y-15398214D01*
X27183928Y-15398214D01*
X27212500Y-15412500D01*
X27326786Y-15712500D02*
X27341071Y-15698214D01*
X27369643Y-15655357D01*
X27383928Y-15626786D01*
X27398214Y-15583929D01*
X27412500Y-15512500D01*
X27412500Y-15455357D01*
X27398214Y-15383929D01*
X27383928Y-15341071D01*
X27369643Y-15312500D01*
X27341071Y-15269643D01*
X27326786Y-15255357D01*
M02*
