%TF.GenerationSoftware,KiCad,Pcbnew,(5.1.10)-1*%
%TF.CreationDate,2022-05-23T20:21:22+03:00*%
%TF.ProjectId,SAUK-Y v1 STM32F4 Disc,5341554b-2d59-4207-9631-2053544d3332,rev?*%
%TF.SameCoordinates,Original*%
%TF.FileFunction,Copper,L1,Top*%
%TF.FilePolarity,Positive*%
%FSLAX46Y46*%
G04 Gerber Fmt 4.6, Leading zero omitted, Abs format (unit mm)*
G04 Created by KiCad (PCBNEW (5.1.10)-1) date 2022-05-23 20:21:22*
%MOMM*%
%LPD*%
G01*
G04 APERTURE LIST*
%TA.AperFunction,ComponentPad*%
%ADD10O,1.950000X1.700000*%
%TD*%
%TA.AperFunction,ComponentPad*%
%ADD11O,1.700000X1.950000*%
%TD*%
%TA.AperFunction,ComponentPad*%
%ADD12C,2.800000*%
%TD*%
%TA.AperFunction,ComponentPad*%
%ADD13R,2.800000X2.800000*%
%TD*%
%TA.AperFunction,ComponentPad*%
%ADD14O,1.700000X1.700000*%
%TD*%
%TA.AperFunction,ComponentPad*%
%ADD15R,1.700000X1.700000*%
%TD*%
%TA.AperFunction,ViaPad*%
%ADD16C,0.800000*%
%TD*%
%TA.AperFunction,Conductor*%
%ADD17C,0.250000*%
%TD*%
%TA.AperFunction,Conductor*%
%ADD18C,0.254000*%
%TD*%
%TA.AperFunction,Conductor*%
%ADD19C,0.100000*%
%TD*%
G04 APERTURE END LIST*
%TO.P,OP_MOT_2,1*%
%TO.N,GND_GDK_giris*%
%TA.AperFunction,ComponentPad*%
G36*
G01*
X239725000Y-83850000D02*
X238275000Y-83850000D01*
G75*
G02*
X238025000Y-83600000I0J250000D01*
G01*
X238025000Y-82400000D01*
G75*
G02*
X238275000Y-82150000I250000J0D01*
G01*
X239725000Y-82150000D01*
G75*
G02*
X239975000Y-82400000I0J-250000D01*
G01*
X239975000Y-83600000D01*
G75*
G02*
X239725000Y-83850000I-250000J0D01*
G01*
G37*
%TD.AperFunction*%
D10*
%TO.P,OP_MOT_2,2*%
%TO.N,+5V_GDK_giris*%
X239000000Y-80500000D03*
%TO.P,OP_MOT_2,3*%
%TO.N,TIM3_CH2*%
X239000000Y-78000000D03*
%TD*%
D11*
%TO.P,L_B1,3*%
%TO.N,TIM4_CH4*%
X187024000Y-138684000D03*
%TO.P,L_B1,2*%
%TO.N,+5V_GDK_giris*%
X189524000Y-138684000D03*
%TO.P,L_B1,1*%
%TO.N,GND_GDK_giris*%
%TA.AperFunction,ComponentPad*%
G36*
G01*
X192874000Y-137959000D02*
X192874000Y-139409000D01*
G75*
G02*
X192624000Y-139659000I-250000J0D01*
G01*
X191424000Y-139659000D01*
G75*
G02*
X191174000Y-139409000I0J250000D01*
G01*
X191174000Y-137959000D01*
G75*
G02*
X191424000Y-137709000I250000J0D01*
G01*
X192624000Y-137709000D01*
G75*
G02*
X192874000Y-137959000I0J-250000D01*
G01*
G37*
%TD.AperFunction*%
%TD*%
%TO.P,A02YYUW-4,1*%
%TO.N,+5V_GDK_giris*%
%TA.AperFunction,ComponentPad*%
G36*
G01*
X246275000Y-92150000D02*
X247725000Y-92150000D01*
G75*
G02*
X247975000Y-92400000I0J-250000D01*
G01*
X247975000Y-93600000D01*
G75*
G02*
X247725000Y-93850000I-250000J0D01*
G01*
X246275000Y-93850000D01*
G75*
G02*
X246025000Y-93600000I0J250000D01*
G01*
X246025000Y-92400000D01*
G75*
G02*
X246275000Y-92150000I250000J0D01*
G01*
G37*
%TD.AperFunction*%
D10*
%TO.P,A02YYUW-4,2*%
%TO.N,GND_GDK_giris*%
X247000000Y-95500000D03*
%TO.P,A02YYUW-4,3*%
%TO.N,UART5_RX*%
X247000000Y-98000000D03*
%TO.P,A02YYUW-4,4*%
%TO.N,UART5_TX*%
X247000000Y-100500000D03*
%TD*%
D12*
%TO.P,PWR1,2*%
%TO.N,GND_GDK_giris*%
X180000000Y-142000000D03*
D13*
%TO.P,PWR1,1*%
%TO.N,+5V_GDK_giris*%
X175000000Y-142000000D03*
%TD*%
D14*
%TO.P,D-SAG1,50*%
%TO.N,GND_GDK_giris*%
X227184000Y-133146000D03*
%TO.P,D-SAG1,49*%
X229724000Y-133146000D03*
%TO.P,D-SAG1,48*%
%TO.N,Net-(D-SAG1-Pad48)*%
X227184000Y-130606000D03*
%TO.P,D-SAG1,47*%
%TO.N,Net-(D-SAG1-Pad47)*%
X229724000Y-130606000D03*
%TO.P,D-SAG1,46*%
%TO.N,I2C3_SDA*%
X227184000Y-128066000D03*
%TO.P,D-SAG1,45*%
%TO.N,Net-(D-SAG1-Pad45)*%
X229724000Y-128066000D03*
%TO.P,D-SAG1,44*%
%TO.N,USART1_TX*%
X227184000Y-125526000D03*
%TO.P,D-SAG1,43*%
%TO.N,I2C3_SCL*%
X229724000Y-125526000D03*
%TO.P,D-SAG1,42*%
%TO.N,Net-(D-SAG1-Pad42)*%
X227184000Y-122986000D03*
%TO.P,D-SAG1,41*%
%TO.N,USART1_RX*%
X229724000Y-122986000D03*
%TO.P,D-SAG1,40*%
%TO.N,Net-(D-SAG1-Pad40)*%
X227184000Y-120446000D03*
%TO.P,D-SAG1,39*%
%TO.N,Net-(D-SAG1-Pad39)*%
X229724000Y-120446000D03*
%TO.P,D-SAG1,38*%
%TO.N,USART3_RX*%
X227184000Y-117906000D03*
%TO.P,D-SAG1,37*%
%TO.N,USART3_TX*%
X229724000Y-117906000D03*
%TO.P,D-SAG1,36*%
%TO.N,Net-(D-SAG1-Pad36)*%
X227184000Y-115366000D03*
%TO.P,D-SAG1,35*%
%TO.N,UART5_TX*%
X229724000Y-115366000D03*
%TO.P,D-SAG1,34*%
%TO.N,UART5_RX*%
X227184000Y-112826000D03*
%TO.P,D-SAG1,33*%
%TO.N,Net-(D-SAG1-Pad33)*%
X229724000Y-112826000D03*
%TO.P,D-SAG1,32*%
%TO.N,Net-(D-SAG1-Pad32)*%
X227184000Y-110286000D03*
%TO.P,D-SAG1,31*%
%TO.N,Net-(D-SAG1-Pad31)*%
X229724000Y-110286000D03*
%TO.P,D-SAG1,30*%
%TO.N,USART2_RX*%
X227184000Y-107746000D03*
%TO.P,D-SAG1,29*%
%TO.N,USART2_TX*%
X229724000Y-107746000D03*
%TO.P,D-SAG1,28*%
%TO.N,Net-(D-SAG1-Pad28)*%
X227184000Y-105206000D03*
%TO.P,D-SAG1,27*%
%TO.N,Net-(D-SAG1-Pad27)*%
X229724000Y-105206000D03*
%TO.P,D-SAG1,26*%
%TO.N,Net-(D-SAG1-Pad26)*%
X227184000Y-102666000D03*
%TO.P,D-SAG1,25*%
%TO.N,Net-(D-SAG1-Pad25)*%
X229724000Y-102666000D03*
%TO.P,D-SAG1,24*%
%TO.N,I2C1_SDA*%
X227184000Y-100126000D03*
%TO.P,D-SAG1,23*%
%TO.N,I2C1_SCL*%
X229724000Y-100126000D03*
%TO.P,D-SAG1,22*%
%TO.N,Net-(D-SAG1-Pad22)*%
X227184000Y-97586000D03*
%TO.P,D-SAG1,21*%
%TO.N,Net-(D-SAG1-Pad21)*%
X229724000Y-97586000D03*
%TO.P,D-SAG1,20*%
%TO.N,Net-(D-SAG1-Pad20)*%
X227184000Y-95046000D03*
%TO.P,D-SAG1,19*%
%TO.N,Net-(D-SAG1-Pad19)*%
X229724000Y-95046000D03*
%TO.P,D-SAG1,18*%
%TO.N,Net-(D-SAG1-Pad18)*%
X227184000Y-92506000D03*
%TO.P,D-SAG1,17*%
%TO.N,Net-(D-SAG1-Pad17)*%
X229724000Y-92506000D03*
%TO.P,D-SAG1,16*%
%TO.N,Net-(D-SAG1-Pad16)*%
X227184000Y-89966000D03*
%TO.P,D-SAG1,15*%
%TO.N,Net-(D-SAG1-Pad15)*%
X229724000Y-89966000D03*
%TO.P,D-SAG1,14*%
%TO.N,Net-(D-SAG1-Pad14)*%
X227184000Y-87426000D03*
%TO.P,D-SAG1,13*%
%TO.N,Net-(D-SAG1-Pad13)*%
X229724000Y-87426000D03*
%TO.P,D-SAG1,12*%
%TO.N,Net-(D-SAG1-Pad12)*%
X227184000Y-84886000D03*
%TO.P,D-SAG1,11*%
%TO.N,Net-(D-SAG1-Pad11)*%
X229724000Y-84886000D03*
%TO.P,D-SAG1,10*%
%TO.N,Net-(D-SAG1-Pad10)*%
X227184000Y-82346000D03*
%TO.P,D-SAG1,9*%
%TO.N,Net-(D-SAG1-Pad9)*%
X229724000Y-82346000D03*
%TO.P,D-SAG1,8*%
%TO.N,Net-(D-SAG1-Pad8)*%
X227184000Y-79806000D03*
%TO.P,D-SAG1,7*%
%TO.N,Net-(D-SAG1-Pad7)*%
X229724000Y-79806000D03*
%TO.P,D-SAG1,6*%
%TO.N,+3V0*%
X227184000Y-77266000D03*
%TO.P,D-SAG1,5*%
X229724000Y-77266000D03*
%TO.P,D-SAG1,4*%
%TO.N,+5V_GDK_giris*%
X227184000Y-74726000D03*
%TO.P,D-SAG1,3*%
X229724000Y-74726000D03*
%TO.P,D-SAG1,2*%
%TO.N,GND_GDK_giris*%
X227184000Y-72186000D03*
D15*
%TO.P,D-SAG1,1*%
X229724000Y-72186000D03*
%TD*%
D14*
%TO.P,D-SOL1,50*%
%TO.N,GND_GDK_giris*%
X176424000Y-133066000D03*
%TO.P,D-SOL1,49*%
X178964000Y-133066000D03*
%TO.P,D-SOL1,48*%
%TO.N,Net-(D-SOL1-Pad48)*%
X176424000Y-130526000D03*
%TO.P,D-SOL1,47*%
%TO.N,TIM4_CH4*%
X178964000Y-130526000D03*
%TO.P,D-SOL1,46*%
%TO.N,TIM4_CH3*%
X176424000Y-127986000D03*
%TO.P,D-SOL1,45*%
%TO.N,TIM4_CH2*%
X178964000Y-127986000D03*
%TO.P,D-SOL1,44*%
%TO.N,TIM4_CH1*%
X176424000Y-125446000D03*
%TO.P,D-SOL1,43*%
%TO.N,Net-(D-SOL1-Pad43)*%
X178964000Y-125446000D03*
%TO.P,D-SOL1,42*%
%TO.N,Net-(D-SOL1-Pad42)*%
X176424000Y-122906000D03*
%TO.P,D-SOL1,41*%
%TO.N,Net-(D-SOL1-Pad41)*%
X178964000Y-122906000D03*
%TO.P,D-SOL1,40*%
%TO.N,Net-(D-SOL1-Pad40)*%
X176424000Y-120366000D03*
%TO.P,D-SOL1,39*%
%TO.N,Net-(D-SOL1-Pad39)*%
X178964000Y-120366000D03*
%TO.P,D-SOL1,38*%
%TO.N,Net-(D-SOL1-Pad38)*%
X176424000Y-117826000D03*
%TO.P,D-SOL1,37*%
%TO.N,Net-(D-SOL1-Pad37)*%
X178964000Y-117826000D03*
%TO.P,D-SOL1,36*%
%TO.N,Net-(D-SOL1-Pad36)*%
X176424000Y-115286000D03*
%TO.P,D-SOL1,35*%
%TO.N,I2C2_SDA*%
X178964000Y-115286000D03*
%TO.P,D-SOL1,34*%
%TO.N,I2C2_SCL*%
X176424000Y-112746000D03*
%TO.P,D-SOL1,33*%
%TO.N,Net-(D-SOL1-Pad33)*%
X178964000Y-112746000D03*
%TO.P,D-SOL1,32*%
%TO.N,Net-(D-SOL1-Pad32)*%
X176424000Y-110206000D03*
%TO.P,D-SOL1,31*%
%TO.N,Net-(D-SOL1-Pad31)*%
X178964000Y-110206000D03*
%TO.P,D-SOL1,30*%
%TO.N,Net-(D-SOL1-Pad30)*%
X176424000Y-107666000D03*
%TO.P,D-SOL1,29*%
%TO.N,Net-(D-SOL1-Pad29)*%
X178964000Y-107666000D03*
%TO.P,D-SOL1,28*%
%TO.N,Net-(D-SOL1-Pad28)*%
X176424000Y-105126000D03*
%TO.P,D-SOL1,27*%
%TO.N,Net-(D-SOL1-Pad27)*%
X178964000Y-105126000D03*
%TO.P,D-SOL1,26*%
%TO.N,Net-(D-SOL1-Pad26)*%
X176424000Y-102586000D03*
%TO.P,D-SOL1,25*%
%TO.N,Net-(D-SOL1-Pad25)*%
X178964000Y-102586000D03*
%TO.P,D-SOL1,24*%
%TO.N,Net-(D-SOL1-Pad24)*%
X176424000Y-100046000D03*
%TO.P,D-SOL1,23*%
%TO.N,GND_GDK_giris*%
X178964000Y-100046000D03*
%TO.P,D-SOL1,22*%
%TO.N,TIM3_CH3*%
X176424000Y-97506000D03*
%TO.P,D-SOL1,21*%
%TO.N,TIM3_CH4*%
X178964000Y-97506000D03*
%TO.P,D-SOL1,20*%
%TO.N,Net-(D-SOL1-Pad20)*%
X176424000Y-94966000D03*
%TO.P,D-SOL1,19*%
%TO.N,Net-(D-SOL1-Pad19)*%
X178964000Y-94966000D03*
%TO.P,D-SOL1,18*%
%TO.N,TIM3_CH1*%
X176424000Y-92426000D03*
%TO.P,D-SOL1,17*%
%TO.N,TIM3_CH2*%
X178964000Y-92426000D03*
%TO.P,D-SOL1,16*%
%TO.N,Net-(D-SOL1-Pad16)*%
X176424000Y-89886000D03*
%TO.P,D-SOL1,15*%
%TO.N,Net-(D-SOL1-Pad15)*%
X178964000Y-89886000D03*
%TO.P,D-SOL1,14*%
%TO.N,Net-(D-SOL1-Pad14)*%
X176424000Y-87346000D03*
%TO.P,D-SOL1,13*%
%TO.N,Net-(D-SOL1-Pad13)*%
X178964000Y-87346000D03*
%TO.P,D-SOL1,12*%
%TO.N,UART4_TX*%
X176424000Y-84806000D03*
%TO.P,D-SOL1,11*%
%TO.N,UART4_RX*%
X178964000Y-84806000D03*
%TO.P,D-SOL1,10*%
%TO.N,Net-(D-SOL1-Pad10)*%
X176424000Y-82266000D03*
%TO.P,D-SOL1,9*%
%TO.N,Net-(D-SOL1-Pad9)*%
X178964000Y-82266000D03*
%TO.P,D-SOL1,8*%
%TO.N,Net-(D-SOL1-Pad8)*%
X176424000Y-79726000D03*
%TO.P,D-SOL1,7*%
%TO.N,Net-(D-SOL1-Pad7)*%
X178964000Y-79726000D03*
%TO.P,D-SOL1,6*%
%TO.N,Net-(D-SOL1-Pad6)*%
X176424000Y-77186000D03*
%TO.P,D-SOL1,5*%
%TO.N,GND_GDK_giris*%
X178964000Y-77186000D03*
%TO.P,D-SOL1,4*%
%TO.N,Net-(D-SOL1-Pad4)*%
X176424000Y-74646000D03*
%TO.P,D-SOL1,3*%
%TO.N,Net-(D-SOL1-Pad3)*%
X178964000Y-74646000D03*
%TO.P,D-SOL1,2*%
%TO.N,GND_GDK_giris*%
X176424000Y-72106000D03*
D15*
%TO.P,D-SOL1,1*%
X178964000Y-72106000D03*
%TD*%
D10*
%TO.P,M300,4*%
%TO.N,GND_GDK_giris*%
X247142000Y-128214000D03*
%TO.P,M300,3*%
%TO.N,I2C3_SDA*%
X247142000Y-125714000D03*
%TO.P,M300,2*%
%TO.N,I2C3_SCL*%
X247142000Y-123214000D03*
%TO.P,M300,1*%
%TO.N,+5V_GDK_giris*%
%TA.AperFunction,ComponentPad*%
G36*
G01*
X246417000Y-119864000D02*
X247867000Y-119864000D01*
G75*
G02*
X248117000Y-120114000I0J-250000D01*
G01*
X248117000Y-121314000D01*
G75*
G02*
X247867000Y-121564000I-250000J0D01*
G01*
X246417000Y-121564000D01*
G75*
G02*
X246167000Y-121314000I0J250000D01*
G01*
X246167000Y-120114000D01*
G75*
G02*
X246417000Y-119864000I250000J0D01*
G01*
G37*
%TD.AperFunction*%
%TD*%
%TO.P,A02YYUW-3,4*%
%TO.N,UART4_TX*%
X247000000Y-72500000D03*
%TO.P,A02YYUW-3,3*%
%TO.N,UART4_RX*%
X247000000Y-70000000D03*
%TO.P,A02YYUW-3,2*%
%TO.N,GND_GDK_giris*%
X247000000Y-67500000D03*
%TO.P,A02YYUW-3,1*%
%TO.N,+5V_GDK_giris*%
%TA.AperFunction,ComponentPad*%
G36*
G01*
X246275000Y-64150000D02*
X247725000Y-64150000D01*
G75*
G02*
X247975000Y-64400000I0J-250000D01*
G01*
X247975000Y-65600000D01*
G75*
G02*
X247725000Y-65850000I-250000J0D01*
G01*
X246275000Y-65850000D01*
G75*
G02*
X246025000Y-65600000I0J250000D01*
G01*
X246025000Y-64400000D01*
G75*
G02*
X246275000Y-64150000I250000J0D01*
G01*
G37*
%TD.AperFunction*%
%TD*%
D11*
%TO.P,L_V1,3*%
%TO.N,TIM4_CH3*%
X198766000Y-138754000D03*
%TO.P,L_V1,2*%
%TO.N,+5V_GDK_giris*%
X201266000Y-138754000D03*
%TO.P,L_V1,1*%
%TO.N,GND_GDK_giris*%
%TA.AperFunction,ComponentPad*%
G36*
G01*
X204616000Y-138029000D02*
X204616000Y-139479000D01*
G75*
G02*
X204366000Y-139729000I-250000J0D01*
G01*
X203166000Y-139729000D01*
G75*
G02*
X202916000Y-139479000I0J250000D01*
G01*
X202916000Y-138029000D01*
G75*
G02*
X203166000Y-137779000I250000J0D01*
G01*
X204366000Y-137779000D01*
G75*
G02*
X204616000Y-138029000I0J-250000D01*
G01*
G37*
%TD.AperFunction*%
%TD*%
D10*
%TO.P,A02YYUW-2,4*%
%TO.N,USART3_TX*%
X247000000Y-114500000D03*
%TO.P,A02YYUW-2,3*%
%TO.N,USART3_RX*%
X247000000Y-112000000D03*
%TO.P,A02YYUW-2,2*%
%TO.N,GND_GDK_giris*%
X247000000Y-109500000D03*
%TO.P,A02YYUW-2,1*%
%TO.N,+5V_GDK_giris*%
%TA.AperFunction,ComponentPad*%
G36*
G01*
X246275000Y-106150000D02*
X247725000Y-106150000D01*
G75*
G02*
X247975000Y-106400000I0J-250000D01*
G01*
X247975000Y-107600000D01*
G75*
G02*
X247725000Y-107850000I-250000J0D01*
G01*
X246275000Y-107850000D01*
G75*
G02*
X246025000Y-107600000I0J250000D01*
G01*
X246025000Y-106400000D01*
G75*
G02*
X246275000Y-106150000I250000J0D01*
G01*
G37*
%TD.AperFunction*%
%TD*%
%TO.P,A02YYUW-1,4*%
%TO.N,USART2_TX*%
X247000000Y-86500000D03*
%TO.P,A02YYUW-1,3*%
%TO.N,USART2_RX*%
X247000000Y-84000000D03*
%TO.P,A02YYUW-1,2*%
%TO.N,GND_GDK_giris*%
X247000000Y-81500000D03*
%TO.P,A02YYUW-1,1*%
%TO.N,+5V_GDK_giris*%
%TA.AperFunction,ComponentPad*%
G36*
G01*
X246275000Y-78150000D02*
X247725000Y-78150000D01*
G75*
G02*
X247975000Y-78400000I0J-250000D01*
G01*
X247975000Y-79600000D01*
G75*
G02*
X247725000Y-79850000I-250000J0D01*
G01*
X246275000Y-79850000D01*
G75*
G02*
X246025000Y-79600000I0J250000D01*
G01*
X246025000Y-78400000D01*
G75*
G02*
X246275000Y-78150000I250000J0D01*
G01*
G37*
%TD.AperFunction*%
%TD*%
D11*
%TO.P,L_F1,3*%
%TO.N,TIM4_CH2*%
X210138000Y-138754000D03*
%TO.P,L_F1,2*%
%TO.N,+5V_GDK_giris*%
X212638000Y-138754000D03*
%TO.P,L_F1,1*%
%TO.N,GND_GDK_giris*%
%TA.AperFunction,ComponentPad*%
G36*
G01*
X215988000Y-138029000D02*
X215988000Y-139479000D01*
G75*
G02*
X215738000Y-139729000I-250000J0D01*
G01*
X214538000Y-139729000D01*
G75*
G02*
X214288000Y-139479000I0J250000D01*
G01*
X214288000Y-138029000D01*
G75*
G02*
X214538000Y-137779000I250000J0D01*
G01*
X215738000Y-137779000D01*
G75*
G02*
X215988000Y-138029000I0J-250000D01*
G01*
G37*
%TD.AperFunction*%
%TD*%
%TO.P,R_F1,3*%
%TO.N,TIM4_CH1*%
X221822000Y-138684000D03*
%TO.P,R_F1,2*%
%TO.N,+5V_GDK_giris*%
X224322000Y-138684000D03*
%TO.P,R_F1,1*%
%TO.N,GND_GDK_giris*%
%TA.AperFunction,ComponentPad*%
G36*
G01*
X227672000Y-137959000D02*
X227672000Y-139409000D01*
G75*
G02*
X227422000Y-139659000I-250000J0D01*
G01*
X226222000Y-139659000D01*
G75*
G02*
X225972000Y-139409000I0J250000D01*
G01*
X225972000Y-137959000D01*
G75*
G02*
X226222000Y-137709000I250000J0D01*
G01*
X227422000Y-137709000D01*
G75*
G02*
X227672000Y-137959000I0J-250000D01*
G01*
G37*
%TD.AperFunction*%
%TD*%
%TO.P,R_V1,3*%
%TO.N,TIM3_CH4*%
X233056000Y-138754000D03*
%TO.P,R_V1,2*%
%TO.N,+5V_GDK_giris*%
X235556000Y-138754000D03*
%TO.P,R_V1,1*%
%TO.N,GND_GDK_giris*%
%TA.AperFunction,ComponentPad*%
G36*
G01*
X238906000Y-138029000D02*
X238906000Y-139479000D01*
G75*
G02*
X238656000Y-139729000I-250000J0D01*
G01*
X237456000Y-139729000D01*
G75*
G02*
X237206000Y-139479000I0J250000D01*
G01*
X237206000Y-138029000D01*
G75*
G02*
X237456000Y-137779000I250000J0D01*
G01*
X238656000Y-137779000D01*
G75*
G02*
X238906000Y-138029000I0J-250000D01*
G01*
G37*
%TD.AperFunction*%
%TD*%
%TO.P,R_B1,3*%
%TO.N,TIM3_CH3*%
X244428000Y-138684000D03*
%TO.P,R_B1,2*%
%TO.N,+5V_GDK_giris*%
X246928000Y-138684000D03*
%TO.P,R_B1,1*%
%TO.N,GND_GDK_giris*%
%TA.AperFunction,ComponentPad*%
G36*
G01*
X250278000Y-137959000D02*
X250278000Y-139409000D01*
G75*
G02*
X250028000Y-139659000I-250000J0D01*
G01*
X248828000Y-139659000D01*
G75*
G02*
X248578000Y-139409000I0J250000D01*
G01*
X248578000Y-137959000D01*
G75*
G02*
X248828000Y-137709000I250000J0D01*
G01*
X250028000Y-137709000D01*
G75*
G02*
X250278000Y-137959000I0J-250000D01*
G01*
G37*
%TD.AperFunction*%
%TD*%
%TO.P,OPS-I2C1,1*%
%TO.N,+5V_GDK_giris*%
%TA.AperFunction,ComponentPad*%
G36*
G01*
X239725000Y-97850000D02*
X238275000Y-97850000D01*
G75*
G02*
X238025000Y-97600000I0J250000D01*
G01*
X238025000Y-96400000D01*
G75*
G02*
X238275000Y-96150000I250000J0D01*
G01*
X239725000Y-96150000D01*
G75*
G02*
X239975000Y-96400000I0J-250000D01*
G01*
X239975000Y-97600000D01*
G75*
G02*
X239725000Y-97850000I-250000J0D01*
G01*
G37*
%TD.AperFunction*%
D10*
%TO.P,OPS-I2C1,2*%
%TO.N,I2C1_SCL*%
X239000000Y-94500000D03*
%TO.P,OPS-I2C1,3*%
%TO.N,I2C1_SDA*%
X239000000Y-92000000D03*
%TO.P,OPS-I2C1,4*%
%TO.N,GND_GDK_giris*%
X239000000Y-89500000D03*
%TD*%
%TO.P,OP_MOT_1,3*%
%TO.N,TIM3_CH1*%
X239000000Y-66000000D03*
%TO.P,OP_MOT_1,2*%
%TO.N,+5V_GDK_giris*%
X239000000Y-68500000D03*
%TO.P,OP_MOT_1,1*%
%TO.N,GND_GDK_giris*%
%TA.AperFunction,ComponentPad*%
G36*
G01*
X239725000Y-71850000D02*
X238275000Y-71850000D01*
G75*
G02*
X238025000Y-71600000I0J250000D01*
G01*
X238025000Y-70400000D01*
G75*
G02*
X238275000Y-70150000I250000J0D01*
G01*
X239725000Y-70150000D01*
G75*
G02*
X239975000Y-70400000I0J-250000D01*
G01*
X239975000Y-71600000D01*
G75*
G02*
X239725000Y-71850000I-250000J0D01*
G01*
G37*
%TD.AperFunction*%
%TD*%
D15*
%TO.P,TTL1,1*%
%TO.N,Net-(TTL1-Pad1)*%
X241000000Y-127000000D03*
D14*
%TO.P,TTL1,2*%
%TO.N,USART1_TX*%
X241000000Y-124460000D03*
%TO.P,TTL1,3*%
%TO.N,USART1_RX*%
X241000000Y-121920000D03*
%TO.P,TTL1,4*%
%TO.N,Net-(TTL1-Pad4)*%
X241000000Y-119380000D03*
%TD*%
D15*
%TO.P,MPU1,1*%
%TO.N,+5V_GDK_giris*%
X221700000Y-105000000D03*
D14*
%TO.P,MPU1,2*%
%TO.N,GND_GDK_giris*%
X219160000Y-105000000D03*
%TO.P,MPU1,3*%
%TO.N,I2C2_SCL*%
X216620000Y-105000000D03*
%TO.P,MPU1,4*%
%TO.N,I2C2_SDA*%
X214080000Y-105000000D03*
%TO.P,MPU1,5*%
X211540000Y-105000000D03*
%TO.P,MPU1,6*%
%TO.N,I2C2_SCL*%
X209000000Y-105000000D03*
%TO.P,MPU1,7*%
%TO.N,GND_GDK_giris*%
X206460000Y-105000000D03*
%TO.P,MPU1,8*%
%TO.N,+5V_GDK_giris*%
X203920000Y-105000000D03*
%TD*%
D16*
%TO.N,GND_GDK_giris*%
X190000000Y-80000000D03*
X190000000Y-90000000D03*
X190000000Y-100000000D03*
X200000000Y-110000000D03*
X190000000Y-110000000D03*
X200000000Y-100000000D03*
X200000000Y-90000000D03*
X200000000Y-80000000D03*
X210000000Y-80000000D03*
X210000000Y-90000000D03*
X238000000Y-116000000D03*
%TD*%
D17*
%TO.N,I2C1_SDA*%
X230049001Y-98950999D02*
X228359001Y-98950999D01*
X228359001Y-98950999D02*
X227184000Y-100126000D01*
X237000000Y-92000000D02*
X230049001Y-98950999D01*
X239000000Y-92000000D02*
X237000000Y-92000000D01*
%TO.N,I2C1_SCL*%
X235350000Y-94500000D02*
X229724000Y-100126000D01*
X239000000Y-94500000D02*
X235350000Y-94500000D01*
%TO.N,I2C3_SDA*%
X247142000Y-125714000D02*
X245286000Y-125714000D01*
X245286000Y-125714000D02*
X242000000Y-129000000D01*
X228359001Y-129241001D02*
X227184000Y-128066000D01*
X230288001Y-129241001D02*
X228359001Y-129241001D01*
X230529002Y-129000000D02*
X230288001Y-129241001D01*
X242000000Y-129000000D02*
X230529002Y-129000000D01*
%TO.N,I2C3_SCL*%
X247142000Y-123214000D02*
X245786000Y-123214000D01*
X229833001Y-125635001D02*
X229724000Y-125526000D01*
X243364999Y-125635001D02*
X229833001Y-125635001D01*
X245786000Y-123214000D02*
X243364999Y-125635001D01*
%TO.N,TIM3_CH1*%
X239000000Y-66000000D02*
X237000000Y-66000000D01*
X237000000Y-66000000D02*
X235000000Y-68000000D01*
X230098003Y-81170999D02*
X187829001Y-81170999D01*
X235000000Y-76269002D02*
X230098003Y-81170999D01*
X235000000Y-68000000D02*
X235000000Y-76269002D01*
X177599001Y-91250999D02*
X176424000Y-92426000D01*
X177599001Y-89400999D02*
X177599001Y-91250999D01*
X178289001Y-88710999D02*
X177599001Y-89400999D01*
X180289001Y-88710999D02*
X178289001Y-88710999D01*
X187829001Y-81170999D02*
X180289001Y-88710999D01*
%TO.N,TIM3_CH2*%
X230938999Y-86061001D02*
X187061001Y-86061001D01*
X239000000Y-78000000D02*
X230938999Y-86061001D01*
X180696002Y-92426000D02*
X178964000Y-92426000D01*
X187061001Y-86061001D02*
X180696002Y-92426000D01*
%TO.N,TIM3_CH3*%
X237714999Y-131970999D02*
X244428000Y-138684000D01*
X225397999Y-131970999D02*
X237714999Y-131970999D01*
X189757999Y-96330999D02*
X225397999Y-131970999D01*
X177599001Y-96330999D02*
X189757999Y-96330999D01*
X176424000Y-97506000D02*
X177599001Y-96330999D01*
%TO.N,TIM3_CH4*%
X221000000Y-135000000D02*
X183506000Y-97506000D01*
X227298998Y-135000000D02*
X221000000Y-135000000D01*
X231052998Y-138754000D02*
X227298998Y-135000000D01*
X183506000Y-97506000D02*
X178964000Y-97506000D01*
X233056000Y-138754000D02*
X231052998Y-138754000D01*
%TO.N,USART2_TX*%
X241000000Y-102000000D02*
X235470000Y-102000000D01*
X243000000Y-100000000D02*
X241000000Y-102000000D01*
X235470000Y-102000000D02*
X229724000Y-107746000D01*
X243000000Y-88000000D02*
X243000000Y-100000000D01*
X244500000Y-86500000D02*
X243000000Y-88000000D01*
X247000000Y-86500000D02*
X244500000Y-86500000D01*
%TO.N,USART2_RX*%
X245775000Y-84000000D02*
X242000000Y-87775000D01*
X247000000Y-84000000D02*
X245775000Y-84000000D01*
X242000000Y-87775000D02*
X242000000Y-99000000D01*
X242000000Y-99000000D02*
X241000000Y-100000000D01*
X241000000Y-100000000D02*
X236000000Y-100000000D01*
X228359001Y-106570999D02*
X227184000Y-107746000D01*
X228359001Y-104831997D02*
X228359001Y-106570999D01*
X229159999Y-104030999D02*
X228359001Y-104831997D01*
X231969001Y-104030999D02*
X229159999Y-104030999D01*
X236000000Y-100000000D02*
X231969001Y-104030999D01*
%TO.N,USART3_TX*%
X233130000Y-114500000D02*
X229724000Y-117906000D01*
X247000000Y-114500000D02*
X233130000Y-114500000D01*
%TO.N,USART3_RX*%
X227906000Y-117906000D02*
X227184000Y-117906000D01*
X229081001Y-119081001D02*
X227906000Y-117906000D01*
X235918999Y-119081001D02*
X229081001Y-119081001D01*
X237000000Y-118000000D02*
X235918999Y-119081001D01*
X248000000Y-118000000D02*
X237000000Y-118000000D01*
X250000000Y-116000000D02*
X248000000Y-118000000D01*
X250000000Y-113000000D02*
X250000000Y-116000000D01*
X249000000Y-112000000D02*
X250000000Y-113000000D01*
X247000000Y-112000000D02*
X249000000Y-112000000D01*
%TO.N,UART4_TX*%
X177599001Y-79400999D02*
X177599001Y-82830001D01*
X178449001Y-78550999D02*
X177599001Y-79400999D01*
X177599001Y-82830001D02*
X177000000Y-83429002D01*
X177000000Y-83429002D02*
X177000000Y-84230000D01*
X177000000Y-84230000D02*
X176424000Y-84806000D01*
X250000000Y-64000000D02*
X249000000Y-63000000D01*
X250000000Y-69500000D02*
X250000000Y-64000000D01*
X247000000Y-72500000D02*
X250000000Y-69500000D01*
X181878003Y-78550999D02*
X178449001Y-78550999D01*
X192000000Y-68429002D02*
X181878003Y-78550999D01*
X249000000Y-63000000D02*
X197500000Y-63000000D01*
X192070998Y-68429002D02*
X197500000Y-63000000D01*
X192000000Y-68429002D02*
X192070998Y-68429002D01*
%TO.N,UART4_RX*%
X185328999Y-78441001D02*
X178964000Y-84806000D01*
X228359001Y-77830001D02*
X227748001Y-78441001D01*
X228359001Y-76701999D02*
X228359001Y-77830001D01*
X229159999Y-75901001D02*
X228359001Y-76701999D01*
X230288001Y-75901001D02*
X229159999Y-75901001D01*
X230899001Y-75290001D02*
X230288001Y-75901001D01*
X230899001Y-71464589D02*
X230899001Y-75290001D01*
X238363590Y-64000000D02*
X230899001Y-71464589D01*
X227748001Y-78441001D02*
X185328999Y-78441001D01*
X241000000Y-64000000D02*
X238363590Y-64000000D01*
X247000000Y-70000000D02*
X241000000Y-64000000D01*
%TO.N,UART5_RX*%
X228548999Y-111461001D02*
X227184000Y-112826000D01*
X230288001Y-111461001D02*
X228548999Y-111461001D01*
X230749002Y-111000000D02*
X230288001Y-111461001D01*
X242000000Y-109000000D02*
X240000000Y-111000000D01*
X240000000Y-111000000D02*
X230749002Y-111000000D01*
X242000000Y-103000000D02*
X242000000Y-109000000D01*
X247000000Y-98000000D02*
X242000000Y-103000000D01*
%TO.N,UART5_TX*%
X233090000Y-112000000D02*
X229724000Y-115366000D01*
X240000000Y-112000000D02*
X233090000Y-112000000D01*
X243000000Y-109000000D02*
X240000000Y-112000000D01*
X243000000Y-106000000D02*
X243000000Y-109000000D01*
X247000000Y-102000000D02*
X243000000Y-106000000D01*
X247000000Y-100500000D02*
X247000000Y-102000000D01*
%TO.N,USART1_TX*%
X228359001Y-124350999D02*
X227184000Y-125526000D01*
X240890999Y-124350999D02*
X228359001Y-124350999D01*
X241000000Y-124460000D02*
X240890999Y-124350999D01*
%TO.N,USART1_RX*%
X230790000Y-121920000D02*
X229724000Y-122986000D01*
X241000000Y-121920000D02*
X230790000Y-121920000D01*
%TO.N,TIM4_CH4*%
X187024000Y-138586000D02*
X187024000Y-138684000D01*
X178964000Y-130526000D02*
X187024000Y-138586000D01*
%TO.N,TIM4_CH3*%
X189362999Y-129350999D02*
X198766000Y-138754000D01*
X177788999Y-129350999D02*
X189362999Y-129350999D01*
X176424000Y-127986000D02*
X177788999Y-129350999D01*
%TO.N,TIM4_CH2*%
X199370000Y-127986000D02*
X210138000Y-138754000D01*
X178964000Y-127986000D02*
X199370000Y-127986000D01*
%TO.N,TIM4_CH1*%
X209759001Y-126621001D02*
X221822000Y-138684000D01*
X177599001Y-126621001D02*
X209759001Y-126621001D01*
X176424000Y-125446000D02*
X177599001Y-126621001D01*
%TD*%
D18*
%TO.N,GND_GDK_giris*%
X191694842Y-67730357D02*
X191575724Y-67794028D01*
X191575722Y-67794029D01*
X191575723Y-67794029D01*
X191488996Y-67865203D01*
X191488992Y-67865207D01*
X191459999Y-67889001D01*
X191436205Y-67917994D01*
X181563202Y-77790999D01*
X180312765Y-77790999D01*
X180360825Y-77690099D01*
X180405476Y-77542890D01*
X180284155Y-77313000D01*
X179091000Y-77313000D01*
X179091000Y-77333000D01*
X178837000Y-77333000D01*
X178837000Y-77313000D01*
X178817000Y-77313000D01*
X178817000Y-77059000D01*
X178837000Y-77059000D01*
X178837000Y-77039000D01*
X179091000Y-77039000D01*
X179091000Y-77059000D01*
X180284155Y-77059000D01*
X180405476Y-76829110D01*
X180360825Y-76681901D01*
X180235641Y-76419080D01*
X180061588Y-76185731D01*
X179845355Y-75990822D01*
X179728466Y-75921195D01*
X179910632Y-75799475D01*
X180117475Y-75592632D01*
X180279990Y-75349411D01*
X180391932Y-75079158D01*
X180449000Y-74792260D01*
X180449000Y-74499740D01*
X180391932Y-74212842D01*
X180279990Y-73942589D01*
X180117475Y-73699368D01*
X179985620Y-73567513D01*
X180058180Y-73545502D01*
X180168494Y-73486537D01*
X180265185Y-73407185D01*
X180344537Y-73310494D01*
X180403502Y-73200180D01*
X180439812Y-73080482D01*
X180452072Y-72956000D01*
X180449000Y-72391750D01*
X180290250Y-72233000D01*
X179091000Y-72233000D01*
X179091000Y-72253000D01*
X178837000Y-72253000D01*
X178837000Y-72233000D01*
X176551000Y-72233000D01*
X176551000Y-72253000D01*
X176297000Y-72253000D01*
X176297000Y-72233000D01*
X175103845Y-72233000D01*
X174982524Y-72462890D01*
X175027175Y-72610099D01*
X175152359Y-72872920D01*
X175326412Y-73106269D01*
X175542645Y-73301178D01*
X175659534Y-73370805D01*
X175477368Y-73492525D01*
X175270525Y-73699368D01*
X175108010Y-73942589D01*
X174996068Y-74212842D01*
X174939000Y-74499740D01*
X174939000Y-74792260D01*
X174996068Y-75079158D01*
X175108010Y-75349411D01*
X175270525Y-75592632D01*
X175477368Y-75799475D01*
X175651760Y-75916000D01*
X175477368Y-76032525D01*
X175270525Y-76239368D01*
X175108010Y-76482589D01*
X174996068Y-76752842D01*
X174939000Y-77039740D01*
X174939000Y-77332260D01*
X174996068Y-77619158D01*
X175108010Y-77889411D01*
X175270525Y-78132632D01*
X175477368Y-78339475D01*
X175651760Y-78456000D01*
X175477368Y-78572525D01*
X175270525Y-78779368D01*
X175108010Y-79022589D01*
X174996068Y-79292842D01*
X174939000Y-79579740D01*
X174939000Y-79872260D01*
X174996068Y-80159158D01*
X175108010Y-80429411D01*
X175270525Y-80672632D01*
X175477368Y-80879475D01*
X175651760Y-80996000D01*
X175477368Y-81112525D01*
X175270525Y-81319368D01*
X175108010Y-81562589D01*
X174996068Y-81832842D01*
X174939000Y-82119740D01*
X174939000Y-82412260D01*
X174996068Y-82699158D01*
X175108010Y-82969411D01*
X175270525Y-83212632D01*
X175477368Y-83419475D01*
X175651760Y-83536000D01*
X175477368Y-83652525D01*
X175270525Y-83859368D01*
X175108010Y-84102589D01*
X174996068Y-84372842D01*
X174939000Y-84659740D01*
X174939000Y-84952260D01*
X174996068Y-85239158D01*
X175108010Y-85509411D01*
X175270525Y-85752632D01*
X175477368Y-85959475D01*
X175651760Y-86076000D01*
X175477368Y-86192525D01*
X175270525Y-86399368D01*
X175108010Y-86642589D01*
X174996068Y-86912842D01*
X174939000Y-87199740D01*
X174939000Y-87492260D01*
X174996068Y-87779158D01*
X175108010Y-88049411D01*
X175270525Y-88292632D01*
X175477368Y-88499475D01*
X175651760Y-88616000D01*
X175477368Y-88732525D01*
X175270525Y-88939368D01*
X175108010Y-89182589D01*
X174996068Y-89452842D01*
X174939000Y-89739740D01*
X174939000Y-90032260D01*
X174996068Y-90319158D01*
X175108010Y-90589411D01*
X175270525Y-90832632D01*
X175477368Y-91039475D01*
X175651760Y-91156000D01*
X175477368Y-91272525D01*
X175270525Y-91479368D01*
X175108010Y-91722589D01*
X174996068Y-91992842D01*
X174939000Y-92279740D01*
X174939000Y-92572260D01*
X174996068Y-92859158D01*
X175108010Y-93129411D01*
X175270525Y-93372632D01*
X175477368Y-93579475D01*
X175651760Y-93696000D01*
X175477368Y-93812525D01*
X175270525Y-94019368D01*
X175108010Y-94262589D01*
X174996068Y-94532842D01*
X174939000Y-94819740D01*
X174939000Y-95112260D01*
X174996068Y-95399158D01*
X175108010Y-95669411D01*
X175270525Y-95912632D01*
X175477368Y-96119475D01*
X175651760Y-96236000D01*
X175477368Y-96352525D01*
X175270525Y-96559368D01*
X175108010Y-96802589D01*
X174996068Y-97072842D01*
X174939000Y-97359740D01*
X174939000Y-97652260D01*
X174996068Y-97939158D01*
X175108010Y-98209411D01*
X175270525Y-98452632D01*
X175477368Y-98659475D01*
X175651760Y-98776000D01*
X175477368Y-98892525D01*
X175270525Y-99099368D01*
X175108010Y-99342589D01*
X174996068Y-99612842D01*
X174939000Y-99899740D01*
X174939000Y-100192260D01*
X174996068Y-100479158D01*
X175108010Y-100749411D01*
X175270525Y-100992632D01*
X175477368Y-101199475D01*
X175651760Y-101316000D01*
X175477368Y-101432525D01*
X175270525Y-101639368D01*
X175108010Y-101882589D01*
X174996068Y-102152842D01*
X174939000Y-102439740D01*
X174939000Y-102732260D01*
X174996068Y-103019158D01*
X175108010Y-103289411D01*
X175270525Y-103532632D01*
X175477368Y-103739475D01*
X175651760Y-103856000D01*
X175477368Y-103972525D01*
X175270525Y-104179368D01*
X175108010Y-104422589D01*
X174996068Y-104692842D01*
X174939000Y-104979740D01*
X174939000Y-105272260D01*
X174996068Y-105559158D01*
X175108010Y-105829411D01*
X175270525Y-106072632D01*
X175477368Y-106279475D01*
X175651760Y-106396000D01*
X175477368Y-106512525D01*
X175270525Y-106719368D01*
X175108010Y-106962589D01*
X174996068Y-107232842D01*
X174939000Y-107519740D01*
X174939000Y-107812260D01*
X174996068Y-108099158D01*
X175108010Y-108369411D01*
X175270525Y-108612632D01*
X175477368Y-108819475D01*
X175651760Y-108936000D01*
X175477368Y-109052525D01*
X175270525Y-109259368D01*
X175108010Y-109502589D01*
X174996068Y-109772842D01*
X174939000Y-110059740D01*
X174939000Y-110352260D01*
X174996068Y-110639158D01*
X175108010Y-110909411D01*
X175270525Y-111152632D01*
X175477368Y-111359475D01*
X175651760Y-111476000D01*
X175477368Y-111592525D01*
X175270525Y-111799368D01*
X175108010Y-112042589D01*
X174996068Y-112312842D01*
X174939000Y-112599740D01*
X174939000Y-112892260D01*
X174996068Y-113179158D01*
X175108010Y-113449411D01*
X175270525Y-113692632D01*
X175477368Y-113899475D01*
X175651760Y-114016000D01*
X175477368Y-114132525D01*
X175270525Y-114339368D01*
X175108010Y-114582589D01*
X174996068Y-114852842D01*
X174939000Y-115139740D01*
X174939000Y-115432260D01*
X174996068Y-115719158D01*
X175108010Y-115989411D01*
X175270525Y-116232632D01*
X175477368Y-116439475D01*
X175651760Y-116556000D01*
X175477368Y-116672525D01*
X175270525Y-116879368D01*
X175108010Y-117122589D01*
X174996068Y-117392842D01*
X174939000Y-117679740D01*
X174939000Y-117972260D01*
X174996068Y-118259158D01*
X175108010Y-118529411D01*
X175270525Y-118772632D01*
X175477368Y-118979475D01*
X175651760Y-119096000D01*
X175477368Y-119212525D01*
X175270525Y-119419368D01*
X175108010Y-119662589D01*
X174996068Y-119932842D01*
X174939000Y-120219740D01*
X174939000Y-120512260D01*
X174996068Y-120799158D01*
X175108010Y-121069411D01*
X175270525Y-121312632D01*
X175477368Y-121519475D01*
X175651760Y-121636000D01*
X175477368Y-121752525D01*
X175270525Y-121959368D01*
X175108010Y-122202589D01*
X174996068Y-122472842D01*
X174939000Y-122759740D01*
X174939000Y-123052260D01*
X174996068Y-123339158D01*
X175108010Y-123609411D01*
X175270525Y-123852632D01*
X175477368Y-124059475D01*
X175651760Y-124176000D01*
X175477368Y-124292525D01*
X175270525Y-124499368D01*
X175108010Y-124742589D01*
X174996068Y-125012842D01*
X174939000Y-125299740D01*
X174939000Y-125592260D01*
X174996068Y-125879158D01*
X175108010Y-126149411D01*
X175270525Y-126392632D01*
X175477368Y-126599475D01*
X175651760Y-126716000D01*
X175477368Y-126832525D01*
X175270525Y-127039368D01*
X175108010Y-127282589D01*
X174996068Y-127552842D01*
X174939000Y-127839740D01*
X174939000Y-128132260D01*
X174996068Y-128419158D01*
X175108010Y-128689411D01*
X175270525Y-128932632D01*
X175477368Y-129139475D01*
X175651760Y-129256000D01*
X175477368Y-129372525D01*
X175270525Y-129579368D01*
X175108010Y-129822589D01*
X174996068Y-130092842D01*
X174939000Y-130379740D01*
X174939000Y-130672260D01*
X174996068Y-130959158D01*
X175108010Y-131229411D01*
X175270525Y-131472632D01*
X175477368Y-131679475D01*
X175659534Y-131801195D01*
X175542645Y-131870822D01*
X175326412Y-132065731D01*
X175152359Y-132299080D01*
X175027175Y-132561901D01*
X174982524Y-132709110D01*
X175103845Y-132939000D01*
X176297000Y-132939000D01*
X176297000Y-132919000D01*
X176551000Y-132919000D01*
X176551000Y-132939000D01*
X178837000Y-132939000D01*
X178837000Y-132919000D01*
X179091000Y-132919000D01*
X179091000Y-132939000D01*
X179111000Y-132939000D01*
X179111000Y-133193000D01*
X179091000Y-133193000D01*
X179091000Y-134386814D01*
X179320891Y-134507481D01*
X179595252Y-134410157D01*
X179845355Y-134261178D01*
X180061588Y-134066269D01*
X180235641Y-133832920D01*
X180360825Y-133570099D01*
X180405476Y-133422890D01*
X180284156Y-133193002D01*
X180449000Y-133193002D01*
X180449000Y-133085801D01*
X185576919Y-138213721D01*
X185560487Y-138267889D01*
X185539000Y-138486050D01*
X185539000Y-138881949D01*
X185560487Y-139100110D01*
X185645401Y-139380033D01*
X185783294Y-139638013D01*
X185968866Y-139864134D01*
X186194986Y-140049706D01*
X186452966Y-140187599D01*
X186732889Y-140272513D01*
X187024000Y-140301185D01*
X187315110Y-140272513D01*
X187595033Y-140187599D01*
X187853013Y-140049706D01*
X188079134Y-139864134D01*
X188264706Y-139638014D01*
X188274000Y-139620626D01*
X188283294Y-139638013D01*
X188468866Y-139864134D01*
X188694986Y-140049706D01*
X188952966Y-140187599D01*
X189232889Y-140272513D01*
X189524000Y-140301185D01*
X189815110Y-140272513D01*
X190095033Y-140187599D01*
X190353013Y-140049706D01*
X190573945Y-139868392D01*
X190584498Y-139903180D01*
X190643463Y-140013494D01*
X190722815Y-140110185D01*
X190819506Y-140189537D01*
X190929820Y-140248502D01*
X191049518Y-140284812D01*
X191174000Y-140297072D01*
X191738250Y-140294000D01*
X191897000Y-140135250D01*
X191897000Y-138811000D01*
X192151000Y-138811000D01*
X192151000Y-140135250D01*
X192309750Y-140294000D01*
X192874000Y-140297072D01*
X192998482Y-140284812D01*
X193118180Y-140248502D01*
X193228494Y-140189537D01*
X193325185Y-140110185D01*
X193404537Y-140013494D01*
X193463502Y-139903180D01*
X193499812Y-139783482D01*
X193512072Y-139659000D01*
X193509000Y-138969750D01*
X193350250Y-138811000D01*
X192151000Y-138811000D01*
X191897000Y-138811000D01*
X191877000Y-138811000D01*
X191877000Y-138557000D01*
X191897000Y-138557000D01*
X191897000Y-137232750D01*
X192151000Y-137232750D01*
X192151000Y-138557000D01*
X193350250Y-138557000D01*
X193509000Y-138398250D01*
X193512072Y-137709000D01*
X193499812Y-137584518D01*
X193463502Y-137464820D01*
X193404537Y-137354506D01*
X193325185Y-137257815D01*
X193228494Y-137178463D01*
X193118180Y-137119498D01*
X192998482Y-137083188D01*
X192874000Y-137070928D01*
X192309750Y-137074000D01*
X192151000Y-137232750D01*
X191897000Y-137232750D01*
X191738250Y-137074000D01*
X191174000Y-137070928D01*
X191049518Y-137083188D01*
X190929820Y-137119498D01*
X190819506Y-137178463D01*
X190722815Y-137257815D01*
X190643463Y-137354506D01*
X190584498Y-137464820D01*
X190573945Y-137499608D01*
X190353014Y-137318294D01*
X190095034Y-137180401D01*
X189815111Y-137095487D01*
X189524000Y-137066815D01*
X189232890Y-137095487D01*
X188952967Y-137180401D01*
X188694987Y-137318294D01*
X188468866Y-137503866D01*
X188283294Y-137729986D01*
X188274000Y-137747374D01*
X188264706Y-137729986D01*
X188079134Y-137503866D01*
X187853014Y-137318294D01*
X187595034Y-137180401D01*
X187315111Y-137095487D01*
X187024000Y-137066815D01*
X186732890Y-137095487D01*
X186637289Y-137124487D01*
X180405209Y-130892408D01*
X180449000Y-130672260D01*
X180449000Y-130379740D01*
X180395544Y-130110999D01*
X189048198Y-130110999D01*
X197300030Y-138362832D01*
X197281000Y-138556050D01*
X197281000Y-138951949D01*
X197302487Y-139170110D01*
X197387401Y-139450033D01*
X197525294Y-139708013D01*
X197710866Y-139934134D01*
X197936986Y-140119706D01*
X198194966Y-140257599D01*
X198474889Y-140342513D01*
X198766000Y-140371185D01*
X199057110Y-140342513D01*
X199337033Y-140257599D01*
X199595013Y-140119706D01*
X199821134Y-139934134D01*
X200006706Y-139708014D01*
X200016000Y-139690626D01*
X200025294Y-139708013D01*
X200210866Y-139934134D01*
X200436986Y-140119706D01*
X200694966Y-140257599D01*
X200974889Y-140342513D01*
X201266000Y-140371185D01*
X201557110Y-140342513D01*
X201837033Y-140257599D01*
X202095013Y-140119706D01*
X202315945Y-139938392D01*
X202326498Y-139973180D01*
X202385463Y-140083494D01*
X202464815Y-140180185D01*
X202561506Y-140259537D01*
X202671820Y-140318502D01*
X202791518Y-140354812D01*
X202916000Y-140367072D01*
X203480250Y-140364000D01*
X203639000Y-140205250D01*
X203639000Y-138881000D01*
X203893000Y-138881000D01*
X203893000Y-140205250D01*
X204051750Y-140364000D01*
X204616000Y-140367072D01*
X204740482Y-140354812D01*
X204860180Y-140318502D01*
X204970494Y-140259537D01*
X205067185Y-140180185D01*
X205146537Y-140083494D01*
X205205502Y-139973180D01*
X205241812Y-139853482D01*
X205254072Y-139729000D01*
X205251000Y-139039750D01*
X205092250Y-138881000D01*
X203893000Y-138881000D01*
X203639000Y-138881000D01*
X203619000Y-138881000D01*
X203619000Y-138627000D01*
X203639000Y-138627000D01*
X203639000Y-137302750D01*
X203893000Y-137302750D01*
X203893000Y-138627000D01*
X205092250Y-138627000D01*
X205251000Y-138468250D01*
X205254072Y-137779000D01*
X205241812Y-137654518D01*
X205205502Y-137534820D01*
X205146537Y-137424506D01*
X205067185Y-137327815D01*
X204970494Y-137248463D01*
X204860180Y-137189498D01*
X204740482Y-137153188D01*
X204616000Y-137140928D01*
X204051750Y-137144000D01*
X203893000Y-137302750D01*
X203639000Y-137302750D01*
X203480250Y-137144000D01*
X202916000Y-137140928D01*
X202791518Y-137153188D01*
X202671820Y-137189498D01*
X202561506Y-137248463D01*
X202464815Y-137327815D01*
X202385463Y-137424506D01*
X202326498Y-137534820D01*
X202315945Y-137569608D01*
X202095014Y-137388294D01*
X201837034Y-137250401D01*
X201557111Y-137165487D01*
X201266000Y-137136815D01*
X200974890Y-137165487D01*
X200694967Y-137250401D01*
X200436987Y-137388294D01*
X200210866Y-137573866D01*
X200025294Y-137799986D01*
X200016000Y-137817374D01*
X200006706Y-137799986D01*
X199821134Y-137573866D01*
X199595014Y-137388294D01*
X199337034Y-137250401D01*
X199057111Y-137165487D01*
X198766000Y-137136815D01*
X198474890Y-137165487D01*
X198304098Y-137217296D01*
X189926803Y-128840002D01*
X189903000Y-128810998D01*
X189823800Y-128746000D01*
X199055199Y-128746000D01*
X208672030Y-138362832D01*
X208653000Y-138556050D01*
X208653000Y-138951949D01*
X208674487Y-139170110D01*
X208759401Y-139450033D01*
X208897294Y-139708013D01*
X209082866Y-139934134D01*
X209308986Y-140119706D01*
X209566966Y-140257599D01*
X209846889Y-140342513D01*
X210138000Y-140371185D01*
X210429110Y-140342513D01*
X210709033Y-140257599D01*
X210967013Y-140119706D01*
X211193134Y-139934134D01*
X211378706Y-139708014D01*
X211388000Y-139690626D01*
X211397294Y-139708013D01*
X211582866Y-139934134D01*
X211808986Y-140119706D01*
X212066966Y-140257599D01*
X212346889Y-140342513D01*
X212638000Y-140371185D01*
X212929110Y-140342513D01*
X213209033Y-140257599D01*
X213467013Y-140119706D01*
X213687945Y-139938392D01*
X213698498Y-139973180D01*
X213757463Y-140083494D01*
X213836815Y-140180185D01*
X213933506Y-140259537D01*
X214043820Y-140318502D01*
X214163518Y-140354812D01*
X214288000Y-140367072D01*
X214852250Y-140364000D01*
X215011000Y-140205250D01*
X215011000Y-138881000D01*
X215265000Y-138881000D01*
X215265000Y-140205250D01*
X215423750Y-140364000D01*
X215988000Y-140367072D01*
X216112482Y-140354812D01*
X216232180Y-140318502D01*
X216342494Y-140259537D01*
X216439185Y-140180185D01*
X216518537Y-140083494D01*
X216577502Y-139973180D01*
X216613812Y-139853482D01*
X216626072Y-139729000D01*
X216623000Y-139039750D01*
X216464250Y-138881000D01*
X215265000Y-138881000D01*
X215011000Y-138881000D01*
X214991000Y-138881000D01*
X214991000Y-138627000D01*
X215011000Y-138627000D01*
X215011000Y-137302750D01*
X215265000Y-137302750D01*
X215265000Y-138627000D01*
X216464250Y-138627000D01*
X216623000Y-138468250D01*
X216626072Y-137779000D01*
X216613812Y-137654518D01*
X216577502Y-137534820D01*
X216518537Y-137424506D01*
X216439185Y-137327815D01*
X216342494Y-137248463D01*
X216232180Y-137189498D01*
X216112482Y-137153188D01*
X215988000Y-137140928D01*
X215423750Y-137144000D01*
X215265000Y-137302750D01*
X215011000Y-137302750D01*
X214852250Y-137144000D01*
X214288000Y-137140928D01*
X214163518Y-137153188D01*
X214043820Y-137189498D01*
X213933506Y-137248463D01*
X213836815Y-137327815D01*
X213757463Y-137424506D01*
X213698498Y-137534820D01*
X213687945Y-137569608D01*
X213467014Y-137388294D01*
X213209034Y-137250401D01*
X212929111Y-137165487D01*
X212638000Y-137136815D01*
X212346890Y-137165487D01*
X212066967Y-137250401D01*
X211808987Y-137388294D01*
X211582866Y-137573866D01*
X211397294Y-137799986D01*
X211388000Y-137817374D01*
X211378706Y-137799986D01*
X211193134Y-137573866D01*
X210967014Y-137388294D01*
X210709034Y-137250401D01*
X210429111Y-137165487D01*
X210138000Y-137136815D01*
X209846890Y-137165487D01*
X209676098Y-137217296D01*
X199933804Y-127475003D01*
X199910001Y-127445999D01*
X199830801Y-127381001D01*
X209444200Y-127381001D01*
X220356030Y-138292832D01*
X220337000Y-138486050D01*
X220337000Y-138881949D01*
X220358487Y-139100110D01*
X220443401Y-139380033D01*
X220581294Y-139638013D01*
X220766866Y-139864134D01*
X220992986Y-140049706D01*
X221250966Y-140187599D01*
X221530889Y-140272513D01*
X221822000Y-140301185D01*
X222113110Y-140272513D01*
X222393033Y-140187599D01*
X222651013Y-140049706D01*
X222877134Y-139864134D01*
X223062706Y-139638014D01*
X223072000Y-139620626D01*
X223081294Y-139638013D01*
X223266866Y-139864134D01*
X223492986Y-140049706D01*
X223750966Y-140187599D01*
X224030889Y-140272513D01*
X224322000Y-140301185D01*
X224613110Y-140272513D01*
X224893033Y-140187599D01*
X225151013Y-140049706D01*
X225371945Y-139868392D01*
X225382498Y-139903180D01*
X225441463Y-140013494D01*
X225520815Y-140110185D01*
X225617506Y-140189537D01*
X225727820Y-140248502D01*
X225847518Y-140284812D01*
X225972000Y-140297072D01*
X226536250Y-140294000D01*
X226695000Y-140135250D01*
X226695000Y-138811000D01*
X226949000Y-138811000D01*
X226949000Y-140135250D01*
X227107750Y-140294000D01*
X227672000Y-140297072D01*
X227796482Y-140284812D01*
X227916180Y-140248502D01*
X228026494Y-140189537D01*
X228123185Y-140110185D01*
X228202537Y-140013494D01*
X228261502Y-139903180D01*
X228297812Y-139783482D01*
X228310072Y-139659000D01*
X228307000Y-138969750D01*
X228148250Y-138811000D01*
X226949000Y-138811000D01*
X226695000Y-138811000D01*
X226675000Y-138811000D01*
X226675000Y-138557000D01*
X226695000Y-138557000D01*
X226695000Y-137232750D01*
X226949000Y-137232750D01*
X226949000Y-138557000D01*
X228148250Y-138557000D01*
X228307000Y-138398250D01*
X228310072Y-137709000D01*
X228297812Y-137584518D01*
X228261502Y-137464820D01*
X228202537Y-137354506D01*
X228123185Y-137257815D01*
X228026494Y-137178463D01*
X227916180Y-137119498D01*
X227796482Y-137083188D01*
X227672000Y-137070928D01*
X227107750Y-137074000D01*
X226949000Y-137232750D01*
X226695000Y-137232750D01*
X226536250Y-137074000D01*
X225972000Y-137070928D01*
X225847518Y-137083188D01*
X225727820Y-137119498D01*
X225617506Y-137178463D01*
X225520815Y-137257815D01*
X225441463Y-137354506D01*
X225382498Y-137464820D01*
X225371945Y-137499608D01*
X225151014Y-137318294D01*
X224893034Y-137180401D01*
X224613111Y-137095487D01*
X224322000Y-137066815D01*
X224030890Y-137095487D01*
X223750967Y-137180401D01*
X223492987Y-137318294D01*
X223266866Y-137503866D01*
X223081294Y-137729986D01*
X223072000Y-137747374D01*
X223062706Y-137729986D01*
X222877134Y-137503866D01*
X222651014Y-137318294D01*
X222393034Y-137180401D01*
X222113111Y-137095487D01*
X221822000Y-137066815D01*
X221530890Y-137095487D01*
X221360098Y-137147296D01*
X210322805Y-126110004D01*
X210299002Y-126081000D01*
X210183277Y-125986027D01*
X210051248Y-125915455D01*
X209907987Y-125871998D01*
X209796334Y-125861001D01*
X209796323Y-125861001D01*
X209759001Y-125857325D01*
X209721679Y-125861001D01*
X180395544Y-125861001D01*
X180449000Y-125592260D01*
X180449000Y-125299740D01*
X180391932Y-125012842D01*
X180279990Y-124742589D01*
X180117475Y-124499368D01*
X179910632Y-124292525D01*
X179736240Y-124176000D01*
X179910632Y-124059475D01*
X180117475Y-123852632D01*
X180279990Y-123609411D01*
X180391932Y-123339158D01*
X180449000Y-123052260D01*
X180449000Y-122759740D01*
X180391932Y-122472842D01*
X180279990Y-122202589D01*
X180117475Y-121959368D01*
X179910632Y-121752525D01*
X179736240Y-121636000D01*
X179910632Y-121519475D01*
X180117475Y-121312632D01*
X180279990Y-121069411D01*
X180391932Y-120799158D01*
X180449000Y-120512260D01*
X180449000Y-120219740D01*
X180391932Y-119932842D01*
X180279990Y-119662589D01*
X180117475Y-119419368D01*
X179910632Y-119212525D01*
X179736240Y-119096000D01*
X179910632Y-118979475D01*
X180117475Y-118772632D01*
X180279990Y-118529411D01*
X180391932Y-118259158D01*
X180449000Y-117972260D01*
X180449000Y-117679740D01*
X180391932Y-117392842D01*
X180279990Y-117122589D01*
X180117475Y-116879368D01*
X179910632Y-116672525D01*
X179736240Y-116556000D01*
X179910632Y-116439475D01*
X180117475Y-116232632D01*
X180279990Y-115989411D01*
X180391932Y-115719158D01*
X180449000Y-115432260D01*
X180449000Y-115139740D01*
X180391932Y-114852842D01*
X180279990Y-114582589D01*
X180117475Y-114339368D01*
X179910632Y-114132525D01*
X179736240Y-114016000D01*
X179910632Y-113899475D01*
X180117475Y-113692632D01*
X180279990Y-113449411D01*
X180391932Y-113179158D01*
X180449000Y-112892260D01*
X180449000Y-112599740D01*
X180391932Y-112312842D01*
X180279990Y-112042589D01*
X180117475Y-111799368D01*
X179910632Y-111592525D01*
X179736240Y-111476000D01*
X179910632Y-111359475D01*
X180117475Y-111152632D01*
X180279990Y-110909411D01*
X180391932Y-110639158D01*
X180449000Y-110352260D01*
X180449000Y-110059740D01*
X180391932Y-109772842D01*
X180279990Y-109502589D01*
X180117475Y-109259368D01*
X179910632Y-109052525D01*
X179736240Y-108936000D01*
X179910632Y-108819475D01*
X180117475Y-108612632D01*
X180279990Y-108369411D01*
X180391932Y-108099158D01*
X180449000Y-107812260D01*
X180449000Y-107519740D01*
X180391932Y-107232842D01*
X180279990Y-106962589D01*
X180117475Y-106719368D01*
X179910632Y-106512525D01*
X179736240Y-106396000D01*
X179910632Y-106279475D01*
X180117475Y-106072632D01*
X180279990Y-105829411D01*
X180391932Y-105559158D01*
X180449000Y-105272260D01*
X180449000Y-104979740D01*
X180391932Y-104692842D01*
X180279990Y-104422589D01*
X180117475Y-104179368D01*
X179910632Y-103972525D01*
X179736240Y-103856000D01*
X179910632Y-103739475D01*
X180117475Y-103532632D01*
X180279990Y-103289411D01*
X180391932Y-103019158D01*
X180449000Y-102732260D01*
X180449000Y-102439740D01*
X180391932Y-102152842D01*
X180279990Y-101882589D01*
X180117475Y-101639368D01*
X179910632Y-101432525D01*
X179728466Y-101310805D01*
X179845355Y-101241178D01*
X180061588Y-101046269D01*
X180235641Y-100812920D01*
X180360825Y-100550099D01*
X180405476Y-100402890D01*
X180284155Y-100173000D01*
X179091000Y-100173000D01*
X179091000Y-100193000D01*
X178837000Y-100193000D01*
X178837000Y-100173000D01*
X178817000Y-100173000D01*
X178817000Y-99919000D01*
X178837000Y-99919000D01*
X178837000Y-99899000D01*
X179091000Y-99899000D01*
X179091000Y-99919000D01*
X180284155Y-99919000D01*
X180405476Y-99689110D01*
X180360825Y-99541901D01*
X180235641Y-99279080D01*
X180061588Y-99045731D01*
X179845355Y-98850822D01*
X179728466Y-98781195D01*
X179910632Y-98659475D01*
X180117475Y-98452632D01*
X180242178Y-98266000D01*
X183191199Y-98266000D01*
X220436200Y-135511002D01*
X220459999Y-135540001D01*
X220575724Y-135634974D01*
X220707753Y-135705546D01*
X220851014Y-135749003D01*
X220962667Y-135760000D01*
X220962676Y-135760000D01*
X220999999Y-135763676D01*
X221037322Y-135760000D01*
X226984197Y-135760000D01*
X230489199Y-139265003D01*
X230512997Y-139294001D01*
X230628722Y-139388974D01*
X230760751Y-139459546D01*
X230904012Y-139503003D01*
X231015665Y-139514000D01*
X231015673Y-139514000D01*
X231052998Y-139517676D01*
X231090323Y-139514000D01*
X231711592Y-139514000D01*
X231815294Y-139708013D01*
X232000866Y-139934134D01*
X232226986Y-140119706D01*
X232484966Y-140257599D01*
X232764889Y-140342513D01*
X233056000Y-140371185D01*
X233347110Y-140342513D01*
X233627033Y-140257599D01*
X233885013Y-140119706D01*
X234111134Y-139934134D01*
X234296706Y-139708014D01*
X234306000Y-139690626D01*
X234315294Y-139708013D01*
X234500866Y-139934134D01*
X234726986Y-140119706D01*
X234984966Y-140257599D01*
X235264889Y-140342513D01*
X235556000Y-140371185D01*
X235847110Y-140342513D01*
X236127033Y-140257599D01*
X236385013Y-140119706D01*
X236605945Y-139938392D01*
X236616498Y-139973180D01*
X236675463Y-140083494D01*
X236754815Y-140180185D01*
X236851506Y-140259537D01*
X236961820Y-140318502D01*
X237081518Y-140354812D01*
X237206000Y-140367072D01*
X237770250Y-140364000D01*
X237929000Y-140205250D01*
X237929000Y-138881000D01*
X238183000Y-138881000D01*
X238183000Y-140205250D01*
X238341750Y-140364000D01*
X238906000Y-140367072D01*
X239030482Y-140354812D01*
X239150180Y-140318502D01*
X239260494Y-140259537D01*
X239357185Y-140180185D01*
X239436537Y-140083494D01*
X239495502Y-139973180D01*
X239531812Y-139853482D01*
X239544072Y-139729000D01*
X239541000Y-139039750D01*
X239382250Y-138881000D01*
X238183000Y-138881000D01*
X237929000Y-138881000D01*
X237909000Y-138881000D01*
X237909000Y-138627000D01*
X237929000Y-138627000D01*
X237929000Y-137302750D01*
X238183000Y-137302750D01*
X238183000Y-138627000D01*
X239382250Y-138627000D01*
X239541000Y-138468250D01*
X239544072Y-137779000D01*
X239531812Y-137654518D01*
X239495502Y-137534820D01*
X239436537Y-137424506D01*
X239357185Y-137327815D01*
X239260494Y-137248463D01*
X239150180Y-137189498D01*
X239030482Y-137153188D01*
X238906000Y-137140928D01*
X238341750Y-137144000D01*
X238183000Y-137302750D01*
X237929000Y-137302750D01*
X237770250Y-137144000D01*
X237206000Y-137140928D01*
X237081518Y-137153188D01*
X236961820Y-137189498D01*
X236851506Y-137248463D01*
X236754815Y-137327815D01*
X236675463Y-137424506D01*
X236616498Y-137534820D01*
X236605945Y-137569608D01*
X236385014Y-137388294D01*
X236127034Y-137250401D01*
X235847111Y-137165487D01*
X235556000Y-137136815D01*
X235264890Y-137165487D01*
X234984967Y-137250401D01*
X234726987Y-137388294D01*
X234500866Y-137573866D01*
X234315294Y-137799986D01*
X234306000Y-137817374D01*
X234296706Y-137799986D01*
X234111134Y-137573866D01*
X233885014Y-137388294D01*
X233627034Y-137250401D01*
X233347111Y-137165487D01*
X233056000Y-137136815D01*
X232764890Y-137165487D01*
X232484967Y-137250401D01*
X232226987Y-137388294D01*
X232000866Y-137573866D01*
X231815294Y-137799986D01*
X231711591Y-137994000D01*
X231367800Y-137994000D01*
X227862802Y-134489003D01*
X227847825Y-134470754D01*
X228065355Y-134341178D01*
X228281588Y-134146269D01*
X228454000Y-133915120D01*
X228626412Y-134146269D01*
X228842645Y-134341178D01*
X229092748Y-134490157D01*
X229367109Y-134587481D01*
X229597000Y-134466814D01*
X229597000Y-133273000D01*
X229851000Y-133273000D01*
X229851000Y-134466814D01*
X230080891Y-134587481D01*
X230355252Y-134490157D01*
X230605355Y-134341178D01*
X230821588Y-134146269D01*
X230995641Y-133912920D01*
X231120825Y-133650099D01*
X231165476Y-133502890D01*
X231044155Y-133273000D01*
X229851000Y-133273000D01*
X229597000Y-133273000D01*
X227311000Y-133273000D01*
X227311000Y-133293000D01*
X227057000Y-133293000D01*
X227057000Y-133273000D01*
X225863845Y-133273000D01*
X225742524Y-133502890D01*
X225787175Y-133650099D01*
X225912359Y-133912920D01*
X226086412Y-134146269D01*
X226190398Y-134240000D01*
X221314802Y-134240000D01*
X184165800Y-97090999D01*
X189443198Y-97090999D01*
X224834199Y-132482001D01*
X224857998Y-132511000D01*
X224973723Y-132605973D01*
X225105752Y-132676545D01*
X225249013Y-132720002D01*
X225360666Y-132730999D01*
X225360675Y-132730999D01*
X225397998Y-132734675D01*
X225435321Y-132730999D01*
X225760150Y-132730999D01*
X225742524Y-132789110D01*
X225863845Y-133019000D01*
X227057000Y-133019000D01*
X227057000Y-132999000D01*
X227311000Y-132999000D01*
X227311000Y-133019000D01*
X229597000Y-133019000D01*
X229597000Y-132999000D01*
X229851000Y-132999000D01*
X229851000Y-133019000D01*
X231044155Y-133019000D01*
X231165476Y-132789110D01*
X231147850Y-132730999D01*
X237400198Y-132730999D01*
X242962030Y-138292832D01*
X242943000Y-138486050D01*
X242943000Y-138881949D01*
X242964487Y-139100110D01*
X243049401Y-139380033D01*
X243187294Y-139638013D01*
X243372866Y-139864134D01*
X243598986Y-140049706D01*
X243856966Y-140187599D01*
X244136889Y-140272513D01*
X244428000Y-140301185D01*
X244719110Y-140272513D01*
X244999033Y-140187599D01*
X245257013Y-140049706D01*
X245483134Y-139864134D01*
X245668706Y-139638014D01*
X245678000Y-139620626D01*
X245687294Y-139638013D01*
X245872866Y-139864134D01*
X246098986Y-140049706D01*
X246356966Y-140187599D01*
X246636889Y-140272513D01*
X246928000Y-140301185D01*
X247219110Y-140272513D01*
X247499033Y-140187599D01*
X247757013Y-140049706D01*
X247977945Y-139868392D01*
X247988498Y-139903180D01*
X248047463Y-140013494D01*
X248126815Y-140110185D01*
X248223506Y-140189537D01*
X248333820Y-140248502D01*
X248453518Y-140284812D01*
X248578000Y-140297072D01*
X249142250Y-140294000D01*
X249301000Y-140135250D01*
X249301000Y-138811000D01*
X249555000Y-138811000D01*
X249555000Y-140135250D01*
X249713750Y-140294000D01*
X250278000Y-140297072D01*
X250402482Y-140284812D01*
X250522180Y-140248502D01*
X250632494Y-140189537D01*
X250729185Y-140110185D01*
X250808537Y-140013494D01*
X250867502Y-139903180D01*
X250903812Y-139783482D01*
X250916072Y-139659000D01*
X250913000Y-138969750D01*
X250754250Y-138811000D01*
X249555000Y-138811000D01*
X249301000Y-138811000D01*
X249281000Y-138811000D01*
X249281000Y-138557000D01*
X249301000Y-138557000D01*
X249301000Y-137232750D01*
X249555000Y-137232750D01*
X249555000Y-138557000D01*
X250754250Y-138557000D01*
X250913000Y-138398250D01*
X250916072Y-137709000D01*
X250903812Y-137584518D01*
X250867502Y-137464820D01*
X250808537Y-137354506D01*
X250729185Y-137257815D01*
X250632494Y-137178463D01*
X250522180Y-137119498D01*
X250402482Y-137083188D01*
X250278000Y-137070928D01*
X249713750Y-137074000D01*
X249555000Y-137232750D01*
X249301000Y-137232750D01*
X249142250Y-137074000D01*
X248578000Y-137070928D01*
X248453518Y-137083188D01*
X248333820Y-137119498D01*
X248223506Y-137178463D01*
X248126815Y-137257815D01*
X248047463Y-137354506D01*
X247988498Y-137464820D01*
X247977945Y-137499608D01*
X247757014Y-137318294D01*
X247499034Y-137180401D01*
X247219111Y-137095487D01*
X246928000Y-137066815D01*
X246636890Y-137095487D01*
X246356967Y-137180401D01*
X246098987Y-137318294D01*
X245872866Y-137503866D01*
X245687294Y-137729986D01*
X245678000Y-137747374D01*
X245668706Y-137729986D01*
X245483134Y-137503866D01*
X245257014Y-137318294D01*
X244999034Y-137180401D01*
X244719111Y-137095487D01*
X244428000Y-137066815D01*
X244136890Y-137095487D01*
X243966098Y-137147296D01*
X239598674Y-132779872D01*
X241765000Y-132779872D01*
X241765000Y-133220128D01*
X241850890Y-133651925D01*
X242019369Y-134058669D01*
X242263962Y-134424729D01*
X242575271Y-134736038D01*
X242941331Y-134980631D01*
X243348075Y-135149110D01*
X243779872Y-135235000D01*
X244220128Y-135235000D01*
X244651925Y-135149110D01*
X245058669Y-134980631D01*
X245424729Y-134736038D01*
X245736038Y-134424729D01*
X245980631Y-134058669D01*
X246149110Y-133651925D01*
X246235000Y-133220128D01*
X246235000Y-132779872D01*
X246149110Y-132348075D01*
X245980631Y-131941331D01*
X245736038Y-131575271D01*
X245424729Y-131263962D01*
X245058669Y-131019369D01*
X244651925Y-130850890D01*
X244220128Y-130765000D01*
X243779872Y-130765000D01*
X243348075Y-130850890D01*
X242941331Y-131019369D01*
X242575271Y-131263962D01*
X242263962Y-131575271D01*
X242019369Y-131941331D01*
X241850890Y-132348075D01*
X241765000Y-132779872D01*
X239598674Y-132779872D01*
X238278803Y-131460002D01*
X238255000Y-131430998D01*
X238139275Y-131336025D01*
X238007246Y-131265453D01*
X237863985Y-131221996D01*
X237752332Y-131210999D01*
X237752321Y-131210999D01*
X237714999Y-131207323D01*
X237677677Y-131210999D01*
X231080753Y-131210999D01*
X231151932Y-131039158D01*
X231209000Y-130752260D01*
X231209000Y-130459740D01*
X231151932Y-130172842D01*
X231039990Y-129902589D01*
X230944715Y-129760000D01*
X241962678Y-129760000D01*
X242000000Y-129763676D01*
X242037322Y-129760000D01*
X242037333Y-129760000D01*
X242148986Y-129749003D01*
X242292247Y-129705546D01*
X242424276Y-129634974D01*
X242540001Y-129540001D01*
X242563804Y-129510997D01*
X243503911Y-128570890D01*
X245575524Y-128570890D01*
X245667648Y-128833858D01*
X245814504Y-129085193D01*
X246007571Y-129303049D01*
X246239430Y-129479053D01*
X246501170Y-129606442D01*
X246782733Y-129680320D01*
X247015000Y-129540165D01*
X247015000Y-128341000D01*
X247269000Y-128341000D01*
X247269000Y-129540165D01*
X247501267Y-129680320D01*
X247782830Y-129606442D01*
X248044570Y-129479053D01*
X248276429Y-129303049D01*
X248469496Y-129085193D01*
X248616352Y-128833858D01*
X248708476Y-128570890D01*
X248587155Y-128341000D01*
X247269000Y-128341000D01*
X247015000Y-128341000D01*
X245696845Y-128341000D01*
X245575524Y-128570890D01*
X243503911Y-128570890D01*
X245600802Y-126474000D01*
X245739405Y-126474000D01*
X245776294Y-126543014D01*
X245961866Y-126769134D01*
X246187986Y-126954706D01*
X246213722Y-126968462D01*
X246007571Y-127124951D01*
X245814504Y-127342807D01*
X245667648Y-127594142D01*
X245575524Y-127857110D01*
X245696845Y-128087000D01*
X247015000Y-128087000D01*
X247015000Y-128067000D01*
X247269000Y-128067000D01*
X247269000Y-128087000D01*
X248587155Y-128087000D01*
X248708476Y-127857110D01*
X248616352Y-127594142D01*
X248469496Y-127342807D01*
X248276429Y-127124951D01*
X248070278Y-126968462D01*
X248096014Y-126954706D01*
X248322134Y-126769134D01*
X248507706Y-126543014D01*
X248645599Y-126285034D01*
X248730513Y-126005111D01*
X248759185Y-125714000D01*
X248730513Y-125422889D01*
X248645599Y-125142966D01*
X248507706Y-124884986D01*
X248322134Y-124658866D01*
X248096014Y-124473294D01*
X248078626Y-124464000D01*
X248096014Y-124454706D01*
X248322134Y-124269134D01*
X248507706Y-124043014D01*
X248645599Y-123785034D01*
X248730513Y-123505111D01*
X248759185Y-123214000D01*
X248730513Y-122922889D01*
X248645599Y-122642966D01*
X248507706Y-122384986D01*
X248322134Y-122158866D01*
X248258663Y-122106777D01*
X248360386Y-122052405D01*
X248494962Y-121941962D01*
X248605405Y-121807386D01*
X248687472Y-121653850D01*
X248738008Y-121487254D01*
X248755072Y-121314000D01*
X248755072Y-120114000D01*
X248738008Y-119940746D01*
X248687472Y-119774150D01*
X248605405Y-119620614D01*
X248494962Y-119486038D01*
X248360386Y-119375595D01*
X248206850Y-119293528D01*
X248040254Y-119242992D01*
X247867000Y-119225928D01*
X246417000Y-119225928D01*
X246243746Y-119242992D01*
X246077150Y-119293528D01*
X245923614Y-119375595D01*
X245789038Y-119486038D01*
X245678595Y-119620614D01*
X245596528Y-119774150D01*
X245545992Y-119940746D01*
X245528928Y-120114000D01*
X245528928Y-121314000D01*
X245545992Y-121487254D01*
X245596528Y-121653850D01*
X245678595Y-121807386D01*
X245789038Y-121941962D01*
X245923614Y-122052405D01*
X246025337Y-122106777D01*
X245961866Y-122158866D01*
X245776294Y-122384986D01*
X245738891Y-122454963D01*
X245637014Y-122464997D01*
X245493753Y-122508454D01*
X245361724Y-122579026D01*
X245361722Y-122579027D01*
X245361723Y-122579027D01*
X245274996Y-122650201D01*
X245274992Y-122650205D01*
X245245999Y-122673999D01*
X245222205Y-122702992D01*
X243050198Y-124875001D01*
X242431544Y-124875001D01*
X242485000Y-124606260D01*
X242485000Y-124313740D01*
X242427932Y-124026842D01*
X242315990Y-123756589D01*
X242153475Y-123513368D01*
X241946632Y-123306525D01*
X241772240Y-123190000D01*
X241946632Y-123073475D01*
X242153475Y-122866632D01*
X242315990Y-122623411D01*
X242427932Y-122353158D01*
X242485000Y-122066260D01*
X242485000Y-121773740D01*
X242427932Y-121486842D01*
X242315990Y-121216589D01*
X242153475Y-120973368D01*
X241946632Y-120766525D01*
X241772240Y-120650000D01*
X241946632Y-120533475D01*
X242153475Y-120326632D01*
X242315990Y-120083411D01*
X242427932Y-119813158D01*
X242485000Y-119526260D01*
X242485000Y-119233740D01*
X242427932Y-118946842D01*
X242350540Y-118760000D01*
X247962678Y-118760000D01*
X248000000Y-118763676D01*
X248037322Y-118760000D01*
X248037333Y-118760000D01*
X248148986Y-118749003D01*
X248292247Y-118705546D01*
X248424276Y-118634974D01*
X248540001Y-118540001D01*
X248563804Y-118510997D01*
X250511003Y-116563799D01*
X250540001Y-116540001D01*
X250622501Y-116439475D01*
X250634974Y-116424277D01*
X250705546Y-116292247D01*
X250749003Y-116148986D01*
X250760000Y-116037333D01*
X250760000Y-116037324D01*
X250763676Y-116000001D01*
X250760000Y-115962678D01*
X250760000Y-113037333D01*
X250763677Y-113000000D01*
X250749003Y-112851014D01*
X250705546Y-112707753D01*
X250634974Y-112575724D01*
X250563799Y-112488997D01*
X250540001Y-112459999D01*
X250511004Y-112436202D01*
X249563804Y-111489002D01*
X249540001Y-111459999D01*
X249424276Y-111365026D01*
X249292247Y-111294454D01*
X249148986Y-111250997D01*
X249037333Y-111240000D01*
X249037322Y-111240000D01*
X249000000Y-111236324D01*
X248962678Y-111240000D01*
X248402595Y-111240000D01*
X248365706Y-111170986D01*
X248180134Y-110944866D01*
X247954014Y-110759294D01*
X247928278Y-110745538D01*
X248134429Y-110589049D01*
X248327496Y-110371193D01*
X248474352Y-110119858D01*
X248566476Y-109856890D01*
X248445155Y-109627000D01*
X247127000Y-109627000D01*
X247127000Y-109647000D01*
X246873000Y-109647000D01*
X246873000Y-109627000D01*
X245554845Y-109627000D01*
X245433524Y-109856890D01*
X245525648Y-110119858D01*
X245672504Y-110371193D01*
X245865571Y-110589049D01*
X246071722Y-110745538D01*
X246045986Y-110759294D01*
X245819866Y-110944866D01*
X245634294Y-111170986D01*
X245496401Y-111428966D01*
X245411487Y-111708889D01*
X245382815Y-112000000D01*
X245411487Y-112291111D01*
X245496401Y-112571034D01*
X245634294Y-112829014D01*
X245819866Y-113055134D01*
X246045986Y-113240706D01*
X246063374Y-113250000D01*
X246045986Y-113259294D01*
X245819866Y-113444866D01*
X245634294Y-113670986D01*
X245597405Y-113740000D01*
X233167322Y-113740000D01*
X233129999Y-113736324D01*
X233092676Y-113740000D01*
X233092667Y-113740000D01*
X232981014Y-113750997D01*
X232837753Y-113794454D01*
X232705724Y-113865026D01*
X232705722Y-113865027D01*
X232705723Y-113865027D01*
X232618996Y-113936201D01*
X232618992Y-113936205D01*
X232589999Y-113959999D01*
X232566205Y-113988992D01*
X231209000Y-115346198D01*
X231209000Y-115219740D01*
X231165209Y-114999592D01*
X233404802Y-112760000D01*
X239962678Y-112760000D01*
X240000000Y-112763676D01*
X240037322Y-112760000D01*
X240037333Y-112760000D01*
X240148986Y-112749003D01*
X240292247Y-112705546D01*
X240424276Y-112634974D01*
X240540001Y-112540001D01*
X240563804Y-112510997D01*
X243511003Y-109563799D01*
X243540001Y-109540001D01*
X243634974Y-109424276D01*
X243705546Y-109292247D01*
X243749003Y-109148986D01*
X243760000Y-109037333D01*
X243760000Y-109037325D01*
X243763676Y-109000000D01*
X243760000Y-108962675D01*
X243760000Y-106400000D01*
X245386928Y-106400000D01*
X245386928Y-107600000D01*
X245403992Y-107773254D01*
X245454528Y-107939850D01*
X245536595Y-108093386D01*
X245647038Y-108227962D01*
X245781614Y-108338405D01*
X245886961Y-108394714D01*
X245865571Y-108410951D01*
X245672504Y-108628807D01*
X245525648Y-108880142D01*
X245433524Y-109143110D01*
X245554845Y-109373000D01*
X246873000Y-109373000D01*
X246873000Y-109353000D01*
X247127000Y-109353000D01*
X247127000Y-109373000D01*
X248445155Y-109373000D01*
X248566476Y-109143110D01*
X248474352Y-108880142D01*
X248327496Y-108628807D01*
X248134429Y-108410951D01*
X248113039Y-108394714D01*
X248218386Y-108338405D01*
X248352962Y-108227962D01*
X248463405Y-108093386D01*
X248545472Y-107939850D01*
X248596008Y-107773254D01*
X248613072Y-107600000D01*
X248613072Y-106400000D01*
X248596008Y-106226746D01*
X248545472Y-106060150D01*
X248463405Y-105906614D01*
X248352962Y-105772038D01*
X248218386Y-105661595D01*
X248064850Y-105579528D01*
X247898254Y-105528992D01*
X247725000Y-105511928D01*
X246275000Y-105511928D01*
X246101746Y-105528992D01*
X245935150Y-105579528D01*
X245781614Y-105661595D01*
X245647038Y-105772038D01*
X245536595Y-105906614D01*
X245454528Y-106060150D01*
X245403992Y-106226746D01*
X245386928Y-106400000D01*
X243760000Y-106400000D01*
X243760000Y-106314801D01*
X247511003Y-102563799D01*
X247540001Y-102540001D01*
X247634974Y-102424276D01*
X247705546Y-102292247D01*
X247749003Y-102148986D01*
X247760000Y-102037333D01*
X247760000Y-102037324D01*
X247763676Y-102000001D01*
X247760000Y-101962678D01*
X247760000Y-101844409D01*
X247954014Y-101740706D01*
X248180134Y-101555134D01*
X248365706Y-101329014D01*
X248503599Y-101071034D01*
X248588513Y-100791111D01*
X248617185Y-100500000D01*
X248588513Y-100208889D01*
X248503599Y-99928966D01*
X248365706Y-99670986D01*
X248180134Y-99444866D01*
X247954014Y-99259294D01*
X247936626Y-99250000D01*
X247954014Y-99240706D01*
X248180134Y-99055134D01*
X248365706Y-98829014D01*
X248503599Y-98571034D01*
X248588513Y-98291111D01*
X248617185Y-98000000D01*
X248588513Y-97708889D01*
X248503599Y-97428966D01*
X248365706Y-97170986D01*
X248180134Y-96944866D01*
X247954014Y-96759294D01*
X247928278Y-96745538D01*
X248134429Y-96589049D01*
X248327496Y-96371193D01*
X248474352Y-96119858D01*
X248566476Y-95856890D01*
X248445155Y-95627000D01*
X247127000Y-95627000D01*
X247127000Y-95647000D01*
X246873000Y-95647000D01*
X246873000Y-95627000D01*
X245554845Y-95627000D01*
X245433524Y-95856890D01*
X245525648Y-96119858D01*
X245672504Y-96371193D01*
X245865571Y-96589049D01*
X246071722Y-96745538D01*
X246045986Y-96759294D01*
X245819866Y-96944866D01*
X245634294Y-97170986D01*
X245496401Y-97428966D01*
X245411487Y-97708889D01*
X245382815Y-98000000D01*
X245411487Y-98291111D01*
X245463296Y-98461902D01*
X243737155Y-100188043D01*
X243749003Y-100148986D01*
X243760000Y-100037333D01*
X243760000Y-100037324D01*
X243763676Y-100000001D01*
X243760000Y-99962678D01*
X243760000Y-92400000D01*
X245386928Y-92400000D01*
X245386928Y-93600000D01*
X245403992Y-93773254D01*
X245454528Y-93939850D01*
X245536595Y-94093386D01*
X245647038Y-94227962D01*
X245781614Y-94338405D01*
X245886961Y-94394714D01*
X245865571Y-94410951D01*
X245672504Y-94628807D01*
X245525648Y-94880142D01*
X245433524Y-95143110D01*
X245554845Y-95373000D01*
X246873000Y-95373000D01*
X246873000Y-95353000D01*
X247127000Y-95353000D01*
X247127000Y-95373000D01*
X248445155Y-95373000D01*
X248566476Y-95143110D01*
X248474352Y-94880142D01*
X248327496Y-94628807D01*
X248134429Y-94410951D01*
X248113039Y-94394714D01*
X248218386Y-94338405D01*
X248352962Y-94227962D01*
X248463405Y-94093386D01*
X248545472Y-93939850D01*
X248596008Y-93773254D01*
X248613072Y-93600000D01*
X248613072Y-92400000D01*
X248596008Y-92226746D01*
X248545472Y-92060150D01*
X248463405Y-91906614D01*
X248352962Y-91772038D01*
X248218386Y-91661595D01*
X248064850Y-91579528D01*
X247898254Y-91528992D01*
X247725000Y-91511928D01*
X246275000Y-91511928D01*
X246101746Y-91528992D01*
X245935150Y-91579528D01*
X245781614Y-91661595D01*
X245647038Y-91772038D01*
X245536595Y-91906614D01*
X245454528Y-92060150D01*
X245403992Y-92226746D01*
X245386928Y-92400000D01*
X243760000Y-92400000D01*
X243760000Y-88314801D01*
X244814802Y-87260000D01*
X245597405Y-87260000D01*
X245634294Y-87329014D01*
X245819866Y-87555134D01*
X246045986Y-87740706D01*
X246303966Y-87878599D01*
X246583889Y-87963513D01*
X246802050Y-87985000D01*
X247197950Y-87985000D01*
X247416111Y-87963513D01*
X247696034Y-87878599D01*
X247954014Y-87740706D01*
X248180134Y-87555134D01*
X248365706Y-87329014D01*
X248503599Y-87071034D01*
X248588513Y-86791111D01*
X248617185Y-86500000D01*
X248588513Y-86208889D01*
X248503599Y-85928966D01*
X248365706Y-85670986D01*
X248180134Y-85444866D01*
X247954014Y-85259294D01*
X247936626Y-85250000D01*
X247954014Y-85240706D01*
X248180134Y-85055134D01*
X248365706Y-84829014D01*
X248503599Y-84571034D01*
X248588513Y-84291111D01*
X248617185Y-84000000D01*
X248588513Y-83708889D01*
X248503599Y-83428966D01*
X248365706Y-83170986D01*
X248180134Y-82944866D01*
X247954014Y-82759294D01*
X247928278Y-82745538D01*
X248134429Y-82589049D01*
X248327496Y-82371193D01*
X248474352Y-82119858D01*
X248566476Y-81856890D01*
X248445155Y-81627000D01*
X247127000Y-81627000D01*
X247127000Y-81647000D01*
X246873000Y-81647000D01*
X246873000Y-81627000D01*
X245554845Y-81627000D01*
X245433524Y-81856890D01*
X245525648Y-82119858D01*
X245672504Y-82371193D01*
X245865571Y-82589049D01*
X246071722Y-82745538D01*
X246045986Y-82759294D01*
X245819866Y-82944866D01*
X245634294Y-83170986D01*
X245584854Y-83263483D01*
X245482753Y-83294454D01*
X245350724Y-83365026D01*
X245234999Y-83459999D01*
X245211201Y-83488997D01*
X241489003Y-87211196D01*
X241459999Y-87234999D01*
X241411206Y-87294454D01*
X241365026Y-87350724D01*
X241306617Y-87459999D01*
X241294454Y-87482754D01*
X241250997Y-87626015D01*
X241240000Y-87737668D01*
X241240000Y-87737678D01*
X241236324Y-87775000D01*
X241240000Y-87812322D01*
X241240001Y-98685197D01*
X240685199Y-99240000D01*
X236037322Y-99240000D01*
X235999999Y-99236324D01*
X235962676Y-99240000D01*
X235962667Y-99240000D01*
X235851014Y-99250997D01*
X235707753Y-99294454D01*
X235575724Y-99365026D01*
X235575722Y-99365027D01*
X235575723Y-99365027D01*
X235488996Y-99436201D01*
X235488992Y-99436205D01*
X235459999Y-99459999D01*
X235436205Y-99488992D01*
X231654200Y-103270999D01*
X231080753Y-103270999D01*
X231151932Y-103099158D01*
X231209000Y-102812260D01*
X231209000Y-102519740D01*
X231151932Y-102232842D01*
X231039990Y-101962589D01*
X230877475Y-101719368D01*
X230670632Y-101512525D01*
X230496240Y-101396000D01*
X230670632Y-101279475D01*
X230877475Y-101072632D01*
X231039990Y-100829411D01*
X231151932Y-100559158D01*
X231209000Y-100272260D01*
X231209000Y-99979740D01*
X231165209Y-99759592D01*
X235664802Y-95260000D01*
X237597405Y-95260000D01*
X237634294Y-95329014D01*
X237819866Y-95555134D01*
X237883337Y-95607223D01*
X237781614Y-95661595D01*
X237647038Y-95772038D01*
X237536595Y-95906614D01*
X237454528Y-96060150D01*
X237403992Y-96226746D01*
X237386928Y-96400000D01*
X237386928Y-97600000D01*
X237403992Y-97773254D01*
X237454528Y-97939850D01*
X237536595Y-98093386D01*
X237647038Y-98227962D01*
X237781614Y-98338405D01*
X237935150Y-98420472D01*
X238101746Y-98471008D01*
X238275000Y-98488072D01*
X239725000Y-98488072D01*
X239898254Y-98471008D01*
X240064850Y-98420472D01*
X240218386Y-98338405D01*
X240352962Y-98227962D01*
X240463405Y-98093386D01*
X240545472Y-97939850D01*
X240596008Y-97773254D01*
X240613072Y-97600000D01*
X240613072Y-96400000D01*
X240596008Y-96226746D01*
X240545472Y-96060150D01*
X240463405Y-95906614D01*
X240352962Y-95772038D01*
X240218386Y-95661595D01*
X240116663Y-95607223D01*
X240180134Y-95555134D01*
X240365706Y-95329014D01*
X240503599Y-95071034D01*
X240588513Y-94791111D01*
X240617185Y-94500000D01*
X240588513Y-94208889D01*
X240503599Y-93928966D01*
X240365706Y-93670986D01*
X240180134Y-93444866D01*
X239954014Y-93259294D01*
X239936626Y-93250000D01*
X239954014Y-93240706D01*
X240180134Y-93055134D01*
X240365706Y-92829014D01*
X240503599Y-92571034D01*
X240588513Y-92291111D01*
X240617185Y-92000000D01*
X240588513Y-91708889D01*
X240503599Y-91428966D01*
X240365706Y-91170986D01*
X240180134Y-90944866D01*
X239954014Y-90759294D01*
X239928278Y-90745538D01*
X240134429Y-90589049D01*
X240327496Y-90371193D01*
X240474352Y-90119858D01*
X240566476Y-89856890D01*
X240445155Y-89627000D01*
X239127000Y-89627000D01*
X239127000Y-89647000D01*
X238873000Y-89647000D01*
X238873000Y-89627000D01*
X237554845Y-89627000D01*
X237433524Y-89856890D01*
X237525648Y-90119858D01*
X237672504Y-90371193D01*
X237865571Y-90589049D01*
X238071722Y-90745538D01*
X238045986Y-90759294D01*
X237819866Y-90944866D01*
X237634294Y-91170986D01*
X237597405Y-91240000D01*
X237037322Y-91240000D01*
X236999999Y-91236324D01*
X236962676Y-91240000D01*
X236962667Y-91240000D01*
X236851014Y-91250997D01*
X236727935Y-91288332D01*
X236707753Y-91294454D01*
X236575723Y-91365026D01*
X236533126Y-91399985D01*
X236459999Y-91459999D01*
X236436201Y-91488997D01*
X231040757Y-96884441D01*
X231039990Y-96882589D01*
X230877475Y-96639368D01*
X230670632Y-96432525D01*
X230496240Y-96316000D01*
X230670632Y-96199475D01*
X230877475Y-95992632D01*
X231039990Y-95749411D01*
X231151932Y-95479158D01*
X231209000Y-95192260D01*
X231209000Y-94899740D01*
X231151932Y-94612842D01*
X231039990Y-94342589D01*
X230877475Y-94099368D01*
X230670632Y-93892525D01*
X230496240Y-93776000D01*
X230670632Y-93659475D01*
X230877475Y-93452632D01*
X231039990Y-93209411D01*
X231151932Y-92939158D01*
X231209000Y-92652260D01*
X231209000Y-92359740D01*
X231151932Y-92072842D01*
X231039990Y-91802589D01*
X230877475Y-91559368D01*
X230670632Y-91352525D01*
X230496240Y-91236000D01*
X230670632Y-91119475D01*
X230877475Y-90912632D01*
X231039990Y-90669411D01*
X231151932Y-90399158D01*
X231209000Y-90112260D01*
X231209000Y-89819740D01*
X231151932Y-89532842D01*
X231039990Y-89262589D01*
X230960157Y-89143110D01*
X237433524Y-89143110D01*
X237554845Y-89373000D01*
X238873000Y-89373000D01*
X238873000Y-88173835D01*
X239127000Y-88173835D01*
X239127000Y-89373000D01*
X240445155Y-89373000D01*
X240566476Y-89143110D01*
X240474352Y-88880142D01*
X240327496Y-88628807D01*
X240134429Y-88410951D01*
X239902570Y-88234947D01*
X239640830Y-88107558D01*
X239359267Y-88033680D01*
X239127000Y-88173835D01*
X238873000Y-88173835D01*
X238640733Y-88033680D01*
X238359170Y-88107558D01*
X238097430Y-88234947D01*
X237865571Y-88410951D01*
X237672504Y-88628807D01*
X237525648Y-88880142D01*
X237433524Y-89143110D01*
X230960157Y-89143110D01*
X230877475Y-89019368D01*
X230670632Y-88812525D01*
X230496240Y-88696000D01*
X230670632Y-88579475D01*
X230877475Y-88372632D01*
X231039990Y-88129411D01*
X231151932Y-87859158D01*
X231209000Y-87572260D01*
X231209000Y-87279740D01*
X231151932Y-86992842D01*
X231076660Y-86811119D01*
X231087985Y-86810004D01*
X231231246Y-86766547D01*
X231363275Y-86695975D01*
X231479000Y-86601002D01*
X231502803Y-86571998D01*
X234224801Y-83850000D01*
X237386928Y-83850000D01*
X237399188Y-83974482D01*
X237435498Y-84094180D01*
X237494463Y-84204494D01*
X237573815Y-84301185D01*
X237670506Y-84380537D01*
X237780820Y-84439502D01*
X237900518Y-84475812D01*
X238025000Y-84488072D01*
X238714250Y-84485000D01*
X238873000Y-84326250D01*
X238873000Y-83127000D01*
X239127000Y-83127000D01*
X239127000Y-84326250D01*
X239285750Y-84485000D01*
X239975000Y-84488072D01*
X240099482Y-84475812D01*
X240219180Y-84439502D01*
X240329494Y-84380537D01*
X240426185Y-84301185D01*
X240505537Y-84204494D01*
X240564502Y-84094180D01*
X240600812Y-83974482D01*
X240613072Y-83850000D01*
X240610000Y-83285750D01*
X240451250Y-83127000D01*
X239127000Y-83127000D01*
X238873000Y-83127000D01*
X237548750Y-83127000D01*
X237390000Y-83285750D01*
X237386928Y-83850000D01*
X234224801Y-83850000D01*
X237400029Y-80674773D01*
X237411487Y-80791111D01*
X237496401Y-81071034D01*
X237634294Y-81329014D01*
X237815608Y-81549945D01*
X237780820Y-81560498D01*
X237670506Y-81619463D01*
X237573815Y-81698815D01*
X237494463Y-81795506D01*
X237435498Y-81905820D01*
X237399188Y-82025518D01*
X237386928Y-82150000D01*
X237390000Y-82714250D01*
X237548750Y-82873000D01*
X238873000Y-82873000D01*
X238873000Y-82853000D01*
X239127000Y-82853000D01*
X239127000Y-82873000D01*
X240451250Y-82873000D01*
X240610000Y-82714250D01*
X240613072Y-82150000D01*
X240600812Y-82025518D01*
X240564502Y-81905820D01*
X240505537Y-81795506D01*
X240426185Y-81698815D01*
X240329494Y-81619463D01*
X240219180Y-81560498D01*
X240184392Y-81549945D01*
X240365706Y-81329014D01*
X240503599Y-81071034D01*
X240588513Y-80791111D01*
X240617185Y-80500000D01*
X240588513Y-80208889D01*
X240503599Y-79928966D01*
X240365706Y-79670986D01*
X240180134Y-79444866D01*
X239954014Y-79259294D01*
X239936626Y-79250000D01*
X239954014Y-79240706D01*
X240180134Y-79055134D01*
X240365706Y-78829014D01*
X240503599Y-78571034D01*
X240555481Y-78400000D01*
X245386928Y-78400000D01*
X245386928Y-79600000D01*
X245403992Y-79773254D01*
X245454528Y-79939850D01*
X245536595Y-80093386D01*
X245647038Y-80227962D01*
X245781614Y-80338405D01*
X245886961Y-80394714D01*
X245865571Y-80410951D01*
X245672504Y-80628807D01*
X245525648Y-80880142D01*
X245433524Y-81143110D01*
X245554845Y-81373000D01*
X246873000Y-81373000D01*
X246873000Y-81353000D01*
X247127000Y-81353000D01*
X247127000Y-81373000D01*
X248445155Y-81373000D01*
X248566476Y-81143110D01*
X248474352Y-80880142D01*
X248327496Y-80628807D01*
X248134429Y-80410951D01*
X248113039Y-80394714D01*
X248218386Y-80338405D01*
X248352962Y-80227962D01*
X248463405Y-80093386D01*
X248545472Y-79939850D01*
X248596008Y-79773254D01*
X248613072Y-79600000D01*
X248613072Y-78400000D01*
X248596008Y-78226746D01*
X248545472Y-78060150D01*
X248463405Y-77906614D01*
X248352962Y-77772038D01*
X248218386Y-77661595D01*
X248064850Y-77579528D01*
X247898254Y-77528992D01*
X247725000Y-77511928D01*
X246275000Y-77511928D01*
X246101746Y-77528992D01*
X245935150Y-77579528D01*
X245781614Y-77661595D01*
X245647038Y-77772038D01*
X245536595Y-77906614D01*
X245454528Y-78060150D01*
X245403992Y-78226746D01*
X245386928Y-78400000D01*
X240555481Y-78400000D01*
X240588513Y-78291111D01*
X240617185Y-78000000D01*
X240588513Y-77708889D01*
X240503599Y-77428966D01*
X240365706Y-77170986D01*
X240180134Y-76944866D01*
X239954014Y-76759294D01*
X239696034Y-76621401D01*
X239416111Y-76536487D01*
X239197950Y-76515000D01*
X238802050Y-76515000D01*
X238583889Y-76536487D01*
X238303966Y-76621401D01*
X238045986Y-76759294D01*
X237819866Y-76944866D01*
X237634294Y-77170986D01*
X237496401Y-77428966D01*
X237411487Y-77708889D01*
X237382815Y-78000000D01*
X237411487Y-78291111D01*
X237463296Y-78461902D01*
X231205094Y-84720105D01*
X231151932Y-84452842D01*
X231039990Y-84182589D01*
X230877475Y-83939368D01*
X230670632Y-83732525D01*
X230496240Y-83616000D01*
X230670632Y-83499475D01*
X230877475Y-83292632D01*
X231039990Y-83049411D01*
X231151932Y-82779158D01*
X231209000Y-82492260D01*
X231209000Y-82199740D01*
X231151932Y-81912842D01*
X231039990Y-81642589D01*
X230904295Y-81439508D01*
X235511003Y-76832801D01*
X235540001Y-76809003D01*
X235634974Y-76693278D01*
X235705546Y-76561249D01*
X235749003Y-76417988D01*
X235760000Y-76306335D01*
X235760000Y-76306327D01*
X235763676Y-76269002D01*
X235760000Y-76231677D01*
X235760000Y-71850000D01*
X237386928Y-71850000D01*
X237399188Y-71974482D01*
X237435498Y-72094180D01*
X237494463Y-72204494D01*
X237573815Y-72301185D01*
X237670506Y-72380537D01*
X237780820Y-72439502D01*
X237900518Y-72475812D01*
X238025000Y-72488072D01*
X238714250Y-72485000D01*
X238873000Y-72326250D01*
X238873000Y-71127000D01*
X239127000Y-71127000D01*
X239127000Y-72326250D01*
X239285750Y-72485000D01*
X239975000Y-72488072D01*
X240099482Y-72475812D01*
X240219180Y-72439502D01*
X240329494Y-72380537D01*
X240426185Y-72301185D01*
X240505537Y-72204494D01*
X240564502Y-72094180D01*
X240600812Y-71974482D01*
X240613072Y-71850000D01*
X240610000Y-71285750D01*
X240451250Y-71127000D01*
X239127000Y-71127000D01*
X238873000Y-71127000D01*
X237548750Y-71127000D01*
X237390000Y-71285750D01*
X237386928Y-71850000D01*
X235760000Y-71850000D01*
X235760000Y-68314801D01*
X237314802Y-66760000D01*
X237597405Y-66760000D01*
X237634294Y-66829014D01*
X237819866Y-67055134D01*
X238045986Y-67240706D01*
X238063374Y-67250000D01*
X238045986Y-67259294D01*
X237819866Y-67444866D01*
X237634294Y-67670986D01*
X237496401Y-67928966D01*
X237411487Y-68208889D01*
X237382815Y-68500000D01*
X237411487Y-68791111D01*
X237496401Y-69071034D01*
X237634294Y-69329014D01*
X237815608Y-69549945D01*
X237780820Y-69560498D01*
X237670506Y-69619463D01*
X237573815Y-69698815D01*
X237494463Y-69795506D01*
X237435498Y-69905820D01*
X237399188Y-70025518D01*
X237386928Y-70150000D01*
X237390000Y-70714250D01*
X237548750Y-70873000D01*
X238873000Y-70873000D01*
X238873000Y-70853000D01*
X239127000Y-70853000D01*
X239127000Y-70873000D01*
X240451250Y-70873000D01*
X240610000Y-70714250D01*
X240613072Y-70150000D01*
X240600812Y-70025518D01*
X240564502Y-69905820D01*
X240505537Y-69795506D01*
X240426185Y-69698815D01*
X240329494Y-69619463D01*
X240219180Y-69560498D01*
X240184392Y-69549945D01*
X240365706Y-69329014D01*
X240503599Y-69071034D01*
X240588513Y-68791111D01*
X240617185Y-68500000D01*
X240588513Y-68208889D01*
X240503599Y-67928966D01*
X240365706Y-67670986D01*
X240180134Y-67444866D01*
X239954014Y-67259294D01*
X239936626Y-67250000D01*
X239954014Y-67240706D01*
X240180134Y-67055134D01*
X240365706Y-66829014D01*
X240503599Y-66571034D01*
X240588513Y-66291111D01*
X240617185Y-66000000D01*
X240588513Y-65708889D01*
X240503599Y-65428966D01*
X240365706Y-65170986D01*
X240180134Y-64944866D01*
X239954874Y-64760000D01*
X240685199Y-64760000D01*
X245463296Y-69538099D01*
X245411487Y-69708889D01*
X245382815Y-70000000D01*
X245411487Y-70291111D01*
X245496401Y-70571034D01*
X245634294Y-70829014D01*
X245819866Y-71055134D01*
X246045986Y-71240706D01*
X246063374Y-71250000D01*
X246045986Y-71259294D01*
X245819866Y-71444866D01*
X245634294Y-71670986D01*
X245496401Y-71928966D01*
X245411487Y-72208889D01*
X245382815Y-72500000D01*
X245411487Y-72791111D01*
X245496401Y-73071034D01*
X245634294Y-73329014D01*
X245819866Y-73555134D01*
X246045986Y-73740706D01*
X246303966Y-73878599D01*
X246583889Y-73963513D01*
X246802050Y-73985000D01*
X247197950Y-73985000D01*
X247416111Y-73963513D01*
X247696034Y-73878599D01*
X247954014Y-73740706D01*
X248180134Y-73555134D01*
X248365706Y-73329014D01*
X248503599Y-73071034D01*
X248588513Y-72791111D01*
X248617185Y-72500000D01*
X248588513Y-72208889D01*
X248536704Y-72038098D01*
X250511004Y-70063798D01*
X250540001Y-70040001D01*
X250634974Y-69924276D01*
X250705546Y-69792247D01*
X250749003Y-69648986D01*
X250760000Y-69537333D01*
X250760000Y-69537325D01*
X250763676Y-69500000D01*
X250760000Y-69462675D01*
X250760000Y-64037333D01*
X250763677Y-64000000D01*
X250749003Y-63851014D01*
X250705546Y-63707753D01*
X250634974Y-63575724D01*
X250563799Y-63488997D01*
X250540001Y-63459999D01*
X250511003Y-63436201D01*
X249734801Y-62660000D01*
X252340000Y-62660000D01*
X252340001Y-144340000D01*
X173660000Y-144340000D01*
X173660000Y-144038072D01*
X176400000Y-144038072D01*
X176524482Y-144025812D01*
X176644180Y-143989502D01*
X176754494Y-143930537D01*
X176851185Y-143851185D01*
X176930537Y-143754494D01*
X176989502Y-143644180D01*
X177025812Y-143524482D01*
X177036058Y-143420447D01*
X178759158Y-143420447D01*
X178903135Y-143725770D01*
X179260892Y-143906597D01*
X179647053Y-144014155D01*
X180046777Y-144044310D01*
X180444704Y-143995904D01*
X180825540Y-143870795D01*
X181096865Y-143725770D01*
X181240842Y-143420447D01*
X180000000Y-142179605D01*
X178759158Y-143420447D01*
X177036058Y-143420447D01*
X177038072Y-143400000D01*
X177038072Y-142046777D01*
X177955690Y-142046777D01*
X178004096Y-142444704D01*
X178129205Y-142825540D01*
X178274230Y-143096865D01*
X178579553Y-143240842D01*
X179820395Y-142000000D01*
X180179605Y-142000000D01*
X181420447Y-143240842D01*
X181725770Y-143096865D01*
X181906597Y-142739108D01*
X182014155Y-142352947D01*
X182044310Y-141953223D01*
X181995904Y-141555296D01*
X181870795Y-141174460D01*
X181725770Y-140903135D01*
X181420447Y-140759158D01*
X180179605Y-142000000D01*
X179820395Y-142000000D01*
X178579553Y-140759158D01*
X178274230Y-140903135D01*
X178093403Y-141260892D01*
X177985845Y-141647053D01*
X177955690Y-142046777D01*
X177038072Y-142046777D01*
X177038072Y-140600000D01*
X177036059Y-140579553D01*
X178759158Y-140579553D01*
X180000000Y-141820395D01*
X181240842Y-140579553D01*
X181096865Y-140274230D01*
X180739108Y-140093403D01*
X180352947Y-139985845D01*
X179953223Y-139955690D01*
X179555296Y-140004096D01*
X179174460Y-140129205D01*
X178903135Y-140274230D01*
X178759158Y-140579553D01*
X177036059Y-140579553D01*
X177025812Y-140475518D01*
X176989502Y-140355820D01*
X176930537Y-140245506D01*
X176851185Y-140148815D01*
X176754494Y-140069463D01*
X176644180Y-140010498D01*
X176524482Y-139974188D01*
X176400000Y-139961928D01*
X173660000Y-139961928D01*
X173660000Y-133422890D01*
X174982524Y-133422890D01*
X175027175Y-133570099D01*
X175152359Y-133832920D01*
X175326412Y-134066269D01*
X175542645Y-134261178D01*
X175792748Y-134410157D01*
X176067109Y-134507481D01*
X176297000Y-134386814D01*
X176297000Y-133193000D01*
X176551000Y-133193000D01*
X176551000Y-134386814D01*
X176780891Y-134507481D01*
X177055252Y-134410157D01*
X177305355Y-134261178D01*
X177521588Y-134066269D01*
X177694000Y-133835120D01*
X177866412Y-134066269D01*
X178082645Y-134261178D01*
X178332748Y-134410157D01*
X178607109Y-134507481D01*
X178837000Y-134386814D01*
X178837000Y-133193000D01*
X176551000Y-133193000D01*
X176297000Y-133193000D01*
X175103845Y-133193000D01*
X174982524Y-133422890D01*
X173660000Y-133422890D01*
X173660000Y-71749110D01*
X174982524Y-71749110D01*
X175103845Y-71979000D01*
X176297000Y-71979000D01*
X176297000Y-70785186D01*
X176551000Y-70785186D01*
X176551000Y-71979000D01*
X178837000Y-71979000D01*
X178837000Y-70779750D01*
X179091000Y-70779750D01*
X179091000Y-71979000D01*
X180290250Y-71979000D01*
X180449000Y-71820250D01*
X180452072Y-71256000D01*
X180439812Y-71131518D01*
X180403502Y-71011820D01*
X180344537Y-70901506D01*
X180265185Y-70804815D01*
X180168494Y-70725463D01*
X180058180Y-70666498D01*
X179938482Y-70630188D01*
X179814000Y-70617928D01*
X179249750Y-70621000D01*
X179091000Y-70779750D01*
X178837000Y-70779750D01*
X178678250Y-70621000D01*
X178114000Y-70617928D01*
X177989518Y-70630188D01*
X177869820Y-70666498D01*
X177759506Y-70725463D01*
X177662815Y-70804815D01*
X177583463Y-70901506D01*
X177524498Y-71011820D01*
X177501502Y-71087626D01*
X177305355Y-70910822D01*
X177055252Y-70761843D01*
X176780891Y-70664519D01*
X176551000Y-70785186D01*
X176297000Y-70785186D01*
X176067109Y-70664519D01*
X175792748Y-70761843D01*
X175542645Y-70910822D01*
X175326412Y-71105731D01*
X175152359Y-71339080D01*
X175027175Y-71601901D01*
X174982524Y-71749110D01*
X173660000Y-71749110D01*
X173660000Y-64779872D01*
X175765000Y-64779872D01*
X175765000Y-65220128D01*
X175850890Y-65651925D01*
X176019369Y-66058669D01*
X176263962Y-66424729D01*
X176575271Y-66736038D01*
X176941331Y-66980631D01*
X177348075Y-67149110D01*
X177779872Y-67235000D01*
X178220128Y-67235000D01*
X178651925Y-67149110D01*
X179058669Y-66980631D01*
X179424729Y-66736038D01*
X179736038Y-66424729D01*
X179980631Y-66058669D01*
X180149110Y-65651925D01*
X180235000Y-65220128D01*
X180235000Y-64779872D01*
X180149110Y-64348075D01*
X179980631Y-63941331D01*
X179736038Y-63575271D01*
X179424729Y-63263962D01*
X179058669Y-63019369D01*
X178651925Y-62850890D01*
X178220128Y-62765000D01*
X177779872Y-62765000D01*
X177348075Y-62850890D01*
X176941331Y-63019369D01*
X176575271Y-63263962D01*
X176263962Y-63575271D01*
X176019369Y-63941331D01*
X175850890Y-64348075D01*
X175765000Y-64779872D01*
X173660000Y-64779872D01*
X173660000Y-62660000D01*
X196765198Y-62660000D01*
X191694842Y-67730357D01*
%TA.AperFunction,Conductor*%
D19*
G36*
X191694842Y-67730357D02*
G01*
X191575724Y-67794028D01*
X191575722Y-67794029D01*
X191575723Y-67794029D01*
X191488996Y-67865203D01*
X191488992Y-67865207D01*
X191459999Y-67889001D01*
X191436205Y-67917994D01*
X181563202Y-77790999D01*
X180312765Y-77790999D01*
X180360825Y-77690099D01*
X180405476Y-77542890D01*
X180284155Y-77313000D01*
X179091000Y-77313000D01*
X179091000Y-77333000D01*
X178837000Y-77333000D01*
X178837000Y-77313000D01*
X178817000Y-77313000D01*
X178817000Y-77059000D01*
X178837000Y-77059000D01*
X178837000Y-77039000D01*
X179091000Y-77039000D01*
X179091000Y-77059000D01*
X180284155Y-77059000D01*
X180405476Y-76829110D01*
X180360825Y-76681901D01*
X180235641Y-76419080D01*
X180061588Y-76185731D01*
X179845355Y-75990822D01*
X179728466Y-75921195D01*
X179910632Y-75799475D01*
X180117475Y-75592632D01*
X180279990Y-75349411D01*
X180391932Y-75079158D01*
X180449000Y-74792260D01*
X180449000Y-74499740D01*
X180391932Y-74212842D01*
X180279990Y-73942589D01*
X180117475Y-73699368D01*
X179985620Y-73567513D01*
X180058180Y-73545502D01*
X180168494Y-73486537D01*
X180265185Y-73407185D01*
X180344537Y-73310494D01*
X180403502Y-73200180D01*
X180439812Y-73080482D01*
X180452072Y-72956000D01*
X180449000Y-72391750D01*
X180290250Y-72233000D01*
X179091000Y-72233000D01*
X179091000Y-72253000D01*
X178837000Y-72253000D01*
X178837000Y-72233000D01*
X176551000Y-72233000D01*
X176551000Y-72253000D01*
X176297000Y-72253000D01*
X176297000Y-72233000D01*
X175103845Y-72233000D01*
X174982524Y-72462890D01*
X175027175Y-72610099D01*
X175152359Y-72872920D01*
X175326412Y-73106269D01*
X175542645Y-73301178D01*
X175659534Y-73370805D01*
X175477368Y-73492525D01*
X175270525Y-73699368D01*
X175108010Y-73942589D01*
X174996068Y-74212842D01*
X174939000Y-74499740D01*
X174939000Y-74792260D01*
X174996068Y-75079158D01*
X175108010Y-75349411D01*
X175270525Y-75592632D01*
X175477368Y-75799475D01*
X175651760Y-75916000D01*
X175477368Y-76032525D01*
X175270525Y-76239368D01*
X175108010Y-76482589D01*
X174996068Y-76752842D01*
X174939000Y-77039740D01*
X174939000Y-77332260D01*
X174996068Y-77619158D01*
X175108010Y-77889411D01*
X175270525Y-78132632D01*
X175477368Y-78339475D01*
X175651760Y-78456000D01*
X175477368Y-78572525D01*
X175270525Y-78779368D01*
X175108010Y-79022589D01*
X174996068Y-79292842D01*
X174939000Y-79579740D01*
X174939000Y-79872260D01*
X174996068Y-80159158D01*
X175108010Y-80429411D01*
X175270525Y-80672632D01*
X175477368Y-80879475D01*
X175651760Y-80996000D01*
X175477368Y-81112525D01*
X175270525Y-81319368D01*
X175108010Y-81562589D01*
X174996068Y-81832842D01*
X174939000Y-82119740D01*
X174939000Y-82412260D01*
X174996068Y-82699158D01*
X175108010Y-82969411D01*
X175270525Y-83212632D01*
X175477368Y-83419475D01*
X175651760Y-83536000D01*
X175477368Y-83652525D01*
X175270525Y-83859368D01*
X175108010Y-84102589D01*
X174996068Y-84372842D01*
X174939000Y-84659740D01*
X174939000Y-84952260D01*
X174996068Y-85239158D01*
X175108010Y-85509411D01*
X175270525Y-85752632D01*
X175477368Y-85959475D01*
X175651760Y-86076000D01*
X175477368Y-86192525D01*
X175270525Y-86399368D01*
X175108010Y-86642589D01*
X174996068Y-86912842D01*
X174939000Y-87199740D01*
X174939000Y-87492260D01*
X174996068Y-87779158D01*
X175108010Y-88049411D01*
X175270525Y-88292632D01*
X175477368Y-88499475D01*
X175651760Y-88616000D01*
X175477368Y-88732525D01*
X175270525Y-88939368D01*
X175108010Y-89182589D01*
X174996068Y-89452842D01*
X174939000Y-89739740D01*
X174939000Y-90032260D01*
X174996068Y-90319158D01*
X175108010Y-90589411D01*
X175270525Y-90832632D01*
X175477368Y-91039475D01*
X175651760Y-91156000D01*
X175477368Y-91272525D01*
X175270525Y-91479368D01*
X175108010Y-91722589D01*
X174996068Y-91992842D01*
X174939000Y-92279740D01*
X174939000Y-92572260D01*
X174996068Y-92859158D01*
X175108010Y-93129411D01*
X175270525Y-93372632D01*
X175477368Y-93579475D01*
X175651760Y-93696000D01*
X175477368Y-93812525D01*
X175270525Y-94019368D01*
X175108010Y-94262589D01*
X174996068Y-94532842D01*
X174939000Y-94819740D01*
X174939000Y-95112260D01*
X174996068Y-95399158D01*
X175108010Y-95669411D01*
X175270525Y-95912632D01*
X175477368Y-96119475D01*
X175651760Y-96236000D01*
X175477368Y-96352525D01*
X175270525Y-96559368D01*
X175108010Y-96802589D01*
X174996068Y-97072842D01*
X174939000Y-97359740D01*
X174939000Y-97652260D01*
X174996068Y-97939158D01*
X175108010Y-98209411D01*
X175270525Y-98452632D01*
X175477368Y-98659475D01*
X175651760Y-98776000D01*
X175477368Y-98892525D01*
X175270525Y-99099368D01*
X175108010Y-99342589D01*
X174996068Y-99612842D01*
X174939000Y-99899740D01*
X174939000Y-100192260D01*
X174996068Y-100479158D01*
X175108010Y-100749411D01*
X175270525Y-100992632D01*
X175477368Y-101199475D01*
X175651760Y-101316000D01*
X175477368Y-101432525D01*
X175270525Y-101639368D01*
X175108010Y-101882589D01*
X174996068Y-102152842D01*
X174939000Y-102439740D01*
X174939000Y-102732260D01*
X174996068Y-103019158D01*
X175108010Y-103289411D01*
X175270525Y-103532632D01*
X175477368Y-103739475D01*
X175651760Y-103856000D01*
X175477368Y-103972525D01*
X175270525Y-104179368D01*
X175108010Y-104422589D01*
X174996068Y-104692842D01*
X174939000Y-104979740D01*
X174939000Y-105272260D01*
X174996068Y-105559158D01*
X175108010Y-105829411D01*
X175270525Y-106072632D01*
X175477368Y-106279475D01*
X175651760Y-106396000D01*
X175477368Y-106512525D01*
X175270525Y-106719368D01*
X175108010Y-106962589D01*
X174996068Y-107232842D01*
X174939000Y-107519740D01*
X174939000Y-107812260D01*
X174996068Y-108099158D01*
X175108010Y-108369411D01*
X175270525Y-108612632D01*
X175477368Y-108819475D01*
X175651760Y-108936000D01*
X175477368Y-109052525D01*
X175270525Y-109259368D01*
X175108010Y-109502589D01*
X174996068Y-109772842D01*
X174939000Y-110059740D01*
X174939000Y-110352260D01*
X174996068Y-110639158D01*
X175108010Y-110909411D01*
X175270525Y-111152632D01*
X175477368Y-111359475D01*
X175651760Y-111476000D01*
X175477368Y-111592525D01*
X175270525Y-111799368D01*
X175108010Y-112042589D01*
X174996068Y-112312842D01*
X174939000Y-112599740D01*
X174939000Y-112892260D01*
X174996068Y-113179158D01*
X175108010Y-113449411D01*
X175270525Y-113692632D01*
X175477368Y-113899475D01*
X175651760Y-114016000D01*
X175477368Y-114132525D01*
X175270525Y-114339368D01*
X175108010Y-114582589D01*
X174996068Y-114852842D01*
X174939000Y-115139740D01*
X174939000Y-115432260D01*
X174996068Y-115719158D01*
X175108010Y-115989411D01*
X175270525Y-116232632D01*
X175477368Y-116439475D01*
X175651760Y-116556000D01*
X175477368Y-116672525D01*
X175270525Y-116879368D01*
X175108010Y-117122589D01*
X174996068Y-117392842D01*
X174939000Y-117679740D01*
X174939000Y-117972260D01*
X174996068Y-118259158D01*
X175108010Y-118529411D01*
X175270525Y-118772632D01*
X175477368Y-118979475D01*
X175651760Y-119096000D01*
X175477368Y-119212525D01*
X175270525Y-119419368D01*
X175108010Y-119662589D01*
X174996068Y-119932842D01*
X174939000Y-120219740D01*
X174939000Y-120512260D01*
X174996068Y-120799158D01*
X175108010Y-121069411D01*
X175270525Y-121312632D01*
X175477368Y-121519475D01*
X175651760Y-121636000D01*
X175477368Y-121752525D01*
X175270525Y-121959368D01*
X175108010Y-122202589D01*
X174996068Y-122472842D01*
X174939000Y-122759740D01*
X174939000Y-123052260D01*
X174996068Y-123339158D01*
X175108010Y-123609411D01*
X175270525Y-123852632D01*
X175477368Y-124059475D01*
X175651760Y-124176000D01*
X175477368Y-124292525D01*
X175270525Y-124499368D01*
X175108010Y-124742589D01*
X174996068Y-125012842D01*
X174939000Y-125299740D01*
X174939000Y-125592260D01*
X174996068Y-125879158D01*
X175108010Y-126149411D01*
X175270525Y-126392632D01*
X175477368Y-126599475D01*
X175651760Y-126716000D01*
X175477368Y-126832525D01*
X175270525Y-127039368D01*
X175108010Y-127282589D01*
X174996068Y-127552842D01*
X174939000Y-127839740D01*
X174939000Y-128132260D01*
X174996068Y-128419158D01*
X175108010Y-128689411D01*
X175270525Y-128932632D01*
X175477368Y-129139475D01*
X175651760Y-129256000D01*
X175477368Y-129372525D01*
X175270525Y-129579368D01*
X175108010Y-129822589D01*
X174996068Y-130092842D01*
X174939000Y-130379740D01*
X174939000Y-130672260D01*
X174996068Y-130959158D01*
X175108010Y-131229411D01*
X175270525Y-131472632D01*
X175477368Y-131679475D01*
X175659534Y-131801195D01*
X175542645Y-131870822D01*
X175326412Y-132065731D01*
X175152359Y-132299080D01*
X175027175Y-132561901D01*
X174982524Y-132709110D01*
X175103845Y-132939000D01*
X176297000Y-132939000D01*
X176297000Y-132919000D01*
X176551000Y-132919000D01*
X176551000Y-132939000D01*
X178837000Y-132939000D01*
X178837000Y-132919000D01*
X179091000Y-132919000D01*
X179091000Y-132939000D01*
X179111000Y-132939000D01*
X179111000Y-133193000D01*
X179091000Y-133193000D01*
X179091000Y-134386814D01*
X179320891Y-134507481D01*
X179595252Y-134410157D01*
X179845355Y-134261178D01*
X180061588Y-134066269D01*
X180235641Y-133832920D01*
X180360825Y-133570099D01*
X180405476Y-133422890D01*
X180284156Y-133193002D01*
X180449000Y-133193002D01*
X180449000Y-133085801D01*
X185576919Y-138213721D01*
X185560487Y-138267889D01*
X185539000Y-138486050D01*
X185539000Y-138881949D01*
X185560487Y-139100110D01*
X185645401Y-139380033D01*
X185783294Y-139638013D01*
X185968866Y-139864134D01*
X186194986Y-140049706D01*
X186452966Y-140187599D01*
X186732889Y-140272513D01*
X187024000Y-140301185D01*
X187315110Y-140272513D01*
X187595033Y-140187599D01*
X187853013Y-140049706D01*
X188079134Y-139864134D01*
X188264706Y-139638014D01*
X188274000Y-139620626D01*
X188283294Y-139638013D01*
X188468866Y-139864134D01*
X188694986Y-140049706D01*
X188952966Y-140187599D01*
X189232889Y-140272513D01*
X189524000Y-140301185D01*
X189815110Y-140272513D01*
X190095033Y-140187599D01*
X190353013Y-140049706D01*
X190573945Y-139868392D01*
X190584498Y-139903180D01*
X190643463Y-140013494D01*
X190722815Y-140110185D01*
X190819506Y-140189537D01*
X190929820Y-140248502D01*
X191049518Y-140284812D01*
X191174000Y-140297072D01*
X191738250Y-140294000D01*
X191897000Y-140135250D01*
X191897000Y-138811000D01*
X192151000Y-138811000D01*
X192151000Y-140135250D01*
X192309750Y-140294000D01*
X192874000Y-140297072D01*
X192998482Y-140284812D01*
X193118180Y-140248502D01*
X193228494Y-140189537D01*
X193325185Y-140110185D01*
X193404537Y-140013494D01*
X193463502Y-139903180D01*
X193499812Y-139783482D01*
X193512072Y-139659000D01*
X193509000Y-138969750D01*
X193350250Y-138811000D01*
X192151000Y-138811000D01*
X191897000Y-138811000D01*
X191877000Y-138811000D01*
X191877000Y-138557000D01*
X191897000Y-138557000D01*
X191897000Y-137232750D01*
X192151000Y-137232750D01*
X192151000Y-138557000D01*
X193350250Y-138557000D01*
X193509000Y-138398250D01*
X193512072Y-137709000D01*
X193499812Y-137584518D01*
X193463502Y-137464820D01*
X193404537Y-137354506D01*
X193325185Y-137257815D01*
X193228494Y-137178463D01*
X193118180Y-137119498D01*
X192998482Y-137083188D01*
X192874000Y-137070928D01*
X192309750Y-137074000D01*
X192151000Y-137232750D01*
X191897000Y-137232750D01*
X191738250Y-137074000D01*
X191174000Y-137070928D01*
X191049518Y-137083188D01*
X190929820Y-137119498D01*
X190819506Y-137178463D01*
X190722815Y-137257815D01*
X190643463Y-137354506D01*
X190584498Y-137464820D01*
X190573945Y-137499608D01*
X190353014Y-137318294D01*
X190095034Y-137180401D01*
X189815111Y-137095487D01*
X189524000Y-137066815D01*
X189232890Y-137095487D01*
X188952967Y-137180401D01*
X188694987Y-137318294D01*
X188468866Y-137503866D01*
X188283294Y-137729986D01*
X188274000Y-137747374D01*
X188264706Y-137729986D01*
X188079134Y-137503866D01*
X187853014Y-137318294D01*
X187595034Y-137180401D01*
X187315111Y-137095487D01*
X187024000Y-137066815D01*
X186732890Y-137095487D01*
X186637289Y-137124487D01*
X180405209Y-130892408D01*
X180449000Y-130672260D01*
X180449000Y-130379740D01*
X180395544Y-130110999D01*
X189048198Y-130110999D01*
X197300030Y-138362832D01*
X197281000Y-138556050D01*
X197281000Y-138951949D01*
X197302487Y-139170110D01*
X197387401Y-139450033D01*
X197525294Y-139708013D01*
X197710866Y-139934134D01*
X197936986Y-140119706D01*
X198194966Y-140257599D01*
X198474889Y-140342513D01*
X198766000Y-140371185D01*
X199057110Y-140342513D01*
X199337033Y-140257599D01*
X199595013Y-140119706D01*
X199821134Y-139934134D01*
X200006706Y-139708014D01*
X200016000Y-139690626D01*
X200025294Y-139708013D01*
X200210866Y-139934134D01*
X200436986Y-140119706D01*
X200694966Y-140257599D01*
X200974889Y-140342513D01*
X201266000Y-140371185D01*
X201557110Y-140342513D01*
X201837033Y-140257599D01*
X202095013Y-140119706D01*
X202315945Y-139938392D01*
X202326498Y-139973180D01*
X202385463Y-140083494D01*
X202464815Y-140180185D01*
X202561506Y-140259537D01*
X202671820Y-140318502D01*
X202791518Y-140354812D01*
X202916000Y-140367072D01*
X203480250Y-140364000D01*
X203639000Y-140205250D01*
X203639000Y-138881000D01*
X203893000Y-138881000D01*
X203893000Y-140205250D01*
X204051750Y-140364000D01*
X204616000Y-140367072D01*
X204740482Y-140354812D01*
X204860180Y-140318502D01*
X204970494Y-140259537D01*
X205067185Y-140180185D01*
X205146537Y-140083494D01*
X205205502Y-139973180D01*
X205241812Y-139853482D01*
X205254072Y-139729000D01*
X205251000Y-139039750D01*
X205092250Y-138881000D01*
X203893000Y-138881000D01*
X203639000Y-138881000D01*
X203619000Y-138881000D01*
X203619000Y-138627000D01*
X203639000Y-138627000D01*
X203639000Y-137302750D01*
X203893000Y-137302750D01*
X203893000Y-138627000D01*
X205092250Y-138627000D01*
X205251000Y-138468250D01*
X205254072Y-137779000D01*
X205241812Y-137654518D01*
X205205502Y-137534820D01*
X205146537Y-137424506D01*
X205067185Y-137327815D01*
X204970494Y-137248463D01*
X204860180Y-137189498D01*
X204740482Y-137153188D01*
X204616000Y-137140928D01*
X204051750Y-137144000D01*
X203893000Y-137302750D01*
X203639000Y-137302750D01*
X203480250Y-137144000D01*
X202916000Y-137140928D01*
X202791518Y-137153188D01*
X202671820Y-137189498D01*
X202561506Y-137248463D01*
X202464815Y-137327815D01*
X202385463Y-137424506D01*
X202326498Y-137534820D01*
X202315945Y-137569608D01*
X202095014Y-137388294D01*
X201837034Y-137250401D01*
X201557111Y-137165487D01*
X201266000Y-137136815D01*
X200974890Y-137165487D01*
X200694967Y-137250401D01*
X200436987Y-137388294D01*
X200210866Y-137573866D01*
X200025294Y-137799986D01*
X200016000Y-137817374D01*
X200006706Y-137799986D01*
X199821134Y-137573866D01*
X199595014Y-137388294D01*
X199337034Y-137250401D01*
X199057111Y-137165487D01*
X198766000Y-137136815D01*
X198474890Y-137165487D01*
X198304098Y-137217296D01*
X189926803Y-128840002D01*
X189903000Y-128810998D01*
X189823800Y-128746000D01*
X199055199Y-128746000D01*
X208672030Y-138362832D01*
X208653000Y-138556050D01*
X208653000Y-138951949D01*
X208674487Y-139170110D01*
X208759401Y-139450033D01*
X208897294Y-139708013D01*
X209082866Y-139934134D01*
X209308986Y-140119706D01*
X209566966Y-140257599D01*
X209846889Y-140342513D01*
X210138000Y-140371185D01*
X210429110Y-140342513D01*
X210709033Y-140257599D01*
X210967013Y-140119706D01*
X211193134Y-139934134D01*
X211378706Y-139708014D01*
X211388000Y-139690626D01*
X211397294Y-139708013D01*
X211582866Y-139934134D01*
X211808986Y-140119706D01*
X212066966Y-140257599D01*
X212346889Y-140342513D01*
X212638000Y-140371185D01*
X212929110Y-140342513D01*
X213209033Y-140257599D01*
X213467013Y-140119706D01*
X213687945Y-139938392D01*
X213698498Y-139973180D01*
X213757463Y-140083494D01*
X213836815Y-140180185D01*
X213933506Y-140259537D01*
X214043820Y-140318502D01*
X214163518Y-140354812D01*
X214288000Y-140367072D01*
X214852250Y-140364000D01*
X215011000Y-140205250D01*
X215011000Y-138881000D01*
X215265000Y-138881000D01*
X215265000Y-140205250D01*
X215423750Y-140364000D01*
X215988000Y-140367072D01*
X216112482Y-140354812D01*
X216232180Y-140318502D01*
X216342494Y-140259537D01*
X216439185Y-140180185D01*
X216518537Y-140083494D01*
X216577502Y-139973180D01*
X216613812Y-139853482D01*
X216626072Y-139729000D01*
X216623000Y-139039750D01*
X216464250Y-138881000D01*
X215265000Y-138881000D01*
X215011000Y-138881000D01*
X214991000Y-138881000D01*
X214991000Y-138627000D01*
X215011000Y-138627000D01*
X215011000Y-137302750D01*
X215265000Y-137302750D01*
X215265000Y-138627000D01*
X216464250Y-138627000D01*
X216623000Y-138468250D01*
X216626072Y-137779000D01*
X216613812Y-137654518D01*
X216577502Y-137534820D01*
X216518537Y-137424506D01*
X216439185Y-137327815D01*
X216342494Y-137248463D01*
X216232180Y-137189498D01*
X216112482Y-137153188D01*
X215988000Y-137140928D01*
X215423750Y-137144000D01*
X215265000Y-137302750D01*
X215011000Y-137302750D01*
X214852250Y-137144000D01*
X214288000Y-137140928D01*
X214163518Y-137153188D01*
X214043820Y-137189498D01*
X213933506Y-137248463D01*
X213836815Y-137327815D01*
X213757463Y-137424506D01*
X213698498Y-137534820D01*
X213687945Y-137569608D01*
X213467014Y-137388294D01*
X213209034Y-137250401D01*
X212929111Y-137165487D01*
X212638000Y-137136815D01*
X212346890Y-137165487D01*
X212066967Y-137250401D01*
X211808987Y-137388294D01*
X211582866Y-137573866D01*
X211397294Y-137799986D01*
X211388000Y-137817374D01*
X211378706Y-137799986D01*
X211193134Y-137573866D01*
X210967014Y-137388294D01*
X210709034Y-137250401D01*
X210429111Y-137165487D01*
X210138000Y-137136815D01*
X209846890Y-137165487D01*
X209676098Y-137217296D01*
X199933804Y-127475003D01*
X199910001Y-127445999D01*
X199830801Y-127381001D01*
X209444200Y-127381001D01*
X220356030Y-138292832D01*
X220337000Y-138486050D01*
X220337000Y-138881949D01*
X220358487Y-139100110D01*
X220443401Y-139380033D01*
X220581294Y-139638013D01*
X220766866Y-139864134D01*
X220992986Y-140049706D01*
X221250966Y-140187599D01*
X221530889Y-140272513D01*
X221822000Y-140301185D01*
X222113110Y-140272513D01*
X222393033Y-140187599D01*
X222651013Y-140049706D01*
X222877134Y-139864134D01*
X223062706Y-139638014D01*
X223072000Y-139620626D01*
X223081294Y-139638013D01*
X223266866Y-139864134D01*
X223492986Y-140049706D01*
X223750966Y-140187599D01*
X224030889Y-140272513D01*
X224322000Y-140301185D01*
X224613110Y-140272513D01*
X224893033Y-140187599D01*
X225151013Y-140049706D01*
X225371945Y-139868392D01*
X225382498Y-139903180D01*
X225441463Y-140013494D01*
X225520815Y-140110185D01*
X225617506Y-140189537D01*
X225727820Y-140248502D01*
X225847518Y-140284812D01*
X225972000Y-140297072D01*
X226536250Y-140294000D01*
X226695000Y-140135250D01*
X226695000Y-138811000D01*
X226949000Y-138811000D01*
X226949000Y-140135250D01*
X227107750Y-140294000D01*
X227672000Y-140297072D01*
X227796482Y-140284812D01*
X227916180Y-140248502D01*
X228026494Y-140189537D01*
X228123185Y-140110185D01*
X228202537Y-140013494D01*
X228261502Y-139903180D01*
X228297812Y-139783482D01*
X228310072Y-139659000D01*
X228307000Y-138969750D01*
X228148250Y-138811000D01*
X226949000Y-138811000D01*
X226695000Y-138811000D01*
X226675000Y-138811000D01*
X226675000Y-138557000D01*
X226695000Y-138557000D01*
X226695000Y-137232750D01*
X226949000Y-137232750D01*
X226949000Y-138557000D01*
X228148250Y-138557000D01*
X228307000Y-138398250D01*
X228310072Y-137709000D01*
X228297812Y-137584518D01*
X228261502Y-137464820D01*
X228202537Y-137354506D01*
X228123185Y-137257815D01*
X228026494Y-137178463D01*
X227916180Y-137119498D01*
X227796482Y-137083188D01*
X227672000Y-137070928D01*
X227107750Y-137074000D01*
X226949000Y-137232750D01*
X226695000Y-137232750D01*
X226536250Y-137074000D01*
X225972000Y-137070928D01*
X225847518Y-137083188D01*
X225727820Y-137119498D01*
X225617506Y-137178463D01*
X225520815Y-137257815D01*
X225441463Y-137354506D01*
X225382498Y-137464820D01*
X225371945Y-137499608D01*
X225151014Y-137318294D01*
X224893034Y-137180401D01*
X224613111Y-137095487D01*
X224322000Y-137066815D01*
X224030890Y-137095487D01*
X223750967Y-137180401D01*
X223492987Y-137318294D01*
X223266866Y-137503866D01*
X223081294Y-137729986D01*
X223072000Y-137747374D01*
X223062706Y-137729986D01*
X222877134Y-137503866D01*
X222651014Y-137318294D01*
X222393034Y-137180401D01*
X222113111Y-137095487D01*
X221822000Y-137066815D01*
X221530890Y-137095487D01*
X221360098Y-137147296D01*
X210322805Y-126110004D01*
X210299002Y-126081000D01*
X210183277Y-125986027D01*
X210051248Y-125915455D01*
X209907987Y-125871998D01*
X209796334Y-125861001D01*
X209796323Y-125861001D01*
X209759001Y-125857325D01*
X209721679Y-125861001D01*
X180395544Y-125861001D01*
X180449000Y-125592260D01*
X180449000Y-125299740D01*
X180391932Y-125012842D01*
X180279990Y-124742589D01*
X180117475Y-124499368D01*
X179910632Y-124292525D01*
X179736240Y-124176000D01*
X179910632Y-124059475D01*
X180117475Y-123852632D01*
X180279990Y-123609411D01*
X180391932Y-123339158D01*
X180449000Y-123052260D01*
X180449000Y-122759740D01*
X180391932Y-122472842D01*
X180279990Y-122202589D01*
X180117475Y-121959368D01*
X179910632Y-121752525D01*
X179736240Y-121636000D01*
X179910632Y-121519475D01*
X180117475Y-121312632D01*
X180279990Y-121069411D01*
X180391932Y-120799158D01*
X180449000Y-120512260D01*
X180449000Y-120219740D01*
X180391932Y-119932842D01*
X180279990Y-119662589D01*
X180117475Y-119419368D01*
X179910632Y-119212525D01*
X179736240Y-119096000D01*
X179910632Y-118979475D01*
X180117475Y-118772632D01*
X180279990Y-118529411D01*
X180391932Y-118259158D01*
X180449000Y-117972260D01*
X180449000Y-117679740D01*
X180391932Y-117392842D01*
X180279990Y-117122589D01*
X180117475Y-116879368D01*
X179910632Y-116672525D01*
X179736240Y-116556000D01*
X179910632Y-116439475D01*
X180117475Y-116232632D01*
X180279990Y-115989411D01*
X180391932Y-115719158D01*
X180449000Y-115432260D01*
X180449000Y-115139740D01*
X180391932Y-114852842D01*
X180279990Y-114582589D01*
X180117475Y-114339368D01*
X179910632Y-114132525D01*
X179736240Y-114016000D01*
X179910632Y-113899475D01*
X180117475Y-113692632D01*
X180279990Y-113449411D01*
X180391932Y-113179158D01*
X180449000Y-112892260D01*
X180449000Y-112599740D01*
X180391932Y-112312842D01*
X180279990Y-112042589D01*
X180117475Y-111799368D01*
X179910632Y-111592525D01*
X179736240Y-111476000D01*
X179910632Y-111359475D01*
X180117475Y-111152632D01*
X180279990Y-110909411D01*
X180391932Y-110639158D01*
X180449000Y-110352260D01*
X180449000Y-110059740D01*
X180391932Y-109772842D01*
X180279990Y-109502589D01*
X180117475Y-109259368D01*
X179910632Y-109052525D01*
X179736240Y-108936000D01*
X179910632Y-108819475D01*
X180117475Y-108612632D01*
X180279990Y-108369411D01*
X180391932Y-108099158D01*
X180449000Y-107812260D01*
X180449000Y-107519740D01*
X180391932Y-107232842D01*
X180279990Y-106962589D01*
X180117475Y-106719368D01*
X179910632Y-106512525D01*
X179736240Y-106396000D01*
X179910632Y-106279475D01*
X180117475Y-106072632D01*
X180279990Y-105829411D01*
X180391932Y-105559158D01*
X180449000Y-105272260D01*
X180449000Y-104979740D01*
X180391932Y-104692842D01*
X180279990Y-104422589D01*
X180117475Y-104179368D01*
X179910632Y-103972525D01*
X179736240Y-103856000D01*
X179910632Y-103739475D01*
X180117475Y-103532632D01*
X180279990Y-103289411D01*
X180391932Y-103019158D01*
X180449000Y-102732260D01*
X180449000Y-102439740D01*
X180391932Y-102152842D01*
X180279990Y-101882589D01*
X180117475Y-101639368D01*
X179910632Y-101432525D01*
X179728466Y-101310805D01*
X179845355Y-101241178D01*
X180061588Y-101046269D01*
X180235641Y-100812920D01*
X180360825Y-100550099D01*
X180405476Y-100402890D01*
X180284155Y-100173000D01*
X179091000Y-100173000D01*
X179091000Y-100193000D01*
X178837000Y-100193000D01*
X178837000Y-100173000D01*
X178817000Y-100173000D01*
X178817000Y-99919000D01*
X178837000Y-99919000D01*
X178837000Y-99899000D01*
X179091000Y-99899000D01*
X179091000Y-99919000D01*
X180284155Y-99919000D01*
X180405476Y-99689110D01*
X180360825Y-99541901D01*
X180235641Y-99279080D01*
X180061588Y-99045731D01*
X179845355Y-98850822D01*
X179728466Y-98781195D01*
X179910632Y-98659475D01*
X180117475Y-98452632D01*
X180242178Y-98266000D01*
X183191199Y-98266000D01*
X220436200Y-135511002D01*
X220459999Y-135540001D01*
X220575724Y-135634974D01*
X220707753Y-135705546D01*
X220851014Y-135749003D01*
X220962667Y-135760000D01*
X220962676Y-135760000D01*
X220999999Y-135763676D01*
X221037322Y-135760000D01*
X226984197Y-135760000D01*
X230489199Y-139265003D01*
X230512997Y-139294001D01*
X230628722Y-139388974D01*
X230760751Y-139459546D01*
X230904012Y-139503003D01*
X231015665Y-139514000D01*
X231015673Y-139514000D01*
X231052998Y-139517676D01*
X231090323Y-139514000D01*
X231711592Y-139514000D01*
X231815294Y-139708013D01*
X232000866Y-139934134D01*
X232226986Y-140119706D01*
X232484966Y-140257599D01*
X232764889Y-140342513D01*
X233056000Y-140371185D01*
X233347110Y-140342513D01*
X233627033Y-140257599D01*
X233885013Y-140119706D01*
X234111134Y-139934134D01*
X234296706Y-139708014D01*
X234306000Y-139690626D01*
X234315294Y-139708013D01*
X234500866Y-139934134D01*
X234726986Y-140119706D01*
X234984966Y-140257599D01*
X235264889Y-140342513D01*
X235556000Y-140371185D01*
X235847110Y-140342513D01*
X236127033Y-140257599D01*
X236385013Y-140119706D01*
X236605945Y-139938392D01*
X236616498Y-139973180D01*
X236675463Y-140083494D01*
X236754815Y-140180185D01*
X236851506Y-140259537D01*
X236961820Y-140318502D01*
X237081518Y-140354812D01*
X237206000Y-140367072D01*
X237770250Y-140364000D01*
X237929000Y-140205250D01*
X237929000Y-138881000D01*
X238183000Y-138881000D01*
X238183000Y-140205250D01*
X238341750Y-140364000D01*
X238906000Y-140367072D01*
X239030482Y-140354812D01*
X239150180Y-140318502D01*
X239260494Y-140259537D01*
X239357185Y-140180185D01*
X239436537Y-140083494D01*
X239495502Y-139973180D01*
X239531812Y-139853482D01*
X239544072Y-139729000D01*
X239541000Y-139039750D01*
X239382250Y-138881000D01*
X238183000Y-138881000D01*
X237929000Y-138881000D01*
X237909000Y-138881000D01*
X237909000Y-138627000D01*
X237929000Y-138627000D01*
X237929000Y-137302750D01*
X238183000Y-137302750D01*
X238183000Y-138627000D01*
X239382250Y-138627000D01*
X239541000Y-138468250D01*
X239544072Y-137779000D01*
X239531812Y-137654518D01*
X239495502Y-137534820D01*
X239436537Y-137424506D01*
X239357185Y-137327815D01*
X239260494Y-137248463D01*
X239150180Y-137189498D01*
X239030482Y-137153188D01*
X238906000Y-137140928D01*
X238341750Y-137144000D01*
X238183000Y-137302750D01*
X237929000Y-137302750D01*
X237770250Y-137144000D01*
X237206000Y-137140928D01*
X237081518Y-137153188D01*
X236961820Y-137189498D01*
X236851506Y-137248463D01*
X236754815Y-137327815D01*
X236675463Y-137424506D01*
X236616498Y-137534820D01*
X236605945Y-137569608D01*
X236385014Y-137388294D01*
X236127034Y-137250401D01*
X235847111Y-137165487D01*
X235556000Y-137136815D01*
X235264890Y-137165487D01*
X234984967Y-137250401D01*
X234726987Y-137388294D01*
X234500866Y-137573866D01*
X234315294Y-137799986D01*
X234306000Y-137817374D01*
X234296706Y-137799986D01*
X234111134Y-137573866D01*
X233885014Y-137388294D01*
X233627034Y-137250401D01*
X233347111Y-137165487D01*
X233056000Y-137136815D01*
X232764890Y-137165487D01*
X232484967Y-137250401D01*
X232226987Y-137388294D01*
X232000866Y-137573866D01*
X231815294Y-137799986D01*
X231711591Y-137994000D01*
X231367800Y-137994000D01*
X227862802Y-134489003D01*
X227847825Y-134470754D01*
X228065355Y-134341178D01*
X228281588Y-134146269D01*
X228454000Y-133915120D01*
X228626412Y-134146269D01*
X228842645Y-134341178D01*
X229092748Y-134490157D01*
X229367109Y-134587481D01*
X229597000Y-134466814D01*
X229597000Y-133273000D01*
X229851000Y-133273000D01*
X229851000Y-134466814D01*
X230080891Y-134587481D01*
X230355252Y-134490157D01*
X230605355Y-134341178D01*
X230821588Y-134146269D01*
X230995641Y-133912920D01*
X231120825Y-133650099D01*
X231165476Y-133502890D01*
X231044155Y-133273000D01*
X229851000Y-133273000D01*
X229597000Y-133273000D01*
X227311000Y-133273000D01*
X227311000Y-133293000D01*
X227057000Y-133293000D01*
X227057000Y-133273000D01*
X225863845Y-133273000D01*
X225742524Y-133502890D01*
X225787175Y-133650099D01*
X225912359Y-133912920D01*
X226086412Y-134146269D01*
X226190398Y-134240000D01*
X221314802Y-134240000D01*
X184165800Y-97090999D01*
X189443198Y-97090999D01*
X224834199Y-132482001D01*
X224857998Y-132511000D01*
X224973723Y-132605973D01*
X225105752Y-132676545D01*
X225249013Y-132720002D01*
X225360666Y-132730999D01*
X225360675Y-132730999D01*
X225397998Y-132734675D01*
X225435321Y-132730999D01*
X225760150Y-132730999D01*
X225742524Y-132789110D01*
X225863845Y-133019000D01*
X227057000Y-133019000D01*
X227057000Y-132999000D01*
X227311000Y-132999000D01*
X227311000Y-133019000D01*
X229597000Y-133019000D01*
X229597000Y-132999000D01*
X229851000Y-132999000D01*
X229851000Y-133019000D01*
X231044155Y-133019000D01*
X231165476Y-132789110D01*
X231147850Y-132730999D01*
X237400198Y-132730999D01*
X242962030Y-138292832D01*
X242943000Y-138486050D01*
X242943000Y-138881949D01*
X242964487Y-139100110D01*
X243049401Y-139380033D01*
X243187294Y-139638013D01*
X243372866Y-139864134D01*
X243598986Y-140049706D01*
X243856966Y-140187599D01*
X244136889Y-140272513D01*
X244428000Y-140301185D01*
X244719110Y-140272513D01*
X244999033Y-140187599D01*
X245257013Y-140049706D01*
X245483134Y-139864134D01*
X245668706Y-139638014D01*
X245678000Y-139620626D01*
X245687294Y-139638013D01*
X245872866Y-139864134D01*
X246098986Y-140049706D01*
X246356966Y-140187599D01*
X246636889Y-140272513D01*
X246928000Y-140301185D01*
X247219110Y-140272513D01*
X247499033Y-140187599D01*
X247757013Y-140049706D01*
X247977945Y-139868392D01*
X247988498Y-139903180D01*
X248047463Y-140013494D01*
X248126815Y-140110185D01*
X248223506Y-140189537D01*
X248333820Y-140248502D01*
X248453518Y-140284812D01*
X248578000Y-140297072D01*
X249142250Y-140294000D01*
X249301000Y-140135250D01*
X249301000Y-138811000D01*
X249555000Y-138811000D01*
X249555000Y-140135250D01*
X249713750Y-140294000D01*
X250278000Y-140297072D01*
X250402482Y-140284812D01*
X250522180Y-140248502D01*
X250632494Y-140189537D01*
X250729185Y-140110185D01*
X250808537Y-140013494D01*
X250867502Y-139903180D01*
X250903812Y-139783482D01*
X250916072Y-139659000D01*
X250913000Y-138969750D01*
X250754250Y-138811000D01*
X249555000Y-138811000D01*
X249301000Y-138811000D01*
X249281000Y-138811000D01*
X249281000Y-138557000D01*
X249301000Y-138557000D01*
X249301000Y-137232750D01*
X249555000Y-137232750D01*
X249555000Y-138557000D01*
X250754250Y-138557000D01*
X250913000Y-138398250D01*
X250916072Y-137709000D01*
X250903812Y-137584518D01*
X250867502Y-137464820D01*
X250808537Y-137354506D01*
X250729185Y-137257815D01*
X250632494Y-137178463D01*
X250522180Y-137119498D01*
X250402482Y-137083188D01*
X250278000Y-137070928D01*
X249713750Y-137074000D01*
X249555000Y-137232750D01*
X249301000Y-137232750D01*
X249142250Y-137074000D01*
X248578000Y-137070928D01*
X248453518Y-137083188D01*
X248333820Y-137119498D01*
X248223506Y-137178463D01*
X248126815Y-137257815D01*
X248047463Y-137354506D01*
X247988498Y-137464820D01*
X247977945Y-137499608D01*
X247757014Y-137318294D01*
X247499034Y-137180401D01*
X247219111Y-137095487D01*
X246928000Y-137066815D01*
X246636890Y-137095487D01*
X246356967Y-137180401D01*
X246098987Y-137318294D01*
X245872866Y-137503866D01*
X245687294Y-137729986D01*
X245678000Y-137747374D01*
X245668706Y-137729986D01*
X245483134Y-137503866D01*
X245257014Y-137318294D01*
X244999034Y-137180401D01*
X244719111Y-137095487D01*
X244428000Y-137066815D01*
X244136890Y-137095487D01*
X243966098Y-137147296D01*
X239598674Y-132779872D01*
X241765000Y-132779872D01*
X241765000Y-133220128D01*
X241850890Y-133651925D01*
X242019369Y-134058669D01*
X242263962Y-134424729D01*
X242575271Y-134736038D01*
X242941331Y-134980631D01*
X243348075Y-135149110D01*
X243779872Y-135235000D01*
X244220128Y-135235000D01*
X244651925Y-135149110D01*
X245058669Y-134980631D01*
X245424729Y-134736038D01*
X245736038Y-134424729D01*
X245980631Y-134058669D01*
X246149110Y-133651925D01*
X246235000Y-133220128D01*
X246235000Y-132779872D01*
X246149110Y-132348075D01*
X245980631Y-131941331D01*
X245736038Y-131575271D01*
X245424729Y-131263962D01*
X245058669Y-131019369D01*
X244651925Y-130850890D01*
X244220128Y-130765000D01*
X243779872Y-130765000D01*
X243348075Y-130850890D01*
X242941331Y-131019369D01*
X242575271Y-131263962D01*
X242263962Y-131575271D01*
X242019369Y-131941331D01*
X241850890Y-132348075D01*
X241765000Y-132779872D01*
X239598674Y-132779872D01*
X238278803Y-131460002D01*
X238255000Y-131430998D01*
X238139275Y-131336025D01*
X238007246Y-131265453D01*
X237863985Y-131221996D01*
X237752332Y-131210999D01*
X237752321Y-131210999D01*
X237714999Y-131207323D01*
X237677677Y-131210999D01*
X231080753Y-131210999D01*
X231151932Y-131039158D01*
X231209000Y-130752260D01*
X231209000Y-130459740D01*
X231151932Y-130172842D01*
X231039990Y-129902589D01*
X230944715Y-129760000D01*
X241962678Y-129760000D01*
X242000000Y-129763676D01*
X242037322Y-129760000D01*
X242037333Y-129760000D01*
X242148986Y-129749003D01*
X242292247Y-129705546D01*
X242424276Y-129634974D01*
X242540001Y-129540001D01*
X242563804Y-129510997D01*
X243503911Y-128570890D01*
X245575524Y-128570890D01*
X245667648Y-128833858D01*
X245814504Y-129085193D01*
X246007571Y-129303049D01*
X246239430Y-129479053D01*
X246501170Y-129606442D01*
X246782733Y-129680320D01*
X247015000Y-129540165D01*
X247015000Y-128341000D01*
X247269000Y-128341000D01*
X247269000Y-129540165D01*
X247501267Y-129680320D01*
X247782830Y-129606442D01*
X248044570Y-129479053D01*
X248276429Y-129303049D01*
X248469496Y-129085193D01*
X248616352Y-128833858D01*
X248708476Y-128570890D01*
X248587155Y-128341000D01*
X247269000Y-128341000D01*
X247015000Y-128341000D01*
X245696845Y-128341000D01*
X245575524Y-128570890D01*
X243503911Y-128570890D01*
X245600802Y-126474000D01*
X245739405Y-126474000D01*
X245776294Y-126543014D01*
X245961866Y-126769134D01*
X246187986Y-126954706D01*
X246213722Y-126968462D01*
X246007571Y-127124951D01*
X245814504Y-127342807D01*
X245667648Y-127594142D01*
X245575524Y-127857110D01*
X245696845Y-128087000D01*
X247015000Y-128087000D01*
X247015000Y-128067000D01*
X247269000Y-128067000D01*
X247269000Y-128087000D01*
X248587155Y-128087000D01*
X248708476Y-127857110D01*
X248616352Y-127594142D01*
X248469496Y-127342807D01*
X248276429Y-127124951D01*
X248070278Y-126968462D01*
X248096014Y-126954706D01*
X248322134Y-126769134D01*
X248507706Y-126543014D01*
X248645599Y-126285034D01*
X248730513Y-126005111D01*
X248759185Y-125714000D01*
X248730513Y-125422889D01*
X248645599Y-125142966D01*
X248507706Y-124884986D01*
X248322134Y-124658866D01*
X248096014Y-124473294D01*
X248078626Y-124464000D01*
X248096014Y-124454706D01*
X248322134Y-124269134D01*
X248507706Y-124043014D01*
X248645599Y-123785034D01*
X248730513Y-123505111D01*
X248759185Y-123214000D01*
X248730513Y-122922889D01*
X248645599Y-122642966D01*
X248507706Y-122384986D01*
X248322134Y-122158866D01*
X248258663Y-122106777D01*
X248360386Y-122052405D01*
X248494962Y-121941962D01*
X248605405Y-121807386D01*
X248687472Y-121653850D01*
X248738008Y-121487254D01*
X248755072Y-121314000D01*
X248755072Y-120114000D01*
X248738008Y-119940746D01*
X248687472Y-119774150D01*
X248605405Y-119620614D01*
X248494962Y-119486038D01*
X248360386Y-119375595D01*
X248206850Y-119293528D01*
X248040254Y-119242992D01*
X247867000Y-119225928D01*
X246417000Y-119225928D01*
X246243746Y-119242992D01*
X246077150Y-119293528D01*
X245923614Y-119375595D01*
X245789038Y-119486038D01*
X245678595Y-119620614D01*
X245596528Y-119774150D01*
X245545992Y-119940746D01*
X245528928Y-120114000D01*
X245528928Y-121314000D01*
X245545992Y-121487254D01*
X245596528Y-121653850D01*
X245678595Y-121807386D01*
X245789038Y-121941962D01*
X245923614Y-122052405D01*
X246025337Y-122106777D01*
X245961866Y-122158866D01*
X245776294Y-122384986D01*
X245738891Y-122454963D01*
X245637014Y-122464997D01*
X245493753Y-122508454D01*
X245361724Y-122579026D01*
X245361722Y-122579027D01*
X245361723Y-122579027D01*
X245274996Y-122650201D01*
X245274992Y-122650205D01*
X245245999Y-122673999D01*
X245222205Y-122702992D01*
X243050198Y-124875001D01*
X242431544Y-124875001D01*
X242485000Y-124606260D01*
X242485000Y-124313740D01*
X242427932Y-124026842D01*
X242315990Y-123756589D01*
X242153475Y-123513368D01*
X241946632Y-123306525D01*
X241772240Y-123190000D01*
X241946632Y-123073475D01*
X242153475Y-122866632D01*
X242315990Y-122623411D01*
X242427932Y-122353158D01*
X242485000Y-122066260D01*
X242485000Y-121773740D01*
X242427932Y-121486842D01*
X242315990Y-121216589D01*
X242153475Y-120973368D01*
X241946632Y-120766525D01*
X241772240Y-120650000D01*
X241946632Y-120533475D01*
X242153475Y-120326632D01*
X242315990Y-120083411D01*
X242427932Y-119813158D01*
X242485000Y-119526260D01*
X242485000Y-119233740D01*
X242427932Y-118946842D01*
X242350540Y-118760000D01*
X247962678Y-118760000D01*
X248000000Y-118763676D01*
X248037322Y-118760000D01*
X248037333Y-118760000D01*
X248148986Y-118749003D01*
X248292247Y-118705546D01*
X248424276Y-118634974D01*
X248540001Y-118540001D01*
X248563804Y-118510997D01*
X250511003Y-116563799D01*
X250540001Y-116540001D01*
X250622501Y-116439475D01*
X250634974Y-116424277D01*
X250705546Y-116292247D01*
X250749003Y-116148986D01*
X250760000Y-116037333D01*
X250760000Y-116037324D01*
X250763676Y-116000001D01*
X250760000Y-115962678D01*
X250760000Y-113037333D01*
X250763677Y-113000000D01*
X250749003Y-112851014D01*
X250705546Y-112707753D01*
X250634974Y-112575724D01*
X250563799Y-112488997D01*
X250540001Y-112459999D01*
X250511004Y-112436202D01*
X249563804Y-111489002D01*
X249540001Y-111459999D01*
X249424276Y-111365026D01*
X249292247Y-111294454D01*
X249148986Y-111250997D01*
X249037333Y-111240000D01*
X249037322Y-111240000D01*
X249000000Y-111236324D01*
X248962678Y-111240000D01*
X248402595Y-111240000D01*
X248365706Y-111170986D01*
X248180134Y-110944866D01*
X247954014Y-110759294D01*
X247928278Y-110745538D01*
X248134429Y-110589049D01*
X248327496Y-110371193D01*
X248474352Y-110119858D01*
X248566476Y-109856890D01*
X248445155Y-109627000D01*
X247127000Y-109627000D01*
X247127000Y-109647000D01*
X246873000Y-109647000D01*
X246873000Y-109627000D01*
X245554845Y-109627000D01*
X245433524Y-109856890D01*
X245525648Y-110119858D01*
X245672504Y-110371193D01*
X245865571Y-110589049D01*
X246071722Y-110745538D01*
X246045986Y-110759294D01*
X245819866Y-110944866D01*
X245634294Y-111170986D01*
X245496401Y-111428966D01*
X245411487Y-111708889D01*
X245382815Y-112000000D01*
X245411487Y-112291111D01*
X245496401Y-112571034D01*
X245634294Y-112829014D01*
X245819866Y-113055134D01*
X246045986Y-113240706D01*
X246063374Y-113250000D01*
X246045986Y-113259294D01*
X245819866Y-113444866D01*
X245634294Y-113670986D01*
X245597405Y-113740000D01*
X233167322Y-113740000D01*
X233129999Y-113736324D01*
X233092676Y-113740000D01*
X233092667Y-113740000D01*
X232981014Y-113750997D01*
X232837753Y-113794454D01*
X232705724Y-113865026D01*
X232705722Y-113865027D01*
X232705723Y-113865027D01*
X232618996Y-113936201D01*
X232618992Y-113936205D01*
X232589999Y-113959999D01*
X232566205Y-113988992D01*
X231209000Y-115346198D01*
X231209000Y-115219740D01*
X231165209Y-114999592D01*
X233404802Y-112760000D01*
X239962678Y-112760000D01*
X240000000Y-112763676D01*
X240037322Y-112760000D01*
X240037333Y-112760000D01*
X240148986Y-112749003D01*
X240292247Y-112705546D01*
X240424276Y-112634974D01*
X240540001Y-112540001D01*
X240563804Y-112510997D01*
X243511003Y-109563799D01*
X243540001Y-109540001D01*
X243634974Y-109424276D01*
X243705546Y-109292247D01*
X243749003Y-109148986D01*
X243760000Y-109037333D01*
X243760000Y-109037325D01*
X243763676Y-109000000D01*
X243760000Y-108962675D01*
X243760000Y-106400000D01*
X245386928Y-106400000D01*
X245386928Y-107600000D01*
X245403992Y-107773254D01*
X245454528Y-107939850D01*
X245536595Y-108093386D01*
X245647038Y-108227962D01*
X245781614Y-108338405D01*
X245886961Y-108394714D01*
X245865571Y-108410951D01*
X245672504Y-108628807D01*
X245525648Y-108880142D01*
X245433524Y-109143110D01*
X245554845Y-109373000D01*
X246873000Y-109373000D01*
X246873000Y-109353000D01*
X247127000Y-109353000D01*
X247127000Y-109373000D01*
X248445155Y-109373000D01*
X248566476Y-109143110D01*
X248474352Y-108880142D01*
X248327496Y-108628807D01*
X248134429Y-108410951D01*
X248113039Y-108394714D01*
X248218386Y-108338405D01*
X248352962Y-108227962D01*
X248463405Y-108093386D01*
X248545472Y-107939850D01*
X248596008Y-107773254D01*
X248613072Y-107600000D01*
X248613072Y-106400000D01*
X248596008Y-106226746D01*
X248545472Y-106060150D01*
X248463405Y-105906614D01*
X248352962Y-105772038D01*
X248218386Y-105661595D01*
X248064850Y-105579528D01*
X247898254Y-105528992D01*
X247725000Y-105511928D01*
X246275000Y-105511928D01*
X246101746Y-105528992D01*
X245935150Y-105579528D01*
X245781614Y-105661595D01*
X245647038Y-105772038D01*
X245536595Y-105906614D01*
X245454528Y-106060150D01*
X245403992Y-106226746D01*
X245386928Y-106400000D01*
X243760000Y-106400000D01*
X243760000Y-106314801D01*
X247511003Y-102563799D01*
X247540001Y-102540001D01*
X247634974Y-102424276D01*
X247705546Y-102292247D01*
X247749003Y-102148986D01*
X247760000Y-102037333D01*
X247760000Y-102037324D01*
X247763676Y-102000001D01*
X247760000Y-101962678D01*
X247760000Y-101844409D01*
X247954014Y-101740706D01*
X248180134Y-101555134D01*
X248365706Y-101329014D01*
X248503599Y-101071034D01*
X248588513Y-100791111D01*
X248617185Y-100500000D01*
X248588513Y-100208889D01*
X248503599Y-99928966D01*
X248365706Y-99670986D01*
X248180134Y-99444866D01*
X247954014Y-99259294D01*
X247936626Y-99250000D01*
X247954014Y-99240706D01*
X248180134Y-99055134D01*
X248365706Y-98829014D01*
X248503599Y-98571034D01*
X248588513Y-98291111D01*
X248617185Y-98000000D01*
X248588513Y-97708889D01*
X248503599Y-97428966D01*
X248365706Y-97170986D01*
X248180134Y-96944866D01*
X247954014Y-96759294D01*
X247928278Y-96745538D01*
X248134429Y-96589049D01*
X248327496Y-96371193D01*
X248474352Y-96119858D01*
X248566476Y-95856890D01*
X248445155Y-95627000D01*
X247127000Y-95627000D01*
X247127000Y-95647000D01*
X246873000Y-95647000D01*
X246873000Y-95627000D01*
X245554845Y-95627000D01*
X245433524Y-95856890D01*
X245525648Y-96119858D01*
X245672504Y-96371193D01*
X245865571Y-96589049D01*
X246071722Y-96745538D01*
X246045986Y-96759294D01*
X245819866Y-96944866D01*
X245634294Y-97170986D01*
X245496401Y-97428966D01*
X245411487Y-97708889D01*
X245382815Y-98000000D01*
X245411487Y-98291111D01*
X245463296Y-98461902D01*
X243737155Y-100188043D01*
X243749003Y-100148986D01*
X243760000Y-100037333D01*
X243760000Y-100037324D01*
X243763676Y-100000001D01*
X243760000Y-99962678D01*
X243760000Y-92400000D01*
X245386928Y-92400000D01*
X245386928Y-93600000D01*
X245403992Y-93773254D01*
X245454528Y-93939850D01*
X245536595Y-94093386D01*
X245647038Y-94227962D01*
X245781614Y-94338405D01*
X245886961Y-94394714D01*
X245865571Y-94410951D01*
X245672504Y-94628807D01*
X245525648Y-94880142D01*
X245433524Y-95143110D01*
X245554845Y-95373000D01*
X246873000Y-95373000D01*
X246873000Y-95353000D01*
X247127000Y-95353000D01*
X247127000Y-95373000D01*
X248445155Y-95373000D01*
X248566476Y-95143110D01*
X248474352Y-94880142D01*
X248327496Y-94628807D01*
X248134429Y-94410951D01*
X248113039Y-94394714D01*
X248218386Y-94338405D01*
X248352962Y-94227962D01*
X248463405Y-94093386D01*
X248545472Y-93939850D01*
X248596008Y-93773254D01*
X248613072Y-93600000D01*
X248613072Y-92400000D01*
X248596008Y-92226746D01*
X248545472Y-92060150D01*
X248463405Y-91906614D01*
X248352962Y-91772038D01*
X248218386Y-91661595D01*
X248064850Y-91579528D01*
X247898254Y-91528992D01*
X247725000Y-91511928D01*
X246275000Y-91511928D01*
X246101746Y-91528992D01*
X245935150Y-91579528D01*
X245781614Y-91661595D01*
X245647038Y-91772038D01*
X245536595Y-91906614D01*
X245454528Y-92060150D01*
X245403992Y-92226746D01*
X245386928Y-92400000D01*
X243760000Y-92400000D01*
X243760000Y-88314801D01*
X244814802Y-87260000D01*
X245597405Y-87260000D01*
X245634294Y-87329014D01*
X245819866Y-87555134D01*
X246045986Y-87740706D01*
X246303966Y-87878599D01*
X246583889Y-87963513D01*
X246802050Y-87985000D01*
X247197950Y-87985000D01*
X247416111Y-87963513D01*
X247696034Y-87878599D01*
X247954014Y-87740706D01*
X248180134Y-87555134D01*
X248365706Y-87329014D01*
X248503599Y-87071034D01*
X248588513Y-86791111D01*
X248617185Y-86500000D01*
X248588513Y-86208889D01*
X248503599Y-85928966D01*
X248365706Y-85670986D01*
X248180134Y-85444866D01*
X247954014Y-85259294D01*
X247936626Y-85250000D01*
X247954014Y-85240706D01*
X248180134Y-85055134D01*
X248365706Y-84829014D01*
X248503599Y-84571034D01*
X248588513Y-84291111D01*
X248617185Y-84000000D01*
X248588513Y-83708889D01*
X248503599Y-83428966D01*
X248365706Y-83170986D01*
X248180134Y-82944866D01*
X247954014Y-82759294D01*
X247928278Y-82745538D01*
X248134429Y-82589049D01*
X248327496Y-82371193D01*
X248474352Y-82119858D01*
X248566476Y-81856890D01*
X248445155Y-81627000D01*
X247127000Y-81627000D01*
X247127000Y-81647000D01*
X246873000Y-81647000D01*
X246873000Y-81627000D01*
X245554845Y-81627000D01*
X245433524Y-81856890D01*
X245525648Y-82119858D01*
X245672504Y-82371193D01*
X245865571Y-82589049D01*
X246071722Y-82745538D01*
X246045986Y-82759294D01*
X245819866Y-82944866D01*
X245634294Y-83170986D01*
X245584854Y-83263483D01*
X245482753Y-83294454D01*
X245350724Y-83365026D01*
X245234999Y-83459999D01*
X245211201Y-83488997D01*
X241489003Y-87211196D01*
X241459999Y-87234999D01*
X241411206Y-87294454D01*
X241365026Y-87350724D01*
X241306617Y-87459999D01*
X241294454Y-87482754D01*
X241250997Y-87626015D01*
X241240000Y-87737668D01*
X241240000Y-87737678D01*
X241236324Y-87775000D01*
X241240000Y-87812322D01*
X241240001Y-98685197D01*
X240685199Y-99240000D01*
X236037322Y-99240000D01*
X235999999Y-99236324D01*
X235962676Y-99240000D01*
X235962667Y-99240000D01*
X235851014Y-99250997D01*
X235707753Y-99294454D01*
X235575724Y-99365026D01*
X235575722Y-99365027D01*
X235575723Y-99365027D01*
X235488996Y-99436201D01*
X235488992Y-99436205D01*
X235459999Y-99459999D01*
X235436205Y-99488992D01*
X231654200Y-103270999D01*
X231080753Y-103270999D01*
X231151932Y-103099158D01*
X231209000Y-102812260D01*
X231209000Y-102519740D01*
X231151932Y-102232842D01*
X231039990Y-101962589D01*
X230877475Y-101719368D01*
X230670632Y-101512525D01*
X230496240Y-101396000D01*
X230670632Y-101279475D01*
X230877475Y-101072632D01*
X231039990Y-100829411D01*
X231151932Y-100559158D01*
X231209000Y-100272260D01*
X231209000Y-99979740D01*
X231165209Y-99759592D01*
X235664802Y-95260000D01*
X237597405Y-95260000D01*
X237634294Y-95329014D01*
X237819866Y-95555134D01*
X237883337Y-95607223D01*
X237781614Y-95661595D01*
X237647038Y-95772038D01*
X237536595Y-95906614D01*
X237454528Y-96060150D01*
X237403992Y-96226746D01*
X237386928Y-96400000D01*
X237386928Y-97600000D01*
X237403992Y-97773254D01*
X237454528Y-97939850D01*
X237536595Y-98093386D01*
X237647038Y-98227962D01*
X237781614Y-98338405D01*
X237935150Y-98420472D01*
X238101746Y-98471008D01*
X238275000Y-98488072D01*
X239725000Y-98488072D01*
X239898254Y-98471008D01*
X240064850Y-98420472D01*
X240218386Y-98338405D01*
X240352962Y-98227962D01*
X240463405Y-98093386D01*
X240545472Y-97939850D01*
X240596008Y-97773254D01*
X240613072Y-97600000D01*
X240613072Y-96400000D01*
X240596008Y-96226746D01*
X240545472Y-96060150D01*
X240463405Y-95906614D01*
X240352962Y-95772038D01*
X240218386Y-95661595D01*
X240116663Y-95607223D01*
X240180134Y-95555134D01*
X240365706Y-95329014D01*
X240503599Y-95071034D01*
X240588513Y-94791111D01*
X240617185Y-94500000D01*
X240588513Y-94208889D01*
X240503599Y-93928966D01*
X240365706Y-93670986D01*
X240180134Y-93444866D01*
X239954014Y-93259294D01*
X239936626Y-93250000D01*
X239954014Y-93240706D01*
X240180134Y-93055134D01*
X240365706Y-92829014D01*
X240503599Y-92571034D01*
X240588513Y-92291111D01*
X240617185Y-92000000D01*
X240588513Y-91708889D01*
X240503599Y-91428966D01*
X240365706Y-91170986D01*
X240180134Y-90944866D01*
X239954014Y-90759294D01*
X239928278Y-90745538D01*
X240134429Y-90589049D01*
X240327496Y-90371193D01*
X240474352Y-90119858D01*
X240566476Y-89856890D01*
X240445155Y-89627000D01*
X239127000Y-89627000D01*
X239127000Y-89647000D01*
X238873000Y-89647000D01*
X238873000Y-89627000D01*
X237554845Y-89627000D01*
X237433524Y-89856890D01*
X237525648Y-90119858D01*
X237672504Y-90371193D01*
X237865571Y-90589049D01*
X238071722Y-90745538D01*
X238045986Y-90759294D01*
X237819866Y-90944866D01*
X237634294Y-91170986D01*
X237597405Y-91240000D01*
X237037322Y-91240000D01*
X236999999Y-91236324D01*
X236962676Y-91240000D01*
X236962667Y-91240000D01*
X236851014Y-91250997D01*
X236727935Y-91288332D01*
X236707753Y-91294454D01*
X236575723Y-91365026D01*
X236533126Y-91399985D01*
X236459999Y-91459999D01*
X236436201Y-91488997D01*
X231040757Y-96884441D01*
X231039990Y-96882589D01*
X230877475Y-96639368D01*
X230670632Y-96432525D01*
X230496240Y-96316000D01*
X230670632Y-96199475D01*
X230877475Y-95992632D01*
X231039990Y-95749411D01*
X231151932Y-95479158D01*
X231209000Y-95192260D01*
X231209000Y-94899740D01*
X231151932Y-94612842D01*
X231039990Y-94342589D01*
X230877475Y-94099368D01*
X230670632Y-93892525D01*
X230496240Y-93776000D01*
X230670632Y-93659475D01*
X230877475Y-93452632D01*
X231039990Y-93209411D01*
X231151932Y-92939158D01*
X231209000Y-92652260D01*
X231209000Y-92359740D01*
X231151932Y-92072842D01*
X231039990Y-91802589D01*
X230877475Y-91559368D01*
X230670632Y-91352525D01*
X230496240Y-91236000D01*
X230670632Y-91119475D01*
X230877475Y-90912632D01*
X231039990Y-90669411D01*
X231151932Y-90399158D01*
X231209000Y-90112260D01*
X231209000Y-89819740D01*
X231151932Y-89532842D01*
X231039990Y-89262589D01*
X230960157Y-89143110D01*
X237433524Y-89143110D01*
X237554845Y-89373000D01*
X238873000Y-89373000D01*
X238873000Y-88173835D01*
X239127000Y-88173835D01*
X239127000Y-89373000D01*
X240445155Y-89373000D01*
X240566476Y-89143110D01*
X240474352Y-88880142D01*
X240327496Y-88628807D01*
X240134429Y-88410951D01*
X239902570Y-88234947D01*
X239640830Y-88107558D01*
X239359267Y-88033680D01*
X239127000Y-88173835D01*
X238873000Y-88173835D01*
X238640733Y-88033680D01*
X238359170Y-88107558D01*
X238097430Y-88234947D01*
X237865571Y-88410951D01*
X237672504Y-88628807D01*
X237525648Y-88880142D01*
X237433524Y-89143110D01*
X230960157Y-89143110D01*
X230877475Y-89019368D01*
X230670632Y-88812525D01*
X230496240Y-88696000D01*
X230670632Y-88579475D01*
X230877475Y-88372632D01*
X231039990Y-88129411D01*
X231151932Y-87859158D01*
X231209000Y-87572260D01*
X231209000Y-87279740D01*
X231151932Y-86992842D01*
X231076660Y-86811119D01*
X231087985Y-86810004D01*
X231231246Y-86766547D01*
X231363275Y-86695975D01*
X231479000Y-86601002D01*
X231502803Y-86571998D01*
X234224801Y-83850000D01*
X237386928Y-83850000D01*
X237399188Y-83974482D01*
X237435498Y-84094180D01*
X237494463Y-84204494D01*
X237573815Y-84301185D01*
X237670506Y-84380537D01*
X237780820Y-84439502D01*
X237900518Y-84475812D01*
X238025000Y-84488072D01*
X238714250Y-84485000D01*
X238873000Y-84326250D01*
X238873000Y-83127000D01*
X239127000Y-83127000D01*
X239127000Y-84326250D01*
X239285750Y-84485000D01*
X239975000Y-84488072D01*
X240099482Y-84475812D01*
X240219180Y-84439502D01*
X240329494Y-84380537D01*
X240426185Y-84301185D01*
X240505537Y-84204494D01*
X240564502Y-84094180D01*
X240600812Y-83974482D01*
X240613072Y-83850000D01*
X240610000Y-83285750D01*
X240451250Y-83127000D01*
X239127000Y-83127000D01*
X238873000Y-83127000D01*
X237548750Y-83127000D01*
X237390000Y-83285750D01*
X237386928Y-83850000D01*
X234224801Y-83850000D01*
X237400029Y-80674773D01*
X237411487Y-80791111D01*
X237496401Y-81071034D01*
X237634294Y-81329014D01*
X237815608Y-81549945D01*
X237780820Y-81560498D01*
X237670506Y-81619463D01*
X237573815Y-81698815D01*
X237494463Y-81795506D01*
X237435498Y-81905820D01*
X237399188Y-82025518D01*
X237386928Y-82150000D01*
X237390000Y-82714250D01*
X237548750Y-82873000D01*
X238873000Y-82873000D01*
X238873000Y-82853000D01*
X239127000Y-82853000D01*
X239127000Y-82873000D01*
X240451250Y-82873000D01*
X240610000Y-82714250D01*
X240613072Y-82150000D01*
X240600812Y-82025518D01*
X240564502Y-81905820D01*
X240505537Y-81795506D01*
X240426185Y-81698815D01*
X240329494Y-81619463D01*
X240219180Y-81560498D01*
X240184392Y-81549945D01*
X240365706Y-81329014D01*
X240503599Y-81071034D01*
X240588513Y-80791111D01*
X240617185Y-80500000D01*
X240588513Y-80208889D01*
X240503599Y-79928966D01*
X240365706Y-79670986D01*
X240180134Y-79444866D01*
X239954014Y-79259294D01*
X239936626Y-79250000D01*
X239954014Y-79240706D01*
X240180134Y-79055134D01*
X240365706Y-78829014D01*
X240503599Y-78571034D01*
X240555481Y-78400000D01*
X245386928Y-78400000D01*
X245386928Y-79600000D01*
X245403992Y-79773254D01*
X245454528Y-79939850D01*
X245536595Y-80093386D01*
X245647038Y-80227962D01*
X245781614Y-80338405D01*
X245886961Y-80394714D01*
X245865571Y-80410951D01*
X245672504Y-80628807D01*
X245525648Y-80880142D01*
X245433524Y-81143110D01*
X245554845Y-81373000D01*
X246873000Y-81373000D01*
X246873000Y-81353000D01*
X247127000Y-81353000D01*
X247127000Y-81373000D01*
X248445155Y-81373000D01*
X248566476Y-81143110D01*
X248474352Y-80880142D01*
X248327496Y-80628807D01*
X248134429Y-80410951D01*
X248113039Y-80394714D01*
X248218386Y-80338405D01*
X248352962Y-80227962D01*
X248463405Y-80093386D01*
X248545472Y-79939850D01*
X248596008Y-79773254D01*
X248613072Y-79600000D01*
X248613072Y-78400000D01*
X248596008Y-78226746D01*
X248545472Y-78060150D01*
X248463405Y-77906614D01*
X248352962Y-77772038D01*
X248218386Y-77661595D01*
X248064850Y-77579528D01*
X247898254Y-77528992D01*
X247725000Y-77511928D01*
X246275000Y-77511928D01*
X246101746Y-77528992D01*
X245935150Y-77579528D01*
X245781614Y-77661595D01*
X245647038Y-77772038D01*
X245536595Y-77906614D01*
X245454528Y-78060150D01*
X245403992Y-78226746D01*
X245386928Y-78400000D01*
X240555481Y-78400000D01*
X240588513Y-78291111D01*
X240617185Y-78000000D01*
X240588513Y-77708889D01*
X240503599Y-77428966D01*
X240365706Y-77170986D01*
X240180134Y-76944866D01*
X239954014Y-76759294D01*
X239696034Y-76621401D01*
X239416111Y-76536487D01*
X239197950Y-76515000D01*
X238802050Y-76515000D01*
X238583889Y-76536487D01*
X238303966Y-76621401D01*
X238045986Y-76759294D01*
X237819866Y-76944866D01*
X237634294Y-77170986D01*
X237496401Y-77428966D01*
X237411487Y-77708889D01*
X237382815Y-78000000D01*
X237411487Y-78291111D01*
X237463296Y-78461902D01*
X231205094Y-84720105D01*
X231151932Y-84452842D01*
X231039990Y-84182589D01*
X230877475Y-83939368D01*
X230670632Y-83732525D01*
X230496240Y-83616000D01*
X230670632Y-83499475D01*
X230877475Y-83292632D01*
X231039990Y-83049411D01*
X231151932Y-82779158D01*
X231209000Y-82492260D01*
X231209000Y-82199740D01*
X231151932Y-81912842D01*
X231039990Y-81642589D01*
X230904295Y-81439508D01*
X235511003Y-76832801D01*
X235540001Y-76809003D01*
X235634974Y-76693278D01*
X235705546Y-76561249D01*
X235749003Y-76417988D01*
X235760000Y-76306335D01*
X235760000Y-76306327D01*
X235763676Y-76269002D01*
X235760000Y-76231677D01*
X235760000Y-71850000D01*
X237386928Y-71850000D01*
X237399188Y-71974482D01*
X237435498Y-72094180D01*
X237494463Y-72204494D01*
X237573815Y-72301185D01*
X237670506Y-72380537D01*
X237780820Y-72439502D01*
X237900518Y-72475812D01*
X238025000Y-72488072D01*
X238714250Y-72485000D01*
X238873000Y-72326250D01*
X238873000Y-71127000D01*
X239127000Y-71127000D01*
X239127000Y-72326250D01*
X239285750Y-72485000D01*
X239975000Y-72488072D01*
X240099482Y-72475812D01*
X240219180Y-72439502D01*
X240329494Y-72380537D01*
X240426185Y-72301185D01*
X240505537Y-72204494D01*
X240564502Y-72094180D01*
X240600812Y-71974482D01*
X240613072Y-71850000D01*
X240610000Y-71285750D01*
X240451250Y-71127000D01*
X239127000Y-71127000D01*
X238873000Y-71127000D01*
X237548750Y-71127000D01*
X237390000Y-71285750D01*
X237386928Y-71850000D01*
X235760000Y-71850000D01*
X235760000Y-68314801D01*
X237314802Y-66760000D01*
X237597405Y-66760000D01*
X237634294Y-66829014D01*
X237819866Y-67055134D01*
X238045986Y-67240706D01*
X238063374Y-67250000D01*
X238045986Y-67259294D01*
X237819866Y-67444866D01*
X237634294Y-67670986D01*
X237496401Y-67928966D01*
X237411487Y-68208889D01*
X237382815Y-68500000D01*
X237411487Y-68791111D01*
X237496401Y-69071034D01*
X237634294Y-69329014D01*
X237815608Y-69549945D01*
X237780820Y-69560498D01*
X237670506Y-69619463D01*
X237573815Y-69698815D01*
X237494463Y-69795506D01*
X237435498Y-69905820D01*
X237399188Y-70025518D01*
X237386928Y-70150000D01*
X237390000Y-70714250D01*
X237548750Y-70873000D01*
X238873000Y-70873000D01*
X238873000Y-70853000D01*
X239127000Y-70853000D01*
X239127000Y-70873000D01*
X240451250Y-70873000D01*
X240610000Y-70714250D01*
X240613072Y-70150000D01*
X240600812Y-70025518D01*
X240564502Y-69905820D01*
X240505537Y-69795506D01*
X240426185Y-69698815D01*
X240329494Y-69619463D01*
X240219180Y-69560498D01*
X240184392Y-69549945D01*
X240365706Y-69329014D01*
X240503599Y-69071034D01*
X240588513Y-68791111D01*
X240617185Y-68500000D01*
X240588513Y-68208889D01*
X240503599Y-67928966D01*
X240365706Y-67670986D01*
X240180134Y-67444866D01*
X239954014Y-67259294D01*
X239936626Y-67250000D01*
X239954014Y-67240706D01*
X240180134Y-67055134D01*
X240365706Y-66829014D01*
X240503599Y-66571034D01*
X240588513Y-66291111D01*
X240617185Y-66000000D01*
X240588513Y-65708889D01*
X240503599Y-65428966D01*
X240365706Y-65170986D01*
X240180134Y-64944866D01*
X239954874Y-64760000D01*
X240685199Y-64760000D01*
X245463296Y-69538099D01*
X245411487Y-69708889D01*
X245382815Y-70000000D01*
X245411487Y-70291111D01*
X245496401Y-70571034D01*
X245634294Y-70829014D01*
X245819866Y-71055134D01*
X246045986Y-71240706D01*
X246063374Y-71250000D01*
X246045986Y-71259294D01*
X245819866Y-71444866D01*
X245634294Y-71670986D01*
X245496401Y-71928966D01*
X245411487Y-72208889D01*
X245382815Y-72500000D01*
X245411487Y-72791111D01*
X245496401Y-73071034D01*
X245634294Y-73329014D01*
X245819866Y-73555134D01*
X246045986Y-73740706D01*
X246303966Y-73878599D01*
X246583889Y-73963513D01*
X246802050Y-73985000D01*
X247197950Y-73985000D01*
X247416111Y-73963513D01*
X247696034Y-73878599D01*
X247954014Y-73740706D01*
X248180134Y-73555134D01*
X248365706Y-73329014D01*
X248503599Y-73071034D01*
X248588513Y-72791111D01*
X248617185Y-72500000D01*
X248588513Y-72208889D01*
X248536704Y-72038098D01*
X250511004Y-70063798D01*
X250540001Y-70040001D01*
X250634974Y-69924276D01*
X250705546Y-69792247D01*
X250749003Y-69648986D01*
X250760000Y-69537333D01*
X250760000Y-69537325D01*
X250763676Y-69500000D01*
X250760000Y-69462675D01*
X250760000Y-64037333D01*
X250763677Y-64000000D01*
X250749003Y-63851014D01*
X250705546Y-63707753D01*
X250634974Y-63575724D01*
X250563799Y-63488997D01*
X250540001Y-63459999D01*
X250511003Y-63436201D01*
X249734801Y-62660000D01*
X252340000Y-62660000D01*
X252340001Y-144340000D01*
X173660000Y-144340000D01*
X173660000Y-144038072D01*
X176400000Y-144038072D01*
X176524482Y-144025812D01*
X176644180Y-143989502D01*
X176754494Y-143930537D01*
X176851185Y-143851185D01*
X176930537Y-143754494D01*
X176989502Y-143644180D01*
X177025812Y-143524482D01*
X177036058Y-143420447D01*
X178759158Y-143420447D01*
X178903135Y-143725770D01*
X179260892Y-143906597D01*
X179647053Y-144014155D01*
X180046777Y-144044310D01*
X180444704Y-143995904D01*
X180825540Y-143870795D01*
X181096865Y-143725770D01*
X181240842Y-143420447D01*
X180000000Y-142179605D01*
X178759158Y-143420447D01*
X177036058Y-143420447D01*
X177038072Y-143400000D01*
X177038072Y-142046777D01*
X177955690Y-142046777D01*
X178004096Y-142444704D01*
X178129205Y-142825540D01*
X178274230Y-143096865D01*
X178579553Y-143240842D01*
X179820395Y-142000000D01*
X180179605Y-142000000D01*
X181420447Y-143240842D01*
X181725770Y-143096865D01*
X181906597Y-142739108D01*
X182014155Y-142352947D01*
X182044310Y-141953223D01*
X181995904Y-141555296D01*
X181870795Y-141174460D01*
X181725770Y-140903135D01*
X181420447Y-140759158D01*
X180179605Y-142000000D01*
X179820395Y-142000000D01*
X178579553Y-140759158D01*
X178274230Y-140903135D01*
X178093403Y-141260892D01*
X177985845Y-141647053D01*
X177955690Y-142046777D01*
X177038072Y-142046777D01*
X177038072Y-140600000D01*
X177036059Y-140579553D01*
X178759158Y-140579553D01*
X180000000Y-141820395D01*
X181240842Y-140579553D01*
X181096865Y-140274230D01*
X180739108Y-140093403D01*
X180352947Y-139985845D01*
X179953223Y-139955690D01*
X179555296Y-140004096D01*
X179174460Y-140129205D01*
X178903135Y-140274230D01*
X178759158Y-140579553D01*
X177036059Y-140579553D01*
X177025812Y-140475518D01*
X176989502Y-140355820D01*
X176930537Y-140245506D01*
X176851185Y-140148815D01*
X176754494Y-140069463D01*
X176644180Y-140010498D01*
X176524482Y-139974188D01*
X176400000Y-139961928D01*
X173660000Y-139961928D01*
X173660000Y-133422890D01*
X174982524Y-133422890D01*
X175027175Y-133570099D01*
X175152359Y-133832920D01*
X175326412Y-134066269D01*
X175542645Y-134261178D01*
X175792748Y-134410157D01*
X176067109Y-134507481D01*
X176297000Y-134386814D01*
X176297000Y-133193000D01*
X176551000Y-133193000D01*
X176551000Y-134386814D01*
X176780891Y-134507481D01*
X177055252Y-134410157D01*
X177305355Y-134261178D01*
X177521588Y-134066269D01*
X177694000Y-133835120D01*
X177866412Y-134066269D01*
X178082645Y-134261178D01*
X178332748Y-134410157D01*
X178607109Y-134507481D01*
X178837000Y-134386814D01*
X178837000Y-133193000D01*
X176551000Y-133193000D01*
X176297000Y-133193000D01*
X175103845Y-133193000D01*
X174982524Y-133422890D01*
X173660000Y-133422890D01*
X173660000Y-71749110D01*
X174982524Y-71749110D01*
X175103845Y-71979000D01*
X176297000Y-71979000D01*
X176297000Y-70785186D01*
X176551000Y-70785186D01*
X176551000Y-71979000D01*
X178837000Y-71979000D01*
X178837000Y-70779750D01*
X179091000Y-70779750D01*
X179091000Y-71979000D01*
X180290250Y-71979000D01*
X180449000Y-71820250D01*
X180452072Y-71256000D01*
X180439812Y-71131518D01*
X180403502Y-71011820D01*
X180344537Y-70901506D01*
X180265185Y-70804815D01*
X180168494Y-70725463D01*
X180058180Y-70666498D01*
X179938482Y-70630188D01*
X179814000Y-70617928D01*
X179249750Y-70621000D01*
X179091000Y-70779750D01*
X178837000Y-70779750D01*
X178678250Y-70621000D01*
X178114000Y-70617928D01*
X177989518Y-70630188D01*
X177869820Y-70666498D01*
X177759506Y-70725463D01*
X177662815Y-70804815D01*
X177583463Y-70901506D01*
X177524498Y-71011820D01*
X177501502Y-71087626D01*
X177305355Y-70910822D01*
X177055252Y-70761843D01*
X176780891Y-70664519D01*
X176551000Y-70785186D01*
X176297000Y-70785186D01*
X176067109Y-70664519D01*
X175792748Y-70761843D01*
X175542645Y-70910822D01*
X175326412Y-71105731D01*
X175152359Y-71339080D01*
X175027175Y-71601901D01*
X174982524Y-71749110D01*
X173660000Y-71749110D01*
X173660000Y-64779872D01*
X175765000Y-64779872D01*
X175765000Y-65220128D01*
X175850890Y-65651925D01*
X176019369Y-66058669D01*
X176263962Y-66424729D01*
X176575271Y-66736038D01*
X176941331Y-66980631D01*
X177348075Y-67149110D01*
X177779872Y-67235000D01*
X178220128Y-67235000D01*
X178651925Y-67149110D01*
X179058669Y-66980631D01*
X179424729Y-66736038D01*
X179736038Y-66424729D01*
X179980631Y-66058669D01*
X180149110Y-65651925D01*
X180235000Y-65220128D01*
X180235000Y-64779872D01*
X180149110Y-64348075D01*
X179980631Y-63941331D01*
X179736038Y-63575271D01*
X179424729Y-63263962D01*
X179058669Y-63019369D01*
X178651925Y-62850890D01*
X178220128Y-62765000D01*
X177779872Y-62765000D01*
X177348075Y-62850890D01*
X176941331Y-63019369D01*
X176575271Y-63263962D01*
X176263962Y-63575271D01*
X176019369Y-63941331D01*
X175850890Y-64348075D01*
X175765000Y-64779872D01*
X173660000Y-64779872D01*
X173660000Y-62660000D01*
X196765198Y-62660000D01*
X191694842Y-67730357D01*
G37*
%TD.AperFunction*%
D18*
X225756068Y-86992842D02*
X225699000Y-87279740D01*
X225699000Y-87572260D01*
X225756068Y-87859158D01*
X225868010Y-88129411D01*
X226030525Y-88372632D01*
X226237368Y-88579475D01*
X226411760Y-88696000D01*
X226237368Y-88812525D01*
X226030525Y-89019368D01*
X225868010Y-89262589D01*
X225756068Y-89532842D01*
X225699000Y-89819740D01*
X225699000Y-90112260D01*
X225756068Y-90399158D01*
X225868010Y-90669411D01*
X226030525Y-90912632D01*
X226237368Y-91119475D01*
X226411760Y-91236000D01*
X226237368Y-91352525D01*
X226030525Y-91559368D01*
X225868010Y-91802589D01*
X225756068Y-92072842D01*
X225699000Y-92359740D01*
X225699000Y-92652260D01*
X225756068Y-92939158D01*
X225868010Y-93209411D01*
X226030525Y-93452632D01*
X226237368Y-93659475D01*
X226411760Y-93776000D01*
X226237368Y-93892525D01*
X226030525Y-94099368D01*
X225868010Y-94342589D01*
X225756068Y-94612842D01*
X225699000Y-94899740D01*
X225699000Y-95192260D01*
X225756068Y-95479158D01*
X225868010Y-95749411D01*
X226030525Y-95992632D01*
X226237368Y-96199475D01*
X226411760Y-96316000D01*
X226237368Y-96432525D01*
X226030525Y-96639368D01*
X225868010Y-96882589D01*
X225756068Y-97152842D01*
X225699000Y-97439740D01*
X225699000Y-97732260D01*
X225756068Y-98019158D01*
X225868010Y-98289411D01*
X226030525Y-98532632D01*
X226237368Y-98739475D01*
X226411760Y-98856000D01*
X226237368Y-98972525D01*
X226030525Y-99179368D01*
X225868010Y-99422589D01*
X225756068Y-99692842D01*
X225699000Y-99979740D01*
X225699000Y-100272260D01*
X225756068Y-100559158D01*
X225868010Y-100829411D01*
X226030525Y-101072632D01*
X226237368Y-101279475D01*
X226411760Y-101396000D01*
X226237368Y-101512525D01*
X226030525Y-101719368D01*
X225868010Y-101962589D01*
X225756068Y-102232842D01*
X225699000Y-102519740D01*
X225699000Y-102812260D01*
X225756068Y-103099158D01*
X225868010Y-103369411D01*
X226030525Y-103612632D01*
X226237368Y-103819475D01*
X226411760Y-103936000D01*
X226237368Y-104052525D01*
X226030525Y-104259368D01*
X225868010Y-104502589D01*
X225756068Y-104772842D01*
X225699000Y-105059740D01*
X225699000Y-105352260D01*
X225756068Y-105639158D01*
X225868010Y-105909411D01*
X226030525Y-106152632D01*
X226237368Y-106359475D01*
X226411760Y-106476000D01*
X226237368Y-106592525D01*
X226030525Y-106799368D01*
X225868010Y-107042589D01*
X225756068Y-107312842D01*
X225699000Y-107599740D01*
X225699000Y-107892260D01*
X225756068Y-108179158D01*
X225868010Y-108449411D01*
X226030525Y-108692632D01*
X226237368Y-108899475D01*
X226411760Y-109016000D01*
X226237368Y-109132525D01*
X226030525Y-109339368D01*
X225868010Y-109582589D01*
X225756068Y-109852842D01*
X225699000Y-110139740D01*
X225699000Y-110432260D01*
X225756068Y-110719158D01*
X225868010Y-110989411D01*
X226030525Y-111232632D01*
X226237368Y-111439475D01*
X226411760Y-111556000D01*
X226237368Y-111672525D01*
X226030525Y-111879368D01*
X225868010Y-112122589D01*
X225756068Y-112392842D01*
X225699000Y-112679740D01*
X225699000Y-112972260D01*
X225756068Y-113259158D01*
X225868010Y-113529411D01*
X226030525Y-113772632D01*
X226237368Y-113979475D01*
X226411760Y-114096000D01*
X226237368Y-114212525D01*
X226030525Y-114419368D01*
X225868010Y-114662589D01*
X225756068Y-114932842D01*
X225699000Y-115219740D01*
X225699000Y-115512260D01*
X225756068Y-115799158D01*
X225868010Y-116069411D01*
X226030525Y-116312632D01*
X226237368Y-116519475D01*
X226411760Y-116636000D01*
X226237368Y-116752525D01*
X226030525Y-116959368D01*
X225868010Y-117202589D01*
X225756068Y-117472842D01*
X225699000Y-117759740D01*
X225699000Y-118052260D01*
X225756068Y-118339158D01*
X225868010Y-118609411D01*
X226030525Y-118852632D01*
X226237368Y-119059475D01*
X226411760Y-119176000D01*
X226237368Y-119292525D01*
X226030525Y-119499368D01*
X225868010Y-119742589D01*
X225756068Y-120012842D01*
X225699000Y-120299740D01*
X225699000Y-120592260D01*
X225756068Y-120879158D01*
X225868010Y-121149411D01*
X226030525Y-121392632D01*
X226237368Y-121599475D01*
X226411760Y-121716000D01*
X226237368Y-121832525D01*
X226030525Y-122039368D01*
X225868010Y-122282589D01*
X225756068Y-122552842D01*
X225699000Y-122839740D01*
X225699000Y-123132260D01*
X225756068Y-123419158D01*
X225868010Y-123689411D01*
X226030525Y-123932632D01*
X226237368Y-124139475D01*
X226411760Y-124256000D01*
X226237368Y-124372525D01*
X226030525Y-124579368D01*
X225868010Y-124822589D01*
X225756068Y-125092842D01*
X225699000Y-125379740D01*
X225699000Y-125672260D01*
X225756068Y-125959158D01*
X225868010Y-126229411D01*
X226030525Y-126472632D01*
X226237368Y-126679475D01*
X226411760Y-126796000D01*
X226237368Y-126912525D01*
X226030525Y-127119368D01*
X225868010Y-127362589D01*
X225756068Y-127632842D01*
X225699000Y-127919740D01*
X225699000Y-128212260D01*
X225756068Y-128499158D01*
X225868010Y-128769411D01*
X226030525Y-129012632D01*
X226237368Y-129219475D01*
X226411760Y-129336000D01*
X226237368Y-129452525D01*
X226030525Y-129659368D01*
X225868010Y-129902589D01*
X225756068Y-130172842D01*
X225699000Y-130459740D01*
X225699000Y-130752260D01*
X225756068Y-131039158D01*
X225827247Y-131210999D01*
X225712801Y-131210999D01*
X199355542Y-104853740D01*
X202435000Y-104853740D01*
X202435000Y-105146260D01*
X202492068Y-105433158D01*
X202604010Y-105703411D01*
X202766525Y-105946632D01*
X202973368Y-106153475D01*
X203216589Y-106315990D01*
X203486842Y-106427932D01*
X203773740Y-106485000D01*
X204066260Y-106485000D01*
X204353158Y-106427932D01*
X204623411Y-106315990D01*
X204866632Y-106153475D01*
X205073475Y-105946632D01*
X205195195Y-105764466D01*
X205264822Y-105881355D01*
X205459731Y-106097588D01*
X205693080Y-106271641D01*
X205955901Y-106396825D01*
X206103110Y-106441476D01*
X206333000Y-106320155D01*
X206333000Y-105127000D01*
X206313000Y-105127000D01*
X206313000Y-104873000D01*
X206333000Y-104873000D01*
X206333000Y-103679845D01*
X206587000Y-103679845D01*
X206587000Y-104873000D01*
X206607000Y-104873000D01*
X206607000Y-105127000D01*
X206587000Y-105127000D01*
X206587000Y-106320155D01*
X206816890Y-106441476D01*
X206964099Y-106396825D01*
X207226920Y-106271641D01*
X207460269Y-106097588D01*
X207655178Y-105881355D01*
X207724805Y-105764466D01*
X207846525Y-105946632D01*
X208053368Y-106153475D01*
X208296589Y-106315990D01*
X208566842Y-106427932D01*
X208853740Y-106485000D01*
X209146260Y-106485000D01*
X209433158Y-106427932D01*
X209703411Y-106315990D01*
X209946632Y-106153475D01*
X210153475Y-105946632D01*
X210270000Y-105772240D01*
X210386525Y-105946632D01*
X210593368Y-106153475D01*
X210836589Y-106315990D01*
X211106842Y-106427932D01*
X211393740Y-106485000D01*
X211686260Y-106485000D01*
X211973158Y-106427932D01*
X212243411Y-106315990D01*
X212486632Y-106153475D01*
X212693475Y-105946632D01*
X212810000Y-105772240D01*
X212926525Y-105946632D01*
X213133368Y-106153475D01*
X213376589Y-106315990D01*
X213646842Y-106427932D01*
X213933740Y-106485000D01*
X214226260Y-106485000D01*
X214513158Y-106427932D01*
X214783411Y-106315990D01*
X215026632Y-106153475D01*
X215233475Y-105946632D01*
X215350000Y-105772240D01*
X215466525Y-105946632D01*
X215673368Y-106153475D01*
X215916589Y-106315990D01*
X216186842Y-106427932D01*
X216473740Y-106485000D01*
X216766260Y-106485000D01*
X217053158Y-106427932D01*
X217323411Y-106315990D01*
X217566632Y-106153475D01*
X217773475Y-105946632D01*
X217895195Y-105764466D01*
X217964822Y-105881355D01*
X218159731Y-106097588D01*
X218393080Y-106271641D01*
X218655901Y-106396825D01*
X218803110Y-106441476D01*
X219033000Y-106320155D01*
X219033000Y-105127000D01*
X219013000Y-105127000D01*
X219013000Y-104873000D01*
X219033000Y-104873000D01*
X219033000Y-103679845D01*
X219287000Y-103679845D01*
X219287000Y-104873000D01*
X219307000Y-104873000D01*
X219307000Y-105127000D01*
X219287000Y-105127000D01*
X219287000Y-106320155D01*
X219516890Y-106441476D01*
X219664099Y-106396825D01*
X219926920Y-106271641D01*
X220160269Y-106097588D01*
X220236034Y-106013534D01*
X220260498Y-106094180D01*
X220319463Y-106204494D01*
X220398815Y-106301185D01*
X220495506Y-106380537D01*
X220605820Y-106439502D01*
X220725518Y-106475812D01*
X220850000Y-106488072D01*
X222550000Y-106488072D01*
X222674482Y-106475812D01*
X222794180Y-106439502D01*
X222904494Y-106380537D01*
X223001185Y-106301185D01*
X223080537Y-106204494D01*
X223139502Y-106094180D01*
X223175812Y-105974482D01*
X223188072Y-105850000D01*
X223188072Y-104150000D01*
X223175812Y-104025518D01*
X223139502Y-103905820D01*
X223080537Y-103795506D01*
X223001185Y-103698815D01*
X222904494Y-103619463D01*
X222794180Y-103560498D01*
X222674482Y-103524188D01*
X222550000Y-103511928D01*
X220850000Y-103511928D01*
X220725518Y-103524188D01*
X220605820Y-103560498D01*
X220495506Y-103619463D01*
X220398815Y-103698815D01*
X220319463Y-103795506D01*
X220260498Y-103905820D01*
X220236034Y-103986466D01*
X220160269Y-103902412D01*
X219926920Y-103728359D01*
X219664099Y-103603175D01*
X219516890Y-103558524D01*
X219287000Y-103679845D01*
X219033000Y-103679845D01*
X218803110Y-103558524D01*
X218655901Y-103603175D01*
X218393080Y-103728359D01*
X218159731Y-103902412D01*
X217964822Y-104118645D01*
X217895195Y-104235534D01*
X217773475Y-104053368D01*
X217566632Y-103846525D01*
X217323411Y-103684010D01*
X217053158Y-103572068D01*
X216766260Y-103515000D01*
X216473740Y-103515000D01*
X216186842Y-103572068D01*
X215916589Y-103684010D01*
X215673368Y-103846525D01*
X215466525Y-104053368D01*
X215350000Y-104227760D01*
X215233475Y-104053368D01*
X215026632Y-103846525D01*
X214783411Y-103684010D01*
X214513158Y-103572068D01*
X214226260Y-103515000D01*
X213933740Y-103515000D01*
X213646842Y-103572068D01*
X213376589Y-103684010D01*
X213133368Y-103846525D01*
X212926525Y-104053368D01*
X212810000Y-104227760D01*
X212693475Y-104053368D01*
X212486632Y-103846525D01*
X212243411Y-103684010D01*
X211973158Y-103572068D01*
X211686260Y-103515000D01*
X211393740Y-103515000D01*
X211106842Y-103572068D01*
X210836589Y-103684010D01*
X210593368Y-103846525D01*
X210386525Y-104053368D01*
X210270000Y-104227760D01*
X210153475Y-104053368D01*
X209946632Y-103846525D01*
X209703411Y-103684010D01*
X209433158Y-103572068D01*
X209146260Y-103515000D01*
X208853740Y-103515000D01*
X208566842Y-103572068D01*
X208296589Y-103684010D01*
X208053368Y-103846525D01*
X207846525Y-104053368D01*
X207724805Y-104235534D01*
X207655178Y-104118645D01*
X207460269Y-103902412D01*
X207226920Y-103728359D01*
X206964099Y-103603175D01*
X206816890Y-103558524D01*
X206587000Y-103679845D01*
X206333000Y-103679845D01*
X206103110Y-103558524D01*
X205955901Y-103603175D01*
X205693080Y-103728359D01*
X205459731Y-103902412D01*
X205264822Y-104118645D01*
X205195195Y-104235534D01*
X205073475Y-104053368D01*
X204866632Y-103846525D01*
X204623411Y-103684010D01*
X204353158Y-103572068D01*
X204066260Y-103515000D01*
X203773740Y-103515000D01*
X203486842Y-103572068D01*
X203216589Y-103684010D01*
X202973368Y-103846525D01*
X202766525Y-104053368D01*
X202604010Y-104296589D01*
X202492068Y-104566842D01*
X202435000Y-104853740D01*
X199355542Y-104853740D01*
X190321803Y-95820002D01*
X190298000Y-95790998D01*
X190182275Y-95696025D01*
X190050246Y-95625453D01*
X189906985Y-95581996D01*
X189795332Y-95570999D01*
X189795321Y-95570999D01*
X189757999Y-95567323D01*
X189720677Y-95570999D01*
X180320753Y-95570999D01*
X180391932Y-95399158D01*
X180449000Y-95112260D01*
X180449000Y-94819740D01*
X180391932Y-94532842D01*
X180279990Y-94262589D01*
X180117475Y-94019368D01*
X179910632Y-93812525D01*
X179736240Y-93696000D01*
X179910632Y-93579475D01*
X180117475Y-93372632D01*
X180242178Y-93186000D01*
X180658680Y-93186000D01*
X180696002Y-93189676D01*
X180733324Y-93186000D01*
X180733335Y-93186000D01*
X180844988Y-93175003D01*
X180988249Y-93131546D01*
X181120278Y-93060974D01*
X181236003Y-92966001D01*
X181259806Y-92936997D01*
X187375803Y-86821001D01*
X225827247Y-86821001D01*
X225756068Y-86992842D01*
%TA.AperFunction,Conductor*%
D19*
G36*
X225756068Y-86992842D02*
G01*
X225699000Y-87279740D01*
X225699000Y-87572260D01*
X225756068Y-87859158D01*
X225868010Y-88129411D01*
X226030525Y-88372632D01*
X226237368Y-88579475D01*
X226411760Y-88696000D01*
X226237368Y-88812525D01*
X226030525Y-89019368D01*
X225868010Y-89262589D01*
X225756068Y-89532842D01*
X225699000Y-89819740D01*
X225699000Y-90112260D01*
X225756068Y-90399158D01*
X225868010Y-90669411D01*
X226030525Y-90912632D01*
X226237368Y-91119475D01*
X226411760Y-91236000D01*
X226237368Y-91352525D01*
X226030525Y-91559368D01*
X225868010Y-91802589D01*
X225756068Y-92072842D01*
X225699000Y-92359740D01*
X225699000Y-92652260D01*
X225756068Y-92939158D01*
X225868010Y-93209411D01*
X226030525Y-93452632D01*
X226237368Y-93659475D01*
X226411760Y-93776000D01*
X226237368Y-93892525D01*
X226030525Y-94099368D01*
X225868010Y-94342589D01*
X225756068Y-94612842D01*
X225699000Y-94899740D01*
X225699000Y-95192260D01*
X225756068Y-95479158D01*
X225868010Y-95749411D01*
X226030525Y-95992632D01*
X226237368Y-96199475D01*
X226411760Y-96316000D01*
X226237368Y-96432525D01*
X226030525Y-96639368D01*
X225868010Y-96882589D01*
X225756068Y-97152842D01*
X225699000Y-97439740D01*
X225699000Y-97732260D01*
X225756068Y-98019158D01*
X225868010Y-98289411D01*
X226030525Y-98532632D01*
X226237368Y-98739475D01*
X226411760Y-98856000D01*
X226237368Y-98972525D01*
X226030525Y-99179368D01*
X225868010Y-99422589D01*
X225756068Y-99692842D01*
X225699000Y-99979740D01*
X225699000Y-100272260D01*
X225756068Y-100559158D01*
X225868010Y-100829411D01*
X226030525Y-101072632D01*
X226237368Y-101279475D01*
X226411760Y-101396000D01*
X226237368Y-101512525D01*
X226030525Y-101719368D01*
X225868010Y-101962589D01*
X225756068Y-102232842D01*
X225699000Y-102519740D01*
X225699000Y-102812260D01*
X225756068Y-103099158D01*
X225868010Y-103369411D01*
X226030525Y-103612632D01*
X226237368Y-103819475D01*
X226411760Y-103936000D01*
X226237368Y-104052525D01*
X226030525Y-104259368D01*
X225868010Y-104502589D01*
X225756068Y-104772842D01*
X225699000Y-105059740D01*
X225699000Y-105352260D01*
X225756068Y-105639158D01*
X225868010Y-105909411D01*
X226030525Y-106152632D01*
X226237368Y-106359475D01*
X226411760Y-106476000D01*
X226237368Y-106592525D01*
X226030525Y-106799368D01*
X225868010Y-107042589D01*
X225756068Y-107312842D01*
X225699000Y-107599740D01*
X225699000Y-107892260D01*
X225756068Y-108179158D01*
X225868010Y-108449411D01*
X226030525Y-108692632D01*
X226237368Y-108899475D01*
X226411760Y-109016000D01*
X226237368Y-109132525D01*
X226030525Y-109339368D01*
X225868010Y-109582589D01*
X225756068Y-109852842D01*
X225699000Y-110139740D01*
X225699000Y-110432260D01*
X225756068Y-110719158D01*
X225868010Y-110989411D01*
X226030525Y-111232632D01*
X226237368Y-111439475D01*
X226411760Y-111556000D01*
X226237368Y-111672525D01*
X226030525Y-111879368D01*
X225868010Y-112122589D01*
X225756068Y-112392842D01*
X225699000Y-112679740D01*
X225699000Y-112972260D01*
X225756068Y-113259158D01*
X225868010Y-113529411D01*
X226030525Y-113772632D01*
X226237368Y-113979475D01*
X226411760Y-114096000D01*
X226237368Y-114212525D01*
X226030525Y-114419368D01*
X225868010Y-114662589D01*
X225756068Y-114932842D01*
X225699000Y-115219740D01*
X225699000Y-115512260D01*
X225756068Y-115799158D01*
X225868010Y-116069411D01*
X226030525Y-116312632D01*
X226237368Y-116519475D01*
X226411760Y-116636000D01*
X226237368Y-116752525D01*
X226030525Y-116959368D01*
X225868010Y-117202589D01*
X225756068Y-117472842D01*
X225699000Y-117759740D01*
X225699000Y-118052260D01*
X225756068Y-118339158D01*
X225868010Y-118609411D01*
X226030525Y-118852632D01*
X226237368Y-119059475D01*
X226411760Y-119176000D01*
X226237368Y-119292525D01*
X226030525Y-119499368D01*
X225868010Y-119742589D01*
X225756068Y-120012842D01*
X225699000Y-120299740D01*
X225699000Y-120592260D01*
X225756068Y-120879158D01*
X225868010Y-121149411D01*
X226030525Y-121392632D01*
X226237368Y-121599475D01*
X226411760Y-121716000D01*
X226237368Y-121832525D01*
X226030525Y-122039368D01*
X225868010Y-122282589D01*
X225756068Y-122552842D01*
X225699000Y-122839740D01*
X225699000Y-123132260D01*
X225756068Y-123419158D01*
X225868010Y-123689411D01*
X226030525Y-123932632D01*
X226237368Y-124139475D01*
X226411760Y-124256000D01*
X226237368Y-124372525D01*
X226030525Y-124579368D01*
X225868010Y-124822589D01*
X225756068Y-125092842D01*
X225699000Y-125379740D01*
X225699000Y-125672260D01*
X225756068Y-125959158D01*
X225868010Y-126229411D01*
X226030525Y-126472632D01*
X226237368Y-126679475D01*
X226411760Y-126796000D01*
X226237368Y-126912525D01*
X226030525Y-127119368D01*
X225868010Y-127362589D01*
X225756068Y-127632842D01*
X225699000Y-127919740D01*
X225699000Y-128212260D01*
X225756068Y-128499158D01*
X225868010Y-128769411D01*
X226030525Y-129012632D01*
X226237368Y-129219475D01*
X226411760Y-129336000D01*
X226237368Y-129452525D01*
X226030525Y-129659368D01*
X225868010Y-129902589D01*
X225756068Y-130172842D01*
X225699000Y-130459740D01*
X225699000Y-130752260D01*
X225756068Y-131039158D01*
X225827247Y-131210999D01*
X225712801Y-131210999D01*
X199355542Y-104853740D01*
X202435000Y-104853740D01*
X202435000Y-105146260D01*
X202492068Y-105433158D01*
X202604010Y-105703411D01*
X202766525Y-105946632D01*
X202973368Y-106153475D01*
X203216589Y-106315990D01*
X203486842Y-106427932D01*
X203773740Y-106485000D01*
X204066260Y-106485000D01*
X204353158Y-106427932D01*
X204623411Y-106315990D01*
X204866632Y-106153475D01*
X205073475Y-105946632D01*
X205195195Y-105764466D01*
X205264822Y-105881355D01*
X205459731Y-106097588D01*
X205693080Y-106271641D01*
X205955901Y-106396825D01*
X206103110Y-106441476D01*
X206333000Y-106320155D01*
X206333000Y-105127000D01*
X206313000Y-105127000D01*
X206313000Y-104873000D01*
X206333000Y-104873000D01*
X206333000Y-103679845D01*
X206587000Y-103679845D01*
X206587000Y-104873000D01*
X206607000Y-104873000D01*
X206607000Y-105127000D01*
X206587000Y-105127000D01*
X206587000Y-106320155D01*
X206816890Y-106441476D01*
X206964099Y-106396825D01*
X207226920Y-106271641D01*
X207460269Y-106097588D01*
X207655178Y-105881355D01*
X207724805Y-105764466D01*
X207846525Y-105946632D01*
X208053368Y-106153475D01*
X208296589Y-106315990D01*
X208566842Y-106427932D01*
X208853740Y-106485000D01*
X209146260Y-106485000D01*
X209433158Y-106427932D01*
X209703411Y-106315990D01*
X209946632Y-106153475D01*
X210153475Y-105946632D01*
X210270000Y-105772240D01*
X210386525Y-105946632D01*
X210593368Y-106153475D01*
X210836589Y-106315990D01*
X211106842Y-106427932D01*
X211393740Y-106485000D01*
X211686260Y-106485000D01*
X211973158Y-106427932D01*
X212243411Y-106315990D01*
X212486632Y-106153475D01*
X212693475Y-105946632D01*
X212810000Y-105772240D01*
X212926525Y-105946632D01*
X213133368Y-106153475D01*
X213376589Y-106315990D01*
X213646842Y-106427932D01*
X213933740Y-106485000D01*
X214226260Y-106485000D01*
X214513158Y-106427932D01*
X214783411Y-106315990D01*
X215026632Y-106153475D01*
X215233475Y-105946632D01*
X215350000Y-105772240D01*
X215466525Y-105946632D01*
X215673368Y-106153475D01*
X215916589Y-106315990D01*
X216186842Y-106427932D01*
X216473740Y-106485000D01*
X216766260Y-106485000D01*
X217053158Y-106427932D01*
X217323411Y-106315990D01*
X217566632Y-106153475D01*
X217773475Y-105946632D01*
X217895195Y-105764466D01*
X217964822Y-105881355D01*
X218159731Y-106097588D01*
X218393080Y-106271641D01*
X218655901Y-106396825D01*
X218803110Y-106441476D01*
X219033000Y-106320155D01*
X219033000Y-105127000D01*
X219013000Y-105127000D01*
X219013000Y-104873000D01*
X219033000Y-104873000D01*
X219033000Y-103679845D01*
X219287000Y-103679845D01*
X219287000Y-104873000D01*
X219307000Y-104873000D01*
X219307000Y-105127000D01*
X219287000Y-105127000D01*
X219287000Y-106320155D01*
X219516890Y-106441476D01*
X219664099Y-106396825D01*
X219926920Y-106271641D01*
X220160269Y-106097588D01*
X220236034Y-106013534D01*
X220260498Y-106094180D01*
X220319463Y-106204494D01*
X220398815Y-106301185D01*
X220495506Y-106380537D01*
X220605820Y-106439502D01*
X220725518Y-106475812D01*
X220850000Y-106488072D01*
X222550000Y-106488072D01*
X222674482Y-106475812D01*
X222794180Y-106439502D01*
X222904494Y-106380537D01*
X223001185Y-106301185D01*
X223080537Y-106204494D01*
X223139502Y-106094180D01*
X223175812Y-105974482D01*
X223188072Y-105850000D01*
X223188072Y-104150000D01*
X223175812Y-104025518D01*
X223139502Y-103905820D01*
X223080537Y-103795506D01*
X223001185Y-103698815D01*
X222904494Y-103619463D01*
X222794180Y-103560498D01*
X222674482Y-103524188D01*
X222550000Y-103511928D01*
X220850000Y-103511928D01*
X220725518Y-103524188D01*
X220605820Y-103560498D01*
X220495506Y-103619463D01*
X220398815Y-103698815D01*
X220319463Y-103795506D01*
X220260498Y-103905820D01*
X220236034Y-103986466D01*
X220160269Y-103902412D01*
X219926920Y-103728359D01*
X219664099Y-103603175D01*
X219516890Y-103558524D01*
X219287000Y-103679845D01*
X219033000Y-103679845D01*
X218803110Y-103558524D01*
X218655901Y-103603175D01*
X218393080Y-103728359D01*
X218159731Y-103902412D01*
X217964822Y-104118645D01*
X217895195Y-104235534D01*
X217773475Y-104053368D01*
X217566632Y-103846525D01*
X217323411Y-103684010D01*
X217053158Y-103572068D01*
X216766260Y-103515000D01*
X216473740Y-103515000D01*
X216186842Y-103572068D01*
X215916589Y-103684010D01*
X215673368Y-103846525D01*
X215466525Y-104053368D01*
X215350000Y-104227760D01*
X215233475Y-104053368D01*
X215026632Y-103846525D01*
X214783411Y-103684010D01*
X214513158Y-103572068D01*
X214226260Y-103515000D01*
X213933740Y-103515000D01*
X213646842Y-103572068D01*
X213376589Y-103684010D01*
X213133368Y-103846525D01*
X212926525Y-104053368D01*
X212810000Y-104227760D01*
X212693475Y-104053368D01*
X212486632Y-103846525D01*
X212243411Y-103684010D01*
X211973158Y-103572068D01*
X211686260Y-103515000D01*
X211393740Y-103515000D01*
X211106842Y-103572068D01*
X210836589Y-103684010D01*
X210593368Y-103846525D01*
X210386525Y-104053368D01*
X210270000Y-104227760D01*
X210153475Y-104053368D01*
X209946632Y-103846525D01*
X209703411Y-103684010D01*
X209433158Y-103572068D01*
X209146260Y-103515000D01*
X208853740Y-103515000D01*
X208566842Y-103572068D01*
X208296589Y-103684010D01*
X208053368Y-103846525D01*
X207846525Y-104053368D01*
X207724805Y-104235534D01*
X207655178Y-104118645D01*
X207460269Y-103902412D01*
X207226920Y-103728359D01*
X206964099Y-103603175D01*
X206816890Y-103558524D01*
X206587000Y-103679845D01*
X206333000Y-103679845D01*
X206103110Y-103558524D01*
X205955901Y-103603175D01*
X205693080Y-103728359D01*
X205459731Y-103902412D01*
X205264822Y-104118645D01*
X205195195Y-104235534D01*
X205073475Y-104053368D01*
X204866632Y-103846525D01*
X204623411Y-103684010D01*
X204353158Y-103572068D01*
X204066260Y-103515000D01*
X203773740Y-103515000D01*
X203486842Y-103572068D01*
X203216589Y-103684010D01*
X202973368Y-103846525D01*
X202766525Y-104053368D01*
X202604010Y-104296589D01*
X202492068Y-104566842D01*
X202435000Y-104853740D01*
X199355542Y-104853740D01*
X190321803Y-95820002D01*
X190298000Y-95790998D01*
X190182275Y-95696025D01*
X190050246Y-95625453D01*
X189906985Y-95581996D01*
X189795332Y-95570999D01*
X189795321Y-95570999D01*
X189757999Y-95567323D01*
X189720677Y-95570999D01*
X180320753Y-95570999D01*
X180391932Y-95399158D01*
X180449000Y-95112260D01*
X180449000Y-94819740D01*
X180391932Y-94532842D01*
X180279990Y-94262589D01*
X180117475Y-94019368D01*
X179910632Y-93812525D01*
X179736240Y-93696000D01*
X179910632Y-93579475D01*
X180117475Y-93372632D01*
X180242178Y-93186000D01*
X180658680Y-93186000D01*
X180696002Y-93189676D01*
X180733324Y-93186000D01*
X180733335Y-93186000D01*
X180844988Y-93175003D01*
X180988249Y-93131546D01*
X181120278Y-93060974D01*
X181236003Y-92966001D01*
X181259806Y-92936997D01*
X187375803Y-86821001D01*
X225827247Y-86821001D01*
X225756068Y-86992842D01*
G37*
%TD.AperFunction*%
D18*
X249240000Y-113314802D02*
X249240001Y-115685197D01*
X247685199Y-117240000D01*
X237037322Y-117240000D01*
X236999999Y-117236324D01*
X236962676Y-117240000D01*
X236962667Y-117240000D01*
X236851014Y-117250997D01*
X236707753Y-117294454D01*
X236575724Y-117365026D01*
X236459999Y-117459999D01*
X236436201Y-117488997D01*
X235604198Y-118321001D01*
X231155544Y-118321001D01*
X231209000Y-118052260D01*
X231209000Y-117759740D01*
X231165210Y-117539592D01*
X233444803Y-115260000D01*
X245597405Y-115260000D01*
X245634294Y-115329014D01*
X245819866Y-115555134D01*
X246045986Y-115740706D01*
X246303966Y-115878599D01*
X246583889Y-115963513D01*
X246802050Y-115985000D01*
X247197950Y-115985000D01*
X247416111Y-115963513D01*
X247696034Y-115878599D01*
X247954014Y-115740706D01*
X248180134Y-115555134D01*
X248365706Y-115329014D01*
X248503599Y-115071034D01*
X248588513Y-114791111D01*
X248617185Y-114500000D01*
X248588513Y-114208889D01*
X248503599Y-113928966D01*
X248365706Y-113670986D01*
X248180134Y-113444866D01*
X247954014Y-113259294D01*
X247936626Y-113250000D01*
X247954014Y-113240706D01*
X248180134Y-113055134D01*
X248365706Y-112829014D01*
X248402595Y-112760000D01*
X248685199Y-112760000D01*
X249240000Y-113314802D01*
%TA.AperFunction,Conductor*%
D19*
G36*
X249240000Y-113314802D02*
G01*
X249240001Y-115685197D01*
X247685199Y-117240000D01*
X237037322Y-117240000D01*
X236999999Y-117236324D01*
X236962676Y-117240000D01*
X236962667Y-117240000D01*
X236851014Y-117250997D01*
X236707753Y-117294454D01*
X236575724Y-117365026D01*
X236459999Y-117459999D01*
X236436201Y-117488997D01*
X235604198Y-118321001D01*
X231155544Y-118321001D01*
X231209000Y-118052260D01*
X231209000Y-117759740D01*
X231165210Y-117539592D01*
X233444803Y-115260000D01*
X245597405Y-115260000D01*
X245634294Y-115329014D01*
X245819866Y-115555134D01*
X246045986Y-115740706D01*
X246303966Y-115878599D01*
X246583889Y-115963513D01*
X246802050Y-115985000D01*
X247197950Y-115985000D01*
X247416111Y-115963513D01*
X247696034Y-115878599D01*
X247954014Y-115740706D01*
X248180134Y-115555134D01*
X248365706Y-115329014D01*
X248503599Y-115071034D01*
X248588513Y-114791111D01*
X248617185Y-114500000D01*
X248588513Y-114208889D01*
X248503599Y-113928966D01*
X248365706Y-113670986D01*
X248180134Y-113444866D01*
X247954014Y-113259294D01*
X247936626Y-113250000D01*
X247954014Y-113240706D01*
X248180134Y-113055134D01*
X248365706Y-112829014D01*
X248402595Y-112760000D01*
X248685199Y-112760000D01*
X249240000Y-113314802D01*
G37*
%TD.AperFunction*%
D18*
X225756068Y-79372842D02*
X225699000Y-79659740D01*
X225699000Y-79952260D01*
X225756068Y-80239158D01*
X225827247Y-80410999D01*
X187866323Y-80410999D01*
X187829000Y-80407323D01*
X187791677Y-80410999D01*
X187791668Y-80410999D01*
X187680015Y-80421996D01*
X187536754Y-80465453D01*
X187404725Y-80536025D01*
X187289000Y-80630998D01*
X187265202Y-80659996D01*
X180449000Y-87476199D01*
X180449000Y-87199740D01*
X180391932Y-86912842D01*
X180279990Y-86642589D01*
X180117475Y-86399368D01*
X179910632Y-86192525D01*
X179736240Y-86076000D01*
X179910632Y-85959475D01*
X180117475Y-85752632D01*
X180279990Y-85509411D01*
X180391932Y-85239158D01*
X180449000Y-84952260D01*
X180449000Y-84659740D01*
X180405209Y-84439592D01*
X185643801Y-79201001D01*
X225827247Y-79201001D01*
X225756068Y-79372842D01*
%TA.AperFunction,Conductor*%
D19*
G36*
X225756068Y-79372842D02*
G01*
X225699000Y-79659740D01*
X225699000Y-79952260D01*
X225756068Y-80239158D01*
X225827247Y-80410999D01*
X187866323Y-80410999D01*
X187829000Y-80407323D01*
X187791677Y-80410999D01*
X187791668Y-80410999D01*
X187680015Y-80421996D01*
X187536754Y-80465453D01*
X187404725Y-80536025D01*
X187289000Y-80630998D01*
X187265202Y-80659996D01*
X180449000Y-87476199D01*
X180449000Y-87199740D01*
X180391932Y-86912842D01*
X180279990Y-86642589D01*
X180117475Y-86399368D01*
X179910632Y-86192525D01*
X179736240Y-86076000D01*
X179910632Y-85959475D01*
X180117475Y-85752632D01*
X180279990Y-85509411D01*
X180391932Y-85239158D01*
X180449000Y-84952260D01*
X180449000Y-84659740D01*
X180405209Y-84439592D01*
X185643801Y-79201001D01*
X225827247Y-79201001D01*
X225756068Y-79372842D01*
G37*
%TD.AperFunction*%
D18*
X230589349Y-70699440D02*
X230574000Y-70697928D01*
X230009750Y-70701000D01*
X229851000Y-70859750D01*
X229851000Y-72059000D01*
X229871000Y-72059000D01*
X229871000Y-72313000D01*
X229851000Y-72313000D01*
X229851000Y-72333000D01*
X229597000Y-72333000D01*
X229597000Y-72313000D01*
X227311000Y-72313000D01*
X227311000Y-72333000D01*
X227057000Y-72333000D01*
X227057000Y-72313000D01*
X225863845Y-72313000D01*
X225742524Y-72542890D01*
X225787175Y-72690099D01*
X225912359Y-72952920D01*
X226086412Y-73186269D01*
X226302645Y-73381178D01*
X226419534Y-73450805D01*
X226237368Y-73572525D01*
X226030525Y-73779368D01*
X225868010Y-74022589D01*
X225756068Y-74292842D01*
X225699000Y-74579740D01*
X225699000Y-74872260D01*
X225756068Y-75159158D01*
X225868010Y-75429411D01*
X226030525Y-75672632D01*
X226237368Y-75879475D01*
X226411760Y-75996000D01*
X226237368Y-76112525D01*
X226030525Y-76319368D01*
X225868010Y-76562589D01*
X225756068Y-76832842D01*
X225699000Y-77119740D01*
X225699000Y-77412260D01*
X225752456Y-77681001D01*
X185366322Y-77681001D01*
X185328999Y-77677325D01*
X185291676Y-77681001D01*
X185291666Y-77681001D01*
X185180013Y-77691998D01*
X185036752Y-77735455D01*
X184904722Y-77806027D01*
X184875509Y-77830002D01*
X184788998Y-77901000D01*
X184765200Y-77929998D01*
X180449000Y-82246199D01*
X180449000Y-82119740D01*
X180391932Y-81832842D01*
X180279990Y-81562589D01*
X180117475Y-81319368D01*
X179910632Y-81112525D01*
X179736240Y-80996000D01*
X179910632Y-80879475D01*
X180117475Y-80672632D01*
X180279990Y-80429411D01*
X180391932Y-80159158D01*
X180449000Y-79872260D01*
X180449000Y-79579740D01*
X180395544Y-79310999D01*
X181840681Y-79310999D01*
X181878003Y-79314675D01*
X181915325Y-79310999D01*
X181915336Y-79310999D01*
X182026989Y-79300002D01*
X182170250Y-79256545D01*
X182302279Y-79185973D01*
X182418004Y-79091000D01*
X182441807Y-79061996D01*
X189674694Y-71829110D01*
X225742524Y-71829110D01*
X225863845Y-72059000D01*
X227057000Y-72059000D01*
X227057000Y-70865186D01*
X227311000Y-70865186D01*
X227311000Y-72059000D01*
X229597000Y-72059000D01*
X229597000Y-70859750D01*
X229438250Y-70701000D01*
X228874000Y-70697928D01*
X228749518Y-70710188D01*
X228629820Y-70746498D01*
X228519506Y-70805463D01*
X228422815Y-70884815D01*
X228343463Y-70981506D01*
X228284498Y-71091820D01*
X228261502Y-71167626D01*
X228065355Y-70990822D01*
X227815252Y-70841843D01*
X227540891Y-70744519D01*
X227311000Y-70865186D01*
X227057000Y-70865186D01*
X226827109Y-70744519D01*
X226552748Y-70841843D01*
X226302645Y-70990822D01*
X226086412Y-71185731D01*
X225912359Y-71419080D01*
X225787175Y-71681901D01*
X225742524Y-71829110D01*
X189674694Y-71829110D01*
X192376161Y-69127644D01*
X192495274Y-69063976D01*
X192610999Y-68969003D01*
X192634802Y-68939999D01*
X197814802Y-63760000D01*
X237528788Y-63760000D01*
X230589349Y-70699440D01*
%TA.AperFunction,Conductor*%
D19*
G36*
X230589349Y-70699440D02*
G01*
X230574000Y-70697928D01*
X230009750Y-70701000D01*
X229851000Y-70859750D01*
X229851000Y-72059000D01*
X229871000Y-72059000D01*
X229871000Y-72313000D01*
X229851000Y-72313000D01*
X229851000Y-72333000D01*
X229597000Y-72333000D01*
X229597000Y-72313000D01*
X227311000Y-72313000D01*
X227311000Y-72333000D01*
X227057000Y-72333000D01*
X227057000Y-72313000D01*
X225863845Y-72313000D01*
X225742524Y-72542890D01*
X225787175Y-72690099D01*
X225912359Y-72952920D01*
X226086412Y-73186269D01*
X226302645Y-73381178D01*
X226419534Y-73450805D01*
X226237368Y-73572525D01*
X226030525Y-73779368D01*
X225868010Y-74022589D01*
X225756068Y-74292842D01*
X225699000Y-74579740D01*
X225699000Y-74872260D01*
X225756068Y-75159158D01*
X225868010Y-75429411D01*
X226030525Y-75672632D01*
X226237368Y-75879475D01*
X226411760Y-75996000D01*
X226237368Y-76112525D01*
X226030525Y-76319368D01*
X225868010Y-76562589D01*
X225756068Y-76832842D01*
X225699000Y-77119740D01*
X225699000Y-77412260D01*
X225752456Y-77681001D01*
X185366322Y-77681001D01*
X185328999Y-77677325D01*
X185291676Y-77681001D01*
X185291666Y-77681001D01*
X185180013Y-77691998D01*
X185036752Y-77735455D01*
X184904722Y-77806027D01*
X184875509Y-77830002D01*
X184788998Y-77901000D01*
X184765200Y-77929998D01*
X180449000Y-82246199D01*
X180449000Y-82119740D01*
X180391932Y-81832842D01*
X180279990Y-81562589D01*
X180117475Y-81319368D01*
X179910632Y-81112525D01*
X179736240Y-80996000D01*
X179910632Y-80879475D01*
X180117475Y-80672632D01*
X180279990Y-80429411D01*
X180391932Y-80159158D01*
X180449000Y-79872260D01*
X180449000Y-79579740D01*
X180395544Y-79310999D01*
X181840681Y-79310999D01*
X181878003Y-79314675D01*
X181915325Y-79310999D01*
X181915336Y-79310999D01*
X182026989Y-79300002D01*
X182170250Y-79256545D01*
X182302279Y-79185973D01*
X182418004Y-79091000D01*
X182441807Y-79061996D01*
X189674694Y-71829110D01*
X225742524Y-71829110D01*
X225863845Y-72059000D01*
X227057000Y-72059000D01*
X227057000Y-70865186D01*
X227311000Y-70865186D01*
X227311000Y-72059000D01*
X229597000Y-72059000D01*
X229597000Y-70859750D01*
X229438250Y-70701000D01*
X228874000Y-70697928D01*
X228749518Y-70710188D01*
X228629820Y-70746498D01*
X228519506Y-70805463D01*
X228422815Y-70884815D01*
X228343463Y-70981506D01*
X228284498Y-71091820D01*
X228261502Y-71167626D01*
X228065355Y-70990822D01*
X227815252Y-70841843D01*
X227540891Y-70744519D01*
X227311000Y-70865186D01*
X227057000Y-70865186D01*
X226827109Y-70744519D01*
X226552748Y-70841843D01*
X226302645Y-70990822D01*
X226086412Y-71185731D01*
X225912359Y-71419080D01*
X225787175Y-71681901D01*
X225742524Y-71829110D01*
X189674694Y-71829110D01*
X192376161Y-69127644D01*
X192495274Y-69063976D01*
X192610999Y-68969003D01*
X192634802Y-68939999D01*
X197814802Y-63760000D01*
X237528788Y-63760000D01*
X230589349Y-70699440D01*
G37*
%TD.AperFunction*%
D18*
X249240001Y-64314803D02*
X249240000Y-69185198D01*
X248599971Y-69825227D01*
X248588513Y-69708889D01*
X248503599Y-69428966D01*
X248365706Y-69170986D01*
X248180134Y-68944866D01*
X247954014Y-68759294D01*
X247928278Y-68745538D01*
X248134429Y-68589049D01*
X248327496Y-68371193D01*
X248474352Y-68119858D01*
X248566476Y-67856890D01*
X248445155Y-67627000D01*
X247127000Y-67627000D01*
X247127000Y-67647000D01*
X246873000Y-67647000D01*
X246873000Y-67627000D01*
X246853000Y-67627000D01*
X246853000Y-67373000D01*
X246873000Y-67373000D01*
X246873000Y-67353000D01*
X247127000Y-67353000D01*
X247127000Y-67373000D01*
X248445155Y-67373000D01*
X248566476Y-67143110D01*
X248474352Y-66880142D01*
X248327496Y-66628807D01*
X248134429Y-66410951D01*
X248113039Y-66394714D01*
X248218386Y-66338405D01*
X248352962Y-66227962D01*
X248463405Y-66093386D01*
X248545472Y-65939850D01*
X248596008Y-65773254D01*
X248613072Y-65600000D01*
X248613072Y-64400000D01*
X248596008Y-64226746D01*
X248545472Y-64060150D01*
X248463405Y-63906614D01*
X248352962Y-63772038D01*
X248338294Y-63760000D01*
X248685199Y-63760000D01*
X249240001Y-64314803D01*
%TA.AperFunction,Conductor*%
D19*
G36*
X249240001Y-64314803D02*
G01*
X249240000Y-69185198D01*
X248599971Y-69825227D01*
X248588513Y-69708889D01*
X248503599Y-69428966D01*
X248365706Y-69170986D01*
X248180134Y-68944866D01*
X247954014Y-68759294D01*
X247928278Y-68745538D01*
X248134429Y-68589049D01*
X248327496Y-68371193D01*
X248474352Y-68119858D01*
X248566476Y-67856890D01*
X248445155Y-67627000D01*
X247127000Y-67627000D01*
X247127000Y-67647000D01*
X246873000Y-67647000D01*
X246873000Y-67627000D01*
X246853000Y-67627000D01*
X246853000Y-67373000D01*
X246873000Y-67373000D01*
X246873000Y-67353000D01*
X247127000Y-67353000D01*
X247127000Y-67373000D01*
X248445155Y-67373000D01*
X248566476Y-67143110D01*
X248474352Y-66880142D01*
X248327496Y-66628807D01*
X248134429Y-66410951D01*
X248113039Y-66394714D01*
X248218386Y-66338405D01*
X248352962Y-66227962D01*
X248463405Y-66093386D01*
X248545472Y-65939850D01*
X248596008Y-65773254D01*
X248613072Y-65600000D01*
X248613072Y-64400000D01*
X248596008Y-64226746D01*
X248545472Y-64060150D01*
X248463405Y-63906614D01*
X248352962Y-63772038D01*
X248338294Y-63760000D01*
X248685199Y-63760000D01*
X249240001Y-64314803D01*
G37*
%TD.AperFunction*%
%TD*%
M02*
