%TF.GenerationSoftware,KiCad,Pcbnew,(5.1.10)-1*%
%TF.CreationDate,2022-05-17T22:08:58+03:00*%
%TF.ProjectId,SAUK-Y v1 STM32F4 Disc,5341554b-2d59-4207-9631-2053544d3332,rev?*%
%TF.SameCoordinates,Original*%
%TF.FileFunction,Soldermask,Bot*%
%TF.FilePolarity,Negative*%
%FSLAX46Y46*%
G04 Gerber Fmt 4.6, Leading zero omitted, Abs format (unit mm)*
G04 Created by KiCad (PCBNEW (5.1.10)-1) date 2022-05-17 22:08:58*
%MOMM*%
%LPD*%
G01*
G04 APERTURE LIST*
%ADD10C,2.800000*%
%ADD11R,2.800000X2.800000*%
%ADD12C,3.200000*%
%ADD13O,1.700000X1.700000*%
%ADD14R,1.700000X1.700000*%
%ADD15O,1.950000X1.700000*%
%ADD16O,1.700000X1.950000*%
G04 APERTURE END LIST*
D10*
%TO.C,J7*%
X180000000Y-142000000D03*
D11*
X175000000Y-142000000D03*
%TD*%
D12*
%TO.C,REF\u002A\u002A*%
X244000000Y-133000000D03*
%TD*%
%TO.C,REF\u002A\u002A*%
X178000000Y-65000000D03*
%TD*%
D13*
%TO.C,J23*%
X227184000Y-133146000D03*
X229724000Y-133146000D03*
X227184000Y-130606000D03*
X229724000Y-130606000D03*
X227184000Y-128066000D03*
X229724000Y-128066000D03*
X227184000Y-125526000D03*
X229724000Y-125526000D03*
X227184000Y-122986000D03*
X229724000Y-122986000D03*
X227184000Y-120446000D03*
X229724000Y-120446000D03*
X227184000Y-117906000D03*
X229724000Y-117906000D03*
X227184000Y-115366000D03*
X229724000Y-115366000D03*
X227184000Y-112826000D03*
X229724000Y-112826000D03*
X227184000Y-110286000D03*
X229724000Y-110286000D03*
X227184000Y-107746000D03*
X229724000Y-107746000D03*
X227184000Y-105206000D03*
X229724000Y-105206000D03*
X227184000Y-102666000D03*
X229724000Y-102666000D03*
X227184000Y-100126000D03*
X229724000Y-100126000D03*
X227184000Y-97586000D03*
X229724000Y-97586000D03*
X227184000Y-95046000D03*
X229724000Y-95046000D03*
X227184000Y-92506000D03*
X229724000Y-92506000D03*
X227184000Y-89966000D03*
X229724000Y-89966000D03*
X227184000Y-87426000D03*
X229724000Y-87426000D03*
X227184000Y-84886000D03*
X229724000Y-84886000D03*
X227184000Y-82346000D03*
X229724000Y-82346000D03*
X227184000Y-79806000D03*
X229724000Y-79806000D03*
X227184000Y-77266000D03*
X229724000Y-77266000D03*
X227184000Y-74726000D03*
X229724000Y-74726000D03*
X227184000Y-72186000D03*
D14*
X229724000Y-72186000D03*
%TD*%
D13*
%TO.C,J22*%
X176424000Y-133066000D03*
X178964000Y-133066000D03*
X176424000Y-130526000D03*
X178964000Y-130526000D03*
X176424000Y-127986000D03*
X178964000Y-127986000D03*
X176424000Y-125446000D03*
X178964000Y-125446000D03*
X176424000Y-122906000D03*
X178964000Y-122906000D03*
X176424000Y-120366000D03*
X178964000Y-120366000D03*
X176424000Y-117826000D03*
X178964000Y-117826000D03*
X176424000Y-115286000D03*
X178964000Y-115286000D03*
X176424000Y-112746000D03*
X178964000Y-112746000D03*
X176424000Y-110206000D03*
X178964000Y-110206000D03*
X176424000Y-107666000D03*
X178964000Y-107666000D03*
X176424000Y-105126000D03*
X178964000Y-105126000D03*
X176424000Y-102586000D03*
X178964000Y-102586000D03*
X176424000Y-100046000D03*
X178964000Y-100046000D03*
X176424000Y-97506000D03*
X178964000Y-97506000D03*
X176424000Y-94966000D03*
X178964000Y-94966000D03*
X176424000Y-92426000D03*
X178964000Y-92426000D03*
X176424000Y-89886000D03*
X178964000Y-89886000D03*
X176424000Y-87346000D03*
X178964000Y-87346000D03*
X176424000Y-84806000D03*
X178964000Y-84806000D03*
X176424000Y-82266000D03*
X178964000Y-82266000D03*
X176424000Y-79726000D03*
X178964000Y-79726000D03*
X176424000Y-77186000D03*
X178964000Y-77186000D03*
X176424000Y-74646000D03*
X178964000Y-74646000D03*
X176424000Y-72106000D03*
D14*
X178964000Y-72106000D03*
%TD*%
D15*
%TO.C,J18*%
X247142000Y-128214000D03*
X247142000Y-125714000D03*
X247142000Y-123214000D03*
G36*
G01*
X246417000Y-119864000D02*
X247867000Y-119864000D01*
G75*
G02*
X248117000Y-120114000I0J-250000D01*
G01*
X248117000Y-121314000D01*
G75*
G02*
X247867000Y-121564000I-250000J0D01*
G01*
X246417000Y-121564000D01*
G75*
G02*
X246167000Y-121314000I0J250000D01*
G01*
X246167000Y-120114000D01*
G75*
G02*
X246417000Y-119864000I250000J0D01*
G01*
G37*
%TD*%
%TO.C,J17*%
X247142000Y-100464000D03*
X247142000Y-97964000D03*
X247142000Y-95464000D03*
G36*
G01*
X246417000Y-92114000D02*
X247867000Y-92114000D01*
G75*
G02*
X248117000Y-92364000I0J-250000D01*
G01*
X248117000Y-93564000D01*
G75*
G02*
X247867000Y-93814000I-250000J0D01*
G01*
X246417000Y-93814000D01*
G75*
G02*
X246167000Y-93564000I0J250000D01*
G01*
X246167000Y-92364000D01*
G75*
G02*
X246417000Y-92114000I250000J0D01*
G01*
G37*
%TD*%
D16*
%TO.C,L_B1*%
X187024000Y-138684000D03*
X189524000Y-138684000D03*
G36*
G01*
X192874000Y-137959000D02*
X192874000Y-139409000D01*
G75*
G02*
X192624000Y-139659000I-250000J0D01*
G01*
X191424000Y-139659000D01*
G75*
G02*
X191174000Y-139409000I0J250000D01*
G01*
X191174000Y-137959000D01*
G75*
G02*
X191424000Y-137709000I250000J0D01*
G01*
X192624000Y-137709000D01*
G75*
G02*
X192874000Y-137959000I0J-250000D01*
G01*
G37*
%TD*%
%TO.C,L_V1*%
X198766000Y-138754000D03*
X201266000Y-138754000D03*
G36*
G01*
X204616000Y-138029000D02*
X204616000Y-139479000D01*
G75*
G02*
X204366000Y-139729000I-250000J0D01*
G01*
X203166000Y-139729000D01*
G75*
G02*
X202916000Y-139479000I0J250000D01*
G01*
X202916000Y-138029000D01*
G75*
G02*
X203166000Y-137779000I250000J0D01*
G01*
X204366000Y-137779000D01*
G75*
G02*
X204616000Y-138029000I0J-250000D01*
G01*
G37*
%TD*%
D15*
%TO.C,J6*%
X247142000Y-114180000D03*
X247142000Y-111680000D03*
X247142000Y-109180000D03*
G36*
G01*
X246417000Y-105830000D02*
X247867000Y-105830000D01*
G75*
G02*
X248117000Y-106080000I0J-250000D01*
G01*
X248117000Y-107280000D01*
G75*
G02*
X247867000Y-107530000I-250000J0D01*
G01*
X246417000Y-107530000D01*
G75*
G02*
X246167000Y-107280000I0J250000D01*
G01*
X246167000Y-106080000D01*
G75*
G02*
X246417000Y-105830000I250000J0D01*
G01*
G37*
%TD*%
%TO.C,J5*%
X247142000Y-86558000D03*
X247142000Y-84058000D03*
X247142000Y-81558000D03*
G36*
G01*
X246417000Y-78208000D02*
X247867000Y-78208000D01*
G75*
G02*
X248117000Y-78458000I0J-250000D01*
G01*
X248117000Y-79658000D01*
G75*
G02*
X247867000Y-79908000I-250000J0D01*
G01*
X246417000Y-79908000D01*
G75*
G02*
X246167000Y-79658000I0J250000D01*
G01*
X246167000Y-78458000D01*
G75*
G02*
X246417000Y-78208000I250000J0D01*
G01*
G37*
%TD*%
D16*
%TO.C,L_F1*%
X210138000Y-138754000D03*
X212638000Y-138754000D03*
G36*
G01*
X215988000Y-138029000D02*
X215988000Y-139479000D01*
G75*
G02*
X215738000Y-139729000I-250000J0D01*
G01*
X214538000Y-139729000D01*
G75*
G02*
X214288000Y-139479000I0J250000D01*
G01*
X214288000Y-138029000D01*
G75*
G02*
X214538000Y-137779000I250000J0D01*
G01*
X215738000Y-137779000D01*
G75*
G02*
X215988000Y-138029000I0J-250000D01*
G01*
G37*
%TD*%
%TO.C,R_F1*%
X221822000Y-138684000D03*
X224322000Y-138684000D03*
G36*
G01*
X227672000Y-137959000D02*
X227672000Y-139409000D01*
G75*
G02*
X227422000Y-139659000I-250000J0D01*
G01*
X226222000Y-139659000D01*
G75*
G02*
X225972000Y-139409000I0J250000D01*
G01*
X225972000Y-137959000D01*
G75*
G02*
X226222000Y-137709000I250000J0D01*
G01*
X227422000Y-137709000D01*
G75*
G02*
X227672000Y-137959000I0J-250000D01*
G01*
G37*
%TD*%
%TO.C,R_V1*%
X233056000Y-138754000D03*
X235556000Y-138754000D03*
G36*
G01*
X238906000Y-138029000D02*
X238906000Y-139479000D01*
G75*
G02*
X238656000Y-139729000I-250000J0D01*
G01*
X237456000Y-139729000D01*
G75*
G02*
X237206000Y-139479000I0J250000D01*
G01*
X237206000Y-138029000D01*
G75*
G02*
X237456000Y-137779000I250000J0D01*
G01*
X238656000Y-137779000D01*
G75*
G02*
X238906000Y-138029000I0J-250000D01*
G01*
G37*
%TD*%
%TO.C,R_B1*%
X244428000Y-138684000D03*
X246928000Y-138684000D03*
G36*
G01*
X250278000Y-137959000D02*
X250278000Y-139409000D01*
G75*
G02*
X250028000Y-139659000I-250000J0D01*
G01*
X248828000Y-139659000D01*
G75*
G02*
X248578000Y-139409000I0J250000D01*
G01*
X248578000Y-137959000D01*
G75*
G02*
X248828000Y-137709000I250000J0D01*
G01*
X250028000Y-137709000D01*
G75*
G02*
X250278000Y-137959000I0J-250000D01*
G01*
G37*
%TD*%
%TO.C,J8*%
G36*
G01*
X250661000Y-73050000D02*
X249211000Y-73050000D01*
G75*
G02*
X248961000Y-72800000I0J250000D01*
G01*
X248961000Y-71600000D01*
G75*
G02*
X249211000Y-71350000I250000J0D01*
G01*
X250661000Y-71350000D01*
G75*
G02*
X250911000Y-71600000I0J-250000D01*
G01*
X250911000Y-72800000D01*
G75*
G02*
X250661000Y-73050000I-250000J0D01*
G01*
G37*
D15*
X249936000Y-69700000D03*
X249936000Y-67200000D03*
X249936000Y-64700000D03*
%TD*%
%TO.C,J11*%
G36*
G01*
X241517000Y-96354000D02*
X240067000Y-96354000D01*
G75*
G02*
X239817000Y-96104000I0J250000D01*
G01*
X239817000Y-94904000D01*
G75*
G02*
X240067000Y-94654000I250000J0D01*
G01*
X241517000Y-94654000D01*
G75*
G02*
X241767000Y-94904000I0J-250000D01*
G01*
X241767000Y-96104000D01*
G75*
G02*
X241517000Y-96354000I-250000J0D01*
G01*
G37*
X240792000Y-93004000D03*
X240792000Y-90504000D03*
%TD*%
%TO.C,OP_MOT_1*%
X237998000Y-66120000D03*
X237998000Y-68620000D03*
G36*
G01*
X238723000Y-71970000D02*
X237273000Y-71970000D01*
G75*
G02*
X237023000Y-71720000I0J250000D01*
G01*
X237023000Y-70520000D01*
G75*
G02*
X237273000Y-70270000I250000J0D01*
G01*
X238723000Y-70270000D01*
G75*
G02*
X238973000Y-70520000I0J-250000D01*
G01*
X238973000Y-71720000D01*
G75*
G02*
X238723000Y-71970000I-250000J0D01*
G01*
G37*
%TD*%
%TO.C,OP_MOT_2*%
G36*
G01*
X244819000Y-71970000D02*
X243369000Y-71970000D01*
G75*
G02*
X243119000Y-71720000I0J250000D01*
G01*
X243119000Y-70520000D01*
G75*
G02*
X243369000Y-70270000I250000J0D01*
G01*
X244819000Y-70270000D01*
G75*
G02*
X245069000Y-70520000I0J-250000D01*
G01*
X245069000Y-71720000D01*
G75*
G02*
X244819000Y-71970000I-250000J0D01*
G01*
G37*
X244094000Y-68620000D03*
X244094000Y-66120000D03*
%TD*%
%TO.C,J21*%
X240538000Y-79074000D03*
X240538000Y-81574000D03*
G36*
G01*
X241263000Y-84924000D02*
X239813000Y-84924000D01*
G75*
G02*
X239563000Y-84674000I0J250000D01*
G01*
X239563000Y-83474000D01*
G75*
G02*
X239813000Y-83224000I250000J0D01*
G01*
X241263000Y-83224000D01*
G75*
G02*
X241513000Y-83474000I0J-250000D01*
G01*
X241513000Y-84674000D01*
G75*
G02*
X241263000Y-84924000I-250000J0D01*
G01*
G37*
%TD*%
D14*
%TO.C,TTL1*%
X238760000Y-107950000D03*
D13*
X238760000Y-105410000D03*
X238760000Y-102870000D03*
X238760000Y-100330000D03*
%TD*%
D14*
%TO.C,MPU1*%
X221700000Y-106600000D03*
D13*
X221700000Y-109140000D03*
X221700000Y-111680000D03*
X221700000Y-114220000D03*
X221700000Y-116760000D03*
X221700000Y-119300000D03*
X221700000Y-121840000D03*
X221700000Y-124380000D03*
%TD*%
M02*
