%TF.GenerationSoftware,KiCad,Pcbnew,(5.1.10)-1*%
%TF.CreationDate,2022-05-17T22:08:58+03:00*%
%TF.ProjectId,SAUK-Y v1 STM32F4 Disc,5341554b-2d59-4207-9631-2053544d3332,rev?*%
%TF.SameCoordinates,Original*%
%TF.FileFunction,Legend,Top*%
%TF.FilePolarity,Positive*%
%FSLAX46Y46*%
G04 Gerber Fmt 4.6, Leading zero omitted, Abs format (unit mm)*
G04 Created by KiCad (PCBNEW (5.1.10)-1) date 2022-05-17 22:08:58*
%MOMM*%
%LPD*%
G01*
G04 APERTURE LIST*
%ADD10C,0.120000*%
%ADD11C,0.150000*%
G04 APERTURE END LIST*
D10*
%TO.C,J7*%
X172200000Y-146300000D02*
X174200000Y-146300000D01*
X172200000Y-144060000D02*
X172200000Y-146300000D01*
X178700000Y-143083000D02*
X178650000Y-143133000D01*
X181133000Y-140650000D02*
X181108000Y-140674000D01*
X178892000Y-143325000D02*
X178868000Y-143350000D01*
X181350000Y-140867000D02*
X181301000Y-140917000D01*
X182560000Y-135440000D02*
X182560000Y-146060000D01*
X172440000Y-135440000D02*
X172440000Y-146060000D01*
X172440000Y-146060000D02*
X182560000Y-146060000D01*
X172440000Y-135440000D02*
X182560000Y-135440000D01*
X172440000Y-139000000D02*
X182560000Y-139000000D01*
X172440000Y-140000000D02*
X182560000Y-140000000D01*
X172440000Y-144000000D02*
X182560000Y-144000000D01*
X181780000Y-142000000D02*
G75*
G03*
X181780000Y-142000000I-1780000J0D01*
G01*
X175030814Y-143780389D02*
G75*
G02*
X174304000Y-143639000I-30814J1780389D01*
G01*
X173360795Y-142695516D02*
G75*
G02*
X173361000Y-141304000I1639205J695516D01*
G01*
X174304484Y-140360795D02*
G75*
G02*
X175696000Y-140361000I695516J-1639205D01*
G01*
X176639205Y-141304484D02*
G75*
G02*
X176639000Y-142696000I-1639205J-695516D01*
G01*
X175695501Y-143638499D02*
G75*
G02*
X175000000Y-143780000I-695501J1638499D01*
G01*
%TO.C,J23*%
X229724000Y-70856000D02*
X231054000Y-70856000D01*
X231054000Y-70856000D02*
X231054000Y-72186000D01*
X228454000Y-70856000D02*
X228454000Y-73456000D01*
X228454000Y-73456000D02*
X231054000Y-73456000D01*
X231054000Y-73456000D02*
X231054000Y-134476000D01*
X225854000Y-134476000D02*
X231054000Y-134476000D01*
X225854000Y-70856000D02*
X225854000Y-134476000D01*
X225854000Y-70856000D02*
X228454000Y-70856000D01*
%TO.C,J22*%
X178964000Y-70776000D02*
X180294000Y-70776000D01*
X180294000Y-70776000D02*
X180294000Y-72106000D01*
X177694000Y-70776000D02*
X177694000Y-73376000D01*
X177694000Y-73376000D02*
X180294000Y-73376000D01*
X180294000Y-73376000D02*
X180294000Y-134396000D01*
X175094000Y-134396000D02*
X180294000Y-134396000D01*
X175094000Y-70776000D02*
X175094000Y-134396000D01*
X175094000Y-70776000D02*
X177694000Y-70776000D01*
%TO.C,J18*%
X245042000Y-121014000D02*
X245642000Y-120714000D01*
X245042000Y-120414000D02*
X245042000Y-121014000D01*
X245642000Y-120714000D02*
X245042000Y-120414000D01*
X248732000Y-128534000D02*
X248732000Y-128214000D01*
X252152000Y-128534000D02*
X248732000Y-128534000D01*
X252232000Y-128214000D02*
X252152000Y-128534000D01*
X252152000Y-127894000D02*
X252232000Y-128214000D01*
X248732000Y-127894000D02*
X252152000Y-127894000D01*
X248732000Y-128214000D02*
X248732000Y-127894000D01*
X247732000Y-126884000D02*
X247732000Y-127044000D01*
X248732000Y-126034000D02*
X248732000Y-125714000D01*
X252152000Y-126034000D02*
X248732000Y-126034000D01*
X252232000Y-125714000D02*
X252152000Y-126034000D01*
X252152000Y-125394000D02*
X252232000Y-125714000D01*
X248732000Y-125394000D02*
X252152000Y-125394000D01*
X248732000Y-125714000D02*
X248732000Y-125394000D01*
X247732000Y-124384000D02*
X247732000Y-124544000D01*
X248732000Y-123534000D02*
X248732000Y-123214000D01*
X252152000Y-123534000D02*
X248732000Y-123534000D01*
X252232000Y-123214000D02*
X252152000Y-123534000D01*
X252152000Y-122894000D02*
X252232000Y-123214000D01*
X248732000Y-122894000D02*
X252152000Y-122894000D01*
X248732000Y-123214000D02*
X248732000Y-122894000D01*
X247732000Y-121884000D02*
X247732000Y-122044000D01*
X248732000Y-121034000D02*
X248732000Y-120714000D01*
X252152000Y-121034000D02*
X248732000Y-121034000D01*
X252232000Y-120714000D02*
X252152000Y-121034000D01*
X252152000Y-120394000D02*
X252232000Y-120714000D01*
X248732000Y-120394000D02*
X252152000Y-120394000D01*
X248732000Y-120714000D02*
X248732000Y-120394000D01*
X248732000Y-119324000D02*
X248732000Y-129604000D01*
X247732000Y-129604000D02*
X247732000Y-130824000D01*
X252732000Y-129604000D02*
X247732000Y-129604000D01*
X252732000Y-130824000D02*
X252732000Y-129604000D01*
X247732000Y-119324000D02*
X247732000Y-118104000D01*
X252732000Y-119324000D02*
X247732000Y-119324000D01*
X252732000Y-118104000D02*
X252732000Y-119324000D01*
X245532000Y-129604000D02*
X247732000Y-129604000D01*
X245532000Y-130824000D02*
X245532000Y-129604000D01*
X253952000Y-130824000D02*
X245532000Y-130824000D01*
X253952000Y-118104000D02*
X253952000Y-130824000D01*
X245532000Y-118104000D02*
X253952000Y-118104000D01*
X245532000Y-119324000D02*
X245532000Y-118104000D01*
X247732000Y-119324000D02*
X245532000Y-119324000D01*
%TO.C,J17*%
X245042000Y-93264000D02*
X245642000Y-92964000D01*
X245042000Y-92664000D02*
X245042000Y-93264000D01*
X245642000Y-92964000D02*
X245042000Y-92664000D01*
X248732000Y-100784000D02*
X248732000Y-100464000D01*
X252152000Y-100784000D02*
X248732000Y-100784000D01*
X252232000Y-100464000D02*
X252152000Y-100784000D01*
X252152000Y-100144000D02*
X252232000Y-100464000D01*
X248732000Y-100144000D02*
X252152000Y-100144000D01*
X248732000Y-100464000D02*
X248732000Y-100144000D01*
X247732000Y-99134000D02*
X247732000Y-99294000D01*
X248732000Y-98284000D02*
X248732000Y-97964000D01*
X252152000Y-98284000D02*
X248732000Y-98284000D01*
X252232000Y-97964000D02*
X252152000Y-98284000D01*
X252152000Y-97644000D02*
X252232000Y-97964000D01*
X248732000Y-97644000D02*
X252152000Y-97644000D01*
X248732000Y-97964000D02*
X248732000Y-97644000D01*
X247732000Y-96634000D02*
X247732000Y-96794000D01*
X248732000Y-95784000D02*
X248732000Y-95464000D01*
X252152000Y-95784000D02*
X248732000Y-95784000D01*
X252232000Y-95464000D02*
X252152000Y-95784000D01*
X252152000Y-95144000D02*
X252232000Y-95464000D01*
X248732000Y-95144000D02*
X252152000Y-95144000D01*
X248732000Y-95464000D02*
X248732000Y-95144000D01*
X247732000Y-94134000D02*
X247732000Y-94294000D01*
X248732000Y-93284000D02*
X248732000Y-92964000D01*
X252152000Y-93284000D02*
X248732000Y-93284000D01*
X252232000Y-92964000D02*
X252152000Y-93284000D01*
X252152000Y-92644000D02*
X252232000Y-92964000D01*
X248732000Y-92644000D02*
X252152000Y-92644000D01*
X248732000Y-92964000D02*
X248732000Y-92644000D01*
X248732000Y-91574000D02*
X248732000Y-101854000D01*
X247732000Y-101854000D02*
X247732000Y-103074000D01*
X252732000Y-101854000D02*
X247732000Y-101854000D01*
X252732000Y-103074000D02*
X252732000Y-101854000D01*
X247732000Y-91574000D02*
X247732000Y-90354000D01*
X252732000Y-91574000D02*
X247732000Y-91574000D01*
X252732000Y-90354000D02*
X252732000Y-91574000D01*
X245532000Y-101854000D02*
X247732000Y-101854000D01*
X245532000Y-103074000D02*
X245532000Y-101854000D01*
X253952000Y-103074000D02*
X245532000Y-103074000D01*
X253952000Y-90354000D02*
X253952000Y-103074000D01*
X245532000Y-90354000D02*
X253952000Y-90354000D01*
X245532000Y-91574000D02*
X245532000Y-90354000D01*
X247732000Y-91574000D02*
X245532000Y-91574000D01*
%TO.C,L_B1*%
X191724000Y-136584000D02*
X192024000Y-137184000D01*
X192324000Y-136584000D02*
X191724000Y-136584000D01*
X192024000Y-137184000D02*
X192324000Y-136584000D01*
X186704000Y-140274000D02*
X187024000Y-140274000D01*
X186704000Y-143694000D02*
X186704000Y-140274000D01*
X187024000Y-143774000D02*
X186704000Y-143694000D01*
X187344000Y-143694000D02*
X187024000Y-143774000D01*
X187344000Y-140274000D02*
X187344000Y-143694000D01*
X187024000Y-140274000D02*
X187344000Y-140274000D01*
X188354000Y-139274000D02*
X188194000Y-139274000D01*
X189204000Y-140274000D02*
X189524000Y-140274000D01*
X189204000Y-143694000D02*
X189204000Y-140274000D01*
X189524000Y-143774000D02*
X189204000Y-143694000D01*
X189844000Y-143694000D02*
X189524000Y-143774000D01*
X189844000Y-140274000D02*
X189844000Y-143694000D01*
X189524000Y-140274000D02*
X189844000Y-140274000D01*
X190854000Y-139274000D02*
X190694000Y-139274000D01*
X191704000Y-140274000D02*
X192024000Y-140274000D01*
X191704000Y-143694000D02*
X191704000Y-140274000D01*
X192024000Y-143774000D02*
X191704000Y-143694000D01*
X192344000Y-143694000D02*
X192024000Y-143774000D01*
X192344000Y-140274000D02*
X192344000Y-143694000D01*
X192024000Y-140274000D02*
X192344000Y-140274000D01*
X193414000Y-140274000D02*
X185634000Y-140274000D01*
X185634000Y-139274000D02*
X184414000Y-139274000D01*
X185634000Y-144274000D02*
X185634000Y-139274000D01*
X184414000Y-144274000D02*
X185634000Y-144274000D01*
X193414000Y-139274000D02*
X194634000Y-139274000D01*
X193414000Y-144274000D02*
X193414000Y-139274000D01*
X194634000Y-144274000D02*
X193414000Y-144274000D01*
X185634000Y-137074000D02*
X185634000Y-139274000D01*
X184414000Y-137074000D02*
X185634000Y-137074000D01*
X184414000Y-145494000D02*
X184414000Y-137074000D01*
X194634000Y-145494000D02*
X184414000Y-145494000D01*
X194634000Y-137074000D02*
X194634000Y-145494000D01*
X193414000Y-137074000D02*
X194634000Y-137074000D01*
X193414000Y-139274000D02*
X193414000Y-137074000D01*
%TO.C,L_V1*%
X203466000Y-136654000D02*
X203766000Y-137254000D01*
X204066000Y-136654000D02*
X203466000Y-136654000D01*
X203766000Y-137254000D02*
X204066000Y-136654000D01*
X198446000Y-140344000D02*
X198766000Y-140344000D01*
X198446000Y-143764000D02*
X198446000Y-140344000D01*
X198766000Y-143844000D02*
X198446000Y-143764000D01*
X199086000Y-143764000D02*
X198766000Y-143844000D01*
X199086000Y-140344000D02*
X199086000Y-143764000D01*
X198766000Y-140344000D02*
X199086000Y-140344000D01*
X200096000Y-139344000D02*
X199936000Y-139344000D01*
X200946000Y-140344000D02*
X201266000Y-140344000D01*
X200946000Y-143764000D02*
X200946000Y-140344000D01*
X201266000Y-143844000D02*
X200946000Y-143764000D01*
X201586000Y-143764000D02*
X201266000Y-143844000D01*
X201586000Y-140344000D02*
X201586000Y-143764000D01*
X201266000Y-140344000D02*
X201586000Y-140344000D01*
X202596000Y-139344000D02*
X202436000Y-139344000D01*
X203446000Y-140344000D02*
X203766000Y-140344000D01*
X203446000Y-143764000D02*
X203446000Y-140344000D01*
X203766000Y-143844000D02*
X203446000Y-143764000D01*
X204086000Y-143764000D02*
X203766000Y-143844000D01*
X204086000Y-140344000D02*
X204086000Y-143764000D01*
X203766000Y-140344000D02*
X204086000Y-140344000D01*
X205156000Y-140344000D02*
X197376000Y-140344000D01*
X197376000Y-139344000D02*
X196156000Y-139344000D01*
X197376000Y-144344000D02*
X197376000Y-139344000D01*
X196156000Y-144344000D02*
X197376000Y-144344000D01*
X205156000Y-139344000D02*
X206376000Y-139344000D01*
X205156000Y-144344000D02*
X205156000Y-139344000D01*
X206376000Y-144344000D02*
X205156000Y-144344000D01*
X197376000Y-137144000D02*
X197376000Y-139344000D01*
X196156000Y-137144000D02*
X197376000Y-137144000D01*
X196156000Y-145564000D02*
X196156000Y-137144000D01*
X206376000Y-145564000D02*
X196156000Y-145564000D01*
X206376000Y-137144000D02*
X206376000Y-145564000D01*
X205156000Y-137144000D02*
X206376000Y-137144000D01*
X205156000Y-139344000D02*
X205156000Y-137144000D01*
%TO.C,J6*%
X245042000Y-106980000D02*
X245642000Y-106680000D01*
X245042000Y-106380000D02*
X245042000Y-106980000D01*
X245642000Y-106680000D02*
X245042000Y-106380000D01*
X248732000Y-114500000D02*
X248732000Y-114180000D01*
X252152000Y-114500000D02*
X248732000Y-114500000D01*
X252232000Y-114180000D02*
X252152000Y-114500000D01*
X252152000Y-113860000D02*
X252232000Y-114180000D01*
X248732000Y-113860000D02*
X252152000Y-113860000D01*
X248732000Y-114180000D02*
X248732000Y-113860000D01*
X247732000Y-112850000D02*
X247732000Y-113010000D01*
X248732000Y-112000000D02*
X248732000Y-111680000D01*
X252152000Y-112000000D02*
X248732000Y-112000000D01*
X252232000Y-111680000D02*
X252152000Y-112000000D01*
X252152000Y-111360000D02*
X252232000Y-111680000D01*
X248732000Y-111360000D02*
X252152000Y-111360000D01*
X248732000Y-111680000D02*
X248732000Y-111360000D01*
X247732000Y-110350000D02*
X247732000Y-110510000D01*
X248732000Y-109500000D02*
X248732000Y-109180000D01*
X252152000Y-109500000D02*
X248732000Y-109500000D01*
X252232000Y-109180000D02*
X252152000Y-109500000D01*
X252152000Y-108860000D02*
X252232000Y-109180000D01*
X248732000Y-108860000D02*
X252152000Y-108860000D01*
X248732000Y-109180000D02*
X248732000Y-108860000D01*
X247732000Y-107850000D02*
X247732000Y-108010000D01*
X248732000Y-107000000D02*
X248732000Y-106680000D01*
X252152000Y-107000000D02*
X248732000Y-107000000D01*
X252232000Y-106680000D02*
X252152000Y-107000000D01*
X252152000Y-106360000D02*
X252232000Y-106680000D01*
X248732000Y-106360000D02*
X252152000Y-106360000D01*
X248732000Y-106680000D02*
X248732000Y-106360000D01*
X248732000Y-105290000D02*
X248732000Y-115570000D01*
X247732000Y-115570000D02*
X247732000Y-116790000D01*
X252732000Y-115570000D02*
X247732000Y-115570000D01*
X252732000Y-116790000D02*
X252732000Y-115570000D01*
X247732000Y-105290000D02*
X247732000Y-104070000D01*
X252732000Y-105290000D02*
X247732000Y-105290000D01*
X252732000Y-104070000D02*
X252732000Y-105290000D01*
X245532000Y-115570000D02*
X247732000Y-115570000D01*
X245532000Y-116790000D02*
X245532000Y-115570000D01*
X253952000Y-116790000D02*
X245532000Y-116790000D01*
X253952000Y-104070000D02*
X253952000Y-116790000D01*
X245532000Y-104070000D02*
X253952000Y-104070000D01*
X245532000Y-105290000D02*
X245532000Y-104070000D01*
X247732000Y-105290000D02*
X245532000Y-105290000D01*
%TO.C,J5*%
X245042000Y-79358000D02*
X245642000Y-79058000D01*
X245042000Y-78758000D02*
X245042000Y-79358000D01*
X245642000Y-79058000D02*
X245042000Y-78758000D01*
X248732000Y-86878000D02*
X248732000Y-86558000D01*
X252152000Y-86878000D02*
X248732000Y-86878000D01*
X252232000Y-86558000D02*
X252152000Y-86878000D01*
X252152000Y-86238000D02*
X252232000Y-86558000D01*
X248732000Y-86238000D02*
X252152000Y-86238000D01*
X248732000Y-86558000D02*
X248732000Y-86238000D01*
X247732000Y-85228000D02*
X247732000Y-85388000D01*
X248732000Y-84378000D02*
X248732000Y-84058000D01*
X252152000Y-84378000D02*
X248732000Y-84378000D01*
X252232000Y-84058000D02*
X252152000Y-84378000D01*
X252152000Y-83738000D02*
X252232000Y-84058000D01*
X248732000Y-83738000D02*
X252152000Y-83738000D01*
X248732000Y-84058000D02*
X248732000Y-83738000D01*
X247732000Y-82728000D02*
X247732000Y-82888000D01*
X248732000Y-81878000D02*
X248732000Y-81558000D01*
X252152000Y-81878000D02*
X248732000Y-81878000D01*
X252232000Y-81558000D02*
X252152000Y-81878000D01*
X252152000Y-81238000D02*
X252232000Y-81558000D01*
X248732000Y-81238000D02*
X252152000Y-81238000D01*
X248732000Y-81558000D02*
X248732000Y-81238000D01*
X247732000Y-80228000D02*
X247732000Y-80388000D01*
X248732000Y-79378000D02*
X248732000Y-79058000D01*
X252152000Y-79378000D02*
X248732000Y-79378000D01*
X252232000Y-79058000D02*
X252152000Y-79378000D01*
X252152000Y-78738000D02*
X252232000Y-79058000D01*
X248732000Y-78738000D02*
X252152000Y-78738000D01*
X248732000Y-79058000D02*
X248732000Y-78738000D01*
X248732000Y-77668000D02*
X248732000Y-87948000D01*
X247732000Y-87948000D02*
X247732000Y-89168000D01*
X252732000Y-87948000D02*
X247732000Y-87948000D01*
X252732000Y-89168000D02*
X252732000Y-87948000D01*
X247732000Y-77668000D02*
X247732000Y-76448000D01*
X252732000Y-77668000D02*
X247732000Y-77668000D01*
X252732000Y-76448000D02*
X252732000Y-77668000D01*
X245532000Y-87948000D02*
X247732000Y-87948000D01*
X245532000Y-89168000D02*
X245532000Y-87948000D01*
X253952000Y-89168000D02*
X245532000Y-89168000D01*
X253952000Y-76448000D02*
X253952000Y-89168000D01*
X245532000Y-76448000D02*
X253952000Y-76448000D01*
X245532000Y-77668000D02*
X245532000Y-76448000D01*
X247732000Y-77668000D02*
X245532000Y-77668000D01*
%TO.C,L_F1*%
X214838000Y-136654000D02*
X215138000Y-137254000D01*
X215438000Y-136654000D02*
X214838000Y-136654000D01*
X215138000Y-137254000D02*
X215438000Y-136654000D01*
X209818000Y-140344000D02*
X210138000Y-140344000D01*
X209818000Y-143764000D02*
X209818000Y-140344000D01*
X210138000Y-143844000D02*
X209818000Y-143764000D01*
X210458000Y-143764000D02*
X210138000Y-143844000D01*
X210458000Y-140344000D02*
X210458000Y-143764000D01*
X210138000Y-140344000D02*
X210458000Y-140344000D01*
X211468000Y-139344000D02*
X211308000Y-139344000D01*
X212318000Y-140344000D02*
X212638000Y-140344000D01*
X212318000Y-143764000D02*
X212318000Y-140344000D01*
X212638000Y-143844000D02*
X212318000Y-143764000D01*
X212958000Y-143764000D02*
X212638000Y-143844000D01*
X212958000Y-140344000D02*
X212958000Y-143764000D01*
X212638000Y-140344000D02*
X212958000Y-140344000D01*
X213968000Y-139344000D02*
X213808000Y-139344000D01*
X214818000Y-140344000D02*
X215138000Y-140344000D01*
X214818000Y-143764000D02*
X214818000Y-140344000D01*
X215138000Y-143844000D02*
X214818000Y-143764000D01*
X215458000Y-143764000D02*
X215138000Y-143844000D01*
X215458000Y-140344000D02*
X215458000Y-143764000D01*
X215138000Y-140344000D02*
X215458000Y-140344000D01*
X216528000Y-140344000D02*
X208748000Y-140344000D01*
X208748000Y-139344000D02*
X207528000Y-139344000D01*
X208748000Y-144344000D02*
X208748000Y-139344000D01*
X207528000Y-144344000D02*
X208748000Y-144344000D01*
X216528000Y-139344000D02*
X217748000Y-139344000D01*
X216528000Y-144344000D02*
X216528000Y-139344000D01*
X217748000Y-144344000D02*
X216528000Y-144344000D01*
X208748000Y-137144000D02*
X208748000Y-139344000D01*
X207528000Y-137144000D02*
X208748000Y-137144000D01*
X207528000Y-145564000D02*
X207528000Y-137144000D01*
X217748000Y-145564000D02*
X207528000Y-145564000D01*
X217748000Y-137144000D02*
X217748000Y-145564000D01*
X216528000Y-137144000D02*
X217748000Y-137144000D01*
X216528000Y-139344000D02*
X216528000Y-137144000D01*
%TO.C,R_F1*%
X226522000Y-136584000D02*
X226822000Y-137184000D01*
X227122000Y-136584000D02*
X226522000Y-136584000D01*
X226822000Y-137184000D02*
X227122000Y-136584000D01*
X221502000Y-140274000D02*
X221822000Y-140274000D01*
X221502000Y-143694000D02*
X221502000Y-140274000D01*
X221822000Y-143774000D02*
X221502000Y-143694000D01*
X222142000Y-143694000D02*
X221822000Y-143774000D01*
X222142000Y-140274000D02*
X222142000Y-143694000D01*
X221822000Y-140274000D02*
X222142000Y-140274000D01*
X223152000Y-139274000D02*
X222992000Y-139274000D01*
X224002000Y-140274000D02*
X224322000Y-140274000D01*
X224002000Y-143694000D02*
X224002000Y-140274000D01*
X224322000Y-143774000D02*
X224002000Y-143694000D01*
X224642000Y-143694000D02*
X224322000Y-143774000D01*
X224642000Y-140274000D02*
X224642000Y-143694000D01*
X224322000Y-140274000D02*
X224642000Y-140274000D01*
X225652000Y-139274000D02*
X225492000Y-139274000D01*
X226502000Y-140274000D02*
X226822000Y-140274000D01*
X226502000Y-143694000D02*
X226502000Y-140274000D01*
X226822000Y-143774000D02*
X226502000Y-143694000D01*
X227142000Y-143694000D02*
X226822000Y-143774000D01*
X227142000Y-140274000D02*
X227142000Y-143694000D01*
X226822000Y-140274000D02*
X227142000Y-140274000D01*
X228212000Y-140274000D02*
X220432000Y-140274000D01*
X220432000Y-139274000D02*
X219212000Y-139274000D01*
X220432000Y-144274000D02*
X220432000Y-139274000D01*
X219212000Y-144274000D02*
X220432000Y-144274000D01*
X228212000Y-139274000D02*
X229432000Y-139274000D01*
X228212000Y-144274000D02*
X228212000Y-139274000D01*
X229432000Y-144274000D02*
X228212000Y-144274000D01*
X220432000Y-137074000D02*
X220432000Y-139274000D01*
X219212000Y-137074000D02*
X220432000Y-137074000D01*
X219212000Y-145494000D02*
X219212000Y-137074000D01*
X229432000Y-145494000D02*
X219212000Y-145494000D01*
X229432000Y-137074000D02*
X229432000Y-145494000D01*
X228212000Y-137074000D02*
X229432000Y-137074000D01*
X228212000Y-139274000D02*
X228212000Y-137074000D01*
%TO.C,R_V1*%
X237756000Y-136654000D02*
X238056000Y-137254000D01*
X238356000Y-136654000D02*
X237756000Y-136654000D01*
X238056000Y-137254000D02*
X238356000Y-136654000D01*
X232736000Y-140344000D02*
X233056000Y-140344000D01*
X232736000Y-143764000D02*
X232736000Y-140344000D01*
X233056000Y-143844000D02*
X232736000Y-143764000D01*
X233376000Y-143764000D02*
X233056000Y-143844000D01*
X233376000Y-140344000D02*
X233376000Y-143764000D01*
X233056000Y-140344000D02*
X233376000Y-140344000D01*
X234386000Y-139344000D02*
X234226000Y-139344000D01*
X235236000Y-140344000D02*
X235556000Y-140344000D01*
X235236000Y-143764000D02*
X235236000Y-140344000D01*
X235556000Y-143844000D02*
X235236000Y-143764000D01*
X235876000Y-143764000D02*
X235556000Y-143844000D01*
X235876000Y-140344000D02*
X235876000Y-143764000D01*
X235556000Y-140344000D02*
X235876000Y-140344000D01*
X236886000Y-139344000D02*
X236726000Y-139344000D01*
X237736000Y-140344000D02*
X238056000Y-140344000D01*
X237736000Y-143764000D02*
X237736000Y-140344000D01*
X238056000Y-143844000D02*
X237736000Y-143764000D01*
X238376000Y-143764000D02*
X238056000Y-143844000D01*
X238376000Y-140344000D02*
X238376000Y-143764000D01*
X238056000Y-140344000D02*
X238376000Y-140344000D01*
X239446000Y-140344000D02*
X231666000Y-140344000D01*
X231666000Y-139344000D02*
X230446000Y-139344000D01*
X231666000Y-144344000D02*
X231666000Y-139344000D01*
X230446000Y-144344000D02*
X231666000Y-144344000D01*
X239446000Y-139344000D02*
X240666000Y-139344000D01*
X239446000Y-144344000D02*
X239446000Y-139344000D01*
X240666000Y-144344000D02*
X239446000Y-144344000D01*
X231666000Y-137144000D02*
X231666000Y-139344000D01*
X230446000Y-137144000D02*
X231666000Y-137144000D01*
X230446000Y-145564000D02*
X230446000Y-137144000D01*
X240666000Y-145564000D02*
X230446000Y-145564000D01*
X240666000Y-137144000D02*
X240666000Y-145564000D01*
X239446000Y-137144000D02*
X240666000Y-137144000D01*
X239446000Y-139344000D02*
X239446000Y-137144000D01*
%TO.C,R_B1*%
X249128000Y-136584000D02*
X249428000Y-137184000D01*
X249728000Y-136584000D02*
X249128000Y-136584000D01*
X249428000Y-137184000D02*
X249728000Y-136584000D01*
X244108000Y-140274000D02*
X244428000Y-140274000D01*
X244108000Y-143694000D02*
X244108000Y-140274000D01*
X244428000Y-143774000D02*
X244108000Y-143694000D01*
X244748000Y-143694000D02*
X244428000Y-143774000D01*
X244748000Y-140274000D02*
X244748000Y-143694000D01*
X244428000Y-140274000D02*
X244748000Y-140274000D01*
X245758000Y-139274000D02*
X245598000Y-139274000D01*
X246608000Y-140274000D02*
X246928000Y-140274000D01*
X246608000Y-143694000D02*
X246608000Y-140274000D01*
X246928000Y-143774000D02*
X246608000Y-143694000D01*
X247248000Y-143694000D02*
X246928000Y-143774000D01*
X247248000Y-140274000D02*
X247248000Y-143694000D01*
X246928000Y-140274000D02*
X247248000Y-140274000D01*
X248258000Y-139274000D02*
X248098000Y-139274000D01*
X249108000Y-140274000D02*
X249428000Y-140274000D01*
X249108000Y-143694000D02*
X249108000Y-140274000D01*
X249428000Y-143774000D02*
X249108000Y-143694000D01*
X249748000Y-143694000D02*
X249428000Y-143774000D01*
X249748000Y-140274000D02*
X249748000Y-143694000D01*
X249428000Y-140274000D02*
X249748000Y-140274000D01*
X250818000Y-140274000D02*
X243038000Y-140274000D01*
X243038000Y-139274000D02*
X241818000Y-139274000D01*
X243038000Y-144274000D02*
X243038000Y-139274000D01*
X241818000Y-144274000D02*
X243038000Y-144274000D01*
X250818000Y-139274000D02*
X252038000Y-139274000D01*
X250818000Y-144274000D02*
X250818000Y-139274000D01*
X252038000Y-144274000D02*
X250818000Y-144274000D01*
X243038000Y-137074000D02*
X243038000Y-139274000D01*
X241818000Y-137074000D02*
X243038000Y-137074000D01*
X241818000Y-145494000D02*
X241818000Y-137074000D01*
X252038000Y-145494000D02*
X241818000Y-145494000D01*
X252038000Y-137074000D02*
X252038000Y-145494000D01*
X250818000Y-137074000D02*
X252038000Y-137074000D01*
X250818000Y-139274000D02*
X250818000Y-137074000D01*
%TO.C,J8*%
X248226000Y-74810000D02*
X252246000Y-74810000D01*
X252246000Y-74810000D02*
X252246000Y-62090000D01*
X252246000Y-62090000D02*
X248226000Y-62090000D01*
X248226000Y-62090000D02*
X248226000Y-74810000D01*
X249936000Y-74810000D02*
X249936000Y-74310000D01*
X249936000Y-74310000D02*
X248726000Y-74310000D01*
X248726000Y-74310000D02*
X248726000Y-62590000D01*
X248726000Y-62590000D02*
X249936000Y-62590000D01*
X249936000Y-62590000D02*
X249936000Y-62090000D01*
X250746000Y-74810000D02*
X250746000Y-73810000D01*
X250746000Y-73810000D02*
X252246000Y-73810000D01*
X250746000Y-62090000D02*
X250746000Y-63090000D01*
X250746000Y-63090000D02*
X252246000Y-63090000D01*
X250046000Y-75110000D02*
X252546000Y-75110000D01*
X252546000Y-75110000D02*
X252546000Y-72610000D01*
%TO.C,J11*%
X239082000Y-98114000D02*
X243102000Y-98114000D01*
X243102000Y-98114000D02*
X243102000Y-87894000D01*
X243102000Y-87894000D02*
X239082000Y-87894000D01*
X239082000Y-87894000D02*
X239082000Y-98114000D01*
X240792000Y-98114000D02*
X240792000Y-97614000D01*
X240792000Y-97614000D02*
X239582000Y-97614000D01*
X239582000Y-97614000D02*
X239582000Y-88394000D01*
X239582000Y-88394000D02*
X240792000Y-88394000D01*
X240792000Y-88394000D02*
X240792000Y-87894000D01*
X241602000Y-98114000D02*
X241602000Y-97114000D01*
X241602000Y-97114000D02*
X243102000Y-97114000D01*
X241602000Y-87894000D02*
X241602000Y-88894000D01*
X241602000Y-88894000D02*
X243102000Y-88894000D01*
X240902000Y-98414000D02*
X243402000Y-98414000D01*
X243402000Y-98414000D02*
X243402000Y-95914000D01*
%TO.C,OP_MOT_1*%
X240608000Y-74030000D02*
X240608000Y-71530000D01*
X238108000Y-74030000D02*
X240608000Y-74030000D01*
X238808000Y-64510000D02*
X240308000Y-64510000D01*
X238808000Y-63510000D02*
X238808000Y-64510000D01*
X238808000Y-72730000D02*
X240308000Y-72730000D01*
X238808000Y-73730000D02*
X238808000Y-72730000D01*
X237998000Y-64010000D02*
X237998000Y-63510000D01*
X236788000Y-64010000D02*
X237998000Y-64010000D01*
X236788000Y-73230000D02*
X236788000Y-64010000D01*
X237998000Y-73230000D02*
X236788000Y-73230000D01*
X237998000Y-73730000D02*
X237998000Y-73230000D01*
X236288000Y-63510000D02*
X236288000Y-73730000D01*
X240308000Y-63510000D02*
X236288000Y-63510000D01*
X240308000Y-73730000D02*
X240308000Y-63510000D01*
X236288000Y-73730000D02*
X240308000Y-73730000D01*
%TO.C,OP_MOT_2*%
X242384000Y-73730000D02*
X246404000Y-73730000D01*
X246404000Y-73730000D02*
X246404000Y-63510000D01*
X246404000Y-63510000D02*
X242384000Y-63510000D01*
X242384000Y-63510000D02*
X242384000Y-73730000D01*
X244094000Y-73730000D02*
X244094000Y-73230000D01*
X244094000Y-73230000D02*
X242884000Y-73230000D01*
X242884000Y-73230000D02*
X242884000Y-64010000D01*
X242884000Y-64010000D02*
X244094000Y-64010000D01*
X244094000Y-64010000D02*
X244094000Y-63510000D01*
X244904000Y-73730000D02*
X244904000Y-72730000D01*
X244904000Y-72730000D02*
X246404000Y-72730000D01*
X244904000Y-63510000D02*
X244904000Y-64510000D01*
X244904000Y-64510000D02*
X246404000Y-64510000D01*
X244204000Y-74030000D02*
X246704000Y-74030000D01*
X246704000Y-74030000D02*
X246704000Y-71530000D01*
%TO.C,J21*%
X243148000Y-86984000D02*
X243148000Y-84484000D01*
X240648000Y-86984000D02*
X243148000Y-86984000D01*
X241348000Y-77464000D02*
X242848000Y-77464000D01*
X241348000Y-76464000D02*
X241348000Y-77464000D01*
X241348000Y-85684000D02*
X242848000Y-85684000D01*
X241348000Y-86684000D02*
X241348000Y-85684000D01*
X240538000Y-76964000D02*
X240538000Y-76464000D01*
X239328000Y-76964000D02*
X240538000Y-76964000D01*
X239328000Y-86184000D02*
X239328000Y-76964000D01*
X240538000Y-86184000D02*
X239328000Y-86184000D01*
X240538000Y-86684000D02*
X240538000Y-86184000D01*
X238828000Y-76464000D02*
X238828000Y-86684000D01*
X242848000Y-76464000D02*
X238828000Y-76464000D01*
X242848000Y-86684000D02*
X242848000Y-76464000D01*
X238828000Y-86684000D02*
X242848000Y-86684000D01*
%TO.C,TTL1*%
X240090000Y-106680000D02*
X237430000Y-106680000D01*
X240090000Y-106680000D02*
X240090000Y-99000000D01*
X240090000Y-99000000D02*
X237430000Y-99000000D01*
X237430000Y-106680000D02*
X237430000Y-99000000D01*
X237430000Y-109280000D02*
X237430000Y-107950000D01*
X238760000Y-109280000D02*
X237430000Y-109280000D01*
%TO.C,MPU1*%
X211610000Y-105390000D02*
X220240000Y-105390000D01*
X211610000Y-105508095D02*
X220240000Y-105508095D01*
X211610000Y-105626190D02*
X220240000Y-105626190D01*
X211610000Y-105744285D02*
X220240000Y-105744285D01*
X211610000Y-105862380D02*
X220240000Y-105862380D01*
X211610000Y-105980475D02*
X220240000Y-105980475D01*
X211610000Y-106098570D02*
X220240000Y-106098570D01*
X211610000Y-106216665D02*
X220240000Y-106216665D01*
X211610000Y-106334760D02*
X220240000Y-106334760D01*
X211610000Y-106452855D02*
X220240000Y-106452855D01*
X211610000Y-106570950D02*
X220240000Y-106570950D01*
X211610000Y-106689045D02*
X220240000Y-106689045D01*
X211610000Y-106807140D02*
X220240000Y-106807140D01*
X211610000Y-106925235D02*
X220240000Y-106925235D01*
X211610000Y-107043330D02*
X220240000Y-107043330D01*
X211610000Y-107161425D02*
X220240000Y-107161425D01*
X211610000Y-107279520D02*
X220240000Y-107279520D01*
X211610000Y-107397615D02*
X220240000Y-107397615D01*
X211610000Y-107515710D02*
X220240000Y-107515710D01*
X211610000Y-107633805D02*
X220240000Y-107633805D01*
X211610000Y-107751900D02*
X220240000Y-107751900D01*
X220240000Y-106240000D02*
X220590000Y-106240000D01*
X220240000Y-106960000D02*
X220590000Y-106960000D01*
X220240000Y-108780000D02*
X220650000Y-108780000D01*
X220240000Y-109500000D02*
X220650000Y-109500000D01*
X220240000Y-111320000D02*
X220650000Y-111320000D01*
X220240000Y-112040000D02*
X220650000Y-112040000D01*
X220240000Y-113860000D02*
X220650000Y-113860000D01*
X220240000Y-114580000D02*
X220650000Y-114580000D01*
X220240000Y-116400000D02*
X220650000Y-116400000D01*
X220240000Y-117120000D02*
X220650000Y-117120000D01*
X220240000Y-118940000D02*
X220650000Y-118940000D01*
X220240000Y-119660000D02*
X220650000Y-119660000D01*
X220240000Y-121480000D02*
X220650000Y-121480000D01*
X220240000Y-122200000D02*
X220650000Y-122200000D01*
X220240000Y-124020000D02*
X220650000Y-124020000D01*
X220240000Y-124740000D02*
X220650000Y-124740000D01*
X211610000Y-107870000D02*
X220240000Y-107870000D01*
X211610000Y-110410000D02*
X220240000Y-110410000D01*
X211610000Y-112950000D02*
X220240000Y-112950000D01*
X211610000Y-115490000D02*
X220240000Y-115490000D01*
X211610000Y-118030000D02*
X220240000Y-118030000D01*
X211610000Y-120570000D02*
X220240000Y-120570000D01*
X211610000Y-123110000D02*
X220240000Y-123110000D01*
X211610000Y-105270000D02*
X220240000Y-105270000D01*
X220240000Y-105270000D02*
X220240000Y-125710000D01*
X211610000Y-125710000D02*
X220240000Y-125710000D01*
X211610000Y-105270000D02*
X211610000Y-125710000D01*
X222810000Y-105270000D02*
X222810000Y-106600000D01*
X221700000Y-105270000D02*
X222810000Y-105270000D01*
%TO.C,J7*%
D11*
X177166666Y-136452380D02*
X177166666Y-137166666D01*
X177119047Y-137309523D01*
X177023809Y-137404761D01*
X176880952Y-137452380D01*
X176785714Y-137452380D01*
X177547619Y-136452380D02*
X178214285Y-136452380D01*
X177785714Y-137452380D01*
%TO.C,REF\u002A\u002A*%
X247666666Y-133452380D02*
X247333333Y-132976190D01*
X247095238Y-133452380D02*
X247095238Y-132452380D01*
X247476190Y-132452380D01*
X247571428Y-132500000D01*
X247619047Y-132547619D01*
X247666666Y-132642857D01*
X247666666Y-132785714D01*
X247619047Y-132880952D01*
X247571428Y-132928571D01*
X247476190Y-132976190D01*
X247095238Y-132976190D01*
X248095238Y-132928571D02*
X248428571Y-132928571D01*
X248571428Y-133452380D02*
X248095238Y-133452380D01*
X248095238Y-132452380D01*
X248571428Y-132452380D01*
X249333333Y-132928571D02*
X249000000Y-132928571D01*
X249000000Y-133452380D02*
X249000000Y-132452380D01*
X249476190Y-132452380D01*
X250000000Y-132452380D02*
X250000000Y-132690476D01*
X249761904Y-132595238D02*
X250000000Y-132690476D01*
X250238095Y-132595238D01*
X249857142Y-132880952D02*
X250000000Y-132690476D01*
X250142857Y-132880952D01*
X250761904Y-132452380D02*
X250761904Y-132690476D01*
X250523809Y-132595238D02*
X250761904Y-132690476D01*
X251000000Y-132595238D01*
X250619047Y-132880952D02*
X250761904Y-132690476D01*
X250904761Y-132880952D01*
X181666666Y-65452380D02*
X181333333Y-64976190D01*
X181095238Y-65452380D02*
X181095238Y-64452380D01*
X181476190Y-64452380D01*
X181571428Y-64500000D01*
X181619047Y-64547619D01*
X181666666Y-64642857D01*
X181666666Y-64785714D01*
X181619047Y-64880952D01*
X181571428Y-64928571D01*
X181476190Y-64976190D01*
X181095238Y-64976190D01*
X182095238Y-64928571D02*
X182428571Y-64928571D01*
X182571428Y-65452380D02*
X182095238Y-65452380D01*
X182095238Y-64452380D01*
X182571428Y-64452380D01*
X183333333Y-64928571D02*
X183000000Y-64928571D01*
X183000000Y-65452380D02*
X183000000Y-64452380D01*
X183476190Y-64452380D01*
X184000000Y-64452380D02*
X184000000Y-64690476D01*
X183761904Y-64595238D02*
X184000000Y-64690476D01*
X184238095Y-64595238D01*
X183857142Y-64880952D02*
X184000000Y-64690476D01*
X184142857Y-64880952D01*
X184761904Y-64452380D02*
X184761904Y-64690476D01*
X184523809Y-64595238D02*
X184761904Y-64690476D01*
X185000000Y-64595238D01*
X184619047Y-64880952D02*
X184761904Y-64690476D01*
X184904761Y-64880952D01*
%TO.C,J23*%
X227644476Y-68868380D02*
X227644476Y-69582666D01*
X227596857Y-69725523D01*
X227501619Y-69820761D01*
X227358761Y-69868380D01*
X227263523Y-69868380D01*
X228073047Y-68963619D02*
X228120666Y-68916000D01*
X228215904Y-68868380D01*
X228454000Y-68868380D01*
X228549238Y-68916000D01*
X228596857Y-68963619D01*
X228644476Y-69058857D01*
X228644476Y-69154095D01*
X228596857Y-69296952D01*
X228025428Y-69868380D01*
X228644476Y-69868380D01*
X228977809Y-68868380D02*
X229596857Y-68868380D01*
X229263523Y-69249333D01*
X229406380Y-69249333D01*
X229501619Y-69296952D01*
X229549238Y-69344571D01*
X229596857Y-69439809D01*
X229596857Y-69677904D01*
X229549238Y-69773142D01*
X229501619Y-69820761D01*
X229406380Y-69868380D01*
X229120666Y-69868380D01*
X229025428Y-69820761D01*
X228977809Y-69773142D01*
%TO.C,J22*%
X176884476Y-68788380D02*
X176884476Y-69502666D01*
X176836857Y-69645523D01*
X176741619Y-69740761D01*
X176598761Y-69788380D01*
X176503523Y-69788380D01*
X177313047Y-68883619D02*
X177360666Y-68836000D01*
X177455904Y-68788380D01*
X177694000Y-68788380D01*
X177789238Y-68836000D01*
X177836857Y-68883619D01*
X177884476Y-68978857D01*
X177884476Y-69074095D01*
X177836857Y-69216952D01*
X177265428Y-69788380D01*
X177884476Y-69788380D01*
X178265428Y-68883619D02*
X178313047Y-68836000D01*
X178408285Y-68788380D01*
X178646380Y-68788380D01*
X178741619Y-68836000D01*
X178789238Y-68883619D01*
X178836857Y-68978857D01*
X178836857Y-69074095D01*
X178789238Y-69216952D01*
X178217809Y-69788380D01*
X178836857Y-69788380D01*
%TO.C,J18*%
X242452380Y-122809523D02*
X243166666Y-122809523D01*
X243309523Y-122857142D01*
X243404761Y-122952380D01*
X243452380Y-123095238D01*
X243452380Y-123190476D01*
X243452380Y-121809523D02*
X243452380Y-122380952D01*
X243452380Y-122095238D02*
X242452380Y-122095238D01*
X242595238Y-122190476D01*
X242690476Y-122285714D01*
X242738095Y-122380952D01*
X242880952Y-121238095D02*
X242833333Y-121333333D01*
X242785714Y-121380952D01*
X242690476Y-121428571D01*
X242642857Y-121428571D01*
X242547619Y-121380952D01*
X242500000Y-121333333D01*
X242452380Y-121238095D01*
X242452380Y-121047619D01*
X242500000Y-120952380D01*
X242547619Y-120904761D01*
X242642857Y-120857142D01*
X242690476Y-120857142D01*
X242785714Y-120904761D01*
X242833333Y-120952380D01*
X242880952Y-121047619D01*
X242880952Y-121238095D01*
X242928571Y-121333333D01*
X242976190Y-121380952D01*
X243071428Y-121428571D01*
X243261904Y-121428571D01*
X243357142Y-121380952D01*
X243404761Y-121333333D01*
X243452380Y-121238095D01*
X243452380Y-121047619D01*
X243404761Y-120952380D01*
X243357142Y-120904761D01*
X243261904Y-120857142D01*
X243071428Y-120857142D01*
X242976190Y-120904761D01*
X242928571Y-120952380D01*
X242880952Y-121047619D01*
%TO.C,J17*%
X243452380Y-96775523D02*
X244166666Y-96775523D01*
X244309523Y-96823142D01*
X244404761Y-96918380D01*
X244452380Y-97061238D01*
X244452380Y-97156476D01*
X244452380Y-95775523D02*
X244452380Y-96346952D01*
X244452380Y-96061238D02*
X243452380Y-96061238D01*
X243595238Y-96156476D01*
X243690476Y-96251714D01*
X243738095Y-96346952D01*
X243452380Y-95442190D02*
X243452380Y-94775523D01*
X244452380Y-95204095D01*
%TO.C,L_B1*%
X187780380Y-136382380D02*
X187304190Y-136382380D01*
X187304190Y-135382380D01*
X187875619Y-136477619D02*
X188637523Y-136477619D01*
X189208952Y-135858571D02*
X189351809Y-135906190D01*
X189399428Y-135953809D01*
X189447047Y-136049047D01*
X189447047Y-136191904D01*
X189399428Y-136287142D01*
X189351809Y-136334761D01*
X189256571Y-136382380D01*
X188875619Y-136382380D01*
X188875619Y-135382380D01*
X189208952Y-135382380D01*
X189304190Y-135430000D01*
X189351809Y-135477619D01*
X189399428Y-135572857D01*
X189399428Y-135668095D01*
X189351809Y-135763333D01*
X189304190Y-135810952D01*
X189208952Y-135858571D01*
X188875619Y-135858571D01*
X190399428Y-136382380D02*
X189828000Y-136382380D01*
X190113714Y-136382380D02*
X190113714Y-135382380D01*
X190018476Y-135525238D01*
X189923238Y-135620476D01*
X189828000Y-135668095D01*
%TO.C,L_V1*%
X200023809Y-136452380D02*
X199547619Y-136452380D01*
X199547619Y-135452380D01*
X200119047Y-136547619D02*
X200880952Y-136547619D01*
X200976190Y-135452380D02*
X201309523Y-136452380D01*
X201642857Y-135452380D01*
X202500000Y-136452380D02*
X201928571Y-136452380D01*
X202214285Y-136452380D02*
X202214285Y-135452380D01*
X202119047Y-135595238D01*
X202023809Y-135690476D01*
X201928571Y-135738095D01*
%TO.C,J6*%
X243452380Y-109985333D02*
X244166666Y-109985333D01*
X244309523Y-110032952D01*
X244404761Y-110128190D01*
X244452380Y-110271047D01*
X244452380Y-110366285D01*
X243452380Y-109080571D02*
X243452380Y-109271047D01*
X243500000Y-109366285D01*
X243547619Y-109413904D01*
X243690476Y-109509142D01*
X243880952Y-109556761D01*
X244261904Y-109556761D01*
X244357142Y-109509142D01*
X244404761Y-109461523D01*
X244452380Y-109366285D01*
X244452380Y-109175809D01*
X244404761Y-109080571D01*
X244357142Y-109032952D01*
X244261904Y-108985333D01*
X244023809Y-108985333D01*
X243928571Y-109032952D01*
X243880952Y-109080571D01*
X243833333Y-109175809D01*
X243833333Y-109366285D01*
X243880952Y-109461523D01*
X243928571Y-109509142D01*
X244023809Y-109556761D01*
%TO.C,J5*%
X243452380Y-82333333D02*
X244166666Y-82333333D01*
X244309523Y-82380952D01*
X244404761Y-82476190D01*
X244452380Y-82619047D01*
X244452380Y-82714285D01*
X243452380Y-81380952D02*
X243452380Y-81857142D01*
X243928571Y-81904761D01*
X243880952Y-81857142D01*
X243833333Y-81761904D01*
X243833333Y-81523809D01*
X243880952Y-81428571D01*
X243928571Y-81380952D01*
X244023809Y-81333333D01*
X244261904Y-81333333D01*
X244357142Y-81380952D01*
X244404761Y-81428571D01*
X244452380Y-81523809D01*
X244452380Y-81761904D01*
X244404761Y-81857142D01*
X244357142Y-81904761D01*
%TO.C,L_F1*%
X211661809Y-136452380D02*
X211185619Y-136452380D01*
X211185619Y-135452380D01*
X211757047Y-136547619D02*
X212518952Y-136547619D01*
X213090380Y-135928571D02*
X212757047Y-135928571D01*
X212757047Y-136452380D02*
X212757047Y-135452380D01*
X213233238Y-135452380D01*
X214138000Y-136452380D02*
X213566571Y-136452380D01*
X213852285Y-136452380D02*
X213852285Y-135452380D01*
X213757047Y-135595238D01*
X213661809Y-135690476D01*
X213566571Y-135738095D01*
%TO.C,R_F1*%
X223051809Y-136596380D02*
X222718476Y-136120190D01*
X222480380Y-136596380D02*
X222480380Y-135596380D01*
X222861333Y-135596380D01*
X222956571Y-135644000D01*
X223004190Y-135691619D01*
X223051809Y-135786857D01*
X223051809Y-135929714D01*
X223004190Y-136024952D01*
X222956571Y-136072571D01*
X222861333Y-136120190D01*
X222480380Y-136120190D01*
X223242285Y-136691619D02*
X224004190Y-136691619D01*
X224575619Y-136072571D02*
X224242285Y-136072571D01*
X224242285Y-136596380D02*
X224242285Y-135596380D01*
X224718476Y-135596380D01*
X225623238Y-136596380D02*
X225051809Y-136596380D01*
X225337523Y-136596380D02*
X225337523Y-135596380D01*
X225242285Y-135739238D01*
X225147047Y-135834476D01*
X225051809Y-135882095D01*
%TO.C,R_V1*%
X234031809Y-136412380D02*
X233698476Y-135936190D01*
X233460380Y-136412380D02*
X233460380Y-135412380D01*
X233841333Y-135412380D01*
X233936571Y-135460000D01*
X233984190Y-135507619D01*
X234031809Y-135602857D01*
X234031809Y-135745714D01*
X233984190Y-135840952D01*
X233936571Y-135888571D01*
X233841333Y-135936190D01*
X233460380Y-135936190D01*
X234222285Y-136507619D02*
X234984190Y-136507619D01*
X235079428Y-135412380D02*
X235412761Y-136412380D01*
X235746095Y-135412380D01*
X236603238Y-136412380D02*
X236031809Y-136412380D01*
X236317523Y-136412380D02*
X236317523Y-135412380D01*
X236222285Y-135555238D01*
X236127047Y-135650476D01*
X236031809Y-135698095D01*
%TO.C,R_B1*%
X244824380Y-136342380D02*
X244491047Y-135866190D01*
X244252952Y-136342380D02*
X244252952Y-135342380D01*
X244633904Y-135342380D01*
X244729142Y-135390000D01*
X244776761Y-135437619D01*
X244824380Y-135532857D01*
X244824380Y-135675714D01*
X244776761Y-135770952D01*
X244729142Y-135818571D01*
X244633904Y-135866190D01*
X244252952Y-135866190D01*
X245014857Y-136437619D02*
X245776761Y-136437619D01*
X246348190Y-135818571D02*
X246491047Y-135866190D01*
X246538666Y-135913809D01*
X246586285Y-136009047D01*
X246586285Y-136151904D01*
X246538666Y-136247142D01*
X246491047Y-136294761D01*
X246395809Y-136342380D01*
X246014857Y-136342380D01*
X246014857Y-135342380D01*
X246348190Y-135342380D01*
X246443428Y-135390000D01*
X246491047Y-135437619D01*
X246538666Y-135532857D01*
X246538666Y-135628095D01*
X246491047Y-135723333D01*
X246443428Y-135770952D01*
X246348190Y-135818571D01*
X246014857Y-135818571D01*
X247538666Y-136342380D02*
X246967238Y-136342380D01*
X247252952Y-136342380D02*
X247252952Y-135342380D01*
X247157714Y-135485238D01*
X247062476Y-135580476D01*
X246967238Y-135628095D01*
%TO.C,J8*%
X246588380Y-68783333D02*
X247302666Y-68783333D01*
X247445523Y-68830952D01*
X247540761Y-68926190D01*
X247588380Y-69069047D01*
X247588380Y-69164285D01*
X247016952Y-68164285D02*
X246969333Y-68259523D01*
X246921714Y-68307142D01*
X246826476Y-68354761D01*
X246778857Y-68354761D01*
X246683619Y-68307142D01*
X246636000Y-68259523D01*
X246588380Y-68164285D01*
X246588380Y-67973809D01*
X246636000Y-67878571D01*
X246683619Y-67830952D01*
X246778857Y-67783333D01*
X246826476Y-67783333D01*
X246921714Y-67830952D01*
X246969333Y-67878571D01*
X247016952Y-67973809D01*
X247016952Y-68164285D01*
X247064571Y-68259523D01*
X247112190Y-68307142D01*
X247207428Y-68354761D01*
X247397904Y-68354761D01*
X247493142Y-68307142D01*
X247540761Y-68259523D01*
X247588380Y-68164285D01*
X247588380Y-67973809D01*
X247540761Y-67878571D01*
X247493142Y-67830952D01*
X247397904Y-67783333D01*
X247207428Y-67783333D01*
X247112190Y-67830952D01*
X247064571Y-67878571D01*
X247016952Y-67973809D01*
%TO.C,J11*%
X237444380Y-93813523D02*
X238158666Y-93813523D01*
X238301523Y-93861142D01*
X238396761Y-93956380D01*
X238444380Y-94099238D01*
X238444380Y-94194476D01*
X238444380Y-92813523D02*
X238444380Y-93384952D01*
X238444380Y-93099238D02*
X237444380Y-93099238D01*
X237587238Y-93194476D01*
X237682476Y-93289714D01*
X237730095Y-93384952D01*
X238444380Y-91861142D02*
X238444380Y-92432571D01*
X238444380Y-92146857D02*
X237444380Y-92146857D01*
X237587238Y-92242095D01*
X237682476Y-92337333D01*
X237730095Y-92432571D01*
%TO.C,OP_MOT_1*%
X234650380Y-71929523D02*
X234650380Y-71739047D01*
X234698000Y-71643809D01*
X234793238Y-71548571D01*
X234983714Y-71500952D01*
X235317047Y-71500952D01*
X235507523Y-71548571D01*
X235602761Y-71643809D01*
X235650380Y-71739047D01*
X235650380Y-71929523D01*
X235602761Y-72024761D01*
X235507523Y-72120000D01*
X235317047Y-72167619D01*
X234983714Y-72167619D01*
X234793238Y-72120000D01*
X234698000Y-72024761D01*
X234650380Y-71929523D01*
X235650380Y-71072380D02*
X234650380Y-71072380D01*
X234650380Y-70691428D01*
X234698000Y-70596190D01*
X234745619Y-70548571D01*
X234840857Y-70500952D01*
X234983714Y-70500952D01*
X235078952Y-70548571D01*
X235126571Y-70596190D01*
X235174190Y-70691428D01*
X235174190Y-71072380D01*
X235745619Y-70310476D02*
X235745619Y-69548571D01*
X235650380Y-69310476D02*
X234650380Y-69310476D01*
X235364666Y-68977142D01*
X234650380Y-68643809D01*
X235650380Y-68643809D01*
X234650380Y-67977142D02*
X234650380Y-67786666D01*
X234698000Y-67691428D01*
X234793238Y-67596190D01*
X234983714Y-67548571D01*
X235317047Y-67548571D01*
X235507523Y-67596190D01*
X235602761Y-67691428D01*
X235650380Y-67786666D01*
X235650380Y-67977142D01*
X235602761Y-68072380D01*
X235507523Y-68167619D01*
X235317047Y-68215238D01*
X234983714Y-68215238D01*
X234793238Y-68167619D01*
X234698000Y-68072380D01*
X234650380Y-67977142D01*
X234650380Y-67262857D02*
X234650380Y-66691428D01*
X235650380Y-66977142D02*
X234650380Y-66977142D01*
X235745619Y-66596190D02*
X235745619Y-65834285D01*
X235650380Y-65072380D02*
X235650380Y-65643809D01*
X235650380Y-65358095D02*
X234650380Y-65358095D01*
X234793238Y-65453333D01*
X234888476Y-65548571D01*
X234936095Y-65643809D01*
%TO.C,OP_MOT_2*%
X240746380Y-71929523D02*
X240746380Y-71739047D01*
X240794000Y-71643809D01*
X240889238Y-71548571D01*
X241079714Y-71500952D01*
X241413047Y-71500952D01*
X241603523Y-71548571D01*
X241698761Y-71643809D01*
X241746380Y-71739047D01*
X241746380Y-71929523D01*
X241698761Y-72024761D01*
X241603523Y-72120000D01*
X241413047Y-72167619D01*
X241079714Y-72167619D01*
X240889238Y-72120000D01*
X240794000Y-72024761D01*
X240746380Y-71929523D01*
X241746380Y-71072380D02*
X240746380Y-71072380D01*
X240746380Y-70691428D01*
X240794000Y-70596190D01*
X240841619Y-70548571D01*
X240936857Y-70500952D01*
X241079714Y-70500952D01*
X241174952Y-70548571D01*
X241222571Y-70596190D01*
X241270190Y-70691428D01*
X241270190Y-71072380D01*
X241841619Y-70310476D02*
X241841619Y-69548571D01*
X241746380Y-69310476D02*
X240746380Y-69310476D01*
X241460666Y-68977142D01*
X240746380Y-68643809D01*
X241746380Y-68643809D01*
X240746380Y-67977142D02*
X240746380Y-67786666D01*
X240794000Y-67691428D01*
X240889238Y-67596190D01*
X241079714Y-67548571D01*
X241413047Y-67548571D01*
X241603523Y-67596190D01*
X241698761Y-67691428D01*
X241746380Y-67786666D01*
X241746380Y-67977142D01*
X241698761Y-68072380D01*
X241603523Y-68167619D01*
X241413047Y-68215238D01*
X241079714Y-68215238D01*
X240889238Y-68167619D01*
X240794000Y-68072380D01*
X240746380Y-67977142D01*
X240746380Y-67262857D02*
X240746380Y-66691428D01*
X241746380Y-66977142D02*
X240746380Y-66977142D01*
X241841619Y-66596190D02*
X241841619Y-65834285D01*
X240841619Y-65643809D02*
X240794000Y-65596190D01*
X240746380Y-65500952D01*
X240746380Y-65262857D01*
X240794000Y-65167619D01*
X240841619Y-65120000D01*
X240936857Y-65072380D01*
X241032095Y-65072380D01*
X241174952Y-65120000D01*
X241746380Y-65691428D01*
X241746380Y-65072380D01*
%TO.C,J21*%
X237190380Y-82383523D02*
X237904666Y-82383523D01*
X238047523Y-82431142D01*
X238142761Y-82526380D01*
X238190380Y-82669238D01*
X238190380Y-82764476D01*
X237285619Y-81954952D02*
X237238000Y-81907333D01*
X237190380Y-81812095D01*
X237190380Y-81574000D01*
X237238000Y-81478761D01*
X237285619Y-81431142D01*
X237380857Y-81383523D01*
X237476095Y-81383523D01*
X237618952Y-81431142D01*
X238190380Y-82002571D01*
X238190380Y-81383523D01*
X238190380Y-80431142D02*
X238190380Y-81002571D01*
X238190380Y-80716857D02*
X237190380Y-80716857D01*
X237333238Y-80812095D01*
X237428476Y-80907333D01*
X237476095Y-81002571D01*
%TO.C,TTL1*%
X235418380Y-101877619D02*
X235418380Y-101306190D01*
X236418380Y-101591904D02*
X235418380Y-101591904D01*
X235418380Y-101115714D02*
X235418380Y-100544285D01*
X236418380Y-100830000D02*
X235418380Y-100830000D01*
X236418380Y-99734761D02*
X236418380Y-100210952D01*
X235418380Y-100210952D01*
X236418380Y-98877619D02*
X236418380Y-99449047D01*
X236418380Y-99163333D02*
X235418380Y-99163333D01*
X235561238Y-99258571D01*
X235656476Y-99353809D01*
X235704095Y-99449047D01*
%TO.C,MPU1*%
X215486666Y-104282380D02*
X215486666Y-103282380D01*
X215820000Y-103996666D01*
X216153333Y-103282380D01*
X216153333Y-104282380D01*
X216629523Y-104282380D02*
X216629523Y-103282380D01*
X217010476Y-103282380D01*
X217105714Y-103330000D01*
X217153333Y-103377619D01*
X217200952Y-103472857D01*
X217200952Y-103615714D01*
X217153333Y-103710952D01*
X217105714Y-103758571D01*
X217010476Y-103806190D01*
X216629523Y-103806190D01*
X217629523Y-103282380D02*
X217629523Y-104091904D01*
X217677142Y-104187142D01*
X217724761Y-104234761D01*
X217820000Y-104282380D01*
X218010476Y-104282380D01*
X218105714Y-104234761D01*
X218153333Y-104187142D01*
X218200952Y-104091904D01*
X218200952Y-103282380D01*
X219200952Y-104282380D02*
X218629523Y-104282380D01*
X218915238Y-104282380D02*
X218915238Y-103282380D01*
X218820000Y-103425238D01*
X218724761Y-103520476D01*
X218629523Y-103568095D01*
%TD*%
M02*
