%FSLAX45Y45*%
G04 Gerber Fmt 4.5, Leading zero omitted, Abs format (unit mm)*
G04 Created by KiCad (PCBNEW (5.1.10)-1) date 2022-05-17 22:09:09*
%MOMM*%
%LPD*%
G01*
G04 APERTURE LIST*
%TA.AperFunction,Profile*%
%ADD10C,0.050000*%
%TD*%
%ADD11C,0.200000*%
%ADD12C,0.300000*%
G04 APERTURE END LIST*
D10*
X17300000Y-6200000D02*
X25300000Y-6200000D01*
X17300000Y-14500000D02*
X17300000Y-6200000D01*
X25300000Y-14500000D02*
X17300000Y-14500000D01*
X25300000Y-6200000D02*
X25300000Y-14500000D01*
D11*
X18654900Y-13820900D02*
X18749900Y-13915900D01*
X18749900Y-13820900D02*
X18654900Y-13915900D01*
X18904900Y-13820900D02*
X18999900Y-13915900D01*
X18999900Y-13820900D02*
X18904900Y-13915900D01*
X19154900Y-13820900D02*
X19249900Y-13915900D01*
X19249900Y-13820900D02*
X19154900Y-13915900D01*
X19829100Y-13827900D02*
X19924100Y-13922900D01*
X19924100Y-13827900D02*
X19829100Y-13922900D01*
X20079100Y-13827900D02*
X20174100Y-13922900D01*
X20174100Y-13827900D02*
X20079100Y-13922900D01*
X20329100Y-13827900D02*
X20424100Y-13922900D01*
X20424100Y-13827900D02*
X20329100Y-13922900D01*
X20966300Y-13827900D02*
X21061300Y-13922900D01*
X21061300Y-13827900D02*
X20966300Y-13922900D01*
X21216300Y-13827900D02*
X21311300Y-13922900D01*
X21311300Y-13827900D02*
X21216300Y-13922900D01*
X21466300Y-13827900D02*
X21561300Y-13922900D01*
X21561300Y-13827900D02*
X21466300Y-13922900D01*
X22134700Y-13820900D02*
X22229700Y-13915900D01*
X22229700Y-13820900D02*
X22134700Y-13915900D01*
X22384700Y-13820900D02*
X22479700Y-13915900D01*
X22479700Y-13820900D02*
X22384700Y-13915900D01*
X22634700Y-13820900D02*
X22729700Y-13915900D01*
X22729700Y-13820900D02*
X22634700Y-13915900D01*
X23258100Y-13827900D02*
X23353100Y-13922900D01*
X23353100Y-13827900D02*
X23258100Y-13922900D01*
X23508100Y-13827900D02*
X23603100Y-13922900D01*
X23603100Y-13827900D02*
X23508100Y-13922900D01*
X23752300Y-6564500D02*
X23847300Y-6659500D01*
X23847300Y-6564500D02*
X23752300Y-6659500D01*
X23752300Y-6814500D02*
X23847300Y-6909500D01*
X23847300Y-6814500D02*
X23752300Y-6909500D01*
X23752300Y-7064500D02*
X23847300Y-7159500D01*
X23847300Y-7064500D02*
X23752300Y-7159500D01*
X23758100Y-13827900D02*
X23853100Y-13922900D01*
X23853100Y-13827900D02*
X23758100Y-13922900D01*
X24006300Y-7859900D02*
X24101300Y-7954900D01*
X24101300Y-7859900D02*
X24006300Y-7954900D01*
X24006300Y-8109900D02*
X24101300Y-8204900D01*
X24101300Y-8109900D02*
X24006300Y-8204900D01*
X24006300Y-8359900D02*
X24101300Y-8454900D01*
X24101300Y-8359900D02*
X24006300Y-8454900D01*
X24031700Y-9002900D02*
X24126700Y-9097900D01*
X24126700Y-9002900D02*
X24031700Y-9097900D01*
X24031700Y-9252900D02*
X24126700Y-9347900D01*
X24126700Y-9252900D02*
X24031700Y-9347900D01*
X24031700Y-9502900D02*
X24126700Y-9597900D01*
X24126700Y-9502900D02*
X24031700Y-9597900D01*
X24361900Y-6564500D02*
X24456900Y-6659500D01*
X24456900Y-6564500D02*
X24361900Y-6659500D01*
X24361900Y-6814500D02*
X24456900Y-6909500D01*
X24456900Y-6814500D02*
X24361900Y-6909500D01*
X24361900Y-7064500D02*
X24456900Y-7159500D01*
X24456900Y-7064500D02*
X24361900Y-7159500D01*
X24395300Y-13820900D02*
X24490300Y-13915900D01*
X24490300Y-13820900D02*
X24395300Y-13915900D01*
X24645300Y-13820900D02*
X24740300Y-13915900D01*
X24740300Y-13820900D02*
X24645300Y-13915900D01*
X24666700Y-7858300D02*
X24761700Y-7953300D01*
X24761700Y-7858300D02*
X24666700Y-7953300D01*
X24666700Y-8108300D02*
X24761700Y-8203300D01*
X24761700Y-8108300D02*
X24666700Y-8203300D01*
X24666700Y-8358300D02*
X24761700Y-8453300D01*
X24761700Y-8358300D02*
X24666700Y-8453300D01*
X24666700Y-8608300D02*
X24761700Y-8703300D01*
X24761700Y-8608300D02*
X24666700Y-8703300D01*
X24666700Y-9248900D02*
X24761700Y-9343900D01*
X24761700Y-9248900D02*
X24666700Y-9343900D01*
X24666700Y-9498900D02*
X24761700Y-9593900D01*
X24761700Y-9498900D02*
X24666700Y-9593900D01*
X24666700Y-9748900D02*
X24761700Y-9843900D01*
X24761700Y-9748900D02*
X24666700Y-9843900D01*
X24666700Y-9998900D02*
X24761700Y-10093900D01*
X24761700Y-9998900D02*
X24666700Y-10093900D01*
X24666700Y-10620500D02*
X24761700Y-10715500D01*
X24761700Y-10620500D02*
X24666700Y-10715500D01*
X24666700Y-10870500D02*
X24761700Y-10965500D01*
X24761700Y-10870500D02*
X24666700Y-10965500D01*
X24666700Y-11120500D02*
X24761700Y-11215500D01*
X24761700Y-11120500D02*
X24666700Y-11215500D01*
X24666700Y-11370500D02*
X24761700Y-11465500D01*
X24761700Y-11370500D02*
X24666700Y-11465500D01*
X24666700Y-12023900D02*
X24761700Y-12118900D01*
X24761700Y-12023900D02*
X24666700Y-12118900D01*
X24666700Y-12273900D02*
X24761700Y-12368900D01*
X24761700Y-12273900D02*
X24666700Y-12368900D01*
X24666700Y-12523900D02*
X24761700Y-12618900D01*
X24761700Y-12523900D02*
X24666700Y-12618900D01*
X24666700Y-12773900D02*
X24761700Y-12868900D01*
X24761700Y-12773900D02*
X24666700Y-12868900D01*
X24895300Y-13820900D02*
X24990300Y-13915900D01*
X24990300Y-13820900D02*
X24895300Y-13915900D01*
X24946100Y-6422500D02*
X25041100Y-6517500D01*
X25041100Y-6422500D02*
X24946100Y-6517500D01*
X24946100Y-6672500D02*
X25041100Y-6767500D01*
X25041100Y-6672500D02*
X24946100Y-6767500D01*
X24946100Y-6922500D02*
X25041100Y-7017500D01*
X25041100Y-6922500D02*
X24946100Y-7017500D01*
X24946100Y-7172500D02*
X25041100Y-7267500D01*
X25041100Y-7172500D02*
X24946100Y-7267500D01*
X17692400Y-7210600D02*
G75*
G03*
X17692400Y-7210600I-50000J0D01*
G01*
X17692400Y-7464600D02*
G75*
G03*
X17692400Y-7464600I-50000J0D01*
G01*
X17692400Y-7718600D02*
G75*
G03*
X17692400Y-7718600I-50000J0D01*
G01*
X17692400Y-7972600D02*
G75*
G03*
X17692400Y-7972600I-50000J0D01*
G01*
X17692400Y-8226600D02*
G75*
G03*
X17692400Y-8226600I-50000J0D01*
G01*
X17692400Y-8480600D02*
G75*
G03*
X17692400Y-8480600I-50000J0D01*
G01*
X17692400Y-8734600D02*
G75*
G03*
X17692400Y-8734600I-50000J0D01*
G01*
X17692400Y-8988600D02*
G75*
G03*
X17692400Y-8988600I-50000J0D01*
G01*
X17692400Y-9242600D02*
G75*
G03*
X17692400Y-9242600I-50000J0D01*
G01*
X17692400Y-9496600D02*
G75*
G03*
X17692400Y-9496600I-50000J0D01*
G01*
X17692400Y-9750600D02*
G75*
G03*
X17692400Y-9750600I-50000J0D01*
G01*
X17692400Y-10004600D02*
G75*
G03*
X17692400Y-10004600I-50000J0D01*
G01*
X17692400Y-10258600D02*
G75*
G03*
X17692400Y-10258600I-50000J0D01*
G01*
X17692400Y-10512600D02*
G75*
G03*
X17692400Y-10512600I-50000J0D01*
G01*
X17692400Y-10766600D02*
G75*
G03*
X17692400Y-10766600I-50000J0D01*
G01*
X17692400Y-11020600D02*
G75*
G03*
X17692400Y-11020600I-50000J0D01*
G01*
X17692400Y-11274600D02*
G75*
G03*
X17692400Y-11274600I-50000J0D01*
G01*
X17692400Y-11528600D02*
G75*
G03*
X17692400Y-11528600I-50000J0D01*
G01*
X17692400Y-11782600D02*
G75*
G03*
X17692400Y-11782600I-50000J0D01*
G01*
X17692400Y-12036600D02*
G75*
G03*
X17692400Y-12036600I-50000J0D01*
G01*
X17692400Y-12290600D02*
G75*
G03*
X17692400Y-12290600I-50000J0D01*
G01*
X17692400Y-12544600D02*
G75*
G03*
X17692400Y-12544600I-50000J0D01*
G01*
X17692400Y-12798600D02*
G75*
G03*
X17692400Y-12798600I-50000J0D01*
G01*
X17692400Y-13052600D02*
G75*
G03*
X17692400Y-13052600I-50000J0D01*
G01*
X17692400Y-13306600D02*
G75*
G03*
X17692400Y-13306600I-50000J0D01*
G01*
X17946400Y-7210600D02*
G75*
G03*
X17946400Y-7210600I-50000J0D01*
G01*
X17946400Y-7464600D02*
G75*
G03*
X17946400Y-7464600I-50000J0D01*
G01*
X17946400Y-7718600D02*
G75*
G03*
X17946400Y-7718600I-50000J0D01*
G01*
X17946400Y-7972600D02*
G75*
G03*
X17946400Y-7972600I-50000J0D01*
G01*
X17946400Y-8226600D02*
G75*
G03*
X17946400Y-8226600I-50000J0D01*
G01*
X17946400Y-8480600D02*
G75*
G03*
X17946400Y-8480600I-50000J0D01*
G01*
X17946400Y-8734600D02*
G75*
G03*
X17946400Y-8734600I-50000J0D01*
G01*
X17946400Y-8988600D02*
G75*
G03*
X17946400Y-8988600I-50000J0D01*
G01*
X17946400Y-9242600D02*
G75*
G03*
X17946400Y-9242600I-50000J0D01*
G01*
X17946400Y-9496600D02*
G75*
G03*
X17946400Y-9496600I-50000J0D01*
G01*
X17946400Y-9750600D02*
G75*
G03*
X17946400Y-9750600I-50000J0D01*
G01*
X17946400Y-10004600D02*
G75*
G03*
X17946400Y-10004600I-50000J0D01*
G01*
X17946400Y-10258600D02*
G75*
G03*
X17946400Y-10258600I-50000J0D01*
G01*
X17946400Y-10512600D02*
G75*
G03*
X17946400Y-10512600I-50000J0D01*
G01*
X17946400Y-10766600D02*
G75*
G03*
X17946400Y-10766600I-50000J0D01*
G01*
X17946400Y-11020600D02*
G75*
G03*
X17946400Y-11020600I-50000J0D01*
G01*
X17946400Y-11274600D02*
G75*
G03*
X17946400Y-11274600I-50000J0D01*
G01*
X17946400Y-11528600D02*
G75*
G03*
X17946400Y-11528600I-50000J0D01*
G01*
X17946400Y-11782600D02*
G75*
G03*
X17946400Y-11782600I-50000J0D01*
G01*
X17946400Y-12036600D02*
G75*
G03*
X17946400Y-12036600I-50000J0D01*
G01*
X17946400Y-12290600D02*
G75*
G03*
X17946400Y-12290600I-50000J0D01*
G01*
X17946400Y-12544600D02*
G75*
G03*
X17946400Y-12544600I-50000J0D01*
G01*
X17946400Y-12798600D02*
G75*
G03*
X17946400Y-12798600I-50000J0D01*
G01*
X17946400Y-13052600D02*
G75*
G03*
X17946400Y-13052600I-50000J0D01*
G01*
X17946400Y-13306600D02*
G75*
G03*
X17946400Y-13306600I-50000J0D01*
G01*
X22220000Y-10660000D02*
G75*
G03*
X22220000Y-10660000I-50000J0D01*
G01*
X22220000Y-10914000D02*
G75*
G03*
X22220000Y-10914000I-50000J0D01*
G01*
X22220000Y-11168000D02*
G75*
G03*
X22220000Y-11168000I-50000J0D01*
G01*
X22220000Y-11422000D02*
G75*
G03*
X22220000Y-11422000I-50000J0D01*
G01*
X22220000Y-11676000D02*
G75*
G03*
X22220000Y-11676000I-50000J0D01*
G01*
X22220000Y-11930000D02*
G75*
G03*
X22220000Y-11930000I-50000J0D01*
G01*
X22220000Y-12184000D02*
G75*
G03*
X22220000Y-12184000I-50000J0D01*
G01*
X22220000Y-12438000D02*
G75*
G03*
X22220000Y-12438000I-50000J0D01*
G01*
X22768400Y-7218600D02*
G75*
G03*
X22768400Y-7218600I-50000J0D01*
G01*
X22768400Y-7472600D02*
G75*
G03*
X22768400Y-7472600I-50000J0D01*
G01*
X22768400Y-7726600D02*
G75*
G03*
X22768400Y-7726600I-50000J0D01*
G01*
X22768400Y-7980600D02*
G75*
G03*
X22768400Y-7980600I-50000J0D01*
G01*
X22768400Y-8234600D02*
G75*
G03*
X22768400Y-8234600I-50000J0D01*
G01*
X22768400Y-8488600D02*
G75*
G03*
X22768400Y-8488600I-50000J0D01*
G01*
X22768400Y-8742600D02*
G75*
G03*
X22768400Y-8742600I-50000J0D01*
G01*
X22768400Y-8996600D02*
G75*
G03*
X22768400Y-8996600I-50000J0D01*
G01*
X22768400Y-9250600D02*
G75*
G03*
X22768400Y-9250600I-50000J0D01*
G01*
X22768400Y-9504600D02*
G75*
G03*
X22768400Y-9504600I-50000J0D01*
G01*
X22768400Y-9758600D02*
G75*
G03*
X22768400Y-9758600I-50000J0D01*
G01*
X22768400Y-10012600D02*
G75*
G03*
X22768400Y-10012600I-50000J0D01*
G01*
X22768400Y-10266600D02*
G75*
G03*
X22768400Y-10266600I-50000J0D01*
G01*
X22768400Y-10520600D02*
G75*
G03*
X22768400Y-10520600I-50000J0D01*
G01*
X22768400Y-10774600D02*
G75*
G03*
X22768400Y-10774600I-50000J0D01*
G01*
X22768400Y-11028600D02*
G75*
G03*
X22768400Y-11028600I-50000J0D01*
G01*
X22768400Y-11282600D02*
G75*
G03*
X22768400Y-11282600I-50000J0D01*
G01*
X22768400Y-11536600D02*
G75*
G03*
X22768400Y-11536600I-50000J0D01*
G01*
X22768400Y-11790600D02*
G75*
G03*
X22768400Y-11790600I-50000J0D01*
G01*
X22768400Y-12044600D02*
G75*
G03*
X22768400Y-12044600I-50000J0D01*
G01*
X22768400Y-12298600D02*
G75*
G03*
X22768400Y-12298600I-50000J0D01*
G01*
X22768400Y-12552600D02*
G75*
G03*
X22768400Y-12552600I-50000J0D01*
G01*
X22768400Y-12806600D02*
G75*
G03*
X22768400Y-12806600I-50000J0D01*
G01*
X22768400Y-13060600D02*
G75*
G03*
X22768400Y-13060600I-50000J0D01*
G01*
X22768400Y-13314600D02*
G75*
G03*
X22768400Y-13314600I-50000J0D01*
G01*
X23022400Y-7218600D02*
G75*
G03*
X23022400Y-7218600I-50000J0D01*
G01*
X23022400Y-7472600D02*
G75*
G03*
X23022400Y-7472600I-50000J0D01*
G01*
X23022400Y-7726600D02*
G75*
G03*
X23022400Y-7726600I-50000J0D01*
G01*
X23022400Y-7980600D02*
G75*
G03*
X23022400Y-7980600I-50000J0D01*
G01*
X23022400Y-8234600D02*
G75*
G03*
X23022400Y-8234600I-50000J0D01*
G01*
X23022400Y-8488600D02*
G75*
G03*
X23022400Y-8488600I-50000J0D01*
G01*
X23022400Y-8742600D02*
G75*
G03*
X23022400Y-8742600I-50000J0D01*
G01*
X23022400Y-8996600D02*
G75*
G03*
X23022400Y-8996600I-50000J0D01*
G01*
X23022400Y-9250600D02*
G75*
G03*
X23022400Y-9250600I-50000J0D01*
G01*
X23022400Y-9504600D02*
G75*
G03*
X23022400Y-9504600I-50000J0D01*
G01*
X23022400Y-9758600D02*
G75*
G03*
X23022400Y-9758600I-50000J0D01*
G01*
X23022400Y-10012600D02*
G75*
G03*
X23022400Y-10012600I-50000J0D01*
G01*
X23022400Y-10266600D02*
G75*
G03*
X23022400Y-10266600I-50000J0D01*
G01*
X23022400Y-10520600D02*
G75*
G03*
X23022400Y-10520600I-50000J0D01*
G01*
X23022400Y-10774600D02*
G75*
G03*
X23022400Y-10774600I-50000J0D01*
G01*
X23022400Y-11028600D02*
G75*
G03*
X23022400Y-11028600I-50000J0D01*
G01*
X23022400Y-11282600D02*
G75*
G03*
X23022400Y-11282600I-50000J0D01*
G01*
X23022400Y-11536600D02*
G75*
G03*
X23022400Y-11536600I-50000J0D01*
G01*
X23022400Y-11790600D02*
G75*
G03*
X23022400Y-11790600I-50000J0D01*
G01*
X23022400Y-12044600D02*
G75*
G03*
X23022400Y-12044600I-50000J0D01*
G01*
X23022400Y-12298600D02*
G75*
G03*
X23022400Y-12298600I-50000J0D01*
G01*
X23022400Y-12552600D02*
G75*
G03*
X23022400Y-12552600I-50000J0D01*
G01*
X23022400Y-12806600D02*
G75*
G03*
X23022400Y-12806600I-50000J0D01*
G01*
X23022400Y-13060600D02*
G75*
G03*
X23022400Y-13060600I-50000J0D01*
G01*
X23022400Y-13314600D02*
G75*
G03*
X23022400Y-13314600I-50000J0D01*
G01*
X23926000Y-10033000D02*
G75*
G03*
X23926000Y-10033000I-50000J0D01*
G01*
X23926000Y-10287000D02*
G75*
G03*
X23926000Y-10287000I-50000J0D01*
G01*
X23926000Y-10541000D02*
G75*
G03*
X23926000Y-10541000I-50000J0D01*
G01*
X23926000Y-10795000D02*
G75*
G03*
X23926000Y-10795000I-50000J0D01*
G01*
X17500000Y-14130000D02*
X17500000Y-14270000D01*
X17430000Y-14200000D02*
X17570000Y-14200000D01*
X18000000Y-14130000D02*
X18000000Y-14270000D01*
X17930000Y-14200000D02*
X18070000Y-14200000D01*
D12*
X17583928Y-14968214D02*
X17583928Y-14668214D01*
X17655357Y-14668214D01*
X17698214Y-14682500D01*
X17726786Y-14711071D01*
X17741071Y-14739643D01*
X17755357Y-14796786D01*
X17755357Y-14839643D01*
X17741071Y-14896786D01*
X17726786Y-14925357D01*
X17698214Y-14953929D01*
X17655357Y-14968214D01*
X17583928Y-14968214D01*
X17883928Y-14968214D02*
X17883928Y-14768214D01*
X17883928Y-14825357D02*
X17898214Y-14796786D01*
X17912500Y-14782500D01*
X17941071Y-14768214D01*
X17969643Y-14768214D01*
X18069643Y-14968214D02*
X18069643Y-14768214D01*
X18069643Y-14668214D02*
X18055357Y-14682500D01*
X18069643Y-14696786D01*
X18083928Y-14682500D01*
X18069643Y-14668214D01*
X18069643Y-14696786D01*
X18255357Y-14968214D02*
X18226786Y-14953929D01*
X18212500Y-14925357D01*
X18212500Y-14668214D01*
X18412500Y-14968214D02*
X18383928Y-14953929D01*
X18369643Y-14925357D01*
X18369643Y-14668214D01*
X18755357Y-14968214D02*
X18755357Y-14668214D01*
X18855357Y-14882500D01*
X18955357Y-14668214D01*
X18955357Y-14968214D01*
X19226786Y-14968214D02*
X19226786Y-14811071D01*
X19212500Y-14782500D01*
X19183928Y-14768214D01*
X19126786Y-14768214D01*
X19098214Y-14782500D01*
X19226786Y-14953929D02*
X19198214Y-14968214D01*
X19126786Y-14968214D01*
X19098214Y-14953929D01*
X19083928Y-14925357D01*
X19083928Y-14896786D01*
X19098214Y-14868214D01*
X19126786Y-14853929D01*
X19198214Y-14853929D01*
X19226786Y-14839643D01*
X19369643Y-14768214D02*
X19369643Y-15068214D01*
X19369643Y-14782500D02*
X19398214Y-14768214D01*
X19455357Y-14768214D01*
X19483928Y-14782500D01*
X19498214Y-14796786D01*
X19512500Y-14825357D01*
X19512500Y-14911071D01*
X19498214Y-14939643D01*
X19483928Y-14953929D01*
X19455357Y-14968214D01*
X19398214Y-14968214D01*
X19369643Y-14953929D01*
X19641071Y-14939643D02*
X19655357Y-14953929D01*
X19641071Y-14968214D01*
X19626786Y-14953929D01*
X19641071Y-14939643D01*
X19641071Y-14968214D01*
X19641071Y-14782500D02*
X19655357Y-14796786D01*
X19641071Y-14811071D01*
X19626786Y-14796786D01*
X19641071Y-14782500D01*
X19641071Y-14811071D01*
X17202500Y-15415000D02*
X17297500Y-15510000D01*
X17297500Y-15415000D02*
X17202500Y-15510000D01*
X17641071Y-15298214D02*
X17669643Y-15298214D01*
X17698214Y-15312500D01*
X17712500Y-15326786D01*
X17726786Y-15355357D01*
X17741071Y-15412500D01*
X17741071Y-15483929D01*
X17726786Y-15541071D01*
X17712500Y-15569643D01*
X17698214Y-15583929D01*
X17669643Y-15598214D01*
X17641071Y-15598214D01*
X17612500Y-15583929D01*
X17598214Y-15569643D01*
X17583928Y-15541071D01*
X17569643Y-15483929D01*
X17569643Y-15412500D01*
X17583928Y-15355357D01*
X17598214Y-15326786D01*
X17612500Y-15312500D01*
X17641071Y-15298214D01*
X17869643Y-15569643D02*
X17883928Y-15583929D01*
X17869643Y-15598214D01*
X17855357Y-15583929D01*
X17869643Y-15569643D01*
X17869643Y-15598214D01*
X18026786Y-15598214D02*
X18083928Y-15598214D01*
X18112500Y-15583929D01*
X18126786Y-15569643D01*
X18155357Y-15526786D01*
X18169643Y-15469643D01*
X18169643Y-15355357D01*
X18155357Y-15326786D01*
X18141071Y-15312500D01*
X18112500Y-15298214D01*
X18055357Y-15298214D01*
X18026786Y-15312500D01*
X18012500Y-15326786D01*
X17998214Y-15355357D01*
X17998214Y-15426786D01*
X18012500Y-15455357D01*
X18026786Y-15469643D01*
X18055357Y-15483929D01*
X18112500Y-15483929D01*
X18141071Y-15469643D01*
X18155357Y-15455357D01*
X18169643Y-15426786D01*
X18441071Y-15298214D02*
X18298214Y-15298214D01*
X18283928Y-15441071D01*
X18298214Y-15426786D01*
X18326786Y-15412500D01*
X18398214Y-15412500D01*
X18426786Y-15426786D01*
X18441071Y-15441071D01*
X18455357Y-15469643D01*
X18455357Y-15541071D01*
X18441071Y-15569643D01*
X18426786Y-15583929D01*
X18398214Y-15598214D01*
X18326786Y-15598214D01*
X18298214Y-15583929D01*
X18283928Y-15569643D01*
X18641071Y-15298214D02*
X18669643Y-15298214D01*
X18698214Y-15312500D01*
X18712500Y-15326786D01*
X18726786Y-15355357D01*
X18741071Y-15412500D01*
X18741071Y-15483929D01*
X18726786Y-15541071D01*
X18712500Y-15569643D01*
X18698214Y-15583929D01*
X18669643Y-15598214D01*
X18641071Y-15598214D01*
X18612500Y-15583929D01*
X18598214Y-15569643D01*
X18583928Y-15541071D01*
X18569643Y-15483929D01*
X18569643Y-15412500D01*
X18583928Y-15355357D01*
X18598214Y-15326786D01*
X18612500Y-15312500D01*
X18641071Y-15298214D01*
X18869643Y-15598214D02*
X18869643Y-15398214D01*
X18869643Y-15426786D02*
X18883928Y-15412500D01*
X18912500Y-15398214D01*
X18955357Y-15398214D01*
X18983928Y-15412500D01*
X18998214Y-15441071D01*
X18998214Y-15598214D01*
X18998214Y-15441071D02*
X19012500Y-15412500D01*
X19041071Y-15398214D01*
X19083928Y-15398214D01*
X19112500Y-15412500D01*
X19126786Y-15441071D01*
X19126786Y-15598214D01*
X19269643Y-15598214D02*
X19269643Y-15398214D01*
X19269643Y-15426786D02*
X19283928Y-15412500D01*
X19312500Y-15398214D01*
X19355357Y-15398214D01*
X19383928Y-15412500D01*
X19398214Y-15441071D01*
X19398214Y-15598214D01*
X19398214Y-15441071D02*
X19412500Y-15412500D01*
X19441071Y-15398214D01*
X19483928Y-15398214D01*
X19512500Y-15412500D01*
X19526786Y-15441071D01*
X19526786Y-15598214D01*
X20112500Y-15283929D02*
X19855357Y-15669643D01*
X20498214Y-15298214D02*
X20526786Y-15298214D01*
X20555357Y-15312500D01*
X20569643Y-15326786D01*
X20583928Y-15355357D01*
X20598214Y-15412500D01*
X20598214Y-15483929D01*
X20583928Y-15541071D01*
X20569643Y-15569643D01*
X20555357Y-15583929D01*
X20526786Y-15598214D01*
X20498214Y-15598214D01*
X20469643Y-15583929D01*
X20455357Y-15569643D01*
X20441071Y-15541071D01*
X20426786Y-15483929D01*
X20426786Y-15412500D01*
X20441071Y-15355357D01*
X20455357Y-15326786D01*
X20469643Y-15312500D01*
X20498214Y-15298214D01*
X20726786Y-15569643D02*
X20741071Y-15583929D01*
X20726786Y-15598214D01*
X20712500Y-15583929D01*
X20726786Y-15569643D01*
X20726786Y-15598214D01*
X20926786Y-15298214D02*
X20955357Y-15298214D01*
X20983928Y-15312500D01*
X20998214Y-15326786D01*
X21012500Y-15355357D01*
X21026786Y-15412500D01*
X21026786Y-15483929D01*
X21012500Y-15541071D01*
X20998214Y-15569643D01*
X20983928Y-15583929D01*
X20955357Y-15598214D01*
X20926786Y-15598214D01*
X20898214Y-15583929D01*
X20883928Y-15569643D01*
X20869643Y-15541071D01*
X20855357Y-15483929D01*
X20855357Y-15412500D01*
X20869643Y-15355357D01*
X20883928Y-15326786D01*
X20898214Y-15312500D01*
X20926786Y-15298214D01*
X21126786Y-15298214D02*
X21312500Y-15298214D01*
X21212500Y-15412500D01*
X21255357Y-15412500D01*
X21283928Y-15426786D01*
X21298214Y-15441071D01*
X21312500Y-15469643D01*
X21312500Y-15541071D01*
X21298214Y-15569643D01*
X21283928Y-15583929D01*
X21255357Y-15598214D01*
X21169643Y-15598214D01*
X21141071Y-15583929D01*
X21126786Y-15569643D01*
X21412500Y-15298214D02*
X21612500Y-15298214D01*
X21483928Y-15598214D01*
X21855357Y-15398214D02*
X21855357Y-15598214D01*
X21783928Y-15283929D02*
X21712500Y-15498214D01*
X21898214Y-15498214D01*
X21998214Y-15298214D02*
X21998214Y-15355357D01*
X22112500Y-15298214D02*
X22112500Y-15355357D01*
X22555357Y-15712500D02*
X22541071Y-15698214D01*
X22512500Y-15655357D01*
X22498214Y-15626786D01*
X22483928Y-15583929D01*
X22469643Y-15512500D01*
X22469643Y-15455357D01*
X22483928Y-15383929D01*
X22498214Y-15341071D01*
X22512500Y-15312500D01*
X22541071Y-15269643D01*
X22555357Y-15255357D01*
X22812500Y-15298214D02*
X22669643Y-15298214D01*
X22655357Y-15441071D01*
X22669643Y-15426786D01*
X22698214Y-15412500D01*
X22769643Y-15412500D01*
X22798214Y-15426786D01*
X22812500Y-15441071D01*
X22826786Y-15469643D01*
X22826786Y-15541071D01*
X22812500Y-15569643D01*
X22798214Y-15583929D01*
X22769643Y-15598214D01*
X22698214Y-15598214D01*
X22669643Y-15583929D01*
X22655357Y-15569643D01*
X23012500Y-15298214D02*
X23041071Y-15298214D01*
X23069643Y-15312500D01*
X23083928Y-15326786D01*
X23098214Y-15355357D01*
X23112500Y-15412500D01*
X23112500Y-15483929D01*
X23098214Y-15541071D01*
X23083928Y-15569643D01*
X23069643Y-15583929D01*
X23041071Y-15598214D01*
X23012500Y-15598214D01*
X22983928Y-15583929D01*
X22969643Y-15569643D01*
X22955357Y-15541071D01*
X22941071Y-15483929D01*
X22941071Y-15412500D01*
X22955357Y-15355357D01*
X22969643Y-15326786D01*
X22983928Y-15312500D01*
X23012500Y-15298214D01*
X23469643Y-15598214D02*
X23469643Y-15298214D01*
X23598214Y-15598214D02*
X23598214Y-15441071D01*
X23583928Y-15412500D01*
X23555357Y-15398214D01*
X23512500Y-15398214D01*
X23483928Y-15412500D01*
X23469643Y-15426786D01*
X23783928Y-15598214D02*
X23755357Y-15583929D01*
X23741071Y-15569643D01*
X23726786Y-15541071D01*
X23726786Y-15455357D01*
X23741071Y-15426786D01*
X23755357Y-15412500D01*
X23783928Y-15398214D01*
X23826786Y-15398214D01*
X23855357Y-15412500D01*
X23869643Y-15426786D01*
X23883928Y-15455357D01*
X23883928Y-15541071D01*
X23869643Y-15569643D01*
X23855357Y-15583929D01*
X23826786Y-15598214D01*
X23783928Y-15598214D01*
X24055357Y-15598214D02*
X24026786Y-15583929D01*
X24012500Y-15555357D01*
X24012500Y-15298214D01*
X24283928Y-15583929D02*
X24255357Y-15598214D01*
X24198214Y-15598214D01*
X24169643Y-15583929D01*
X24155357Y-15555357D01*
X24155357Y-15441071D01*
X24169643Y-15412500D01*
X24198214Y-15398214D01*
X24255357Y-15398214D01*
X24283928Y-15412500D01*
X24298214Y-15441071D01*
X24298214Y-15469643D01*
X24155357Y-15498214D01*
X24412500Y-15583929D02*
X24441071Y-15598214D01*
X24498214Y-15598214D01*
X24526786Y-15583929D01*
X24541071Y-15555357D01*
X24541071Y-15541071D01*
X24526786Y-15512500D01*
X24498214Y-15498214D01*
X24455357Y-15498214D01*
X24426786Y-15483929D01*
X24412500Y-15455357D01*
X24412500Y-15441071D01*
X24426786Y-15412500D01*
X24455357Y-15398214D01*
X24498214Y-15398214D01*
X24526786Y-15412500D01*
X24641071Y-15712500D02*
X24655357Y-15698214D01*
X24683928Y-15655357D01*
X24698214Y-15626786D01*
X24712500Y-15583929D01*
X24726786Y-15512500D01*
X24726786Y-15455357D01*
X24712500Y-15383929D01*
X24698214Y-15341071D01*
X24683928Y-15312500D01*
X24655357Y-15269643D01*
X24641071Y-15255357D01*
X17297500Y-15858500D02*
G75*
G03*
X17297500Y-15858500I-50000J0D01*
G01*
X17741071Y-15994214D02*
X17569643Y-15994214D01*
X17655357Y-15994214D02*
X17655357Y-15694214D01*
X17626786Y-15737071D01*
X17598214Y-15765643D01*
X17569643Y-15779929D01*
X17869643Y-15965643D02*
X17883928Y-15979929D01*
X17869643Y-15994214D01*
X17855357Y-15979929D01*
X17869643Y-15965643D01*
X17869643Y-15994214D01*
X18069643Y-15694214D02*
X18098214Y-15694214D01*
X18126786Y-15708500D01*
X18141071Y-15722786D01*
X18155357Y-15751357D01*
X18169643Y-15808500D01*
X18169643Y-15879929D01*
X18155357Y-15937071D01*
X18141071Y-15965643D01*
X18126786Y-15979929D01*
X18098214Y-15994214D01*
X18069643Y-15994214D01*
X18041071Y-15979929D01*
X18026786Y-15965643D01*
X18012500Y-15937071D01*
X17998214Y-15879929D01*
X17998214Y-15808500D01*
X18012500Y-15751357D01*
X18026786Y-15722786D01*
X18041071Y-15708500D01*
X18069643Y-15694214D01*
X18355357Y-15694214D02*
X18383928Y-15694214D01*
X18412500Y-15708500D01*
X18426786Y-15722786D01*
X18441071Y-15751357D01*
X18455357Y-15808500D01*
X18455357Y-15879929D01*
X18441071Y-15937071D01*
X18426786Y-15965643D01*
X18412500Y-15979929D01*
X18383928Y-15994214D01*
X18355357Y-15994214D01*
X18326786Y-15979929D01*
X18312500Y-15965643D01*
X18298214Y-15937071D01*
X18283928Y-15879929D01*
X18283928Y-15808500D01*
X18298214Y-15751357D01*
X18312500Y-15722786D01*
X18326786Y-15708500D01*
X18355357Y-15694214D01*
X18641071Y-15694214D02*
X18669643Y-15694214D01*
X18698214Y-15708500D01*
X18712500Y-15722786D01*
X18726786Y-15751357D01*
X18741071Y-15808500D01*
X18741071Y-15879929D01*
X18726786Y-15937071D01*
X18712500Y-15965643D01*
X18698214Y-15979929D01*
X18669643Y-15994214D01*
X18641071Y-15994214D01*
X18612500Y-15979929D01*
X18598214Y-15965643D01*
X18583928Y-15937071D01*
X18569643Y-15879929D01*
X18569643Y-15808500D01*
X18583928Y-15751357D01*
X18598214Y-15722786D01*
X18612500Y-15708500D01*
X18641071Y-15694214D01*
X18869643Y-15994214D02*
X18869643Y-15794214D01*
X18869643Y-15822786D02*
X18883928Y-15808500D01*
X18912500Y-15794214D01*
X18955357Y-15794214D01*
X18983928Y-15808500D01*
X18998214Y-15837071D01*
X18998214Y-15994214D01*
X18998214Y-15837071D02*
X19012500Y-15808500D01*
X19041071Y-15794214D01*
X19083928Y-15794214D01*
X19112500Y-15808500D01*
X19126786Y-15837071D01*
X19126786Y-15994214D01*
X19269643Y-15994214D02*
X19269643Y-15794214D01*
X19269643Y-15822786D02*
X19283928Y-15808500D01*
X19312500Y-15794214D01*
X19355357Y-15794214D01*
X19383928Y-15808500D01*
X19398214Y-15837071D01*
X19398214Y-15994214D01*
X19398214Y-15837071D02*
X19412500Y-15808500D01*
X19441071Y-15794214D01*
X19483928Y-15794214D01*
X19512500Y-15808500D01*
X19526786Y-15837071D01*
X19526786Y-15994214D01*
X20112500Y-15679929D02*
X19855357Y-16065643D01*
X20498214Y-15694214D02*
X20526786Y-15694214D01*
X20555357Y-15708500D01*
X20569643Y-15722786D01*
X20583928Y-15751357D01*
X20598214Y-15808500D01*
X20598214Y-15879929D01*
X20583928Y-15937071D01*
X20569643Y-15965643D01*
X20555357Y-15979929D01*
X20526786Y-15994214D01*
X20498214Y-15994214D01*
X20469643Y-15979929D01*
X20455357Y-15965643D01*
X20441071Y-15937071D01*
X20426786Y-15879929D01*
X20426786Y-15808500D01*
X20441071Y-15751357D01*
X20455357Y-15722786D01*
X20469643Y-15708500D01*
X20498214Y-15694214D01*
X20726786Y-15965643D02*
X20741071Y-15979929D01*
X20726786Y-15994214D01*
X20712500Y-15979929D01*
X20726786Y-15965643D01*
X20726786Y-15994214D01*
X20926786Y-15694214D02*
X20955357Y-15694214D01*
X20983928Y-15708500D01*
X20998214Y-15722786D01*
X21012500Y-15751357D01*
X21026786Y-15808500D01*
X21026786Y-15879929D01*
X21012500Y-15937071D01*
X20998214Y-15965643D01*
X20983928Y-15979929D01*
X20955357Y-15994214D01*
X20926786Y-15994214D01*
X20898214Y-15979929D01*
X20883928Y-15965643D01*
X20869643Y-15937071D01*
X20855357Y-15879929D01*
X20855357Y-15808500D01*
X20869643Y-15751357D01*
X20883928Y-15722786D01*
X20898214Y-15708500D01*
X20926786Y-15694214D01*
X21126786Y-15694214D02*
X21312500Y-15694214D01*
X21212500Y-15808500D01*
X21255357Y-15808500D01*
X21283928Y-15822786D01*
X21298214Y-15837071D01*
X21312500Y-15865643D01*
X21312500Y-15937071D01*
X21298214Y-15965643D01*
X21283928Y-15979929D01*
X21255357Y-15994214D01*
X21169643Y-15994214D01*
X21141071Y-15979929D01*
X21126786Y-15965643D01*
X21455357Y-15994214D02*
X21512500Y-15994214D01*
X21541071Y-15979929D01*
X21555357Y-15965643D01*
X21583928Y-15922786D01*
X21598214Y-15865643D01*
X21598214Y-15751357D01*
X21583928Y-15722786D01*
X21569643Y-15708500D01*
X21541071Y-15694214D01*
X21483928Y-15694214D01*
X21455357Y-15708500D01*
X21441071Y-15722786D01*
X21426786Y-15751357D01*
X21426786Y-15822786D01*
X21441071Y-15851357D01*
X21455357Y-15865643D01*
X21483928Y-15879929D01*
X21541071Y-15879929D01*
X21569643Y-15865643D01*
X21583928Y-15851357D01*
X21598214Y-15822786D01*
X21855357Y-15794214D02*
X21855357Y-15994214D01*
X21783928Y-15679929D02*
X21712500Y-15894214D01*
X21898214Y-15894214D01*
X21998214Y-15694214D02*
X21998214Y-15751357D01*
X22112500Y-15694214D02*
X22112500Y-15751357D01*
X22555357Y-16108500D02*
X22541071Y-16094214D01*
X22512500Y-16051357D01*
X22498214Y-16022786D01*
X22483928Y-15979929D01*
X22469643Y-15908500D01*
X22469643Y-15851357D01*
X22483928Y-15779929D01*
X22498214Y-15737071D01*
X22512500Y-15708500D01*
X22541071Y-15665643D01*
X22555357Y-15651357D01*
X22826786Y-15994214D02*
X22655357Y-15994214D01*
X22741071Y-15994214D02*
X22741071Y-15694214D01*
X22712500Y-15737071D01*
X22683928Y-15765643D01*
X22655357Y-15779929D01*
X23112500Y-15994214D02*
X22941071Y-15994214D01*
X23026786Y-15994214D02*
X23026786Y-15694214D01*
X22998214Y-15737071D01*
X22969643Y-15765643D01*
X22941071Y-15779929D01*
X23226786Y-15722786D02*
X23241071Y-15708500D01*
X23269643Y-15694214D01*
X23341071Y-15694214D01*
X23369643Y-15708500D01*
X23383928Y-15722786D01*
X23398214Y-15751357D01*
X23398214Y-15779929D01*
X23383928Y-15822786D01*
X23212500Y-15994214D01*
X23398214Y-15994214D01*
X23755357Y-15994214D02*
X23755357Y-15694214D01*
X23883928Y-15994214D02*
X23883928Y-15837071D01*
X23869643Y-15808500D01*
X23841071Y-15794214D01*
X23798214Y-15794214D01*
X23769643Y-15808500D01*
X23755357Y-15822786D01*
X24069643Y-15994214D02*
X24041071Y-15979929D01*
X24026786Y-15965643D01*
X24012500Y-15937071D01*
X24012500Y-15851357D01*
X24026786Y-15822786D01*
X24041071Y-15808500D01*
X24069643Y-15794214D01*
X24112500Y-15794214D01*
X24141071Y-15808500D01*
X24155357Y-15822786D01*
X24169643Y-15851357D01*
X24169643Y-15937071D01*
X24155357Y-15965643D01*
X24141071Y-15979929D01*
X24112500Y-15994214D01*
X24069643Y-15994214D01*
X24341071Y-15994214D02*
X24312500Y-15979929D01*
X24298214Y-15951357D01*
X24298214Y-15694214D01*
X24569643Y-15979929D02*
X24541071Y-15994214D01*
X24483928Y-15994214D01*
X24455357Y-15979929D01*
X24441071Y-15951357D01*
X24441071Y-15837071D01*
X24455357Y-15808500D01*
X24483928Y-15794214D01*
X24541071Y-15794214D01*
X24569643Y-15808500D01*
X24583928Y-15837071D01*
X24583928Y-15865643D01*
X24441071Y-15894214D01*
X24698214Y-15979929D02*
X24726786Y-15994214D01*
X24783928Y-15994214D01*
X24812500Y-15979929D01*
X24826786Y-15951357D01*
X24826786Y-15937071D01*
X24812500Y-15908500D01*
X24783928Y-15894214D01*
X24741071Y-15894214D01*
X24712500Y-15879929D01*
X24698214Y-15851357D01*
X24698214Y-15837071D01*
X24712500Y-15808500D01*
X24741071Y-15794214D01*
X24783928Y-15794214D01*
X24812500Y-15808500D01*
X24926786Y-16108500D02*
X24941071Y-16094214D01*
X24969643Y-16051357D01*
X24983928Y-16022786D01*
X24998214Y-15979929D01*
X25012500Y-15908500D01*
X25012500Y-15851357D01*
X24998214Y-15779929D01*
X24983928Y-15737071D01*
X24969643Y-15708500D01*
X24941071Y-15665643D01*
X24926786Y-15651357D01*
X17227500Y-16184500D02*
X17227500Y-16324500D01*
X17157500Y-16254500D02*
X17297500Y-16254500D01*
X17741071Y-16390214D02*
X17569643Y-16390214D01*
X17655357Y-16390214D02*
X17655357Y-16090214D01*
X17626786Y-16133071D01*
X17598214Y-16161643D01*
X17569643Y-16175929D01*
X17869643Y-16361643D02*
X17883928Y-16375929D01*
X17869643Y-16390214D01*
X17855357Y-16375929D01*
X17869643Y-16361643D01*
X17869643Y-16390214D01*
X18141071Y-16190214D02*
X18141071Y-16390214D01*
X18069643Y-16075929D02*
X17998214Y-16290214D01*
X18183928Y-16290214D01*
X18355357Y-16090214D02*
X18383928Y-16090214D01*
X18412500Y-16104500D01*
X18426786Y-16118786D01*
X18441071Y-16147357D01*
X18455357Y-16204500D01*
X18455357Y-16275929D01*
X18441071Y-16333071D01*
X18426786Y-16361643D01*
X18412500Y-16375929D01*
X18383928Y-16390214D01*
X18355357Y-16390214D01*
X18326786Y-16375929D01*
X18312500Y-16361643D01*
X18298214Y-16333071D01*
X18283928Y-16275929D01*
X18283928Y-16204500D01*
X18298214Y-16147357D01*
X18312500Y-16118786D01*
X18326786Y-16104500D01*
X18355357Y-16090214D01*
X18641071Y-16090214D02*
X18669643Y-16090214D01*
X18698214Y-16104500D01*
X18712500Y-16118786D01*
X18726786Y-16147357D01*
X18741071Y-16204500D01*
X18741071Y-16275929D01*
X18726786Y-16333071D01*
X18712500Y-16361643D01*
X18698214Y-16375929D01*
X18669643Y-16390214D01*
X18641071Y-16390214D01*
X18612500Y-16375929D01*
X18598214Y-16361643D01*
X18583928Y-16333071D01*
X18569643Y-16275929D01*
X18569643Y-16204500D01*
X18583928Y-16147357D01*
X18598214Y-16118786D01*
X18612500Y-16104500D01*
X18641071Y-16090214D01*
X18869643Y-16390214D02*
X18869643Y-16190214D01*
X18869643Y-16218786D02*
X18883928Y-16204500D01*
X18912500Y-16190214D01*
X18955357Y-16190214D01*
X18983928Y-16204500D01*
X18998214Y-16233071D01*
X18998214Y-16390214D01*
X18998214Y-16233071D02*
X19012500Y-16204500D01*
X19041071Y-16190214D01*
X19083928Y-16190214D01*
X19112500Y-16204500D01*
X19126786Y-16233071D01*
X19126786Y-16390214D01*
X19269643Y-16390214D02*
X19269643Y-16190214D01*
X19269643Y-16218786D02*
X19283928Y-16204500D01*
X19312500Y-16190214D01*
X19355357Y-16190214D01*
X19383928Y-16204500D01*
X19398214Y-16233071D01*
X19398214Y-16390214D01*
X19398214Y-16233071D02*
X19412500Y-16204500D01*
X19441071Y-16190214D01*
X19483928Y-16190214D01*
X19512500Y-16204500D01*
X19526786Y-16233071D01*
X19526786Y-16390214D01*
X20112500Y-16075929D02*
X19855357Y-16461643D01*
X20498214Y-16090214D02*
X20526786Y-16090214D01*
X20555357Y-16104500D01*
X20569643Y-16118786D01*
X20583928Y-16147357D01*
X20598214Y-16204500D01*
X20598214Y-16275929D01*
X20583928Y-16333071D01*
X20569643Y-16361643D01*
X20555357Y-16375929D01*
X20526786Y-16390214D01*
X20498214Y-16390214D01*
X20469643Y-16375929D01*
X20455357Y-16361643D01*
X20441071Y-16333071D01*
X20426786Y-16275929D01*
X20426786Y-16204500D01*
X20441071Y-16147357D01*
X20455357Y-16118786D01*
X20469643Y-16104500D01*
X20498214Y-16090214D01*
X20726786Y-16361643D02*
X20741071Y-16375929D01*
X20726786Y-16390214D01*
X20712500Y-16375929D01*
X20726786Y-16361643D01*
X20726786Y-16390214D01*
X20926786Y-16090214D02*
X20955357Y-16090214D01*
X20983928Y-16104500D01*
X20998214Y-16118786D01*
X21012500Y-16147357D01*
X21026786Y-16204500D01*
X21026786Y-16275929D01*
X21012500Y-16333071D01*
X20998214Y-16361643D01*
X20983928Y-16375929D01*
X20955357Y-16390214D01*
X20926786Y-16390214D01*
X20898214Y-16375929D01*
X20883928Y-16361643D01*
X20869643Y-16333071D01*
X20855357Y-16275929D01*
X20855357Y-16204500D01*
X20869643Y-16147357D01*
X20883928Y-16118786D01*
X20898214Y-16104500D01*
X20926786Y-16090214D01*
X21298214Y-16090214D02*
X21155357Y-16090214D01*
X21141071Y-16233071D01*
X21155357Y-16218786D01*
X21183928Y-16204500D01*
X21255357Y-16204500D01*
X21283928Y-16218786D01*
X21298214Y-16233071D01*
X21312500Y-16261643D01*
X21312500Y-16333071D01*
X21298214Y-16361643D01*
X21283928Y-16375929D01*
X21255357Y-16390214D01*
X21183928Y-16390214D01*
X21155357Y-16375929D01*
X21141071Y-16361643D01*
X21583928Y-16090214D02*
X21441071Y-16090214D01*
X21426786Y-16233071D01*
X21441071Y-16218786D01*
X21469643Y-16204500D01*
X21541071Y-16204500D01*
X21569643Y-16218786D01*
X21583928Y-16233071D01*
X21598214Y-16261643D01*
X21598214Y-16333071D01*
X21583928Y-16361643D01*
X21569643Y-16375929D01*
X21541071Y-16390214D01*
X21469643Y-16390214D01*
X21441071Y-16375929D01*
X21426786Y-16361643D01*
X21883928Y-16390214D02*
X21712500Y-16390214D01*
X21798214Y-16390214D02*
X21798214Y-16090214D01*
X21769643Y-16133071D01*
X21741071Y-16161643D01*
X21712500Y-16175929D01*
X21998214Y-16090214D02*
X21998214Y-16147357D01*
X22112500Y-16090214D02*
X22112500Y-16147357D01*
X22555357Y-16504500D02*
X22541071Y-16490214D01*
X22512500Y-16447357D01*
X22498214Y-16418786D01*
X22483928Y-16375929D01*
X22469643Y-16304500D01*
X22469643Y-16247357D01*
X22483928Y-16175929D01*
X22498214Y-16133071D01*
X22512500Y-16104500D01*
X22541071Y-16061643D01*
X22555357Y-16047357D01*
X22655357Y-16118786D02*
X22669643Y-16104500D01*
X22698214Y-16090214D01*
X22769643Y-16090214D01*
X22798214Y-16104500D01*
X22812500Y-16118786D01*
X22826786Y-16147357D01*
X22826786Y-16175929D01*
X22812500Y-16218786D01*
X22641071Y-16390214D01*
X22826786Y-16390214D01*
X23183928Y-16390214D02*
X23183928Y-16090214D01*
X23312500Y-16390214D02*
X23312500Y-16233071D01*
X23298214Y-16204500D01*
X23269643Y-16190214D01*
X23226786Y-16190214D01*
X23198214Y-16204500D01*
X23183928Y-16218786D01*
X23498214Y-16390214D02*
X23469643Y-16375929D01*
X23455357Y-16361643D01*
X23441071Y-16333071D01*
X23441071Y-16247357D01*
X23455357Y-16218786D01*
X23469643Y-16204500D01*
X23498214Y-16190214D01*
X23541071Y-16190214D01*
X23569643Y-16204500D01*
X23583928Y-16218786D01*
X23598214Y-16247357D01*
X23598214Y-16333071D01*
X23583928Y-16361643D01*
X23569643Y-16375929D01*
X23541071Y-16390214D01*
X23498214Y-16390214D01*
X23769643Y-16390214D02*
X23741071Y-16375929D01*
X23726786Y-16347357D01*
X23726786Y-16090214D01*
X23998214Y-16375929D02*
X23969643Y-16390214D01*
X23912500Y-16390214D01*
X23883928Y-16375929D01*
X23869643Y-16347357D01*
X23869643Y-16233071D01*
X23883928Y-16204500D01*
X23912500Y-16190214D01*
X23969643Y-16190214D01*
X23998214Y-16204500D01*
X24012500Y-16233071D01*
X24012500Y-16261643D01*
X23869643Y-16290214D01*
X24126786Y-16375929D02*
X24155357Y-16390214D01*
X24212500Y-16390214D01*
X24241071Y-16375929D01*
X24255357Y-16347357D01*
X24255357Y-16333071D01*
X24241071Y-16304500D01*
X24212500Y-16290214D01*
X24169643Y-16290214D01*
X24141071Y-16275929D01*
X24126786Y-16247357D01*
X24126786Y-16233071D01*
X24141071Y-16204500D01*
X24169643Y-16190214D01*
X24212500Y-16190214D01*
X24241071Y-16204500D01*
X24355357Y-16504500D02*
X24369643Y-16490214D01*
X24398214Y-16447357D01*
X24412500Y-16418786D01*
X24426786Y-16375929D01*
X24441071Y-16304500D01*
X24441071Y-16247357D01*
X24426786Y-16175929D01*
X24412500Y-16133071D01*
X24398214Y-16104500D01*
X24369643Y-16061643D01*
X24355357Y-16047357D01*
M02*
