%TF.GenerationSoftware,KiCad,Pcbnew,(5.1.10)-1*%
%TF.CreationDate,2022-05-17T22:08:58+03:00*%
%TF.ProjectId,SAUK-Y v1 STM32F4 Disc,5341554b-2d59-4207-9631-2053544d3332,rev?*%
%TF.SameCoordinates,Original*%
%TF.FileFunction,Copper,L1,Top*%
%TF.FilePolarity,Positive*%
%FSLAX46Y46*%
G04 Gerber Fmt 4.6, Leading zero omitted, Abs format (unit mm)*
G04 Created by KiCad (PCBNEW (5.1.10)-1) date 2022-05-17 22:08:58*
%MOMM*%
%LPD*%
G01*
G04 APERTURE LIST*
%TA.AperFunction,ComponentPad*%
%ADD10C,2.800000*%
%TD*%
%TA.AperFunction,ComponentPad*%
%ADD11R,2.800000X2.800000*%
%TD*%
%TA.AperFunction,ComponentPad*%
%ADD12O,1.700000X1.700000*%
%TD*%
%TA.AperFunction,ComponentPad*%
%ADD13R,1.700000X1.700000*%
%TD*%
%TA.AperFunction,ComponentPad*%
%ADD14O,1.950000X1.700000*%
%TD*%
%TA.AperFunction,ComponentPad*%
%ADD15O,1.700000X1.950000*%
%TD*%
%TA.AperFunction,Conductor*%
%ADD16C,0.250000*%
%TD*%
%TA.AperFunction,Conductor*%
%ADD17C,0.254000*%
%TD*%
%TA.AperFunction,Conductor*%
%ADD18C,0.100000*%
%TD*%
G04 APERTURE END LIST*
D10*
%TO.P,J7,2*%
%TO.N,GND_GDK_giris*%
X180000000Y-142000000D03*
D11*
%TO.P,J7,1*%
%TO.N,+5V_GDK_giris*%
X175000000Y-142000000D03*
%TD*%
D12*
%TO.P,J23,50*%
%TO.N,GND_GDK_giris*%
X227184000Y-133146000D03*
%TO.P,J23,49*%
X229724000Y-133146000D03*
%TO.P,J23,48*%
%TO.N,USART6_Rx*%
X227184000Y-130606000D03*
%TO.P,J23,47*%
%TO.N,USART6_Tx*%
X229724000Y-130606000D03*
%TO.P,J23,46*%
%TO.N,I2C3_SDA*%
X227184000Y-128066000D03*
%TO.P,J23,45*%
%TO.N,Net-(J23-Pad45)*%
X229724000Y-128066000D03*
%TO.P,J23,44*%
%TO.N,USART1_Tx*%
X227184000Y-125526000D03*
%TO.P,J23,43*%
%TO.N,I2C3_SCL*%
X229724000Y-125526000D03*
%TO.P,J23,42*%
%TO.N,Net-(J23-Pad42)*%
X227184000Y-122986000D03*
%TO.P,J23,41*%
%TO.N,USART1_Rx*%
X229724000Y-122986000D03*
%TO.P,J23,40*%
%TO.N,Net-(J23-Pad40)*%
X227184000Y-120446000D03*
%TO.P,J23,39*%
%TO.N,Net-(J23-Pad39)*%
X229724000Y-120446000D03*
%TO.P,J23,38*%
%TO.N,Net-(J23-Pad38)*%
X227184000Y-117906000D03*
%TO.P,J23,37*%
%TO.N,Net-(J23-Pad37)*%
X229724000Y-117906000D03*
%TO.P,J23,36*%
%TO.N,Net-(J23-Pad36)*%
X227184000Y-115366000D03*
%TO.P,J23,35*%
%TO.N,Net-(J23-Pad35)*%
X229724000Y-115366000D03*
%TO.P,J23,34*%
%TO.N,Net-(J23-Pad34)*%
X227184000Y-112826000D03*
%TO.P,J23,33*%
%TO.N,Net-(J23-Pad33)*%
X229724000Y-112826000D03*
%TO.P,J23,32*%
%TO.N,Net-(J23-Pad32)*%
X227184000Y-110286000D03*
%TO.P,J23,31*%
%TO.N,Net-(J23-Pad31)*%
X229724000Y-110286000D03*
%TO.P,J23,30*%
%TO.N,USART2_Rx*%
X227184000Y-107746000D03*
%TO.P,J23,29*%
%TO.N,USART2_Tx*%
X229724000Y-107746000D03*
%TO.P,J23,28*%
%TO.N,Net-(J23-Pad28)*%
X227184000Y-105206000D03*
%TO.P,J23,27*%
%TO.N,Net-(J23-Pad27)*%
X229724000Y-105206000D03*
%TO.P,J23,26*%
%TO.N,Net-(J23-Pad26)*%
X227184000Y-102666000D03*
%TO.P,J23,25*%
%TO.N,Net-(J23-Pad25)*%
X229724000Y-102666000D03*
%TO.P,J23,24*%
%TO.N,I2C1_SCL*%
X227184000Y-100126000D03*
%TO.P,J23,23*%
%TO.N,I2C1_SDA*%
X229724000Y-100126000D03*
%TO.P,J23,22*%
%TO.N,Net-(J23-Pad22)*%
X227184000Y-97586000D03*
%TO.P,J23,21*%
%TO.N,Net-(J23-Pad21)*%
X229724000Y-97586000D03*
%TO.P,J23,20*%
%TO.N,Net-(J23-Pad20)*%
X227184000Y-95046000D03*
%TO.P,J23,19*%
%TO.N,Net-(J23-Pad19)*%
X229724000Y-95046000D03*
%TO.P,J23,18*%
%TO.N,Net-(J23-Pad18)*%
X227184000Y-92506000D03*
%TO.P,J23,17*%
%TO.N,Net-(J23-Pad17)*%
X229724000Y-92506000D03*
%TO.P,J23,16*%
%TO.N,Net-(J23-Pad16)*%
X227184000Y-89966000D03*
%TO.P,J23,15*%
%TO.N,Net-(J23-Pad15)*%
X229724000Y-89966000D03*
%TO.P,J23,14*%
%TO.N,TIM9_CH1*%
X227184000Y-87426000D03*
%TO.P,J23,13*%
%TO.N,Net-(J23-Pad13)*%
X229724000Y-87426000D03*
%TO.P,J23,12*%
%TO.N,Net-(J23-Pad12)*%
X227184000Y-84886000D03*
%TO.P,J23,11*%
%TO.N,TIM9_CH2*%
X229724000Y-84886000D03*
%TO.P,J23,10*%
%TO.N,Net-(J23-Pad10)*%
X227184000Y-82346000D03*
%TO.P,J23,9*%
%TO.N,Net-(J23-Pad9)*%
X229724000Y-82346000D03*
%TO.P,J23,8*%
%TO.N,Net-(J23-Pad8)*%
X227184000Y-79806000D03*
%TO.P,J23,7*%
%TO.N,Net-(J23-Pad7)*%
X229724000Y-79806000D03*
%TO.P,J23,6*%
%TO.N,+3V0*%
X227184000Y-77266000D03*
%TO.P,J23,5*%
X229724000Y-77266000D03*
%TO.P,J23,4*%
%TO.N,+5V_GDK_giris*%
X227184000Y-74726000D03*
%TO.P,J23,3*%
X229724000Y-74726000D03*
%TO.P,J23,2*%
%TO.N,GND_GDK_giris*%
X227184000Y-72186000D03*
D13*
%TO.P,J23,1*%
X229724000Y-72186000D03*
%TD*%
D12*
%TO.P,J22,50*%
%TO.N,GND_GDK_giris*%
X176424000Y-133066000D03*
%TO.P,J22,49*%
X178964000Y-133066000D03*
%TO.P,J22,48*%
%TO.N,Net-(J22-Pad48)*%
X176424000Y-130526000D03*
%TO.P,J22,47*%
%TO.N,Net-(J22-Pad47)*%
X178964000Y-130526000D03*
%TO.P,J22,46*%
%TO.N,Net-(J22-Pad46)*%
X176424000Y-127986000D03*
%TO.P,J22,45*%
%TO.N,Net-(J22-Pad45)*%
X178964000Y-127986000D03*
%TO.P,J22,44*%
%TO.N,Net-(J22-Pad44)*%
X176424000Y-125446000D03*
%TO.P,J22,43*%
%TO.N,Net-(J22-Pad43)*%
X178964000Y-125446000D03*
%TO.P,J22,42*%
%TO.N,Net-(J22-Pad42)*%
X176424000Y-122906000D03*
%TO.P,J22,41*%
%TO.N,USART3_Rx*%
X178964000Y-122906000D03*
%TO.P,J22,40*%
%TO.N,USART3_Tx*%
X176424000Y-120366000D03*
%TO.P,J22,39*%
%TO.N,Net-(J22-Pad39)*%
X178964000Y-120366000D03*
%TO.P,J22,38*%
%TO.N,Net-(J22-Pad38)*%
X176424000Y-117826000D03*
%TO.P,J22,37*%
%TO.N,Net-(J22-Pad37)*%
X178964000Y-117826000D03*
%TO.P,J22,36*%
%TO.N,Net-(J22-Pad36)*%
X176424000Y-115286000D03*
%TO.P,J22,35*%
%TO.N,I2C2_SDA*%
X178964000Y-115286000D03*
%TO.P,J22,34*%
%TO.N,I2C2_SCL*%
X176424000Y-112746000D03*
%TO.P,J22,33*%
%TO.N,Net-(J22-Pad33)*%
X178964000Y-112746000D03*
%TO.P,J22,32*%
%TO.N,Net-(J22-Pad32)*%
X176424000Y-110206000D03*
%TO.P,J22,31*%
%TO.N,Net-(J22-Pad31)*%
X178964000Y-110206000D03*
%TO.P,J22,30*%
%TO.N,Net-(J22-Pad30)*%
X176424000Y-107666000D03*
%TO.P,J22,29*%
%TO.N,Net-(J22-Pad29)*%
X178964000Y-107666000D03*
%TO.P,J22,28*%
%TO.N,Net-(J22-Pad28)*%
X176424000Y-105126000D03*
%TO.P,J22,27*%
%TO.N,Net-(J22-Pad27)*%
X178964000Y-105126000D03*
%TO.P,J22,26*%
%TO.N,Net-(J22-Pad26)*%
X176424000Y-102586000D03*
%TO.P,J22,25*%
%TO.N,Net-(J22-Pad25)*%
X178964000Y-102586000D03*
%TO.P,J22,24*%
%TO.N,Net-(J22-Pad24)*%
X176424000Y-100046000D03*
%TO.P,J22,23*%
%TO.N,GND_GDK_giris*%
X178964000Y-100046000D03*
%TO.P,J22,22*%
%TO.N,TIM3_CH3*%
X176424000Y-97506000D03*
%TO.P,J22,21*%
%TO.N,TIM3_CH4*%
X178964000Y-97506000D03*
%TO.P,J22,20*%
%TO.N,Net-(J22-Pad20)*%
X176424000Y-94966000D03*
%TO.P,J22,19*%
%TO.N,Net-(J22-Pad19)*%
X178964000Y-94966000D03*
%TO.P,J22,18*%
%TO.N,TIM3_CH1*%
X176424000Y-92426000D03*
%TO.P,J22,17*%
%TO.N,TIM3_CH2*%
X178964000Y-92426000D03*
%TO.P,J22,16*%
%TO.N,Net-(J22-Pad16)*%
X176424000Y-89886000D03*
%TO.P,J22,15*%
%TO.N,TIM2_CH1*%
X178964000Y-89886000D03*
%TO.P,J22,14*%
%TO.N,TIM2_CH3*%
X176424000Y-87346000D03*
%TO.P,J22,13*%
%TO.N,TIM2_CH4*%
X178964000Y-87346000D03*
%TO.P,J22,12*%
%TO.N,Net-(J22-Pad12)*%
X176424000Y-84806000D03*
%TO.P,J22,11*%
%TO.N,TIM2_CH2*%
X178964000Y-84806000D03*
%TO.P,J22,10*%
%TO.N,Net-(J22-Pad10)*%
X176424000Y-82266000D03*
%TO.P,J22,9*%
%TO.N,Net-(J22-Pad9)*%
X178964000Y-82266000D03*
%TO.P,J22,8*%
%TO.N,Net-(J22-Pad8)*%
X176424000Y-79726000D03*
%TO.P,J22,7*%
%TO.N,Net-(J22-Pad7)*%
X178964000Y-79726000D03*
%TO.P,J22,6*%
%TO.N,Net-(J22-Pad6)*%
X176424000Y-77186000D03*
%TO.P,J22,5*%
%TO.N,GND_GDK_giris*%
X178964000Y-77186000D03*
%TO.P,J22,4*%
%TO.N,Net-(J22-Pad4)*%
X176424000Y-74646000D03*
%TO.P,J22,3*%
%TO.N,Net-(J22-Pad3)*%
X178964000Y-74646000D03*
%TO.P,J22,2*%
%TO.N,GND_GDK_giris*%
X176424000Y-72106000D03*
D13*
%TO.P,J22,1*%
X178964000Y-72106000D03*
%TD*%
D14*
%TO.P,J18,4*%
%TO.N,GND_GDK_giris*%
X247142000Y-128214000D03*
%TO.P,J18,3*%
%TO.N,I2C2_SDA*%
X247142000Y-125714000D03*
%TO.P,J18,2*%
%TO.N,I2C2_SCL*%
X247142000Y-123214000D03*
%TO.P,J18,1*%
%TO.N,+5V_GDK_giris*%
%TA.AperFunction,ComponentPad*%
G36*
G01*
X246417000Y-119864000D02*
X247867000Y-119864000D01*
G75*
G02*
X248117000Y-120114000I0J-250000D01*
G01*
X248117000Y-121314000D01*
G75*
G02*
X247867000Y-121564000I-250000J0D01*
G01*
X246417000Y-121564000D01*
G75*
G02*
X246167000Y-121314000I0J250000D01*
G01*
X246167000Y-120114000D01*
G75*
G02*
X246417000Y-119864000I250000J0D01*
G01*
G37*
%TD.AperFunction*%
%TD*%
%TO.P,J17,4*%
%TO.N,USART6_Rx*%
X247142000Y-100464000D03*
%TO.P,J17,3*%
%TO.N,USART6_Tx*%
X247142000Y-97964000D03*
%TO.P,J17,2*%
%TO.N,GND_GDK_giris*%
X247142000Y-95464000D03*
%TO.P,J17,1*%
%TO.N,+5V_GDK_giris*%
%TA.AperFunction,ComponentPad*%
G36*
G01*
X246417000Y-92114000D02*
X247867000Y-92114000D01*
G75*
G02*
X248117000Y-92364000I0J-250000D01*
G01*
X248117000Y-93564000D01*
G75*
G02*
X247867000Y-93814000I-250000J0D01*
G01*
X246417000Y-93814000D01*
G75*
G02*
X246167000Y-93564000I0J250000D01*
G01*
X246167000Y-92364000D01*
G75*
G02*
X246417000Y-92114000I250000J0D01*
G01*
G37*
%TD.AperFunction*%
%TD*%
D15*
%TO.P,L_B1,3*%
%TO.N,TIM3_CH2*%
X187024000Y-138684000D03*
%TO.P,L_B1,2*%
%TO.N,+5V_GDK_giris*%
X189524000Y-138684000D03*
%TO.P,L_B1,1*%
%TO.N,GND_GDK_giris*%
%TA.AperFunction,ComponentPad*%
G36*
G01*
X192874000Y-137959000D02*
X192874000Y-139409000D01*
G75*
G02*
X192624000Y-139659000I-250000J0D01*
G01*
X191424000Y-139659000D01*
G75*
G02*
X191174000Y-139409000I0J250000D01*
G01*
X191174000Y-137959000D01*
G75*
G02*
X191424000Y-137709000I250000J0D01*
G01*
X192624000Y-137709000D01*
G75*
G02*
X192874000Y-137959000I0J-250000D01*
G01*
G37*
%TD.AperFunction*%
%TD*%
%TO.P,L_V1,3*%
%TO.N,TIM3_CH1*%
X198766000Y-138754000D03*
%TO.P,L_V1,2*%
%TO.N,+5V_GDK_giris*%
X201266000Y-138754000D03*
%TO.P,L_V1,1*%
%TO.N,GND_GDK_giris*%
%TA.AperFunction,ComponentPad*%
G36*
G01*
X204616000Y-138029000D02*
X204616000Y-139479000D01*
G75*
G02*
X204366000Y-139729000I-250000J0D01*
G01*
X203166000Y-139729000D01*
G75*
G02*
X202916000Y-139479000I0J250000D01*
G01*
X202916000Y-138029000D01*
G75*
G02*
X203166000Y-137779000I250000J0D01*
G01*
X204366000Y-137779000D01*
G75*
G02*
X204616000Y-138029000I0J-250000D01*
G01*
G37*
%TD.AperFunction*%
%TD*%
D14*
%TO.P,J6,4*%
%TO.N,USART3_Rx*%
X247142000Y-114180000D03*
%TO.P,J6,3*%
%TO.N,USART3_Tx*%
X247142000Y-111680000D03*
%TO.P,J6,2*%
%TO.N,GND_GDK_giris*%
X247142000Y-109180000D03*
%TO.P,J6,1*%
%TO.N,+5V_GDK_giris*%
%TA.AperFunction,ComponentPad*%
G36*
G01*
X246417000Y-105830000D02*
X247867000Y-105830000D01*
G75*
G02*
X248117000Y-106080000I0J-250000D01*
G01*
X248117000Y-107280000D01*
G75*
G02*
X247867000Y-107530000I-250000J0D01*
G01*
X246417000Y-107530000D01*
G75*
G02*
X246167000Y-107280000I0J250000D01*
G01*
X246167000Y-106080000D01*
G75*
G02*
X246417000Y-105830000I250000J0D01*
G01*
G37*
%TD.AperFunction*%
%TD*%
%TO.P,J5,4*%
%TO.N,USART1_Rx*%
X247142000Y-86558000D03*
%TO.P,J5,3*%
%TO.N,USART1_Tx*%
X247142000Y-84058000D03*
%TO.P,J5,2*%
%TO.N,GND_GDK_giris*%
X247142000Y-81558000D03*
%TO.P,J5,1*%
%TO.N,+5V_GDK_giris*%
%TA.AperFunction,ComponentPad*%
G36*
G01*
X246417000Y-78208000D02*
X247867000Y-78208000D01*
G75*
G02*
X248117000Y-78458000I0J-250000D01*
G01*
X248117000Y-79658000D01*
G75*
G02*
X247867000Y-79908000I-250000J0D01*
G01*
X246417000Y-79908000D01*
G75*
G02*
X246167000Y-79658000I0J250000D01*
G01*
X246167000Y-78458000D01*
G75*
G02*
X246417000Y-78208000I250000J0D01*
G01*
G37*
%TD.AperFunction*%
%TD*%
D15*
%TO.P,L_F1,3*%
%TO.N,TIM2_CH1*%
X210138000Y-138754000D03*
%TO.P,L_F1,2*%
%TO.N,+5V_GDK_giris*%
X212638000Y-138754000D03*
%TO.P,L_F1,1*%
%TO.N,GND_GDK_giris*%
%TA.AperFunction,ComponentPad*%
G36*
G01*
X215988000Y-138029000D02*
X215988000Y-139479000D01*
G75*
G02*
X215738000Y-139729000I-250000J0D01*
G01*
X214538000Y-139729000D01*
G75*
G02*
X214288000Y-139479000I0J250000D01*
G01*
X214288000Y-138029000D01*
G75*
G02*
X214538000Y-137779000I250000J0D01*
G01*
X215738000Y-137779000D01*
G75*
G02*
X215988000Y-138029000I0J-250000D01*
G01*
G37*
%TD.AperFunction*%
%TD*%
%TO.P,R_F1,3*%
%TO.N,TIM2_CH4*%
X221822000Y-138684000D03*
%TO.P,R_F1,2*%
%TO.N,+5V_GDK_giris*%
X224322000Y-138684000D03*
%TO.P,R_F1,1*%
%TO.N,GND_GDK_giris*%
%TA.AperFunction,ComponentPad*%
G36*
G01*
X227672000Y-137959000D02*
X227672000Y-139409000D01*
G75*
G02*
X227422000Y-139659000I-250000J0D01*
G01*
X226222000Y-139659000D01*
G75*
G02*
X225972000Y-139409000I0J250000D01*
G01*
X225972000Y-137959000D01*
G75*
G02*
X226222000Y-137709000I250000J0D01*
G01*
X227422000Y-137709000D01*
G75*
G02*
X227672000Y-137959000I0J-250000D01*
G01*
G37*
%TD.AperFunction*%
%TD*%
%TO.P,R_V1,3*%
%TO.N,TIM2_CH3*%
X233056000Y-138754000D03*
%TO.P,R_V1,2*%
%TO.N,+5V_GDK_giris*%
X235556000Y-138754000D03*
%TO.P,R_V1,1*%
%TO.N,GND_GDK_giris*%
%TA.AperFunction,ComponentPad*%
G36*
G01*
X238906000Y-138029000D02*
X238906000Y-139479000D01*
G75*
G02*
X238656000Y-139729000I-250000J0D01*
G01*
X237456000Y-139729000D01*
G75*
G02*
X237206000Y-139479000I0J250000D01*
G01*
X237206000Y-138029000D01*
G75*
G02*
X237456000Y-137779000I250000J0D01*
G01*
X238656000Y-137779000D01*
G75*
G02*
X238906000Y-138029000I0J-250000D01*
G01*
G37*
%TD.AperFunction*%
%TD*%
%TO.P,R_B1,3*%
%TO.N,TIM2_CH2*%
X244428000Y-138684000D03*
%TO.P,R_B1,2*%
%TO.N,+5V_GDK_giris*%
X246928000Y-138684000D03*
%TO.P,R_B1,1*%
%TO.N,GND_GDK_giris*%
%TA.AperFunction,ComponentPad*%
G36*
G01*
X250278000Y-137959000D02*
X250278000Y-139409000D01*
G75*
G02*
X250028000Y-139659000I-250000J0D01*
G01*
X248828000Y-139659000D01*
G75*
G02*
X248578000Y-139409000I0J250000D01*
G01*
X248578000Y-137959000D01*
G75*
G02*
X248828000Y-137709000I250000J0D01*
G01*
X250028000Y-137709000D01*
G75*
G02*
X250278000Y-137959000I0J-250000D01*
G01*
G37*
%TD.AperFunction*%
%TD*%
%TO.P,J8,1*%
%TO.N,+5V_GDK_giris*%
%TA.AperFunction,ComponentPad*%
G36*
G01*
X250661000Y-73050000D02*
X249211000Y-73050000D01*
G75*
G02*
X248961000Y-72800000I0J250000D01*
G01*
X248961000Y-71600000D01*
G75*
G02*
X249211000Y-71350000I250000J0D01*
G01*
X250661000Y-71350000D01*
G75*
G02*
X250911000Y-71600000I0J-250000D01*
G01*
X250911000Y-72800000D01*
G75*
G02*
X250661000Y-73050000I-250000J0D01*
G01*
G37*
%TD.AperFunction*%
D14*
%TO.P,J8,2*%
%TO.N,I2C1_SCL*%
X249936000Y-69700000D03*
%TO.P,J8,3*%
%TO.N,I2C1_SDA*%
X249936000Y-67200000D03*
%TO.P,J8,4*%
%TO.N,GND_GDK_giris*%
X249936000Y-64700000D03*
%TD*%
%TO.P,J11,1*%
%TO.N,GND_GDK_giris*%
%TA.AperFunction,ComponentPad*%
G36*
G01*
X241517000Y-96354000D02*
X240067000Y-96354000D01*
G75*
G02*
X239817000Y-96104000I0J250000D01*
G01*
X239817000Y-94904000D01*
G75*
G02*
X240067000Y-94654000I250000J0D01*
G01*
X241517000Y-94654000D01*
G75*
G02*
X241767000Y-94904000I0J-250000D01*
G01*
X241767000Y-96104000D01*
G75*
G02*
X241517000Y-96354000I-250000J0D01*
G01*
G37*
%TD.AperFunction*%
%TO.P,J11,2*%
%TO.N,+5V_GDK_giris*%
X240792000Y-93004000D03*
%TO.P,J11,3*%
%TO.N,TIM9_CH1*%
X240792000Y-90504000D03*
%TD*%
%TO.P,OP_MOT_1,3*%
%TO.N,TIM3_CH3*%
X237998000Y-66120000D03*
%TO.P,OP_MOT_1,2*%
%TO.N,+5V_GDK_giris*%
X237998000Y-68620000D03*
%TO.P,OP_MOT_1,1*%
%TO.N,GND_GDK_giris*%
%TA.AperFunction,ComponentPad*%
G36*
G01*
X238723000Y-71970000D02*
X237273000Y-71970000D01*
G75*
G02*
X237023000Y-71720000I0J250000D01*
G01*
X237023000Y-70520000D01*
G75*
G02*
X237273000Y-70270000I250000J0D01*
G01*
X238723000Y-70270000D01*
G75*
G02*
X238973000Y-70520000I0J-250000D01*
G01*
X238973000Y-71720000D01*
G75*
G02*
X238723000Y-71970000I-250000J0D01*
G01*
G37*
%TD.AperFunction*%
%TD*%
%TO.P,OP_MOT_2,1*%
%TO.N,GND_GDK_giris*%
%TA.AperFunction,ComponentPad*%
G36*
G01*
X244819000Y-71970000D02*
X243369000Y-71970000D01*
G75*
G02*
X243119000Y-71720000I0J250000D01*
G01*
X243119000Y-70520000D01*
G75*
G02*
X243369000Y-70270000I250000J0D01*
G01*
X244819000Y-70270000D01*
G75*
G02*
X245069000Y-70520000I0J-250000D01*
G01*
X245069000Y-71720000D01*
G75*
G02*
X244819000Y-71970000I-250000J0D01*
G01*
G37*
%TD.AperFunction*%
%TO.P,OP_MOT_2,2*%
%TO.N,+5V_GDK_giris*%
X244094000Y-68620000D03*
%TO.P,OP_MOT_2,3*%
%TO.N,TIM3_CH4*%
X244094000Y-66120000D03*
%TD*%
%TO.P,J21,3*%
%TO.N,TIM9_CH2*%
X240538000Y-79074000D03*
%TO.P,J21,2*%
%TO.N,+5V_GDK_giris*%
X240538000Y-81574000D03*
%TO.P,J21,1*%
%TO.N,GND_GDK_giris*%
%TA.AperFunction,ComponentPad*%
G36*
G01*
X241263000Y-84924000D02*
X239813000Y-84924000D01*
G75*
G02*
X239563000Y-84674000I0J250000D01*
G01*
X239563000Y-83474000D01*
G75*
G02*
X239813000Y-83224000I250000J0D01*
G01*
X241263000Y-83224000D01*
G75*
G02*
X241513000Y-83474000I0J-250000D01*
G01*
X241513000Y-84674000D01*
G75*
G02*
X241263000Y-84924000I-250000J0D01*
G01*
G37*
%TD.AperFunction*%
%TD*%
D13*
%TO.P,TTL1,1*%
%TO.N,Net-(TTL1-Pad1)*%
X238760000Y-107950000D03*
D12*
%TO.P,TTL1,2*%
%TO.N,USART2_Tx*%
X238760000Y-105410000D03*
%TO.P,TTL1,3*%
%TO.N,USART2_Rx*%
X238760000Y-102870000D03*
%TO.P,TTL1,4*%
%TO.N,Net-(TTL1-Pad4)*%
X238760000Y-100330000D03*
%TD*%
D13*
%TO.P,MPU1,1*%
%TO.N,+5V_GDK_giris*%
X221700000Y-106600000D03*
D12*
%TO.P,MPU1,2*%
%TO.N,GND_GDK_giris*%
X221700000Y-109140000D03*
%TO.P,MPU1,3*%
%TO.N,I2C3_SCL*%
X221700000Y-111680000D03*
%TO.P,MPU1,4*%
%TO.N,I2C3_SDA*%
X221700000Y-114220000D03*
%TO.P,MPU1,5*%
X221700000Y-116760000D03*
%TO.P,MPU1,6*%
%TO.N,I2C3_SCL*%
X221700000Y-119300000D03*
%TO.P,MPU1,7*%
%TO.N,GND_GDK_giris*%
X221700000Y-121840000D03*
%TO.P,MPU1,8*%
%TO.N,+5V_GDK_giris*%
X221700000Y-124380000D03*
%TD*%
D16*
%TO.N,TIM2_CH2*%
X189708000Y-84806000D02*
X185898000Y-84806000D01*
X222758000Y-131064000D02*
X219202000Y-127508000D01*
X194564000Y-127508000D02*
X191008000Y-123952000D01*
X185898000Y-84806000D02*
X186152000Y-84806000D01*
X244428000Y-138684000D02*
X242062000Y-138684000D01*
X225552000Y-135128000D02*
X223012000Y-132588000D01*
X242062000Y-138684000D02*
X238506000Y-135128000D01*
X178964000Y-84806000D02*
X185898000Y-84806000D01*
X238506000Y-135128000D02*
X225552000Y-135128000D01*
X219202000Y-127508000D02*
X194564000Y-127508000D01*
X191008000Y-123952000D02*
X191008000Y-86106000D01*
X191008000Y-86106000D02*
X189708000Y-84806000D01*
X222758000Y-131064000D02*
X223012000Y-131318000D01*
X223012000Y-132588000D02*
X223012000Y-131318000D01*
%TO.N,TIM2_CH3*%
X232988000Y-138754000D02*
X233056000Y-138754000D01*
X230378000Y-136144000D02*
X232988000Y-138754000D01*
X225044000Y-135890000D02*
X225044000Y-136144000D01*
X218440000Y-129286000D02*
X225044000Y-135890000D01*
X189230000Y-125730000D02*
X192786000Y-129286000D01*
X225044000Y-136144000D02*
X230378000Y-136144000D01*
X187008999Y-86170999D02*
X189230000Y-88392000D01*
X192786000Y-129286000D02*
X218440000Y-129286000D01*
X177599001Y-86170999D02*
X187008999Y-86170999D01*
X189230000Y-88392000D02*
X189230000Y-125730000D01*
X176424000Y-87346000D02*
X177599001Y-86170999D01*
%TO.N,TIM2_CH4*%
X188214000Y-89408000D02*
X186152000Y-87346000D01*
X188214000Y-127508000D02*
X188214000Y-89408000D01*
X218186000Y-130810000D02*
X191516000Y-130810000D01*
X186152000Y-87346000D02*
X178964000Y-87346000D01*
X221822000Y-134446000D02*
X218186000Y-130810000D01*
X191516000Y-130810000D02*
X188214000Y-127508000D01*
X221822000Y-138684000D02*
X221822000Y-134446000D01*
%TO.N,TIM2_CH1*%
X189230000Y-134112000D02*
X185928000Y-130810000D01*
X208026000Y-134112000D02*
X189230000Y-134112000D01*
X210138000Y-136224000D02*
X208026000Y-134112000D01*
X210138000Y-138754000D02*
X210138000Y-136224000D01*
X178964000Y-89886000D02*
X181580000Y-89886000D01*
X181580000Y-89886000D02*
X181610000Y-89916000D01*
X181610000Y-89916000D02*
X183896000Y-89916000D01*
X185928000Y-91948000D02*
X185928000Y-95758000D01*
X183896000Y-89916000D02*
X185928000Y-91948000D01*
X185928000Y-95758000D02*
X185928000Y-95647919D01*
X185928000Y-130810000D02*
X185928000Y-95758000D01*
%TO.N,USART1_Rx*%
X233426000Y-122174000D02*
X232614000Y-122986000D01*
X237236000Y-113792000D02*
X233426000Y-117602000D01*
X244062000Y-112046000D02*
X242316000Y-113792000D01*
X242316000Y-113792000D02*
X237236000Y-113792000D01*
X244094000Y-112046000D02*
X244062000Y-112046000D01*
X233426000Y-117602000D02*
X233426000Y-122174000D01*
X247142000Y-86614000D02*
X244094000Y-89662000D01*
X244094000Y-89662000D02*
X244094000Y-112046000D01*
X247142000Y-86558000D02*
X247142000Y-86614000D01*
X229724000Y-122986000D02*
X232614000Y-122986000D01*
%TO.N,USART1_Tx*%
X250444000Y-85344000D02*
X249158000Y-84058000D01*
X250444000Y-88392000D02*
X250444000Y-85344000D01*
X227184000Y-125526000D02*
X228548999Y-124161001D01*
X241046000Y-119126000D02*
X242062000Y-118110000D01*
X244602000Y-90932000D02*
X245872000Y-89662000D01*
X233216999Y-124161001D02*
X236220000Y-121158000D01*
X236220000Y-121158000D02*
X236220000Y-120142000D01*
X237236000Y-119126000D02*
X241046000Y-119126000D01*
X228548999Y-124161001D02*
X233216999Y-124161001D01*
X242062000Y-118110000D02*
X242062000Y-116840000D01*
X236220000Y-120142000D02*
X237236000Y-119126000D01*
X244602000Y-114300000D02*
X244602000Y-90932000D01*
X249158000Y-84058000D02*
X247142000Y-84058000D01*
X242062000Y-116840000D02*
X244602000Y-114300000D01*
X245872000Y-89662000D02*
X249174000Y-89662000D01*
X249174000Y-89662000D02*
X250444000Y-88392000D01*
%TO.N,USART3_Tx*%
X177599001Y-121541001D02*
X176424000Y-120366000D01*
X179070000Y-138938000D02*
X177599001Y-137467001D01*
X177599001Y-137467001D02*
X177599001Y-121541001D01*
X183134000Y-140970000D02*
X181102000Y-138938000D01*
X183134000Y-142240000D02*
X183134000Y-140970000D01*
X181102000Y-138938000D02*
X179070000Y-138938000D01*
X184150000Y-143256000D02*
X183134000Y-142240000D01*
X247142000Y-111680000D02*
X250364000Y-111680000D01*
X250364000Y-111680000D02*
X250952000Y-112268000D01*
X246380000Y-118110000D02*
X244856000Y-119634000D01*
X250952000Y-112268000D02*
X250952000Y-116586000D01*
X250079010Y-126889010D02*
X251321980Y-128131980D01*
X250952000Y-116586000D02*
X249428000Y-118110000D01*
X245761010Y-126889010D02*
X250079010Y-126889010D01*
X244856000Y-119634000D02*
X244856000Y-125984000D01*
X244856000Y-125984000D02*
X245761010Y-126889010D01*
X251321980Y-128131980D02*
X251321980Y-141362020D01*
X249428000Y-118110000D02*
X246380000Y-118110000D01*
X251321980Y-141362020D02*
X249428000Y-143256000D01*
X249428000Y-143256000D02*
X184150000Y-143256000D01*
%TO.N,USART3_Rx*%
X180848000Y-124790000D02*
X178964000Y-122906000D01*
X180848000Y-137668000D02*
X180848000Y-124790000D01*
X185420000Y-142240000D02*
X180848000Y-137668000D01*
X246634000Y-142240000D02*
X185420000Y-142240000D01*
X248103010Y-140770990D02*
X246634000Y-142240000D01*
X248103010Y-133041010D02*
X248103010Y-140770990D01*
X244094000Y-129032000D02*
X248103010Y-133041010D01*
X244094000Y-117228000D02*
X244094000Y-129032000D01*
X247142000Y-114180000D02*
X244094000Y-117228000D01*
%TO.N,I2C1_SDA*%
X229724000Y-100126000D02*
X232868000Y-100126000D01*
X232868000Y-100126000D02*
X232714000Y-100126000D01*
X251604000Y-67200000D02*
X249936000Y-67200000D01*
X252222000Y-73914000D02*
X252222000Y-67818000D01*
X252222000Y-67818000D02*
X251604000Y-67200000D01*
X250698000Y-75438000D02*
X252222000Y-73914000D01*
X245364000Y-77470000D02*
X247396000Y-75438000D01*
X247396000Y-75438000D02*
X250698000Y-75438000D01*
X245364000Y-87376000D02*
X245364000Y-77470000D01*
X243332000Y-89408000D02*
X245364000Y-87376000D01*
X232868000Y-100126000D02*
X235204000Y-97790000D01*
X235204000Y-97790000D02*
X241554000Y-97790000D01*
X241554000Y-97790000D02*
X243332000Y-96012000D01*
X243332000Y-96012000D02*
X243332000Y-89408000D01*
%TO.N,I2C1_SCL*%
X247904000Y-71732000D02*
X249936000Y-69700000D01*
X244856000Y-77216000D02*
X247904000Y-74168000D01*
X244856000Y-86868000D02*
X244856000Y-77216000D01*
X242570000Y-89154000D02*
X244856000Y-86868000D01*
X247904000Y-74168000D02*
X247904000Y-71732000D01*
X227184000Y-100126000D02*
X228548999Y-98761001D01*
X228548999Y-98761001D02*
X232962999Y-98761001D01*
X232962999Y-98761001D02*
X234696000Y-97028000D01*
X234696000Y-97028000D02*
X241554000Y-97028000D01*
X241554000Y-97028000D02*
X242570000Y-96012000D01*
X242570000Y-96012000D02*
X242570000Y-89154000D01*
%TO.N,I2C3_SDA*%
X221700000Y-114220000D02*
X221700000Y-116760000D01*
X221700000Y-116760000D02*
X219540000Y-116760000D01*
X219540000Y-116760000D02*
X217700000Y-118600000D01*
X217700000Y-118600000D02*
X217700000Y-123900000D01*
X217700000Y-123900000D02*
X221900000Y-128100000D01*
X227150000Y-128100000D02*
X227184000Y-128066000D01*
X221900000Y-128100000D02*
X227150000Y-128100000D01*
%TO.N,I2C3_SCL*%
X228548999Y-126701001D02*
X229724000Y-125526000D01*
X222875001Y-122956003D02*
X226619999Y-126701001D01*
X226619999Y-126701001D02*
X228548999Y-126701001D01*
X222875001Y-120475001D02*
X222875001Y-122956003D01*
X221700000Y-119300000D02*
X222875001Y-120475001D01*
X221700000Y-111680000D02*
X223080000Y-111680000D01*
X223080000Y-111680000D02*
X224200000Y-112800000D01*
X224200000Y-112800000D02*
X224200000Y-118300000D01*
X223200000Y-119300000D02*
X221700000Y-119300000D01*
X224200000Y-118300000D02*
X223200000Y-119300000D01*
%TO.N,TIM9_CH1*%
X237316000Y-90504000D02*
X240792000Y-90504000D01*
X232873001Y-86061001D02*
X237316000Y-90504000D01*
X228548999Y-86061001D02*
X232873001Y-86061001D01*
X227184000Y-87426000D02*
X228548999Y-86061001D01*
%TO.N,TIM3_CH1*%
X195648000Y-135636000D02*
X198766000Y-138754000D01*
X186944000Y-135636000D02*
X195648000Y-135636000D01*
X184150000Y-132842000D02*
X186944000Y-135636000D01*
X184150000Y-94996000D02*
X184150000Y-132842000D01*
X180215001Y-91061001D02*
X184150000Y-94996000D01*
X177788999Y-91061001D02*
X180215001Y-91061001D01*
X176424000Y-92426000D02*
X177788999Y-91061001D01*
%TO.N,TIM3_CH2*%
X187024000Y-138684000D02*
X184150000Y-138684000D01*
X184150000Y-138684000D02*
X182118000Y-136652000D01*
X182118000Y-95580000D02*
X178964000Y-92426000D01*
X182118000Y-136652000D02*
X182118000Y-95580000D01*
%TO.N,TIM3_CH3*%
X234616000Y-66120000D02*
X237998000Y-66120000D01*
X231648000Y-69088000D02*
X234616000Y-66120000D01*
X176022000Y-69088000D02*
X231648000Y-69088000D01*
X174752000Y-95834000D02*
X174752000Y-70358000D01*
X174752000Y-70358000D02*
X176022000Y-69088000D01*
X176424000Y-97506000D02*
X174752000Y-95834000D01*
%TO.N,TIM3_CH4*%
X242236000Y-64262000D02*
X244094000Y-66120000D01*
X231394000Y-67818000D02*
X234950000Y-64262000D01*
X175514000Y-67818000D02*
X231394000Y-67818000D01*
X173990000Y-69342000D02*
X175514000Y-67818000D01*
X173990000Y-96811002D02*
X173990000Y-69342000D01*
X234950000Y-64262000D02*
X242236000Y-64262000D01*
X175859999Y-98681001D02*
X173990000Y-96811002D01*
X177788999Y-98681001D02*
X175859999Y-98681001D01*
X178964000Y-97506000D02*
X177788999Y-98681001D01*
%TO.N,USART2_Tx*%
X229724000Y-107746000D02*
X234138000Y-107746000D01*
X234138000Y-107746000D02*
X236474000Y-105410000D01*
X236474000Y-105410000D02*
X238760000Y-105410000D01*
%TO.N,USART2_Rx*%
X227184000Y-107746000D02*
X228548999Y-106381001D01*
X228548999Y-106381001D02*
X232200999Y-106381001D01*
X232200999Y-106381001D02*
X235712000Y-102870000D01*
X235712000Y-102870000D02*
X238760000Y-102870000D01*
%TO.N,USART6_Tx*%
X229724000Y-130606000D02*
X233730000Y-130606000D01*
X233730000Y-130606000D02*
X233884000Y-130606000D01*
X237330999Y-129191001D02*
X241648999Y-129191001D01*
X241648999Y-129191001D02*
X242570000Y-128270000D01*
X235916000Y-130606000D02*
X237330999Y-129191001D01*
X233730000Y-130606000D02*
X235916000Y-130606000D01*
X247142000Y-97964000D02*
X247142000Y-98044000D01*
X245110000Y-99996000D02*
X247142000Y-97964000D01*
X245110000Y-114554000D02*
X245110000Y-99996000D01*
X245110000Y-114554000D02*
X242570000Y-117094000D01*
X242570000Y-128270000D02*
X242570000Y-117094000D01*
%TO.N,USART6_Rx*%
X227184000Y-130606000D02*
X228359001Y-131781001D01*
X232365001Y-131781001D02*
X233889001Y-131781001D01*
X228359001Y-131781001D02*
X232365001Y-131781001D01*
X243332000Y-117094000D02*
X243332000Y-130302000D01*
X245618000Y-114808000D02*
X243332000Y-117094000D01*
X245618000Y-105664000D02*
X245618000Y-114808000D01*
X247142000Y-104140000D02*
X245618000Y-105664000D01*
X243332000Y-130302000D02*
X241808000Y-131826000D01*
X247142000Y-100464000D02*
X247142000Y-104140000D01*
X241852999Y-131781001D02*
X243332000Y-130302000D01*
X232365001Y-131781001D02*
X241852999Y-131781001D01*
%TO.N,I2C2_SCL*%
X176424000Y-112746000D02*
X175290000Y-112746000D01*
X175290000Y-112746000D02*
X173990000Y-114046000D01*
X173990000Y-114046000D02*
X173990000Y-136398000D01*
X173990000Y-136398000D02*
X177292000Y-139700000D01*
X177292000Y-143002000D02*
X178562000Y-144272000D01*
X177292000Y-139700000D02*
X177292000Y-143002000D01*
X178562000Y-144272000D02*
X249936000Y-144272000D01*
X249936000Y-144272000D02*
X252222000Y-141986000D01*
X252222000Y-141986000D02*
X252222000Y-124968000D01*
X250468000Y-123214000D02*
X247142000Y-123214000D01*
X252222000Y-124968000D02*
X250468000Y-123214000D01*
%TO.N,I2C2_SDA*%
X249920000Y-125714000D02*
X247142000Y-125714000D01*
X178964000Y-115286000D02*
X177599001Y-116650999D01*
X175006000Y-117477998D02*
X175006000Y-136144000D01*
X177599001Y-116650999D02*
X175832999Y-116650999D01*
X175832999Y-116650999D02*
X175006000Y-117477998D01*
X251771990Y-127565990D02*
X249920000Y-125714000D01*
X175006000Y-136144000D02*
X178562000Y-139700000D01*
X178562000Y-139700000D02*
X180848000Y-139700000D01*
X182372000Y-143256000D02*
X182880000Y-143764000D01*
X180848000Y-139700000D02*
X182372000Y-141224000D01*
X182372000Y-141224000D02*
X182372000Y-143256000D01*
X182880000Y-143764000D02*
X249682000Y-143764000D01*
X249682000Y-143764000D02*
X251771990Y-141674010D01*
X251771990Y-141674010D02*
X251771990Y-127565990D01*
%TO.N,TIM9_CH2*%
X234726000Y-84886000D02*
X240538000Y-79074000D01*
X229724000Y-84886000D02*
X234726000Y-84886000D01*
%TD*%
D17*
%TO.N,GND_GDK_giris*%
X178076601Y-140284812D02*
X178137724Y-140334974D01*
X178269753Y-140405546D01*
X178413014Y-140449003D01*
X178524667Y-140460000D01*
X178524676Y-140460000D01*
X178561999Y-140463676D01*
X178599322Y-140460000D01*
X178815534Y-140460000D01*
X178759158Y-140579553D01*
X180000000Y-141820395D01*
X180014143Y-141806253D01*
X180193748Y-141985858D01*
X180179605Y-142000000D01*
X181420447Y-143240842D01*
X181612001Y-143150514D01*
X181612001Y-143218668D01*
X181608324Y-143256000D01*
X181622998Y-143404985D01*
X181655459Y-143512000D01*
X181197670Y-143512000D01*
X181240842Y-143420447D01*
X180000000Y-142179605D01*
X179985858Y-142193748D01*
X179806253Y-142014143D01*
X179820395Y-142000000D01*
X178579553Y-140759158D01*
X178274230Y-140903135D01*
X178093403Y-141260892D01*
X178052000Y-141409539D01*
X178052000Y-140264623D01*
X178076601Y-140284812D01*
%TA.AperFunction,Conductor*%
D18*
G36*
X178076601Y-140284812D02*
G01*
X178137724Y-140334974D01*
X178269753Y-140405546D01*
X178413014Y-140449003D01*
X178524667Y-140460000D01*
X178524676Y-140460000D01*
X178561999Y-140463676D01*
X178599322Y-140460000D01*
X178815534Y-140460000D01*
X178759158Y-140579553D01*
X180000000Y-141820395D01*
X180014143Y-141806253D01*
X180193748Y-141985858D01*
X180179605Y-142000000D01*
X181420447Y-143240842D01*
X181612001Y-143150514D01*
X181612001Y-143218668D01*
X181608324Y-143256000D01*
X181622998Y-143404985D01*
X181655459Y-143512000D01*
X181197670Y-143512000D01*
X181240842Y-143420447D01*
X180000000Y-142179605D01*
X179985858Y-142193748D01*
X179806253Y-142014143D01*
X179820395Y-142000000D01*
X178579553Y-140759158D01*
X178274230Y-140903135D01*
X178093403Y-141260892D01*
X178052000Y-141409539D01*
X178052000Y-140264623D01*
X178076601Y-140284812D01*
G37*
%TD.AperFunction*%
D17*
X245197215Y-127400018D02*
X245221009Y-127429011D01*
X245250002Y-127452805D01*
X245250006Y-127452809D01*
X245264893Y-127465026D01*
X245336734Y-127523984D01*
X245468763Y-127594556D01*
X245612024Y-127638013D01*
X245650936Y-127641846D01*
X245575524Y-127857110D01*
X245696845Y-128087000D01*
X247015000Y-128087000D01*
X247015000Y-128067000D01*
X247269000Y-128067000D01*
X247269000Y-128087000D01*
X248587155Y-128087000D01*
X248708476Y-127857110D01*
X248635574Y-127649010D01*
X249764209Y-127649010D01*
X250561980Y-128446782D01*
X250561981Y-137140772D01*
X250522180Y-137119498D01*
X250402482Y-137083188D01*
X250278000Y-137070928D01*
X249713750Y-137074000D01*
X249555000Y-137232750D01*
X249555000Y-138557000D01*
X249575000Y-138557000D01*
X249575000Y-138811000D01*
X249555000Y-138811000D01*
X249555000Y-140135250D01*
X249713750Y-140294000D01*
X250278000Y-140297072D01*
X250402482Y-140284812D01*
X250522180Y-140248502D01*
X250561981Y-140227228D01*
X250561981Y-141047217D01*
X249113199Y-142496000D01*
X247452801Y-142496000D01*
X248614013Y-141334789D01*
X248643011Y-141310991D01*
X248737984Y-141195266D01*
X248808556Y-141063237D01*
X248852013Y-140919976D01*
X248863010Y-140808323D01*
X248863010Y-140808313D01*
X248866686Y-140770990D01*
X248863010Y-140733667D01*
X248863010Y-140295520D01*
X249142250Y-140294000D01*
X249301000Y-140135250D01*
X249301000Y-138811000D01*
X249281000Y-138811000D01*
X249281000Y-138557000D01*
X249301000Y-138557000D01*
X249301000Y-137232750D01*
X249142250Y-137074000D01*
X248863010Y-137072480D01*
X248863010Y-133078332D01*
X248866686Y-133041009D01*
X248863010Y-133003686D01*
X248863010Y-133003677D01*
X248852013Y-132892024D01*
X248808556Y-132748763D01*
X248737984Y-132616734D01*
X248643011Y-132501009D01*
X248614014Y-132477212D01*
X244854000Y-128717199D01*
X244854000Y-128570890D01*
X245575524Y-128570890D01*
X245667648Y-128833858D01*
X245814504Y-129085193D01*
X246007571Y-129303049D01*
X246239430Y-129479053D01*
X246501170Y-129606442D01*
X246782733Y-129680320D01*
X247015000Y-129540165D01*
X247015000Y-128341000D01*
X247269000Y-128341000D01*
X247269000Y-129540165D01*
X247501267Y-129680320D01*
X247782830Y-129606442D01*
X248044570Y-129479053D01*
X248276429Y-129303049D01*
X248469496Y-129085193D01*
X248616352Y-128833858D01*
X248708476Y-128570890D01*
X248587155Y-128341000D01*
X247269000Y-128341000D01*
X247015000Y-128341000D01*
X245696845Y-128341000D01*
X245575524Y-128570890D01*
X244854000Y-128570890D01*
X244854000Y-127056802D01*
X245197215Y-127400018D01*
%TA.AperFunction,Conductor*%
D18*
G36*
X245197215Y-127400018D02*
G01*
X245221009Y-127429011D01*
X245250002Y-127452805D01*
X245250006Y-127452809D01*
X245264893Y-127465026D01*
X245336734Y-127523984D01*
X245468763Y-127594556D01*
X245612024Y-127638013D01*
X245650936Y-127641846D01*
X245575524Y-127857110D01*
X245696845Y-128087000D01*
X247015000Y-128087000D01*
X247015000Y-128067000D01*
X247269000Y-128067000D01*
X247269000Y-128087000D01*
X248587155Y-128087000D01*
X248708476Y-127857110D01*
X248635574Y-127649010D01*
X249764209Y-127649010D01*
X250561980Y-128446782D01*
X250561981Y-137140772D01*
X250522180Y-137119498D01*
X250402482Y-137083188D01*
X250278000Y-137070928D01*
X249713750Y-137074000D01*
X249555000Y-137232750D01*
X249555000Y-138557000D01*
X249575000Y-138557000D01*
X249575000Y-138811000D01*
X249555000Y-138811000D01*
X249555000Y-140135250D01*
X249713750Y-140294000D01*
X250278000Y-140297072D01*
X250402482Y-140284812D01*
X250522180Y-140248502D01*
X250561981Y-140227228D01*
X250561981Y-141047217D01*
X249113199Y-142496000D01*
X247452801Y-142496000D01*
X248614013Y-141334789D01*
X248643011Y-141310991D01*
X248737984Y-141195266D01*
X248808556Y-141063237D01*
X248852013Y-140919976D01*
X248863010Y-140808323D01*
X248863010Y-140808313D01*
X248866686Y-140770990D01*
X248863010Y-140733667D01*
X248863010Y-140295520D01*
X249142250Y-140294000D01*
X249301000Y-140135250D01*
X249301000Y-138811000D01*
X249281000Y-138811000D01*
X249281000Y-138557000D01*
X249301000Y-138557000D01*
X249301000Y-137232750D01*
X249142250Y-137074000D01*
X248863010Y-137072480D01*
X248863010Y-133078332D01*
X248866686Y-133041009D01*
X248863010Y-133003686D01*
X248863010Y-133003677D01*
X248852013Y-132892024D01*
X248808556Y-132748763D01*
X248737984Y-132616734D01*
X248643011Y-132501009D01*
X248614014Y-132477212D01*
X244854000Y-128717199D01*
X244854000Y-128570890D01*
X245575524Y-128570890D01*
X245667648Y-128833858D01*
X245814504Y-129085193D01*
X246007571Y-129303049D01*
X246239430Y-129479053D01*
X246501170Y-129606442D01*
X246782733Y-129680320D01*
X247015000Y-129540165D01*
X247015000Y-128341000D01*
X247269000Y-128341000D01*
X247269000Y-129540165D01*
X247501267Y-129680320D01*
X247782830Y-129606442D01*
X248044570Y-129479053D01*
X248276429Y-129303049D01*
X248469496Y-129085193D01*
X248616352Y-128833858D01*
X248708476Y-128570890D01*
X248587155Y-128341000D01*
X247269000Y-128341000D01*
X247015000Y-128341000D01*
X245696845Y-128341000D01*
X245575524Y-128570890D01*
X244854000Y-128570890D01*
X244854000Y-127056802D01*
X245197215Y-127400018D01*
G37*
%TD.AperFunction*%
D17*
X187454001Y-89722803D02*
X187454000Y-127470678D01*
X187450324Y-127508000D01*
X187454000Y-127545322D01*
X187454000Y-127545332D01*
X187464997Y-127656985D01*
X187500418Y-127773754D01*
X187508454Y-127800246D01*
X187579026Y-127932276D01*
X187594405Y-127951015D01*
X187673999Y-128048001D01*
X187703003Y-128071804D01*
X190952200Y-131321002D01*
X190975999Y-131350001D01*
X191091724Y-131444974D01*
X191223753Y-131515546D01*
X191367014Y-131559003D01*
X191478667Y-131570000D01*
X191478676Y-131570000D01*
X191515999Y-131573676D01*
X191553322Y-131570000D01*
X217871199Y-131570000D01*
X221062001Y-134760803D01*
X221062000Y-137281406D01*
X220992987Y-137318294D01*
X220766866Y-137503866D01*
X220581294Y-137729986D01*
X220443401Y-137987966D01*
X220358487Y-138267889D01*
X220337000Y-138486050D01*
X220337000Y-138881949D01*
X220358487Y-139100110D01*
X220443401Y-139380033D01*
X220581294Y-139638013D01*
X220766866Y-139864134D01*
X220992986Y-140049706D01*
X221250966Y-140187599D01*
X221530889Y-140272513D01*
X221822000Y-140301185D01*
X222113110Y-140272513D01*
X222393033Y-140187599D01*
X222651013Y-140049706D01*
X222877134Y-139864134D01*
X223062706Y-139638014D01*
X223072000Y-139620626D01*
X223081294Y-139638013D01*
X223266866Y-139864134D01*
X223492986Y-140049706D01*
X223750966Y-140187599D01*
X224030889Y-140272513D01*
X224322000Y-140301185D01*
X224613110Y-140272513D01*
X224893033Y-140187599D01*
X225151013Y-140049706D01*
X225371945Y-139868392D01*
X225382498Y-139903180D01*
X225441463Y-140013494D01*
X225520815Y-140110185D01*
X225617506Y-140189537D01*
X225727820Y-140248502D01*
X225847518Y-140284812D01*
X225972000Y-140297072D01*
X226536250Y-140294000D01*
X226695000Y-140135250D01*
X226695000Y-138811000D01*
X226949000Y-138811000D01*
X226949000Y-140135250D01*
X227107750Y-140294000D01*
X227672000Y-140297072D01*
X227796482Y-140284812D01*
X227916180Y-140248502D01*
X228026494Y-140189537D01*
X228123185Y-140110185D01*
X228202537Y-140013494D01*
X228261502Y-139903180D01*
X228297812Y-139783482D01*
X228310072Y-139659000D01*
X228307000Y-138969750D01*
X228148250Y-138811000D01*
X226949000Y-138811000D01*
X226695000Y-138811000D01*
X226675000Y-138811000D01*
X226675000Y-138557000D01*
X226695000Y-138557000D01*
X226695000Y-137232750D01*
X226949000Y-137232750D01*
X226949000Y-138557000D01*
X228148250Y-138557000D01*
X228307000Y-138398250D01*
X228310072Y-137709000D01*
X228297812Y-137584518D01*
X228261502Y-137464820D01*
X228202537Y-137354506D01*
X228123185Y-137257815D01*
X228026494Y-137178463D01*
X227916180Y-137119498D01*
X227796482Y-137083188D01*
X227672000Y-137070928D01*
X227107750Y-137074000D01*
X226949000Y-137232750D01*
X226695000Y-137232750D01*
X226536250Y-137074000D01*
X225972000Y-137070928D01*
X225847518Y-137083188D01*
X225727820Y-137119498D01*
X225617506Y-137178463D01*
X225520815Y-137257815D01*
X225441463Y-137354506D01*
X225382498Y-137464820D01*
X225371945Y-137499608D01*
X225151014Y-137318294D01*
X224893034Y-137180401D01*
X224613111Y-137095487D01*
X224322000Y-137066815D01*
X224030890Y-137095487D01*
X223750967Y-137180401D01*
X223492987Y-137318294D01*
X223266866Y-137503866D01*
X223081294Y-137729986D01*
X223072000Y-137747374D01*
X223062706Y-137729986D01*
X222877134Y-137503866D01*
X222651014Y-137318294D01*
X222582000Y-137281405D01*
X222582000Y-134502802D01*
X224286564Y-136207366D01*
X224294997Y-136292986D01*
X224338454Y-136436247D01*
X224409026Y-136568276D01*
X224503999Y-136684001D01*
X224619724Y-136778974D01*
X224751753Y-136849546D01*
X224895014Y-136893003D01*
X225006667Y-136904000D01*
X225044000Y-136907677D01*
X225081333Y-136904000D01*
X230063199Y-136904000D01*
X231583933Y-138424736D01*
X231571000Y-138556050D01*
X231571000Y-138951949D01*
X231592487Y-139170110D01*
X231677401Y-139450033D01*
X231815294Y-139708013D01*
X232000866Y-139934134D01*
X232226986Y-140119706D01*
X232484966Y-140257599D01*
X232764889Y-140342513D01*
X233056000Y-140371185D01*
X233347110Y-140342513D01*
X233627033Y-140257599D01*
X233885013Y-140119706D01*
X234111134Y-139934134D01*
X234296706Y-139708014D01*
X234306000Y-139690626D01*
X234315294Y-139708013D01*
X234500866Y-139934134D01*
X234726986Y-140119706D01*
X234984966Y-140257599D01*
X235264889Y-140342513D01*
X235556000Y-140371185D01*
X235847110Y-140342513D01*
X236127033Y-140257599D01*
X236385013Y-140119706D01*
X236605945Y-139938392D01*
X236616498Y-139973180D01*
X236675463Y-140083494D01*
X236754815Y-140180185D01*
X236851506Y-140259537D01*
X236961820Y-140318502D01*
X237081518Y-140354812D01*
X237206000Y-140367072D01*
X237770250Y-140364000D01*
X237929000Y-140205250D01*
X237929000Y-138881000D01*
X238183000Y-138881000D01*
X238183000Y-140205250D01*
X238341750Y-140364000D01*
X238906000Y-140367072D01*
X239030482Y-140354812D01*
X239150180Y-140318502D01*
X239260494Y-140259537D01*
X239357185Y-140180185D01*
X239436537Y-140083494D01*
X239495502Y-139973180D01*
X239531812Y-139853482D01*
X239544072Y-139729000D01*
X239541000Y-139039750D01*
X239382250Y-138881000D01*
X238183000Y-138881000D01*
X237929000Y-138881000D01*
X237909000Y-138881000D01*
X237909000Y-138627000D01*
X237929000Y-138627000D01*
X237929000Y-137302750D01*
X238183000Y-137302750D01*
X238183000Y-138627000D01*
X239382250Y-138627000D01*
X239541000Y-138468250D01*
X239544072Y-137779000D01*
X239531812Y-137654518D01*
X239495502Y-137534820D01*
X239436537Y-137424506D01*
X239357185Y-137327815D01*
X239260494Y-137248463D01*
X239150180Y-137189498D01*
X239030482Y-137153188D01*
X238906000Y-137140928D01*
X238341750Y-137144000D01*
X238183000Y-137302750D01*
X237929000Y-137302750D01*
X237770250Y-137144000D01*
X237206000Y-137140928D01*
X237081518Y-137153188D01*
X236961820Y-137189498D01*
X236851506Y-137248463D01*
X236754815Y-137327815D01*
X236675463Y-137424506D01*
X236616498Y-137534820D01*
X236605945Y-137569608D01*
X236385014Y-137388294D01*
X236127034Y-137250401D01*
X235847111Y-137165487D01*
X235556000Y-137136815D01*
X235264890Y-137165487D01*
X234984967Y-137250401D01*
X234726987Y-137388294D01*
X234500866Y-137573866D01*
X234315294Y-137799986D01*
X234306000Y-137817374D01*
X234296706Y-137799986D01*
X234111134Y-137573866D01*
X233885014Y-137388294D01*
X233627034Y-137250401D01*
X233347111Y-137165487D01*
X233056000Y-137136815D01*
X232764890Y-137165487D01*
X232541925Y-137233123D01*
X231196801Y-135888000D01*
X238191199Y-135888000D01*
X241498205Y-139195008D01*
X241521999Y-139224001D01*
X241550992Y-139247795D01*
X241550996Y-139247799D01*
X241607293Y-139294000D01*
X241637724Y-139318974D01*
X241769753Y-139389546D01*
X241913014Y-139433003D01*
X242024667Y-139444000D01*
X242024676Y-139444000D01*
X242061999Y-139447676D01*
X242099322Y-139444000D01*
X243083592Y-139444000D01*
X243187294Y-139638013D01*
X243372866Y-139864134D01*
X243598986Y-140049706D01*
X243856966Y-140187599D01*
X244136889Y-140272513D01*
X244428000Y-140301185D01*
X244719110Y-140272513D01*
X244999033Y-140187599D01*
X245257013Y-140049706D01*
X245483134Y-139864134D01*
X245668706Y-139638014D01*
X245678000Y-139620626D01*
X245687294Y-139638013D01*
X245872866Y-139864134D01*
X246098986Y-140049706D01*
X246356966Y-140187599D01*
X246636889Y-140272513D01*
X246928000Y-140301185D01*
X247219110Y-140272513D01*
X247343011Y-140234928D01*
X247343011Y-140456187D01*
X246319199Y-141480000D01*
X185734803Y-141480000D01*
X181608000Y-137353199D01*
X181608000Y-137216801D01*
X183586201Y-139195003D01*
X183609999Y-139224001D01*
X183638997Y-139247799D01*
X183725723Y-139318974D01*
X183856681Y-139388973D01*
X183857753Y-139389546D01*
X184001014Y-139433003D01*
X184112667Y-139444000D01*
X184112677Y-139444000D01*
X184150000Y-139447676D01*
X184187323Y-139444000D01*
X185679592Y-139444000D01*
X185783294Y-139638013D01*
X185968866Y-139864134D01*
X186194986Y-140049706D01*
X186452966Y-140187599D01*
X186732889Y-140272513D01*
X187024000Y-140301185D01*
X187315110Y-140272513D01*
X187595033Y-140187599D01*
X187853013Y-140049706D01*
X188079134Y-139864134D01*
X188264706Y-139638014D01*
X188274000Y-139620626D01*
X188283294Y-139638013D01*
X188468866Y-139864134D01*
X188694986Y-140049706D01*
X188952966Y-140187599D01*
X189232889Y-140272513D01*
X189524000Y-140301185D01*
X189815110Y-140272513D01*
X190095033Y-140187599D01*
X190353013Y-140049706D01*
X190573945Y-139868392D01*
X190584498Y-139903180D01*
X190643463Y-140013494D01*
X190722815Y-140110185D01*
X190819506Y-140189537D01*
X190929820Y-140248502D01*
X191049518Y-140284812D01*
X191174000Y-140297072D01*
X191738250Y-140294000D01*
X191897000Y-140135250D01*
X191897000Y-138811000D01*
X192151000Y-138811000D01*
X192151000Y-140135250D01*
X192309750Y-140294000D01*
X192874000Y-140297072D01*
X192998482Y-140284812D01*
X193118180Y-140248502D01*
X193228494Y-140189537D01*
X193325185Y-140110185D01*
X193404537Y-140013494D01*
X193463502Y-139903180D01*
X193499812Y-139783482D01*
X193512072Y-139659000D01*
X193509000Y-138969750D01*
X193350250Y-138811000D01*
X192151000Y-138811000D01*
X191897000Y-138811000D01*
X191877000Y-138811000D01*
X191877000Y-138557000D01*
X191897000Y-138557000D01*
X191897000Y-137232750D01*
X192151000Y-137232750D01*
X192151000Y-138557000D01*
X193350250Y-138557000D01*
X193509000Y-138398250D01*
X193512072Y-137709000D01*
X193499812Y-137584518D01*
X193463502Y-137464820D01*
X193404537Y-137354506D01*
X193325185Y-137257815D01*
X193228494Y-137178463D01*
X193118180Y-137119498D01*
X192998482Y-137083188D01*
X192874000Y-137070928D01*
X192309750Y-137074000D01*
X192151000Y-137232750D01*
X191897000Y-137232750D01*
X191738250Y-137074000D01*
X191174000Y-137070928D01*
X191049518Y-137083188D01*
X190929820Y-137119498D01*
X190819506Y-137178463D01*
X190722815Y-137257815D01*
X190643463Y-137354506D01*
X190584498Y-137464820D01*
X190573945Y-137499608D01*
X190353014Y-137318294D01*
X190095034Y-137180401D01*
X189815111Y-137095487D01*
X189524000Y-137066815D01*
X189232890Y-137095487D01*
X188952967Y-137180401D01*
X188694987Y-137318294D01*
X188468866Y-137503866D01*
X188283294Y-137729986D01*
X188274000Y-137747374D01*
X188264706Y-137729986D01*
X188079134Y-137503866D01*
X187853014Y-137318294D01*
X187595034Y-137180401D01*
X187315111Y-137095487D01*
X187024000Y-137066815D01*
X186732890Y-137095487D01*
X186452967Y-137180401D01*
X186194987Y-137318294D01*
X185968866Y-137503866D01*
X185783294Y-137729986D01*
X185679591Y-137924000D01*
X184464802Y-137924000D01*
X182878000Y-136337199D01*
X182878000Y-95617333D01*
X182881677Y-95580000D01*
X182867003Y-95431014D01*
X182823546Y-95287753D01*
X182752974Y-95155724D01*
X182681799Y-95068997D01*
X182658001Y-95039999D01*
X182629003Y-95016201D01*
X180405209Y-92792408D01*
X180449000Y-92572260D01*
X180449000Y-92369801D01*
X183390000Y-95310802D01*
X183390001Y-132804667D01*
X183386324Y-132842000D01*
X183400998Y-132990985D01*
X183444454Y-133134246D01*
X183515026Y-133266276D01*
X183569996Y-133333256D01*
X183610000Y-133382001D01*
X183638998Y-133405799D01*
X186380200Y-136147002D01*
X186403999Y-136176001D01*
X186519724Y-136270974D01*
X186651753Y-136341546D01*
X186795014Y-136385003D01*
X186906667Y-136396000D01*
X186906675Y-136396000D01*
X186944000Y-136399676D01*
X186981325Y-136396000D01*
X195333199Y-136396000D01*
X197300030Y-138362832D01*
X197281000Y-138556050D01*
X197281000Y-138951949D01*
X197302487Y-139170110D01*
X197387401Y-139450033D01*
X197525294Y-139708013D01*
X197710866Y-139934134D01*
X197936986Y-140119706D01*
X198194966Y-140257599D01*
X198474889Y-140342513D01*
X198766000Y-140371185D01*
X199057110Y-140342513D01*
X199337033Y-140257599D01*
X199595013Y-140119706D01*
X199821134Y-139934134D01*
X200006706Y-139708014D01*
X200016000Y-139690626D01*
X200025294Y-139708013D01*
X200210866Y-139934134D01*
X200436986Y-140119706D01*
X200694966Y-140257599D01*
X200974889Y-140342513D01*
X201266000Y-140371185D01*
X201557110Y-140342513D01*
X201837033Y-140257599D01*
X202095013Y-140119706D01*
X202315945Y-139938392D01*
X202326498Y-139973180D01*
X202385463Y-140083494D01*
X202464815Y-140180185D01*
X202561506Y-140259537D01*
X202671820Y-140318502D01*
X202791518Y-140354812D01*
X202916000Y-140367072D01*
X203480250Y-140364000D01*
X203639000Y-140205250D01*
X203639000Y-138881000D01*
X203893000Y-138881000D01*
X203893000Y-140205250D01*
X204051750Y-140364000D01*
X204616000Y-140367072D01*
X204740482Y-140354812D01*
X204860180Y-140318502D01*
X204970494Y-140259537D01*
X205067185Y-140180185D01*
X205146537Y-140083494D01*
X205205502Y-139973180D01*
X205241812Y-139853482D01*
X205254072Y-139729000D01*
X205251000Y-139039750D01*
X205092250Y-138881000D01*
X203893000Y-138881000D01*
X203639000Y-138881000D01*
X203619000Y-138881000D01*
X203619000Y-138627000D01*
X203639000Y-138627000D01*
X203639000Y-137302750D01*
X203893000Y-137302750D01*
X203893000Y-138627000D01*
X205092250Y-138627000D01*
X205251000Y-138468250D01*
X205254072Y-137779000D01*
X205241812Y-137654518D01*
X205205502Y-137534820D01*
X205146537Y-137424506D01*
X205067185Y-137327815D01*
X204970494Y-137248463D01*
X204860180Y-137189498D01*
X204740482Y-137153188D01*
X204616000Y-137140928D01*
X204051750Y-137144000D01*
X203893000Y-137302750D01*
X203639000Y-137302750D01*
X203480250Y-137144000D01*
X202916000Y-137140928D01*
X202791518Y-137153188D01*
X202671820Y-137189498D01*
X202561506Y-137248463D01*
X202464815Y-137327815D01*
X202385463Y-137424506D01*
X202326498Y-137534820D01*
X202315945Y-137569608D01*
X202095014Y-137388294D01*
X201837034Y-137250401D01*
X201557111Y-137165487D01*
X201266000Y-137136815D01*
X200974890Y-137165487D01*
X200694967Y-137250401D01*
X200436987Y-137388294D01*
X200210866Y-137573866D01*
X200025294Y-137799986D01*
X200016000Y-137817374D01*
X200006706Y-137799986D01*
X199821134Y-137573866D01*
X199595014Y-137388294D01*
X199337034Y-137250401D01*
X199057111Y-137165487D01*
X198766000Y-137136815D01*
X198474890Y-137165487D01*
X198304098Y-137217296D01*
X196211804Y-135125003D01*
X196188001Y-135095999D01*
X196072276Y-135001026D01*
X195940247Y-134930454D01*
X195796986Y-134886997D01*
X195685333Y-134876000D01*
X195685322Y-134876000D01*
X195648000Y-134872324D01*
X195610678Y-134876000D01*
X187258802Y-134876000D01*
X184910000Y-132527199D01*
X184910000Y-95033323D01*
X184913676Y-94996000D01*
X184910000Y-94958677D01*
X184910000Y-94958667D01*
X184899003Y-94847014D01*
X184855546Y-94703753D01*
X184828952Y-94654000D01*
X184784974Y-94571723D01*
X184713799Y-94484997D01*
X184690001Y-94455999D01*
X184661004Y-94432202D01*
X180874801Y-90646000D01*
X181398368Y-90646000D01*
X181461014Y-90665003D01*
X181572667Y-90676000D01*
X181572677Y-90676000D01*
X181609999Y-90679676D01*
X181647322Y-90676000D01*
X183581199Y-90676000D01*
X185168000Y-92262802D01*
X185168001Y-95610576D01*
X185168000Y-95610586D01*
X185168000Y-95795332D01*
X185168001Y-95795342D01*
X185168000Y-130772678D01*
X185164324Y-130810000D01*
X185168000Y-130847322D01*
X185168000Y-130847332D01*
X185178997Y-130958985D01*
X185211361Y-131065677D01*
X185222454Y-131102246D01*
X185293026Y-131234276D01*
X185331099Y-131280667D01*
X185387999Y-131350001D01*
X185417003Y-131373804D01*
X188666200Y-134623002D01*
X188689999Y-134652001D01*
X188805724Y-134746974D01*
X188937753Y-134817546D01*
X189081014Y-134861003D01*
X189192667Y-134872000D01*
X189192676Y-134872000D01*
X189229999Y-134875676D01*
X189267322Y-134872000D01*
X207711199Y-134872000D01*
X209378001Y-136538803D01*
X209378001Y-137351406D01*
X209308987Y-137388294D01*
X209082866Y-137573866D01*
X208897294Y-137799986D01*
X208759401Y-138057966D01*
X208674487Y-138337889D01*
X208653000Y-138556050D01*
X208653000Y-138951949D01*
X208674487Y-139170110D01*
X208759401Y-139450033D01*
X208897294Y-139708013D01*
X209082866Y-139934134D01*
X209308986Y-140119706D01*
X209566966Y-140257599D01*
X209846889Y-140342513D01*
X210138000Y-140371185D01*
X210429110Y-140342513D01*
X210709033Y-140257599D01*
X210967013Y-140119706D01*
X211193134Y-139934134D01*
X211378706Y-139708014D01*
X211388000Y-139690626D01*
X211397294Y-139708013D01*
X211582866Y-139934134D01*
X211808986Y-140119706D01*
X212066966Y-140257599D01*
X212346889Y-140342513D01*
X212638000Y-140371185D01*
X212929110Y-140342513D01*
X213209033Y-140257599D01*
X213467013Y-140119706D01*
X213687945Y-139938392D01*
X213698498Y-139973180D01*
X213757463Y-140083494D01*
X213836815Y-140180185D01*
X213933506Y-140259537D01*
X214043820Y-140318502D01*
X214163518Y-140354812D01*
X214288000Y-140367072D01*
X214852250Y-140364000D01*
X215011000Y-140205250D01*
X215011000Y-138881000D01*
X215265000Y-138881000D01*
X215265000Y-140205250D01*
X215423750Y-140364000D01*
X215988000Y-140367072D01*
X216112482Y-140354812D01*
X216232180Y-140318502D01*
X216342494Y-140259537D01*
X216439185Y-140180185D01*
X216518537Y-140083494D01*
X216577502Y-139973180D01*
X216613812Y-139853482D01*
X216626072Y-139729000D01*
X216623000Y-139039750D01*
X216464250Y-138881000D01*
X215265000Y-138881000D01*
X215011000Y-138881000D01*
X214991000Y-138881000D01*
X214991000Y-138627000D01*
X215011000Y-138627000D01*
X215011000Y-137302750D01*
X215265000Y-137302750D01*
X215265000Y-138627000D01*
X216464250Y-138627000D01*
X216623000Y-138468250D01*
X216626072Y-137779000D01*
X216613812Y-137654518D01*
X216577502Y-137534820D01*
X216518537Y-137424506D01*
X216439185Y-137327815D01*
X216342494Y-137248463D01*
X216232180Y-137189498D01*
X216112482Y-137153188D01*
X215988000Y-137140928D01*
X215423750Y-137144000D01*
X215265000Y-137302750D01*
X215011000Y-137302750D01*
X214852250Y-137144000D01*
X214288000Y-137140928D01*
X214163518Y-137153188D01*
X214043820Y-137189498D01*
X213933506Y-137248463D01*
X213836815Y-137327815D01*
X213757463Y-137424506D01*
X213698498Y-137534820D01*
X213687945Y-137569608D01*
X213467014Y-137388294D01*
X213209034Y-137250401D01*
X212929111Y-137165487D01*
X212638000Y-137136815D01*
X212346890Y-137165487D01*
X212066967Y-137250401D01*
X211808987Y-137388294D01*
X211582866Y-137573866D01*
X211397294Y-137799986D01*
X211388000Y-137817374D01*
X211378706Y-137799986D01*
X211193134Y-137573866D01*
X210967014Y-137388294D01*
X210898000Y-137351405D01*
X210898000Y-136261322D01*
X210901676Y-136223999D01*
X210898000Y-136186676D01*
X210898000Y-136186667D01*
X210887003Y-136075014D01*
X210843546Y-135931753D01*
X210821228Y-135889999D01*
X210772974Y-135799723D01*
X210701799Y-135712997D01*
X210678001Y-135683999D01*
X210649003Y-135660201D01*
X208589804Y-133601003D01*
X208566001Y-133571999D01*
X208450276Y-133477026D01*
X208318247Y-133406454D01*
X208174986Y-133362997D01*
X208063333Y-133352000D01*
X208063322Y-133352000D01*
X208026000Y-133348324D01*
X207988678Y-133352000D01*
X189544802Y-133352000D01*
X186688000Y-130495199D01*
X186688000Y-91985323D01*
X186691676Y-91948000D01*
X186688000Y-91910677D01*
X186688000Y-91910667D01*
X186677003Y-91799014D01*
X186633546Y-91655753D01*
X186586092Y-91566974D01*
X186562974Y-91523723D01*
X186491799Y-91436997D01*
X186468001Y-91407999D01*
X186439004Y-91384202D01*
X184459804Y-89405003D01*
X184436001Y-89375999D01*
X184320276Y-89281026D01*
X184188247Y-89210454D01*
X184044986Y-89166997D01*
X183933333Y-89156000D01*
X183933322Y-89156000D01*
X183896000Y-89152324D01*
X183858678Y-89156000D01*
X181791632Y-89156000D01*
X181728986Y-89136997D01*
X181617333Y-89126000D01*
X181617322Y-89126000D01*
X181580000Y-89122324D01*
X181542678Y-89126000D01*
X180242178Y-89126000D01*
X180117475Y-88939368D01*
X179910632Y-88732525D01*
X179736240Y-88616000D01*
X179910632Y-88499475D01*
X180117475Y-88292632D01*
X180242178Y-88106000D01*
X185837199Y-88106000D01*
X187454001Y-89722803D01*
%TA.AperFunction,Conductor*%
D18*
G36*
X187454001Y-89722803D02*
G01*
X187454000Y-127470678D01*
X187450324Y-127508000D01*
X187454000Y-127545322D01*
X187454000Y-127545332D01*
X187464997Y-127656985D01*
X187500418Y-127773754D01*
X187508454Y-127800246D01*
X187579026Y-127932276D01*
X187594405Y-127951015D01*
X187673999Y-128048001D01*
X187703003Y-128071804D01*
X190952200Y-131321002D01*
X190975999Y-131350001D01*
X191091724Y-131444974D01*
X191223753Y-131515546D01*
X191367014Y-131559003D01*
X191478667Y-131570000D01*
X191478676Y-131570000D01*
X191515999Y-131573676D01*
X191553322Y-131570000D01*
X217871199Y-131570000D01*
X221062001Y-134760803D01*
X221062000Y-137281406D01*
X220992987Y-137318294D01*
X220766866Y-137503866D01*
X220581294Y-137729986D01*
X220443401Y-137987966D01*
X220358487Y-138267889D01*
X220337000Y-138486050D01*
X220337000Y-138881949D01*
X220358487Y-139100110D01*
X220443401Y-139380033D01*
X220581294Y-139638013D01*
X220766866Y-139864134D01*
X220992986Y-140049706D01*
X221250966Y-140187599D01*
X221530889Y-140272513D01*
X221822000Y-140301185D01*
X222113110Y-140272513D01*
X222393033Y-140187599D01*
X222651013Y-140049706D01*
X222877134Y-139864134D01*
X223062706Y-139638014D01*
X223072000Y-139620626D01*
X223081294Y-139638013D01*
X223266866Y-139864134D01*
X223492986Y-140049706D01*
X223750966Y-140187599D01*
X224030889Y-140272513D01*
X224322000Y-140301185D01*
X224613110Y-140272513D01*
X224893033Y-140187599D01*
X225151013Y-140049706D01*
X225371945Y-139868392D01*
X225382498Y-139903180D01*
X225441463Y-140013494D01*
X225520815Y-140110185D01*
X225617506Y-140189537D01*
X225727820Y-140248502D01*
X225847518Y-140284812D01*
X225972000Y-140297072D01*
X226536250Y-140294000D01*
X226695000Y-140135250D01*
X226695000Y-138811000D01*
X226949000Y-138811000D01*
X226949000Y-140135250D01*
X227107750Y-140294000D01*
X227672000Y-140297072D01*
X227796482Y-140284812D01*
X227916180Y-140248502D01*
X228026494Y-140189537D01*
X228123185Y-140110185D01*
X228202537Y-140013494D01*
X228261502Y-139903180D01*
X228297812Y-139783482D01*
X228310072Y-139659000D01*
X228307000Y-138969750D01*
X228148250Y-138811000D01*
X226949000Y-138811000D01*
X226695000Y-138811000D01*
X226675000Y-138811000D01*
X226675000Y-138557000D01*
X226695000Y-138557000D01*
X226695000Y-137232750D01*
X226949000Y-137232750D01*
X226949000Y-138557000D01*
X228148250Y-138557000D01*
X228307000Y-138398250D01*
X228310072Y-137709000D01*
X228297812Y-137584518D01*
X228261502Y-137464820D01*
X228202537Y-137354506D01*
X228123185Y-137257815D01*
X228026494Y-137178463D01*
X227916180Y-137119498D01*
X227796482Y-137083188D01*
X227672000Y-137070928D01*
X227107750Y-137074000D01*
X226949000Y-137232750D01*
X226695000Y-137232750D01*
X226536250Y-137074000D01*
X225972000Y-137070928D01*
X225847518Y-137083188D01*
X225727820Y-137119498D01*
X225617506Y-137178463D01*
X225520815Y-137257815D01*
X225441463Y-137354506D01*
X225382498Y-137464820D01*
X225371945Y-137499608D01*
X225151014Y-137318294D01*
X224893034Y-137180401D01*
X224613111Y-137095487D01*
X224322000Y-137066815D01*
X224030890Y-137095487D01*
X223750967Y-137180401D01*
X223492987Y-137318294D01*
X223266866Y-137503866D01*
X223081294Y-137729986D01*
X223072000Y-137747374D01*
X223062706Y-137729986D01*
X222877134Y-137503866D01*
X222651014Y-137318294D01*
X222582000Y-137281405D01*
X222582000Y-134502802D01*
X224286564Y-136207366D01*
X224294997Y-136292986D01*
X224338454Y-136436247D01*
X224409026Y-136568276D01*
X224503999Y-136684001D01*
X224619724Y-136778974D01*
X224751753Y-136849546D01*
X224895014Y-136893003D01*
X225006667Y-136904000D01*
X225044000Y-136907677D01*
X225081333Y-136904000D01*
X230063199Y-136904000D01*
X231583933Y-138424736D01*
X231571000Y-138556050D01*
X231571000Y-138951949D01*
X231592487Y-139170110D01*
X231677401Y-139450033D01*
X231815294Y-139708013D01*
X232000866Y-139934134D01*
X232226986Y-140119706D01*
X232484966Y-140257599D01*
X232764889Y-140342513D01*
X233056000Y-140371185D01*
X233347110Y-140342513D01*
X233627033Y-140257599D01*
X233885013Y-140119706D01*
X234111134Y-139934134D01*
X234296706Y-139708014D01*
X234306000Y-139690626D01*
X234315294Y-139708013D01*
X234500866Y-139934134D01*
X234726986Y-140119706D01*
X234984966Y-140257599D01*
X235264889Y-140342513D01*
X235556000Y-140371185D01*
X235847110Y-140342513D01*
X236127033Y-140257599D01*
X236385013Y-140119706D01*
X236605945Y-139938392D01*
X236616498Y-139973180D01*
X236675463Y-140083494D01*
X236754815Y-140180185D01*
X236851506Y-140259537D01*
X236961820Y-140318502D01*
X237081518Y-140354812D01*
X237206000Y-140367072D01*
X237770250Y-140364000D01*
X237929000Y-140205250D01*
X237929000Y-138881000D01*
X238183000Y-138881000D01*
X238183000Y-140205250D01*
X238341750Y-140364000D01*
X238906000Y-140367072D01*
X239030482Y-140354812D01*
X239150180Y-140318502D01*
X239260494Y-140259537D01*
X239357185Y-140180185D01*
X239436537Y-140083494D01*
X239495502Y-139973180D01*
X239531812Y-139853482D01*
X239544072Y-139729000D01*
X239541000Y-139039750D01*
X239382250Y-138881000D01*
X238183000Y-138881000D01*
X237929000Y-138881000D01*
X237909000Y-138881000D01*
X237909000Y-138627000D01*
X237929000Y-138627000D01*
X237929000Y-137302750D01*
X238183000Y-137302750D01*
X238183000Y-138627000D01*
X239382250Y-138627000D01*
X239541000Y-138468250D01*
X239544072Y-137779000D01*
X239531812Y-137654518D01*
X239495502Y-137534820D01*
X239436537Y-137424506D01*
X239357185Y-137327815D01*
X239260494Y-137248463D01*
X239150180Y-137189498D01*
X239030482Y-137153188D01*
X238906000Y-137140928D01*
X238341750Y-137144000D01*
X238183000Y-137302750D01*
X237929000Y-137302750D01*
X237770250Y-137144000D01*
X237206000Y-137140928D01*
X237081518Y-137153188D01*
X236961820Y-137189498D01*
X236851506Y-137248463D01*
X236754815Y-137327815D01*
X236675463Y-137424506D01*
X236616498Y-137534820D01*
X236605945Y-137569608D01*
X236385014Y-137388294D01*
X236127034Y-137250401D01*
X235847111Y-137165487D01*
X235556000Y-137136815D01*
X235264890Y-137165487D01*
X234984967Y-137250401D01*
X234726987Y-137388294D01*
X234500866Y-137573866D01*
X234315294Y-137799986D01*
X234306000Y-137817374D01*
X234296706Y-137799986D01*
X234111134Y-137573866D01*
X233885014Y-137388294D01*
X233627034Y-137250401D01*
X233347111Y-137165487D01*
X233056000Y-137136815D01*
X232764890Y-137165487D01*
X232541925Y-137233123D01*
X231196801Y-135888000D01*
X238191199Y-135888000D01*
X241498205Y-139195008D01*
X241521999Y-139224001D01*
X241550992Y-139247795D01*
X241550996Y-139247799D01*
X241607293Y-139294000D01*
X241637724Y-139318974D01*
X241769753Y-139389546D01*
X241913014Y-139433003D01*
X242024667Y-139444000D01*
X242024676Y-139444000D01*
X242061999Y-139447676D01*
X242099322Y-139444000D01*
X243083592Y-139444000D01*
X243187294Y-139638013D01*
X243372866Y-139864134D01*
X243598986Y-140049706D01*
X243856966Y-140187599D01*
X244136889Y-140272513D01*
X244428000Y-140301185D01*
X244719110Y-140272513D01*
X244999033Y-140187599D01*
X245257013Y-140049706D01*
X245483134Y-139864134D01*
X245668706Y-139638014D01*
X245678000Y-139620626D01*
X245687294Y-139638013D01*
X245872866Y-139864134D01*
X246098986Y-140049706D01*
X246356966Y-140187599D01*
X246636889Y-140272513D01*
X246928000Y-140301185D01*
X247219110Y-140272513D01*
X247343011Y-140234928D01*
X247343011Y-140456187D01*
X246319199Y-141480000D01*
X185734803Y-141480000D01*
X181608000Y-137353199D01*
X181608000Y-137216801D01*
X183586201Y-139195003D01*
X183609999Y-139224001D01*
X183638997Y-139247799D01*
X183725723Y-139318974D01*
X183856681Y-139388973D01*
X183857753Y-139389546D01*
X184001014Y-139433003D01*
X184112667Y-139444000D01*
X184112677Y-139444000D01*
X184150000Y-139447676D01*
X184187323Y-139444000D01*
X185679592Y-139444000D01*
X185783294Y-139638013D01*
X185968866Y-139864134D01*
X186194986Y-140049706D01*
X186452966Y-140187599D01*
X186732889Y-140272513D01*
X187024000Y-140301185D01*
X187315110Y-140272513D01*
X187595033Y-140187599D01*
X187853013Y-140049706D01*
X188079134Y-139864134D01*
X188264706Y-139638014D01*
X188274000Y-139620626D01*
X188283294Y-139638013D01*
X188468866Y-139864134D01*
X188694986Y-140049706D01*
X188952966Y-140187599D01*
X189232889Y-140272513D01*
X189524000Y-140301185D01*
X189815110Y-140272513D01*
X190095033Y-140187599D01*
X190353013Y-140049706D01*
X190573945Y-139868392D01*
X190584498Y-139903180D01*
X190643463Y-140013494D01*
X190722815Y-140110185D01*
X190819506Y-140189537D01*
X190929820Y-140248502D01*
X191049518Y-140284812D01*
X191174000Y-140297072D01*
X191738250Y-140294000D01*
X191897000Y-140135250D01*
X191897000Y-138811000D01*
X192151000Y-138811000D01*
X192151000Y-140135250D01*
X192309750Y-140294000D01*
X192874000Y-140297072D01*
X192998482Y-140284812D01*
X193118180Y-140248502D01*
X193228494Y-140189537D01*
X193325185Y-140110185D01*
X193404537Y-140013494D01*
X193463502Y-139903180D01*
X193499812Y-139783482D01*
X193512072Y-139659000D01*
X193509000Y-138969750D01*
X193350250Y-138811000D01*
X192151000Y-138811000D01*
X191897000Y-138811000D01*
X191877000Y-138811000D01*
X191877000Y-138557000D01*
X191897000Y-138557000D01*
X191897000Y-137232750D01*
X192151000Y-137232750D01*
X192151000Y-138557000D01*
X193350250Y-138557000D01*
X193509000Y-138398250D01*
X193512072Y-137709000D01*
X193499812Y-137584518D01*
X193463502Y-137464820D01*
X193404537Y-137354506D01*
X193325185Y-137257815D01*
X193228494Y-137178463D01*
X193118180Y-137119498D01*
X192998482Y-137083188D01*
X192874000Y-137070928D01*
X192309750Y-137074000D01*
X192151000Y-137232750D01*
X191897000Y-137232750D01*
X191738250Y-137074000D01*
X191174000Y-137070928D01*
X191049518Y-137083188D01*
X190929820Y-137119498D01*
X190819506Y-137178463D01*
X190722815Y-137257815D01*
X190643463Y-137354506D01*
X190584498Y-137464820D01*
X190573945Y-137499608D01*
X190353014Y-137318294D01*
X190095034Y-137180401D01*
X189815111Y-137095487D01*
X189524000Y-137066815D01*
X189232890Y-137095487D01*
X188952967Y-137180401D01*
X188694987Y-137318294D01*
X188468866Y-137503866D01*
X188283294Y-137729986D01*
X188274000Y-137747374D01*
X188264706Y-137729986D01*
X188079134Y-137503866D01*
X187853014Y-137318294D01*
X187595034Y-137180401D01*
X187315111Y-137095487D01*
X187024000Y-137066815D01*
X186732890Y-137095487D01*
X186452967Y-137180401D01*
X186194987Y-137318294D01*
X185968866Y-137503866D01*
X185783294Y-137729986D01*
X185679591Y-137924000D01*
X184464802Y-137924000D01*
X182878000Y-136337199D01*
X182878000Y-95617333D01*
X182881677Y-95580000D01*
X182867003Y-95431014D01*
X182823546Y-95287753D01*
X182752974Y-95155724D01*
X182681799Y-95068997D01*
X182658001Y-95039999D01*
X182629003Y-95016201D01*
X180405209Y-92792408D01*
X180449000Y-92572260D01*
X180449000Y-92369801D01*
X183390000Y-95310802D01*
X183390001Y-132804667D01*
X183386324Y-132842000D01*
X183400998Y-132990985D01*
X183444454Y-133134246D01*
X183515026Y-133266276D01*
X183569996Y-133333256D01*
X183610000Y-133382001D01*
X183638998Y-133405799D01*
X186380200Y-136147002D01*
X186403999Y-136176001D01*
X186519724Y-136270974D01*
X186651753Y-136341546D01*
X186795014Y-136385003D01*
X186906667Y-136396000D01*
X186906675Y-136396000D01*
X186944000Y-136399676D01*
X186981325Y-136396000D01*
X195333199Y-136396000D01*
X197300030Y-138362832D01*
X197281000Y-138556050D01*
X197281000Y-138951949D01*
X197302487Y-139170110D01*
X197387401Y-139450033D01*
X197525294Y-139708013D01*
X197710866Y-139934134D01*
X197936986Y-140119706D01*
X198194966Y-140257599D01*
X198474889Y-140342513D01*
X198766000Y-140371185D01*
X199057110Y-140342513D01*
X199337033Y-140257599D01*
X199595013Y-140119706D01*
X199821134Y-139934134D01*
X200006706Y-139708014D01*
X200016000Y-139690626D01*
X200025294Y-139708013D01*
X200210866Y-139934134D01*
X200436986Y-140119706D01*
X200694966Y-140257599D01*
X200974889Y-140342513D01*
X201266000Y-140371185D01*
X201557110Y-140342513D01*
X201837033Y-140257599D01*
X202095013Y-140119706D01*
X202315945Y-139938392D01*
X202326498Y-139973180D01*
X202385463Y-140083494D01*
X202464815Y-140180185D01*
X202561506Y-140259537D01*
X202671820Y-140318502D01*
X202791518Y-140354812D01*
X202916000Y-140367072D01*
X203480250Y-140364000D01*
X203639000Y-140205250D01*
X203639000Y-138881000D01*
X203893000Y-138881000D01*
X203893000Y-140205250D01*
X204051750Y-140364000D01*
X204616000Y-140367072D01*
X204740482Y-140354812D01*
X204860180Y-140318502D01*
X204970494Y-140259537D01*
X205067185Y-140180185D01*
X205146537Y-140083494D01*
X205205502Y-139973180D01*
X205241812Y-139853482D01*
X205254072Y-139729000D01*
X205251000Y-139039750D01*
X205092250Y-138881000D01*
X203893000Y-138881000D01*
X203639000Y-138881000D01*
X203619000Y-138881000D01*
X203619000Y-138627000D01*
X203639000Y-138627000D01*
X203639000Y-137302750D01*
X203893000Y-137302750D01*
X203893000Y-138627000D01*
X205092250Y-138627000D01*
X205251000Y-138468250D01*
X205254072Y-137779000D01*
X205241812Y-137654518D01*
X205205502Y-137534820D01*
X205146537Y-137424506D01*
X205067185Y-137327815D01*
X204970494Y-137248463D01*
X204860180Y-137189498D01*
X204740482Y-137153188D01*
X204616000Y-137140928D01*
X204051750Y-137144000D01*
X203893000Y-137302750D01*
X203639000Y-137302750D01*
X203480250Y-137144000D01*
X202916000Y-137140928D01*
X202791518Y-137153188D01*
X202671820Y-137189498D01*
X202561506Y-137248463D01*
X202464815Y-137327815D01*
X202385463Y-137424506D01*
X202326498Y-137534820D01*
X202315945Y-137569608D01*
X202095014Y-137388294D01*
X201837034Y-137250401D01*
X201557111Y-137165487D01*
X201266000Y-137136815D01*
X200974890Y-137165487D01*
X200694967Y-137250401D01*
X200436987Y-137388294D01*
X200210866Y-137573866D01*
X200025294Y-137799986D01*
X200016000Y-137817374D01*
X200006706Y-137799986D01*
X199821134Y-137573866D01*
X199595014Y-137388294D01*
X199337034Y-137250401D01*
X199057111Y-137165487D01*
X198766000Y-137136815D01*
X198474890Y-137165487D01*
X198304098Y-137217296D01*
X196211804Y-135125003D01*
X196188001Y-135095999D01*
X196072276Y-135001026D01*
X195940247Y-134930454D01*
X195796986Y-134886997D01*
X195685333Y-134876000D01*
X195685322Y-134876000D01*
X195648000Y-134872324D01*
X195610678Y-134876000D01*
X187258802Y-134876000D01*
X184910000Y-132527199D01*
X184910000Y-95033323D01*
X184913676Y-94996000D01*
X184910000Y-94958677D01*
X184910000Y-94958667D01*
X184899003Y-94847014D01*
X184855546Y-94703753D01*
X184828952Y-94654000D01*
X184784974Y-94571723D01*
X184713799Y-94484997D01*
X184690001Y-94455999D01*
X184661004Y-94432202D01*
X180874801Y-90646000D01*
X181398368Y-90646000D01*
X181461014Y-90665003D01*
X181572667Y-90676000D01*
X181572677Y-90676000D01*
X181609999Y-90679676D01*
X181647322Y-90676000D01*
X183581199Y-90676000D01*
X185168000Y-92262802D01*
X185168001Y-95610576D01*
X185168000Y-95610586D01*
X185168000Y-95795332D01*
X185168001Y-95795342D01*
X185168000Y-130772678D01*
X185164324Y-130810000D01*
X185168000Y-130847322D01*
X185168000Y-130847332D01*
X185178997Y-130958985D01*
X185211361Y-131065677D01*
X185222454Y-131102246D01*
X185293026Y-131234276D01*
X185331099Y-131280667D01*
X185387999Y-131350001D01*
X185417003Y-131373804D01*
X188666200Y-134623002D01*
X188689999Y-134652001D01*
X188805724Y-134746974D01*
X188937753Y-134817546D01*
X189081014Y-134861003D01*
X189192667Y-134872000D01*
X189192676Y-134872000D01*
X189229999Y-134875676D01*
X189267322Y-134872000D01*
X207711199Y-134872000D01*
X209378001Y-136538803D01*
X209378001Y-137351406D01*
X209308987Y-137388294D01*
X209082866Y-137573866D01*
X208897294Y-137799986D01*
X208759401Y-138057966D01*
X208674487Y-138337889D01*
X208653000Y-138556050D01*
X208653000Y-138951949D01*
X208674487Y-139170110D01*
X208759401Y-139450033D01*
X208897294Y-139708013D01*
X209082866Y-139934134D01*
X209308986Y-140119706D01*
X209566966Y-140257599D01*
X209846889Y-140342513D01*
X210138000Y-140371185D01*
X210429110Y-140342513D01*
X210709033Y-140257599D01*
X210967013Y-140119706D01*
X211193134Y-139934134D01*
X211378706Y-139708014D01*
X211388000Y-139690626D01*
X211397294Y-139708013D01*
X211582866Y-139934134D01*
X211808986Y-140119706D01*
X212066966Y-140257599D01*
X212346889Y-140342513D01*
X212638000Y-140371185D01*
X212929110Y-140342513D01*
X213209033Y-140257599D01*
X213467013Y-140119706D01*
X213687945Y-139938392D01*
X213698498Y-139973180D01*
X213757463Y-140083494D01*
X213836815Y-140180185D01*
X213933506Y-140259537D01*
X214043820Y-140318502D01*
X214163518Y-140354812D01*
X214288000Y-140367072D01*
X214852250Y-140364000D01*
X215011000Y-140205250D01*
X215011000Y-138881000D01*
X215265000Y-138881000D01*
X215265000Y-140205250D01*
X215423750Y-140364000D01*
X215988000Y-140367072D01*
X216112482Y-140354812D01*
X216232180Y-140318502D01*
X216342494Y-140259537D01*
X216439185Y-140180185D01*
X216518537Y-140083494D01*
X216577502Y-139973180D01*
X216613812Y-139853482D01*
X216626072Y-139729000D01*
X216623000Y-139039750D01*
X216464250Y-138881000D01*
X215265000Y-138881000D01*
X215011000Y-138881000D01*
X214991000Y-138881000D01*
X214991000Y-138627000D01*
X215011000Y-138627000D01*
X215011000Y-137302750D01*
X215265000Y-137302750D01*
X215265000Y-138627000D01*
X216464250Y-138627000D01*
X216623000Y-138468250D01*
X216626072Y-137779000D01*
X216613812Y-137654518D01*
X216577502Y-137534820D01*
X216518537Y-137424506D01*
X216439185Y-137327815D01*
X216342494Y-137248463D01*
X216232180Y-137189498D01*
X216112482Y-137153188D01*
X215988000Y-137140928D01*
X215423750Y-137144000D01*
X215265000Y-137302750D01*
X215011000Y-137302750D01*
X214852250Y-137144000D01*
X214288000Y-137140928D01*
X214163518Y-137153188D01*
X214043820Y-137189498D01*
X213933506Y-137248463D01*
X213836815Y-137327815D01*
X213757463Y-137424506D01*
X213698498Y-137534820D01*
X213687945Y-137569608D01*
X213467014Y-137388294D01*
X213209034Y-137250401D01*
X212929111Y-137165487D01*
X212638000Y-137136815D01*
X212346890Y-137165487D01*
X212066967Y-137250401D01*
X211808987Y-137388294D01*
X211582866Y-137573866D01*
X211397294Y-137799986D01*
X211388000Y-137817374D01*
X211378706Y-137799986D01*
X211193134Y-137573866D01*
X210967014Y-137388294D01*
X210898000Y-137351405D01*
X210898000Y-136261322D01*
X210901676Y-136223999D01*
X210898000Y-136186676D01*
X210898000Y-136186667D01*
X210887003Y-136075014D01*
X210843546Y-135931753D01*
X210821228Y-135889999D01*
X210772974Y-135799723D01*
X210701799Y-135712997D01*
X210678001Y-135683999D01*
X210649003Y-135660201D01*
X208589804Y-133601003D01*
X208566001Y-133571999D01*
X208450276Y-133477026D01*
X208318247Y-133406454D01*
X208174986Y-133362997D01*
X208063333Y-133352000D01*
X208063322Y-133352000D01*
X208026000Y-133348324D01*
X207988678Y-133352000D01*
X189544802Y-133352000D01*
X186688000Y-130495199D01*
X186688000Y-91985323D01*
X186691676Y-91948000D01*
X186688000Y-91910677D01*
X186688000Y-91910667D01*
X186677003Y-91799014D01*
X186633546Y-91655753D01*
X186586092Y-91566974D01*
X186562974Y-91523723D01*
X186491799Y-91436997D01*
X186468001Y-91407999D01*
X186439004Y-91384202D01*
X184459804Y-89405003D01*
X184436001Y-89375999D01*
X184320276Y-89281026D01*
X184188247Y-89210454D01*
X184044986Y-89166997D01*
X183933333Y-89156000D01*
X183933322Y-89156000D01*
X183896000Y-89152324D01*
X183858678Y-89156000D01*
X181791632Y-89156000D01*
X181728986Y-89136997D01*
X181617333Y-89126000D01*
X181617322Y-89126000D01*
X181580000Y-89122324D01*
X181542678Y-89126000D01*
X180242178Y-89126000D01*
X180117475Y-88939368D01*
X179910632Y-88732525D01*
X179736240Y-88616000D01*
X179910632Y-88499475D01*
X180117475Y-88292632D01*
X180242178Y-88106000D01*
X185837199Y-88106000D01*
X187454001Y-89722803D01*
G37*
%TD.AperFunction*%
D17*
X179091000Y-132939000D02*
X179111000Y-132939000D01*
X179111000Y-133193000D01*
X179091000Y-133193000D01*
X179091000Y-134386814D01*
X179320891Y-134507481D01*
X179595252Y-134410157D01*
X179845355Y-134261178D01*
X180061588Y-134066269D01*
X180088000Y-134030859D01*
X180088000Y-137630678D01*
X180084324Y-137668000D01*
X180088000Y-137705322D01*
X180088000Y-137705332D01*
X180098997Y-137816985D01*
X180121533Y-137891276D01*
X180142454Y-137960246D01*
X180213026Y-138092276D01*
X180252871Y-138140826D01*
X180283378Y-138178000D01*
X179384802Y-138178000D01*
X178359001Y-137152200D01*
X178359001Y-134419470D01*
X178607109Y-134507481D01*
X178837000Y-134386814D01*
X178837000Y-133193000D01*
X178817000Y-133193000D01*
X178817000Y-132939000D01*
X178837000Y-132939000D01*
X178837000Y-132919000D01*
X179091000Y-132919000D01*
X179091000Y-132939000D01*
%TA.AperFunction,Conductor*%
D18*
G36*
X179091000Y-132939000D02*
G01*
X179111000Y-132939000D01*
X179111000Y-133193000D01*
X179091000Y-133193000D01*
X179091000Y-134386814D01*
X179320891Y-134507481D01*
X179595252Y-134410157D01*
X179845355Y-134261178D01*
X180061588Y-134066269D01*
X180088000Y-134030859D01*
X180088000Y-137630678D01*
X180084324Y-137668000D01*
X180088000Y-137705322D01*
X180088000Y-137705332D01*
X180098997Y-137816985D01*
X180121533Y-137891276D01*
X180142454Y-137960246D01*
X180213026Y-138092276D01*
X180252871Y-138140826D01*
X180283378Y-138178000D01*
X179384802Y-138178000D01*
X178359001Y-137152200D01*
X178359001Y-134419470D01*
X178607109Y-134507481D01*
X178837000Y-134386814D01*
X178837000Y-133193000D01*
X178817000Y-133193000D01*
X178817000Y-132939000D01*
X178837000Y-132939000D01*
X178837000Y-132919000D01*
X179091000Y-132919000D01*
X179091000Y-132939000D01*
G37*
%TD.AperFunction*%
D17*
X221561837Y-128781003D02*
X221607753Y-128805546D01*
X221751014Y-128849003D01*
X221862667Y-128860000D01*
X221862677Y-128860000D01*
X221900000Y-128863676D01*
X221937323Y-128860000D01*
X225928540Y-128860000D01*
X226030525Y-129012632D01*
X226237368Y-129219475D01*
X226411760Y-129336000D01*
X226237368Y-129452525D01*
X226030525Y-129659368D01*
X225868010Y-129902589D01*
X225756068Y-130172842D01*
X225699000Y-130459740D01*
X225699000Y-130752260D01*
X225756068Y-131039158D01*
X225868010Y-131309411D01*
X226030525Y-131552632D01*
X226237368Y-131759475D01*
X226419534Y-131881195D01*
X226302645Y-131950822D01*
X226086412Y-132145731D01*
X225912359Y-132379080D01*
X225787175Y-132641901D01*
X225742524Y-132789110D01*
X225863845Y-133019000D01*
X227057000Y-133019000D01*
X227057000Y-132999000D01*
X227311000Y-132999000D01*
X227311000Y-133019000D01*
X229597000Y-133019000D01*
X229597000Y-132999000D01*
X229851000Y-132999000D01*
X229851000Y-133019000D01*
X231044155Y-133019000D01*
X231165476Y-132789110D01*
X231120825Y-132641901D01*
X231072765Y-132541001D01*
X241546924Y-132541001D01*
X241659015Y-132575002D01*
X241802932Y-132589177D01*
X241765000Y-132779872D01*
X241765000Y-133220128D01*
X241850890Y-133651925D01*
X242019369Y-134058669D01*
X242263962Y-134424729D01*
X242575271Y-134736038D01*
X242941331Y-134980631D01*
X243348075Y-135149110D01*
X243779872Y-135235000D01*
X244220128Y-135235000D01*
X244651925Y-135149110D01*
X245058669Y-134980631D01*
X245424729Y-134736038D01*
X245736038Y-134424729D01*
X245980631Y-134058669D01*
X246149110Y-133651925D01*
X246235000Y-133220128D01*
X246235000Y-132779872D01*
X246149110Y-132348075D01*
X246017472Y-132030274D01*
X247343010Y-133355812D01*
X247343011Y-137133072D01*
X247219111Y-137095487D01*
X246928000Y-137066815D01*
X246636890Y-137095487D01*
X246356967Y-137180401D01*
X246098987Y-137318294D01*
X245872866Y-137503866D01*
X245687294Y-137729986D01*
X245678000Y-137747374D01*
X245668706Y-137729986D01*
X245483134Y-137503866D01*
X245257014Y-137318294D01*
X244999034Y-137180401D01*
X244719111Y-137095487D01*
X244428000Y-137066815D01*
X244136890Y-137095487D01*
X243856967Y-137180401D01*
X243598987Y-137318294D01*
X243372866Y-137503866D01*
X243187294Y-137729986D01*
X243083591Y-137924000D01*
X242376803Y-137924000D01*
X239069804Y-134617003D01*
X239046001Y-134587999D01*
X238930276Y-134493026D01*
X238798247Y-134422454D01*
X238654986Y-134378997D01*
X238543333Y-134368000D01*
X238543322Y-134368000D01*
X238506000Y-134364324D01*
X238468678Y-134368000D01*
X230560327Y-134368000D01*
X230605355Y-134341178D01*
X230821588Y-134146269D01*
X230995641Y-133912920D01*
X231120825Y-133650099D01*
X231165476Y-133502890D01*
X231044155Y-133273000D01*
X229851000Y-133273000D01*
X229851000Y-133293000D01*
X229597000Y-133293000D01*
X229597000Y-133273000D01*
X227311000Y-133273000D01*
X227311000Y-133293000D01*
X227057000Y-133293000D01*
X227057000Y-133273000D01*
X225863845Y-133273000D01*
X225742524Y-133502890D01*
X225787175Y-133650099D01*
X225912359Y-133912920D01*
X226086412Y-134146269D01*
X226302645Y-134341178D01*
X226347673Y-134368000D01*
X225866803Y-134368000D01*
X223772000Y-132273199D01*
X223772000Y-131355322D01*
X223775676Y-131317999D01*
X223772000Y-131280676D01*
X223772000Y-131280667D01*
X223761003Y-131169014D01*
X223717546Y-131025753D01*
X223646974Y-130893724D01*
X223552001Y-130777999D01*
X223522997Y-130754196D01*
X223321808Y-130553007D01*
X223321799Y-130552996D01*
X221535989Y-128767187D01*
X221561837Y-128781003D01*
%TA.AperFunction,Conductor*%
D18*
G36*
X221561837Y-128781003D02*
G01*
X221607753Y-128805546D01*
X221751014Y-128849003D01*
X221862667Y-128860000D01*
X221862677Y-128860000D01*
X221900000Y-128863676D01*
X221937323Y-128860000D01*
X225928540Y-128860000D01*
X226030525Y-129012632D01*
X226237368Y-129219475D01*
X226411760Y-129336000D01*
X226237368Y-129452525D01*
X226030525Y-129659368D01*
X225868010Y-129902589D01*
X225756068Y-130172842D01*
X225699000Y-130459740D01*
X225699000Y-130752260D01*
X225756068Y-131039158D01*
X225868010Y-131309411D01*
X226030525Y-131552632D01*
X226237368Y-131759475D01*
X226419534Y-131881195D01*
X226302645Y-131950822D01*
X226086412Y-132145731D01*
X225912359Y-132379080D01*
X225787175Y-132641901D01*
X225742524Y-132789110D01*
X225863845Y-133019000D01*
X227057000Y-133019000D01*
X227057000Y-132999000D01*
X227311000Y-132999000D01*
X227311000Y-133019000D01*
X229597000Y-133019000D01*
X229597000Y-132999000D01*
X229851000Y-132999000D01*
X229851000Y-133019000D01*
X231044155Y-133019000D01*
X231165476Y-132789110D01*
X231120825Y-132641901D01*
X231072765Y-132541001D01*
X241546924Y-132541001D01*
X241659015Y-132575002D01*
X241802932Y-132589177D01*
X241765000Y-132779872D01*
X241765000Y-133220128D01*
X241850890Y-133651925D01*
X242019369Y-134058669D01*
X242263962Y-134424729D01*
X242575271Y-134736038D01*
X242941331Y-134980631D01*
X243348075Y-135149110D01*
X243779872Y-135235000D01*
X244220128Y-135235000D01*
X244651925Y-135149110D01*
X245058669Y-134980631D01*
X245424729Y-134736038D01*
X245736038Y-134424729D01*
X245980631Y-134058669D01*
X246149110Y-133651925D01*
X246235000Y-133220128D01*
X246235000Y-132779872D01*
X246149110Y-132348075D01*
X246017472Y-132030274D01*
X247343010Y-133355812D01*
X247343011Y-137133072D01*
X247219111Y-137095487D01*
X246928000Y-137066815D01*
X246636890Y-137095487D01*
X246356967Y-137180401D01*
X246098987Y-137318294D01*
X245872866Y-137503866D01*
X245687294Y-137729986D01*
X245678000Y-137747374D01*
X245668706Y-137729986D01*
X245483134Y-137503866D01*
X245257014Y-137318294D01*
X244999034Y-137180401D01*
X244719111Y-137095487D01*
X244428000Y-137066815D01*
X244136890Y-137095487D01*
X243856967Y-137180401D01*
X243598987Y-137318294D01*
X243372866Y-137503866D01*
X243187294Y-137729986D01*
X243083591Y-137924000D01*
X242376803Y-137924000D01*
X239069804Y-134617003D01*
X239046001Y-134587999D01*
X238930276Y-134493026D01*
X238798247Y-134422454D01*
X238654986Y-134378997D01*
X238543333Y-134368000D01*
X238543322Y-134368000D01*
X238506000Y-134364324D01*
X238468678Y-134368000D01*
X230560327Y-134368000D01*
X230605355Y-134341178D01*
X230821588Y-134146269D01*
X230995641Y-133912920D01*
X231120825Y-133650099D01*
X231165476Y-133502890D01*
X231044155Y-133273000D01*
X229851000Y-133273000D01*
X229851000Y-133293000D01*
X229597000Y-133293000D01*
X229597000Y-133273000D01*
X227311000Y-133273000D01*
X227311000Y-133293000D01*
X227057000Y-133293000D01*
X227057000Y-133273000D01*
X225863845Y-133273000D01*
X225742524Y-133502890D01*
X225787175Y-133650099D01*
X225912359Y-133912920D01*
X226086412Y-134146269D01*
X226302645Y-134341178D01*
X226347673Y-134368000D01*
X225866803Y-134368000D01*
X223772000Y-132273199D01*
X223772000Y-131355322D01*
X223775676Y-131317999D01*
X223772000Y-131280676D01*
X223772000Y-131280667D01*
X223761003Y-131169014D01*
X223717546Y-131025753D01*
X223646974Y-130893724D01*
X223552001Y-130777999D01*
X223522997Y-130754196D01*
X223321808Y-130553007D01*
X223321799Y-130552996D01*
X221535989Y-128767187D01*
X221561837Y-128781003D01*
G37*
%TD.AperFunction*%
D17*
X176551000Y-132939000D02*
X176571000Y-132939000D01*
X176571000Y-133193000D01*
X176551000Y-133193000D01*
X176551000Y-134386814D01*
X176780891Y-134507481D01*
X176839001Y-134486868D01*
X176839001Y-136902199D01*
X175766000Y-135829199D01*
X175766000Y-134394224D01*
X175792748Y-134410157D01*
X176067109Y-134507481D01*
X176297000Y-134386814D01*
X176297000Y-133193000D01*
X176277000Y-133193000D01*
X176277000Y-132939000D01*
X176297000Y-132939000D01*
X176297000Y-132919000D01*
X176551000Y-132919000D01*
X176551000Y-132939000D01*
%TA.AperFunction,Conductor*%
D18*
G36*
X176551000Y-132939000D02*
G01*
X176571000Y-132939000D01*
X176571000Y-133193000D01*
X176551000Y-133193000D01*
X176551000Y-134386814D01*
X176780891Y-134507481D01*
X176839001Y-134486868D01*
X176839001Y-136902199D01*
X175766000Y-135829199D01*
X175766000Y-134394224D01*
X175792748Y-134410157D01*
X176067109Y-134507481D01*
X176297000Y-134386814D01*
X176297000Y-133193000D01*
X176277000Y-133193000D01*
X176277000Y-132939000D01*
X176297000Y-132939000D01*
X176297000Y-132919000D01*
X176551000Y-132919000D01*
X176551000Y-132939000D01*
G37*
%TD.AperFunction*%
D17*
X220546525Y-117706632D02*
X220753368Y-117913475D01*
X220927760Y-118030000D01*
X220753368Y-118146525D01*
X220546525Y-118353368D01*
X220384010Y-118596589D01*
X220272068Y-118866842D01*
X220215000Y-119153740D01*
X220215000Y-119446260D01*
X220272068Y-119733158D01*
X220384010Y-120003411D01*
X220546525Y-120246632D01*
X220753368Y-120453475D01*
X220935534Y-120575195D01*
X220818645Y-120644822D01*
X220602412Y-120839731D01*
X220428359Y-121073080D01*
X220303175Y-121335901D01*
X220258524Y-121483110D01*
X220379845Y-121713000D01*
X221573000Y-121713000D01*
X221573000Y-121693000D01*
X221827000Y-121693000D01*
X221827000Y-121713000D01*
X221847000Y-121713000D01*
X221847000Y-121967000D01*
X221827000Y-121967000D01*
X221827000Y-121987000D01*
X221573000Y-121987000D01*
X221573000Y-121967000D01*
X220379845Y-121967000D01*
X220258524Y-122196890D01*
X220303175Y-122344099D01*
X220428359Y-122606920D01*
X220602412Y-122840269D01*
X220818645Y-123035178D01*
X220935534Y-123104805D01*
X220753368Y-123226525D01*
X220546525Y-123433368D01*
X220384010Y-123676589D01*
X220272068Y-123946842D01*
X220215000Y-124233740D01*
X220215000Y-124526260D01*
X220272068Y-124813158D01*
X220384010Y-125083411D01*
X220546525Y-125326632D01*
X220753368Y-125533475D01*
X220996589Y-125695990D01*
X221266842Y-125807932D01*
X221553740Y-125865000D01*
X221846260Y-125865000D01*
X222133158Y-125807932D01*
X222403411Y-125695990D01*
X222646632Y-125533475D01*
X222853475Y-125326632D01*
X223015990Y-125083411D01*
X223127932Y-124813158D01*
X223185000Y-124526260D01*
X223185000Y-124340803D01*
X226003704Y-127159508D01*
X225883103Y-127340000D01*
X222214802Y-127340000D01*
X218460000Y-123585199D01*
X218460000Y-118914801D01*
X219854802Y-117520000D01*
X220421822Y-117520000D01*
X220546525Y-117706632D01*
%TA.AperFunction,Conductor*%
D18*
G36*
X220546525Y-117706632D02*
G01*
X220753368Y-117913475D01*
X220927760Y-118030000D01*
X220753368Y-118146525D01*
X220546525Y-118353368D01*
X220384010Y-118596589D01*
X220272068Y-118866842D01*
X220215000Y-119153740D01*
X220215000Y-119446260D01*
X220272068Y-119733158D01*
X220384010Y-120003411D01*
X220546525Y-120246632D01*
X220753368Y-120453475D01*
X220935534Y-120575195D01*
X220818645Y-120644822D01*
X220602412Y-120839731D01*
X220428359Y-121073080D01*
X220303175Y-121335901D01*
X220258524Y-121483110D01*
X220379845Y-121713000D01*
X221573000Y-121713000D01*
X221573000Y-121693000D01*
X221827000Y-121693000D01*
X221827000Y-121713000D01*
X221847000Y-121713000D01*
X221847000Y-121967000D01*
X221827000Y-121967000D01*
X221827000Y-121987000D01*
X221573000Y-121987000D01*
X221573000Y-121967000D01*
X220379845Y-121967000D01*
X220258524Y-122196890D01*
X220303175Y-122344099D01*
X220428359Y-122606920D01*
X220602412Y-122840269D01*
X220818645Y-123035178D01*
X220935534Y-123104805D01*
X220753368Y-123226525D01*
X220546525Y-123433368D01*
X220384010Y-123676589D01*
X220272068Y-123946842D01*
X220215000Y-124233740D01*
X220215000Y-124526260D01*
X220272068Y-124813158D01*
X220384010Y-125083411D01*
X220546525Y-125326632D01*
X220753368Y-125533475D01*
X220996589Y-125695990D01*
X221266842Y-125807932D01*
X221553740Y-125865000D01*
X221846260Y-125865000D01*
X222133158Y-125807932D01*
X222403411Y-125695990D01*
X222646632Y-125533475D01*
X222853475Y-125326632D01*
X223015990Y-125083411D01*
X223127932Y-124813158D01*
X223185000Y-124526260D01*
X223185000Y-124340803D01*
X226003704Y-127159508D01*
X225883103Y-127340000D01*
X222214802Y-127340000D01*
X218460000Y-123585199D01*
X218460000Y-118914801D01*
X219854802Y-117520000D01*
X220421822Y-117520000D01*
X220546525Y-117706632D01*
G37*
%TD.AperFunction*%
D17*
X252340000Y-66861199D02*
X252167803Y-66689002D01*
X252144001Y-66659999D01*
X252028276Y-66565026D01*
X251896247Y-66494454D01*
X251752986Y-66450997D01*
X251641333Y-66440000D01*
X251641322Y-66440000D01*
X251604000Y-66436324D01*
X251566678Y-66440000D01*
X251338595Y-66440000D01*
X251301706Y-66370986D01*
X251116134Y-66144866D01*
X250890014Y-65959294D01*
X250864278Y-65945538D01*
X251070429Y-65789049D01*
X251263496Y-65571193D01*
X251410352Y-65319858D01*
X251502476Y-65056890D01*
X251381155Y-64827000D01*
X250063000Y-64827000D01*
X250063000Y-64847000D01*
X249809000Y-64847000D01*
X249809000Y-64827000D01*
X248490845Y-64827000D01*
X248369524Y-65056890D01*
X248461648Y-65319858D01*
X248608504Y-65571193D01*
X248801571Y-65789049D01*
X249007722Y-65945538D01*
X248981986Y-65959294D01*
X248755866Y-66144866D01*
X248570294Y-66370986D01*
X248432401Y-66628966D01*
X248347487Y-66908889D01*
X248318815Y-67200000D01*
X248347487Y-67491111D01*
X248432401Y-67771034D01*
X248570294Y-68029014D01*
X248755866Y-68255134D01*
X248981986Y-68440706D01*
X248999374Y-68450000D01*
X248981986Y-68459294D01*
X248755866Y-68644866D01*
X248570294Y-68870986D01*
X248432401Y-69128966D01*
X248347487Y-69408889D01*
X248318815Y-69700000D01*
X248347487Y-69991111D01*
X248399296Y-70161902D01*
X247392998Y-71168201D01*
X247364000Y-71191999D01*
X247340202Y-71220997D01*
X247340201Y-71220998D01*
X247269026Y-71307724D01*
X247198454Y-71439754D01*
X247154998Y-71583015D01*
X247140324Y-71732000D01*
X247144001Y-71769332D01*
X247144000Y-73853198D01*
X244344998Y-76652201D01*
X244316000Y-76675999D01*
X244292202Y-76704997D01*
X244292201Y-76704998D01*
X244221026Y-76791724D01*
X244150454Y-76923754D01*
X244106998Y-77067015D01*
X244092324Y-77216000D01*
X244096001Y-77253332D01*
X244096000Y-86553198D01*
X242058998Y-88590201D01*
X242030000Y-88613999D01*
X242006202Y-88642997D01*
X242006201Y-88642998D01*
X241935026Y-88729724D01*
X241864454Y-88861754D01*
X241848910Y-88912998D01*
X241820998Y-89005014D01*
X241819584Y-89019368D01*
X241806324Y-89154000D01*
X241810001Y-89191332D01*
X241810001Y-89315807D01*
X241746014Y-89263294D01*
X241488034Y-89125401D01*
X241208111Y-89040487D01*
X240989950Y-89019000D01*
X240594050Y-89019000D01*
X240375889Y-89040487D01*
X240095966Y-89125401D01*
X239837986Y-89263294D01*
X239611866Y-89448866D01*
X239426294Y-89674986D01*
X239389405Y-89744000D01*
X237630803Y-89744000D01*
X233532801Y-85646000D01*
X234688678Y-85646000D01*
X234726000Y-85649676D01*
X234763322Y-85646000D01*
X234763333Y-85646000D01*
X234874986Y-85635003D01*
X235018247Y-85591546D01*
X235150276Y-85520974D01*
X235266001Y-85426001D01*
X235289804Y-85396997D01*
X235762801Y-84924000D01*
X238924928Y-84924000D01*
X238937188Y-85048482D01*
X238973498Y-85168180D01*
X239032463Y-85278494D01*
X239111815Y-85375185D01*
X239208506Y-85454537D01*
X239318820Y-85513502D01*
X239438518Y-85549812D01*
X239563000Y-85562072D01*
X240252250Y-85559000D01*
X240411000Y-85400250D01*
X240411000Y-84201000D01*
X240665000Y-84201000D01*
X240665000Y-85400250D01*
X240823750Y-85559000D01*
X241513000Y-85562072D01*
X241637482Y-85549812D01*
X241757180Y-85513502D01*
X241867494Y-85454537D01*
X241964185Y-85375185D01*
X242043537Y-85278494D01*
X242102502Y-85168180D01*
X242138812Y-85048482D01*
X242151072Y-84924000D01*
X242148000Y-84359750D01*
X241989250Y-84201000D01*
X240665000Y-84201000D01*
X240411000Y-84201000D01*
X239086750Y-84201000D01*
X238928000Y-84359750D01*
X238924928Y-84924000D01*
X235762801Y-84924000D01*
X238938029Y-81748773D01*
X238949487Y-81865111D01*
X239034401Y-82145034D01*
X239172294Y-82403014D01*
X239353608Y-82623945D01*
X239318820Y-82634498D01*
X239208506Y-82693463D01*
X239111815Y-82772815D01*
X239032463Y-82869506D01*
X238973498Y-82979820D01*
X238937188Y-83099518D01*
X238924928Y-83224000D01*
X238928000Y-83788250D01*
X239086750Y-83947000D01*
X240411000Y-83947000D01*
X240411000Y-83927000D01*
X240665000Y-83927000D01*
X240665000Y-83947000D01*
X241989250Y-83947000D01*
X242148000Y-83788250D01*
X242151072Y-83224000D01*
X242138812Y-83099518D01*
X242102502Y-82979820D01*
X242043537Y-82869506D01*
X241964185Y-82772815D01*
X241867494Y-82693463D01*
X241757180Y-82634498D01*
X241722392Y-82623945D01*
X241903706Y-82403014D01*
X242041599Y-82145034D01*
X242126513Y-81865111D01*
X242155185Y-81574000D01*
X242126513Y-81282889D01*
X242041599Y-81002966D01*
X241903706Y-80744986D01*
X241718134Y-80518866D01*
X241492014Y-80333294D01*
X241474626Y-80324000D01*
X241492014Y-80314706D01*
X241718134Y-80129134D01*
X241903706Y-79903014D01*
X242041599Y-79645034D01*
X242126513Y-79365111D01*
X242155185Y-79074000D01*
X242126513Y-78782889D01*
X242041599Y-78502966D01*
X241903706Y-78244986D01*
X241718134Y-78018866D01*
X241492014Y-77833294D01*
X241234034Y-77695401D01*
X240954111Y-77610487D01*
X240735950Y-77589000D01*
X240340050Y-77589000D01*
X240121889Y-77610487D01*
X239841966Y-77695401D01*
X239583986Y-77833294D01*
X239357866Y-78018866D01*
X239172294Y-78244986D01*
X239034401Y-78502966D01*
X238949487Y-78782889D01*
X238920815Y-79074000D01*
X238949487Y-79365111D01*
X239001296Y-79535902D01*
X234411199Y-84126000D01*
X231002178Y-84126000D01*
X230877475Y-83939368D01*
X230670632Y-83732525D01*
X230496240Y-83616000D01*
X230670632Y-83499475D01*
X230877475Y-83292632D01*
X231039990Y-83049411D01*
X231151932Y-82779158D01*
X231209000Y-82492260D01*
X231209000Y-82199740D01*
X231151932Y-81912842D01*
X231039990Y-81642589D01*
X230877475Y-81399368D01*
X230670632Y-81192525D01*
X230496240Y-81076000D01*
X230670632Y-80959475D01*
X230877475Y-80752632D01*
X231039990Y-80509411D01*
X231151932Y-80239158D01*
X231209000Y-79952260D01*
X231209000Y-79659740D01*
X231151932Y-79372842D01*
X231039990Y-79102589D01*
X230877475Y-78859368D01*
X230670632Y-78652525D01*
X230496240Y-78536000D01*
X230670632Y-78419475D01*
X230877475Y-78212632D01*
X231039990Y-77969411D01*
X231151932Y-77699158D01*
X231209000Y-77412260D01*
X231209000Y-77119740D01*
X231151932Y-76832842D01*
X231039990Y-76562589D01*
X230877475Y-76319368D01*
X230670632Y-76112525D01*
X230496240Y-75996000D01*
X230670632Y-75879475D01*
X230877475Y-75672632D01*
X231039990Y-75429411D01*
X231151932Y-75159158D01*
X231209000Y-74872260D01*
X231209000Y-74579740D01*
X231151932Y-74292842D01*
X231039990Y-74022589D01*
X230877475Y-73779368D01*
X230745620Y-73647513D01*
X230818180Y-73625502D01*
X230928494Y-73566537D01*
X231025185Y-73487185D01*
X231104537Y-73390494D01*
X231163502Y-73280180D01*
X231199812Y-73160482D01*
X231212072Y-73036000D01*
X231209000Y-72471750D01*
X231050250Y-72313000D01*
X229851000Y-72313000D01*
X229851000Y-72333000D01*
X229597000Y-72333000D01*
X229597000Y-72313000D01*
X227311000Y-72313000D01*
X227311000Y-72333000D01*
X227057000Y-72333000D01*
X227057000Y-72313000D01*
X225863845Y-72313000D01*
X225742524Y-72542890D01*
X225787175Y-72690099D01*
X225912359Y-72952920D01*
X226086412Y-73186269D01*
X226302645Y-73381178D01*
X226419534Y-73450805D01*
X226237368Y-73572525D01*
X226030525Y-73779368D01*
X225868010Y-74022589D01*
X225756068Y-74292842D01*
X225699000Y-74579740D01*
X225699000Y-74872260D01*
X225756068Y-75159158D01*
X225868010Y-75429411D01*
X226030525Y-75672632D01*
X226237368Y-75879475D01*
X226411760Y-75996000D01*
X226237368Y-76112525D01*
X226030525Y-76319368D01*
X225868010Y-76562589D01*
X225756068Y-76832842D01*
X225699000Y-77119740D01*
X225699000Y-77412260D01*
X225756068Y-77699158D01*
X225868010Y-77969411D01*
X226030525Y-78212632D01*
X226237368Y-78419475D01*
X226411760Y-78536000D01*
X226237368Y-78652525D01*
X226030525Y-78859368D01*
X225868010Y-79102589D01*
X225756068Y-79372842D01*
X225699000Y-79659740D01*
X225699000Y-79952260D01*
X225756068Y-80239158D01*
X225868010Y-80509411D01*
X226030525Y-80752632D01*
X226237368Y-80959475D01*
X226411760Y-81076000D01*
X226237368Y-81192525D01*
X226030525Y-81399368D01*
X225868010Y-81642589D01*
X225756068Y-81912842D01*
X225699000Y-82199740D01*
X225699000Y-82492260D01*
X225756068Y-82779158D01*
X225868010Y-83049411D01*
X226030525Y-83292632D01*
X226237368Y-83499475D01*
X226411760Y-83616000D01*
X226237368Y-83732525D01*
X226030525Y-83939368D01*
X225868010Y-84182589D01*
X225756068Y-84452842D01*
X225699000Y-84739740D01*
X225699000Y-85032260D01*
X225756068Y-85319158D01*
X225868010Y-85589411D01*
X226030525Y-85832632D01*
X226237368Y-86039475D01*
X226411760Y-86156000D01*
X226237368Y-86272525D01*
X226030525Y-86479368D01*
X225868010Y-86722589D01*
X225756068Y-86992842D01*
X225699000Y-87279740D01*
X225699000Y-87572260D01*
X225756068Y-87859158D01*
X225868010Y-88129411D01*
X226030525Y-88372632D01*
X226237368Y-88579475D01*
X226411760Y-88696000D01*
X226237368Y-88812525D01*
X226030525Y-89019368D01*
X225868010Y-89262589D01*
X225756068Y-89532842D01*
X225699000Y-89819740D01*
X225699000Y-90112260D01*
X225756068Y-90399158D01*
X225868010Y-90669411D01*
X226030525Y-90912632D01*
X226237368Y-91119475D01*
X226411760Y-91236000D01*
X226237368Y-91352525D01*
X226030525Y-91559368D01*
X225868010Y-91802589D01*
X225756068Y-92072842D01*
X225699000Y-92359740D01*
X225699000Y-92652260D01*
X225756068Y-92939158D01*
X225868010Y-93209411D01*
X226030525Y-93452632D01*
X226237368Y-93659475D01*
X226411760Y-93776000D01*
X226237368Y-93892525D01*
X226030525Y-94099368D01*
X225868010Y-94342589D01*
X225756068Y-94612842D01*
X225699000Y-94899740D01*
X225699000Y-95192260D01*
X225756068Y-95479158D01*
X225868010Y-95749411D01*
X226030525Y-95992632D01*
X226237368Y-96199475D01*
X226411760Y-96316000D01*
X226237368Y-96432525D01*
X226030525Y-96639368D01*
X225868010Y-96882589D01*
X225756068Y-97152842D01*
X225699000Y-97439740D01*
X225699000Y-97732260D01*
X225756068Y-98019158D01*
X225868010Y-98289411D01*
X226030525Y-98532632D01*
X226237368Y-98739475D01*
X226411760Y-98856000D01*
X226237368Y-98972525D01*
X226030525Y-99179368D01*
X225868010Y-99422589D01*
X225756068Y-99692842D01*
X225699000Y-99979740D01*
X225699000Y-100272260D01*
X225756068Y-100559158D01*
X225868010Y-100829411D01*
X226030525Y-101072632D01*
X226237368Y-101279475D01*
X226411760Y-101396000D01*
X226237368Y-101512525D01*
X226030525Y-101719368D01*
X225868010Y-101962589D01*
X225756068Y-102232842D01*
X225699000Y-102519740D01*
X225699000Y-102812260D01*
X225756068Y-103099158D01*
X225868010Y-103369411D01*
X226030525Y-103612632D01*
X226237368Y-103819475D01*
X226411760Y-103936000D01*
X226237368Y-104052525D01*
X226030525Y-104259368D01*
X225868010Y-104502589D01*
X225756068Y-104772842D01*
X225699000Y-105059740D01*
X225699000Y-105352260D01*
X225756068Y-105639158D01*
X225868010Y-105909411D01*
X226030525Y-106152632D01*
X226237368Y-106359475D01*
X226411760Y-106476000D01*
X226237368Y-106592525D01*
X226030525Y-106799368D01*
X225868010Y-107042589D01*
X225756068Y-107312842D01*
X225699000Y-107599740D01*
X225699000Y-107892260D01*
X225756068Y-108179158D01*
X225868010Y-108449411D01*
X226030525Y-108692632D01*
X226237368Y-108899475D01*
X226411760Y-109016000D01*
X226237368Y-109132525D01*
X226030525Y-109339368D01*
X225868010Y-109582589D01*
X225756068Y-109852842D01*
X225699000Y-110139740D01*
X225699000Y-110432260D01*
X225756068Y-110719158D01*
X225868010Y-110989411D01*
X226030525Y-111232632D01*
X226237368Y-111439475D01*
X226411760Y-111556000D01*
X226237368Y-111672525D01*
X226030525Y-111879368D01*
X225868010Y-112122589D01*
X225756068Y-112392842D01*
X225699000Y-112679740D01*
X225699000Y-112972260D01*
X225756068Y-113259158D01*
X225868010Y-113529411D01*
X226030525Y-113772632D01*
X226237368Y-113979475D01*
X226411760Y-114096000D01*
X226237368Y-114212525D01*
X226030525Y-114419368D01*
X225868010Y-114662589D01*
X225756068Y-114932842D01*
X225699000Y-115219740D01*
X225699000Y-115512260D01*
X225756068Y-115799158D01*
X225868010Y-116069411D01*
X226030525Y-116312632D01*
X226237368Y-116519475D01*
X226411760Y-116636000D01*
X226237368Y-116752525D01*
X226030525Y-116959368D01*
X225868010Y-117202589D01*
X225756068Y-117472842D01*
X225699000Y-117759740D01*
X225699000Y-118052260D01*
X225756068Y-118339158D01*
X225868010Y-118609411D01*
X226030525Y-118852632D01*
X226237368Y-119059475D01*
X226411760Y-119176000D01*
X226237368Y-119292525D01*
X226030525Y-119499368D01*
X225868010Y-119742589D01*
X225756068Y-120012842D01*
X225699000Y-120299740D01*
X225699000Y-120592260D01*
X225756068Y-120879158D01*
X225868010Y-121149411D01*
X226030525Y-121392632D01*
X226237368Y-121599475D01*
X226411760Y-121716000D01*
X226237368Y-121832525D01*
X226030525Y-122039368D01*
X225868010Y-122282589D01*
X225756068Y-122552842D01*
X225699000Y-122839740D01*
X225699000Y-123132260D01*
X225756068Y-123419158D01*
X225868010Y-123689411D01*
X226030525Y-123932632D01*
X226237368Y-124139475D01*
X226411760Y-124256000D01*
X226237368Y-124372525D01*
X226030525Y-124579368D01*
X225868010Y-124822589D01*
X225852891Y-124859091D01*
X223635001Y-122641202D01*
X223635001Y-120512323D01*
X223638677Y-120475000D01*
X223635001Y-120437677D01*
X223635001Y-120437668D01*
X223624004Y-120326015D01*
X223580547Y-120182754D01*
X223509975Y-120050725D01*
X223476754Y-120010246D01*
X223492247Y-120005546D01*
X223624276Y-119934974D01*
X223740001Y-119840001D01*
X223763804Y-119810998D01*
X224711003Y-118863799D01*
X224740001Y-118840001D01*
X224834974Y-118724276D01*
X224905546Y-118592247D01*
X224949003Y-118448986D01*
X224960000Y-118337333D01*
X224963677Y-118300000D01*
X224960000Y-118262667D01*
X224960000Y-112837322D01*
X224963676Y-112799999D01*
X224960000Y-112762676D01*
X224960000Y-112762667D01*
X224949003Y-112651014D01*
X224905546Y-112507753D01*
X224834974Y-112375724D01*
X224740001Y-112259999D01*
X224711004Y-112236202D01*
X223643804Y-111169002D01*
X223620001Y-111139999D01*
X223504276Y-111045026D01*
X223372247Y-110974454D01*
X223228986Y-110930997D01*
X223117333Y-110920000D01*
X223117322Y-110920000D01*
X223080000Y-110916324D01*
X223042678Y-110920000D01*
X222978178Y-110920000D01*
X222853475Y-110733368D01*
X222646632Y-110526525D01*
X222464466Y-110404805D01*
X222581355Y-110335178D01*
X222797588Y-110140269D01*
X222971641Y-109906920D01*
X223096825Y-109644099D01*
X223141476Y-109496890D01*
X223020155Y-109267000D01*
X221827000Y-109267000D01*
X221827000Y-109287000D01*
X221573000Y-109287000D01*
X221573000Y-109267000D01*
X220379845Y-109267000D01*
X220258524Y-109496890D01*
X220303175Y-109644099D01*
X220428359Y-109906920D01*
X220602412Y-110140269D01*
X220818645Y-110335178D01*
X220935534Y-110404805D01*
X220753368Y-110526525D01*
X220546525Y-110733368D01*
X220384010Y-110976589D01*
X220272068Y-111246842D01*
X220215000Y-111533740D01*
X220215000Y-111826260D01*
X220272068Y-112113158D01*
X220384010Y-112383411D01*
X220546525Y-112626632D01*
X220753368Y-112833475D01*
X220927760Y-112950000D01*
X220753368Y-113066525D01*
X220546525Y-113273368D01*
X220384010Y-113516589D01*
X220272068Y-113786842D01*
X220215000Y-114073740D01*
X220215000Y-114366260D01*
X220272068Y-114653158D01*
X220384010Y-114923411D01*
X220546525Y-115166632D01*
X220753368Y-115373475D01*
X220927760Y-115490000D01*
X220753368Y-115606525D01*
X220546525Y-115813368D01*
X220421822Y-116000000D01*
X219577323Y-116000000D01*
X219540000Y-115996324D01*
X219502677Y-116000000D01*
X219502667Y-116000000D01*
X219391014Y-116010997D01*
X219275623Y-116046000D01*
X219247753Y-116054454D01*
X219115723Y-116125026D01*
X219071006Y-116161725D01*
X218999999Y-116219999D01*
X218976201Y-116248997D01*
X217189003Y-118036196D01*
X217159999Y-118059999D01*
X217118965Y-118110000D01*
X217065026Y-118175724D01*
X217032287Y-118236974D01*
X216994454Y-118307754D01*
X216950997Y-118451015D01*
X216940000Y-118562668D01*
X216940000Y-118562678D01*
X216936324Y-118600000D01*
X216940000Y-118637323D01*
X216940001Y-123862668D01*
X216936324Y-123900000D01*
X216940001Y-123937333D01*
X216950212Y-124041000D01*
X216950998Y-124048985D01*
X216994454Y-124192246D01*
X217065026Y-124324276D01*
X217107701Y-124376275D01*
X217160000Y-124440001D01*
X217188998Y-124463799D01*
X219566012Y-126840814D01*
X219494247Y-126802454D01*
X219350986Y-126758997D01*
X219239333Y-126748000D01*
X219239322Y-126748000D01*
X219202000Y-126744324D01*
X219164678Y-126748000D01*
X194878803Y-126748000D01*
X191768000Y-123637199D01*
X191768000Y-105750000D01*
X220211928Y-105750000D01*
X220211928Y-107450000D01*
X220224188Y-107574482D01*
X220260498Y-107694180D01*
X220319463Y-107804494D01*
X220398815Y-107901185D01*
X220495506Y-107980537D01*
X220605820Y-108039502D01*
X220686466Y-108063966D01*
X220602412Y-108139731D01*
X220428359Y-108373080D01*
X220303175Y-108635901D01*
X220258524Y-108783110D01*
X220379845Y-109013000D01*
X221573000Y-109013000D01*
X221573000Y-108993000D01*
X221827000Y-108993000D01*
X221827000Y-109013000D01*
X223020155Y-109013000D01*
X223141476Y-108783110D01*
X223096825Y-108635901D01*
X222971641Y-108373080D01*
X222797588Y-108139731D01*
X222713534Y-108063966D01*
X222794180Y-108039502D01*
X222904494Y-107980537D01*
X223001185Y-107901185D01*
X223080537Y-107804494D01*
X223139502Y-107694180D01*
X223175812Y-107574482D01*
X223188072Y-107450000D01*
X223188072Y-105750000D01*
X223175812Y-105625518D01*
X223139502Y-105505820D01*
X223080537Y-105395506D01*
X223001185Y-105298815D01*
X222904494Y-105219463D01*
X222794180Y-105160498D01*
X222674482Y-105124188D01*
X222550000Y-105111928D01*
X220850000Y-105111928D01*
X220725518Y-105124188D01*
X220605820Y-105160498D01*
X220495506Y-105219463D01*
X220398815Y-105298815D01*
X220319463Y-105395506D01*
X220260498Y-105505820D01*
X220224188Y-105625518D01*
X220211928Y-105750000D01*
X191768000Y-105750000D01*
X191768000Y-86143325D01*
X191771676Y-86106000D01*
X191768000Y-86068675D01*
X191768000Y-86068667D01*
X191757003Y-85957014D01*
X191713546Y-85813753D01*
X191642974Y-85681724D01*
X191548001Y-85565999D01*
X191519003Y-85542201D01*
X190271804Y-84295003D01*
X190248001Y-84265999D01*
X190132276Y-84171026D01*
X190000247Y-84100454D01*
X189856986Y-84056997D01*
X189745333Y-84046000D01*
X189745322Y-84046000D01*
X189708000Y-84042324D01*
X189670678Y-84046000D01*
X180242178Y-84046000D01*
X180117475Y-83859368D01*
X179910632Y-83652525D01*
X179736240Y-83536000D01*
X179910632Y-83419475D01*
X180117475Y-83212632D01*
X180279990Y-82969411D01*
X180391932Y-82699158D01*
X180449000Y-82412260D01*
X180449000Y-82119740D01*
X180391932Y-81832842D01*
X180279990Y-81562589D01*
X180117475Y-81319368D01*
X179910632Y-81112525D01*
X179736240Y-80996000D01*
X179910632Y-80879475D01*
X180117475Y-80672632D01*
X180279990Y-80429411D01*
X180391932Y-80159158D01*
X180449000Y-79872260D01*
X180449000Y-79579740D01*
X180391932Y-79292842D01*
X180279990Y-79022589D01*
X180117475Y-78779368D01*
X179910632Y-78572525D01*
X179728466Y-78450805D01*
X179845355Y-78381178D01*
X180061588Y-78186269D01*
X180235641Y-77952920D01*
X180360825Y-77690099D01*
X180405476Y-77542890D01*
X180284155Y-77313000D01*
X179091000Y-77313000D01*
X179091000Y-77333000D01*
X178837000Y-77333000D01*
X178837000Y-77313000D01*
X178817000Y-77313000D01*
X178817000Y-77059000D01*
X178837000Y-77059000D01*
X178837000Y-77039000D01*
X179091000Y-77039000D01*
X179091000Y-77059000D01*
X180284155Y-77059000D01*
X180405476Y-76829110D01*
X180360825Y-76681901D01*
X180235641Y-76419080D01*
X180061588Y-76185731D01*
X179845355Y-75990822D01*
X179728466Y-75921195D01*
X179910632Y-75799475D01*
X180117475Y-75592632D01*
X180279990Y-75349411D01*
X180391932Y-75079158D01*
X180449000Y-74792260D01*
X180449000Y-74499740D01*
X180391932Y-74212842D01*
X180279990Y-73942589D01*
X180117475Y-73699368D01*
X179985620Y-73567513D01*
X180058180Y-73545502D01*
X180168494Y-73486537D01*
X180265185Y-73407185D01*
X180344537Y-73310494D01*
X180403502Y-73200180D01*
X180439812Y-73080482D01*
X180452072Y-72956000D01*
X180449000Y-72391750D01*
X180290250Y-72233000D01*
X179091000Y-72233000D01*
X179091000Y-72253000D01*
X178837000Y-72253000D01*
X178837000Y-72233000D01*
X176551000Y-72233000D01*
X176551000Y-72253000D01*
X176297000Y-72253000D01*
X176297000Y-72233000D01*
X176277000Y-72233000D01*
X176277000Y-71979000D01*
X176297000Y-71979000D01*
X176297000Y-70785186D01*
X176551000Y-70785186D01*
X176551000Y-71979000D01*
X178837000Y-71979000D01*
X178837000Y-70779750D01*
X179091000Y-70779750D01*
X179091000Y-71979000D01*
X180290250Y-71979000D01*
X180440140Y-71829110D01*
X225742524Y-71829110D01*
X225863845Y-72059000D01*
X227057000Y-72059000D01*
X227057000Y-70865186D01*
X227311000Y-70865186D01*
X227311000Y-72059000D01*
X229597000Y-72059000D01*
X229597000Y-70859750D01*
X229851000Y-70859750D01*
X229851000Y-72059000D01*
X231050250Y-72059000D01*
X231139250Y-71970000D01*
X236384928Y-71970000D01*
X236397188Y-72094482D01*
X236433498Y-72214180D01*
X236492463Y-72324494D01*
X236571815Y-72421185D01*
X236668506Y-72500537D01*
X236778820Y-72559502D01*
X236898518Y-72595812D01*
X237023000Y-72608072D01*
X237712250Y-72605000D01*
X237871000Y-72446250D01*
X237871000Y-71247000D01*
X238125000Y-71247000D01*
X238125000Y-72446250D01*
X238283750Y-72605000D01*
X238973000Y-72608072D01*
X239097482Y-72595812D01*
X239217180Y-72559502D01*
X239327494Y-72500537D01*
X239424185Y-72421185D01*
X239503537Y-72324494D01*
X239562502Y-72214180D01*
X239598812Y-72094482D01*
X239611072Y-71970000D01*
X242480928Y-71970000D01*
X242493188Y-72094482D01*
X242529498Y-72214180D01*
X242588463Y-72324494D01*
X242667815Y-72421185D01*
X242764506Y-72500537D01*
X242874820Y-72559502D01*
X242994518Y-72595812D01*
X243119000Y-72608072D01*
X243808250Y-72605000D01*
X243967000Y-72446250D01*
X243967000Y-71247000D01*
X244221000Y-71247000D01*
X244221000Y-72446250D01*
X244379750Y-72605000D01*
X245069000Y-72608072D01*
X245193482Y-72595812D01*
X245313180Y-72559502D01*
X245423494Y-72500537D01*
X245520185Y-72421185D01*
X245599537Y-72324494D01*
X245658502Y-72214180D01*
X245694812Y-72094482D01*
X245707072Y-71970000D01*
X245704000Y-71405750D01*
X245545250Y-71247000D01*
X244221000Y-71247000D01*
X243967000Y-71247000D01*
X242642750Y-71247000D01*
X242484000Y-71405750D01*
X242480928Y-71970000D01*
X239611072Y-71970000D01*
X239608000Y-71405750D01*
X239449250Y-71247000D01*
X238125000Y-71247000D01*
X237871000Y-71247000D01*
X236546750Y-71247000D01*
X236388000Y-71405750D01*
X236384928Y-71970000D01*
X231139250Y-71970000D01*
X231209000Y-71900250D01*
X231212072Y-71336000D01*
X231199812Y-71211518D01*
X231163502Y-71091820D01*
X231104537Y-70981506D01*
X231025185Y-70884815D01*
X230928494Y-70805463D01*
X230818180Y-70746498D01*
X230698482Y-70710188D01*
X230574000Y-70697928D01*
X230009750Y-70701000D01*
X229851000Y-70859750D01*
X229597000Y-70859750D01*
X229438250Y-70701000D01*
X228874000Y-70697928D01*
X228749518Y-70710188D01*
X228629820Y-70746498D01*
X228519506Y-70805463D01*
X228422815Y-70884815D01*
X228343463Y-70981506D01*
X228284498Y-71091820D01*
X228261502Y-71167626D01*
X228065355Y-70990822D01*
X227815252Y-70841843D01*
X227540891Y-70744519D01*
X227311000Y-70865186D01*
X227057000Y-70865186D01*
X226827109Y-70744519D01*
X226552748Y-70841843D01*
X226302645Y-70990822D01*
X226086412Y-71185731D01*
X225912359Y-71419080D01*
X225787175Y-71681901D01*
X225742524Y-71829110D01*
X180440140Y-71829110D01*
X180449000Y-71820250D01*
X180452072Y-71256000D01*
X180439812Y-71131518D01*
X180403502Y-71011820D01*
X180344537Y-70901506D01*
X180265185Y-70804815D01*
X180168494Y-70725463D01*
X180058180Y-70666498D01*
X179938482Y-70630188D01*
X179814000Y-70617928D01*
X179249750Y-70621000D01*
X179091000Y-70779750D01*
X178837000Y-70779750D01*
X178678250Y-70621000D01*
X178114000Y-70617928D01*
X177989518Y-70630188D01*
X177869820Y-70666498D01*
X177759506Y-70725463D01*
X177662815Y-70804815D01*
X177583463Y-70901506D01*
X177524498Y-71011820D01*
X177501502Y-71087626D01*
X177305355Y-70910822D01*
X177055252Y-70761843D01*
X176780891Y-70664519D01*
X176551000Y-70785186D01*
X176297000Y-70785186D01*
X176067109Y-70664519D01*
X175792748Y-70761843D01*
X175542645Y-70910822D01*
X175512000Y-70938445D01*
X175512000Y-70672801D01*
X176336802Y-69848000D01*
X231610678Y-69848000D01*
X231648000Y-69851676D01*
X231685322Y-69848000D01*
X231685333Y-69848000D01*
X231796986Y-69837003D01*
X231940247Y-69793546D01*
X232072276Y-69722974D01*
X232188001Y-69628001D01*
X232211804Y-69598997D01*
X234930802Y-66880000D01*
X236595405Y-66880000D01*
X236632294Y-66949014D01*
X236817866Y-67175134D01*
X237043986Y-67360706D01*
X237061374Y-67370000D01*
X237043986Y-67379294D01*
X236817866Y-67564866D01*
X236632294Y-67790986D01*
X236494401Y-68048966D01*
X236409487Y-68328889D01*
X236380815Y-68620000D01*
X236409487Y-68911111D01*
X236494401Y-69191034D01*
X236632294Y-69449014D01*
X236813608Y-69669945D01*
X236778820Y-69680498D01*
X236668506Y-69739463D01*
X236571815Y-69818815D01*
X236492463Y-69915506D01*
X236433498Y-70025820D01*
X236397188Y-70145518D01*
X236384928Y-70270000D01*
X236388000Y-70834250D01*
X236546750Y-70993000D01*
X237871000Y-70993000D01*
X237871000Y-70973000D01*
X238125000Y-70973000D01*
X238125000Y-70993000D01*
X239449250Y-70993000D01*
X239608000Y-70834250D01*
X239611072Y-70270000D01*
X239598812Y-70145518D01*
X239562502Y-70025820D01*
X239503537Y-69915506D01*
X239424185Y-69818815D01*
X239327494Y-69739463D01*
X239217180Y-69680498D01*
X239182392Y-69669945D01*
X239363706Y-69449014D01*
X239501599Y-69191034D01*
X239586513Y-68911111D01*
X239615185Y-68620000D01*
X239586513Y-68328889D01*
X239501599Y-68048966D01*
X239363706Y-67790986D01*
X239178134Y-67564866D01*
X238952014Y-67379294D01*
X238934626Y-67370000D01*
X238952014Y-67360706D01*
X239178134Y-67175134D01*
X239363706Y-66949014D01*
X239501599Y-66691034D01*
X239586513Y-66411111D01*
X239615185Y-66120000D01*
X239586513Y-65828889D01*
X239501599Y-65548966D01*
X239363706Y-65290986D01*
X239178134Y-65064866D01*
X239125902Y-65022000D01*
X241921199Y-65022000D01*
X242557296Y-65658098D01*
X242505487Y-65828889D01*
X242476815Y-66120000D01*
X242505487Y-66411111D01*
X242590401Y-66691034D01*
X242728294Y-66949014D01*
X242913866Y-67175134D01*
X243139986Y-67360706D01*
X243157374Y-67370000D01*
X243139986Y-67379294D01*
X242913866Y-67564866D01*
X242728294Y-67790986D01*
X242590401Y-68048966D01*
X242505487Y-68328889D01*
X242476815Y-68620000D01*
X242505487Y-68911111D01*
X242590401Y-69191034D01*
X242728294Y-69449014D01*
X242909608Y-69669945D01*
X242874820Y-69680498D01*
X242764506Y-69739463D01*
X242667815Y-69818815D01*
X242588463Y-69915506D01*
X242529498Y-70025820D01*
X242493188Y-70145518D01*
X242480928Y-70270000D01*
X242484000Y-70834250D01*
X242642750Y-70993000D01*
X243967000Y-70993000D01*
X243967000Y-70973000D01*
X244221000Y-70973000D01*
X244221000Y-70993000D01*
X245545250Y-70993000D01*
X245704000Y-70834250D01*
X245707072Y-70270000D01*
X245694812Y-70145518D01*
X245658502Y-70025820D01*
X245599537Y-69915506D01*
X245520185Y-69818815D01*
X245423494Y-69739463D01*
X245313180Y-69680498D01*
X245278392Y-69669945D01*
X245459706Y-69449014D01*
X245597599Y-69191034D01*
X245682513Y-68911111D01*
X245711185Y-68620000D01*
X245682513Y-68328889D01*
X245597599Y-68048966D01*
X245459706Y-67790986D01*
X245274134Y-67564866D01*
X245048014Y-67379294D01*
X245030626Y-67370000D01*
X245048014Y-67360706D01*
X245274134Y-67175134D01*
X245459706Y-66949014D01*
X245597599Y-66691034D01*
X245682513Y-66411111D01*
X245711185Y-66120000D01*
X245682513Y-65828889D01*
X245597599Y-65548966D01*
X245459706Y-65290986D01*
X245274134Y-65064866D01*
X245048014Y-64879294D01*
X244790034Y-64741401D01*
X244510111Y-64656487D01*
X244291950Y-64635000D01*
X243896050Y-64635000D01*
X243702832Y-64654030D01*
X243391912Y-64343110D01*
X248369524Y-64343110D01*
X248490845Y-64573000D01*
X249809000Y-64573000D01*
X249809000Y-63373835D01*
X250063000Y-63373835D01*
X250063000Y-64573000D01*
X251381155Y-64573000D01*
X251502476Y-64343110D01*
X251410352Y-64080142D01*
X251263496Y-63828807D01*
X251070429Y-63610951D01*
X250838570Y-63434947D01*
X250576830Y-63307558D01*
X250295267Y-63233680D01*
X250063000Y-63373835D01*
X249809000Y-63373835D01*
X249576733Y-63233680D01*
X249295170Y-63307558D01*
X249033430Y-63434947D01*
X248801571Y-63610951D01*
X248608504Y-63828807D01*
X248461648Y-64080142D01*
X248369524Y-64343110D01*
X243391912Y-64343110D01*
X242799804Y-63751003D01*
X242776001Y-63721999D01*
X242660276Y-63627026D01*
X242528247Y-63556454D01*
X242384986Y-63512997D01*
X242273333Y-63502000D01*
X242273322Y-63502000D01*
X242236000Y-63498324D01*
X242198678Y-63502000D01*
X234987322Y-63502000D01*
X234949999Y-63498324D01*
X234912676Y-63502000D01*
X234912667Y-63502000D01*
X234801014Y-63512997D01*
X234657753Y-63556454D01*
X234525724Y-63627026D01*
X234525722Y-63627027D01*
X234525723Y-63627027D01*
X234438996Y-63698201D01*
X234438992Y-63698205D01*
X234409999Y-63721999D01*
X234386205Y-63750992D01*
X231079199Y-67058000D01*
X178871884Y-67058000D01*
X179058669Y-66980631D01*
X179424729Y-66736038D01*
X179736038Y-66424729D01*
X179980631Y-66058669D01*
X180149110Y-65651925D01*
X180235000Y-65220128D01*
X180235000Y-64779872D01*
X180149110Y-64348075D01*
X179980631Y-63941331D01*
X179736038Y-63575271D01*
X179424729Y-63263962D01*
X179058669Y-63019369D01*
X178651925Y-62850890D01*
X178220128Y-62765000D01*
X177779872Y-62765000D01*
X177348075Y-62850890D01*
X176941331Y-63019369D01*
X176575271Y-63263962D01*
X176263962Y-63575271D01*
X176019369Y-63941331D01*
X175850890Y-64348075D01*
X175765000Y-64779872D01*
X175765000Y-65220128D01*
X175850890Y-65651925D01*
X176019369Y-66058669D01*
X176263962Y-66424729D01*
X176575271Y-66736038D01*
X176941331Y-66980631D01*
X177128116Y-67058000D01*
X175551322Y-67058000D01*
X175513999Y-67054324D01*
X175476676Y-67058000D01*
X175476667Y-67058000D01*
X175365014Y-67068997D01*
X175221753Y-67112454D01*
X175089724Y-67183026D01*
X175089722Y-67183027D01*
X175089723Y-67183027D01*
X175002996Y-67254201D01*
X175002992Y-67254205D01*
X174973999Y-67277999D01*
X174950205Y-67306992D01*
X173660000Y-68597199D01*
X173660000Y-62660000D01*
X252340000Y-62660000D01*
X252340000Y-66861199D01*
%TA.AperFunction,Conductor*%
D18*
G36*
X252340000Y-66861199D02*
G01*
X252167803Y-66689002D01*
X252144001Y-66659999D01*
X252028276Y-66565026D01*
X251896247Y-66494454D01*
X251752986Y-66450997D01*
X251641333Y-66440000D01*
X251641322Y-66440000D01*
X251604000Y-66436324D01*
X251566678Y-66440000D01*
X251338595Y-66440000D01*
X251301706Y-66370986D01*
X251116134Y-66144866D01*
X250890014Y-65959294D01*
X250864278Y-65945538D01*
X251070429Y-65789049D01*
X251263496Y-65571193D01*
X251410352Y-65319858D01*
X251502476Y-65056890D01*
X251381155Y-64827000D01*
X250063000Y-64827000D01*
X250063000Y-64847000D01*
X249809000Y-64847000D01*
X249809000Y-64827000D01*
X248490845Y-64827000D01*
X248369524Y-65056890D01*
X248461648Y-65319858D01*
X248608504Y-65571193D01*
X248801571Y-65789049D01*
X249007722Y-65945538D01*
X248981986Y-65959294D01*
X248755866Y-66144866D01*
X248570294Y-66370986D01*
X248432401Y-66628966D01*
X248347487Y-66908889D01*
X248318815Y-67200000D01*
X248347487Y-67491111D01*
X248432401Y-67771034D01*
X248570294Y-68029014D01*
X248755866Y-68255134D01*
X248981986Y-68440706D01*
X248999374Y-68450000D01*
X248981986Y-68459294D01*
X248755866Y-68644866D01*
X248570294Y-68870986D01*
X248432401Y-69128966D01*
X248347487Y-69408889D01*
X248318815Y-69700000D01*
X248347487Y-69991111D01*
X248399296Y-70161902D01*
X247392998Y-71168201D01*
X247364000Y-71191999D01*
X247340202Y-71220997D01*
X247340201Y-71220998D01*
X247269026Y-71307724D01*
X247198454Y-71439754D01*
X247154998Y-71583015D01*
X247140324Y-71732000D01*
X247144001Y-71769332D01*
X247144000Y-73853198D01*
X244344998Y-76652201D01*
X244316000Y-76675999D01*
X244292202Y-76704997D01*
X244292201Y-76704998D01*
X244221026Y-76791724D01*
X244150454Y-76923754D01*
X244106998Y-77067015D01*
X244092324Y-77216000D01*
X244096001Y-77253332D01*
X244096000Y-86553198D01*
X242058998Y-88590201D01*
X242030000Y-88613999D01*
X242006202Y-88642997D01*
X242006201Y-88642998D01*
X241935026Y-88729724D01*
X241864454Y-88861754D01*
X241848910Y-88912998D01*
X241820998Y-89005014D01*
X241819584Y-89019368D01*
X241806324Y-89154000D01*
X241810001Y-89191332D01*
X241810001Y-89315807D01*
X241746014Y-89263294D01*
X241488034Y-89125401D01*
X241208111Y-89040487D01*
X240989950Y-89019000D01*
X240594050Y-89019000D01*
X240375889Y-89040487D01*
X240095966Y-89125401D01*
X239837986Y-89263294D01*
X239611866Y-89448866D01*
X239426294Y-89674986D01*
X239389405Y-89744000D01*
X237630803Y-89744000D01*
X233532801Y-85646000D01*
X234688678Y-85646000D01*
X234726000Y-85649676D01*
X234763322Y-85646000D01*
X234763333Y-85646000D01*
X234874986Y-85635003D01*
X235018247Y-85591546D01*
X235150276Y-85520974D01*
X235266001Y-85426001D01*
X235289804Y-85396997D01*
X235762801Y-84924000D01*
X238924928Y-84924000D01*
X238937188Y-85048482D01*
X238973498Y-85168180D01*
X239032463Y-85278494D01*
X239111815Y-85375185D01*
X239208506Y-85454537D01*
X239318820Y-85513502D01*
X239438518Y-85549812D01*
X239563000Y-85562072D01*
X240252250Y-85559000D01*
X240411000Y-85400250D01*
X240411000Y-84201000D01*
X240665000Y-84201000D01*
X240665000Y-85400250D01*
X240823750Y-85559000D01*
X241513000Y-85562072D01*
X241637482Y-85549812D01*
X241757180Y-85513502D01*
X241867494Y-85454537D01*
X241964185Y-85375185D01*
X242043537Y-85278494D01*
X242102502Y-85168180D01*
X242138812Y-85048482D01*
X242151072Y-84924000D01*
X242148000Y-84359750D01*
X241989250Y-84201000D01*
X240665000Y-84201000D01*
X240411000Y-84201000D01*
X239086750Y-84201000D01*
X238928000Y-84359750D01*
X238924928Y-84924000D01*
X235762801Y-84924000D01*
X238938029Y-81748773D01*
X238949487Y-81865111D01*
X239034401Y-82145034D01*
X239172294Y-82403014D01*
X239353608Y-82623945D01*
X239318820Y-82634498D01*
X239208506Y-82693463D01*
X239111815Y-82772815D01*
X239032463Y-82869506D01*
X238973498Y-82979820D01*
X238937188Y-83099518D01*
X238924928Y-83224000D01*
X238928000Y-83788250D01*
X239086750Y-83947000D01*
X240411000Y-83947000D01*
X240411000Y-83927000D01*
X240665000Y-83927000D01*
X240665000Y-83947000D01*
X241989250Y-83947000D01*
X242148000Y-83788250D01*
X242151072Y-83224000D01*
X242138812Y-83099518D01*
X242102502Y-82979820D01*
X242043537Y-82869506D01*
X241964185Y-82772815D01*
X241867494Y-82693463D01*
X241757180Y-82634498D01*
X241722392Y-82623945D01*
X241903706Y-82403014D01*
X242041599Y-82145034D01*
X242126513Y-81865111D01*
X242155185Y-81574000D01*
X242126513Y-81282889D01*
X242041599Y-81002966D01*
X241903706Y-80744986D01*
X241718134Y-80518866D01*
X241492014Y-80333294D01*
X241474626Y-80324000D01*
X241492014Y-80314706D01*
X241718134Y-80129134D01*
X241903706Y-79903014D01*
X242041599Y-79645034D01*
X242126513Y-79365111D01*
X242155185Y-79074000D01*
X242126513Y-78782889D01*
X242041599Y-78502966D01*
X241903706Y-78244986D01*
X241718134Y-78018866D01*
X241492014Y-77833294D01*
X241234034Y-77695401D01*
X240954111Y-77610487D01*
X240735950Y-77589000D01*
X240340050Y-77589000D01*
X240121889Y-77610487D01*
X239841966Y-77695401D01*
X239583986Y-77833294D01*
X239357866Y-78018866D01*
X239172294Y-78244986D01*
X239034401Y-78502966D01*
X238949487Y-78782889D01*
X238920815Y-79074000D01*
X238949487Y-79365111D01*
X239001296Y-79535902D01*
X234411199Y-84126000D01*
X231002178Y-84126000D01*
X230877475Y-83939368D01*
X230670632Y-83732525D01*
X230496240Y-83616000D01*
X230670632Y-83499475D01*
X230877475Y-83292632D01*
X231039990Y-83049411D01*
X231151932Y-82779158D01*
X231209000Y-82492260D01*
X231209000Y-82199740D01*
X231151932Y-81912842D01*
X231039990Y-81642589D01*
X230877475Y-81399368D01*
X230670632Y-81192525D01*
X230496240Y-81076000D01*
X230670632Y-80959475D01*
X230877475Y-80752632D01*
X231039990Y-80509411D01*
X231151932Y-80239158D01*
X231209000Y-79952260D01*
X231209000Y-79659740D01*
X231151932Y-79372842D01*
X231039990Y-79102589D01*
X230877475Y-78859368D01*
X230670632Y-78652525D01*
X230496240Y-78536000D01*
X230670632Y-78419475D01*
X230877475Y-78212632D01*
X231039990Y-77969411D01*
X231151932Y-77699158D01*
X231209000Y-77412260D01*
X231209000Y-77119740D01*
X231151932Y-76832842D01*
X231039990Y-76562589D01*
X230877475Y-76319368D01*
X230670632Y-76112525D01*
X230496240Y-75996000D01*
X230670632Y-75879475D01*
X230877475Y-75672632D01*
X231039990Y-75429411D01*
X231151932Y-75159158D01*
X231209000Y-74872260D01*
X231209000Y-74579740D01*
X231151932Y-74292842D01*
X231039990Y-74022589D01*
X230877475Y-73779368D01*
X230745620Y-73647513D01*
X230818180Y-73625502D01*
X230928494Y-73566537D01*
X231025185Y-73487185D01*
X231104537Y-73390494D01*
X231163502Y-73280180D01*
X231199812Y-73160482D01*
X231212072Y-73036000D01*
X231209000Y-72471750D01*
X231050250Y-72313000D01*
X229851000Y-72313000D01*
X229851000Y-72333000D01*
X229597000Y-72333000D01*
X229597000Y-72313000D01*
X227311000Y-72313000D01*
X227311000Y-72333000D01*
X227057000Y-72333000D01*
X227057000Y-72313000D01*
X225863845Y-72313000D01*
X225742524Y-72542890D01*
X225787175Y-72690099D01*
X225912359Y-72952920D01*
X226086412Y-73186269D01*
X226302645Y-73381178D01*
X226419534Y-73450805D01*
X226237368Y-73572525D01*
X226030525Y-73779368D01*
X225868010Y-74022589D01*
X225756068Y-74292842D01*
X225699000Y-74579740D01*
X225699000Y-74872260D01*
X225756068Y-75159158D01*
X225868010Y-75429411D01*
X226030525Y-75672632D01*
X226237368Y-75879475D01*
X226411760Y-75996000D01*
X226237368Y-76112525D01*
X226030525Y-76319368D01*
X225868010Y-76562589D01*
X225756068Y-76832842D01*
X225699000Y-77119740D01*
X225699000Y-77412260D01*
X225756068Y-77699158D01*
X225868010Y-77969411D01*
X226030525Y-78212632D01*
X226237368Y-78419475D01*
X226411760Y-78536000D01*
X226237368Y-78652525D01*
X226030525Y-78859368D01*
X225868010Y-79102589D01*
X225756068Y-79372842D01*
X225699000Y-79659740D01*
X225699000Y-79952260D01*
X225756068Y-80239158D01*
X225868010Y-80509411D01*
X226030525Y-80752632D01*
X226237368Y-80959475D01*
X226411760Y-81076000D01*
X226237368Y-81192525D01*
X226030525Y-81399368D01*
X225868010Y-81642589D01*
X225756068Y-81912842D01*
X225699000Y-82199740D01*
X225699000Y-82492260D01*
X225756068Y-82779158D01*
X225868010Y-83049411D01*
X226030525Y-83292632D01*
X226237368Y-83499475D01*
X226411760Y-83616000D01*
X226237368Y-83732525D01*
X226030525Y-83939368D01*
X225868010Y-84182589D01*
X225756068Y-84452842D01*
X225699000Y-84739740D01*
X225699000Y-85032260D01*
X225756068Y-85319158D01*
X225868010Y-85589411D01*
X226030525Y-85832632D01*
X226237368Y-86039475D01*
X226411760Y-86156000D01*
X226237368Y-86272525D01*
X226030525Y-86479368D01*
X225868010Y-86722589D01*
X225756068Y-86992842D01*
X225699000Y-87279740D01*
X225699000Y-87572260D01*
X225756068Y-87859158D01*
X225868010Y-88129411D01*
X226030525Y-88372632D01*
X226237368Y-88579475D01*
X226411760Y-88696000D01*
X226237368Y-88812525D01*
X226030525Y-89019368D01*
X225868010Y-89262589D01*
X225756068Y-89532842D01*
X225699000Y-89819740D01*
X225699000Y-90112260D01*
X225756068Y-90399158D01*
X225868010Y-90669411D01*
X226030525Y-90912632D01*
X226237368Y-91119475D01*
X226411760Y-91236000D01*
X226237368Y-91352525D01*
X226030525Y-91559368D01*
X225868010Y-91802589D01*
X225756068Y-92072842D01*
X225699000Y-92359740D01*
X225699000Y-92652260D01*
X225756068Y-92939158D01*
X225868010Y-93209411D01*
X226030525Y-93452632D01*
X226237368Y-93659475D01*
X226411760Y-93776000D01*
X226237368Y-93892525D01*
X226030525Y-94099368D01*
X225868010Y-94342589D01*
X225756068Y-94612842D01*
X225699000Y-94899740D01*
X225699000Y-95192260D01*
X225756068Y-95479158D01*
X225868010Y-95749411D01*
X226030525Y-95992632D01*
X226237368Y-96199475D01*
X226411760Y-96316000D01*
X226237368Y-96432525D01*
X226030525Y-96639368D01*
X225868010Y-96882589D01*
X225756068Y-97152842D01*
X225699000Y-97439740D01*
X225699000Y-97732260D01*
X225756068Y-98019158D01*
X225868010Y-98289411D01*
X226030525Y-98532632D01*
X226237368Y-98739475D01*
X226411760Y-98856000D01*
X226237368Y-98972525D01*
X226030525Y-99179368D01*
X225868010Y-99422589D01*
X225756068Y-99692842D01*
X225699000Y-99979740D01*
X225699000Y-100272260D01*
X225756068Y-100559158D01*
X225868010Y-100829411D01*
X226030525Y-101072632D01*
X226237368Y-101279475D01*
X226411760Y-101396000D01*
X226237368Y-101512525D01*
X226030525Y-101719368D01*
X225868010Y-101962589D01*
X225756068Y-102232842D01*
X225699000Y-102519740D01*
X225699000Y-102812260D01*
X225756068Y-103099158D01*
X225868010Y-103369411D01*
X226030525Y-103612632D01*
X226237368Y-103819475D01*
X226411760Y-103936000D01*
X226237368Y-104052525D01*
X226030525Y-104259368D01*
X225868010Y-104502589D01*
X225756068Y-104772842D01*
X225699000Y-105059740D01*
X225699000Y-105352260D01*
X225756068Y-105639158D01*
X225868010Y-105909411D01*
X226030525Y-106152632D01*
X226237368Y-106359475D01*
X226411760Y-106476000D01*
X226237368Y-106592525D01*
X226030525Y-106799368D01*
X225868010Y-107042589D01*
X225756068Y-107312842D01*
X225699000Y-107599740D01*
X225699000Y-107892260D01*
X225756068Y-108179158D01*
X225868010Y-108449411D01*
X226030525Y-108692632D01*
X226237368Y-108899475D01*
X226411760Y-109016000D01*
X226237368Y-109132525D01*
X226030525Y-109339368D01*
X225868010Y-109582589D01*
X225756068Y-109852842D01*
X225699000Y-110139740D01*
X225699000Y-110432260D01*
X225756068Y-110719158D01*
X225868010Y-110989411D01*
X226030525Y-111232632D01*
X226237368Y-111439475D01*
X226411760Y-111556000D01*
X226237368Y-111672525D01*
X226030525Y-111879368D01*
X225868010Y-112122589D01*
X225756068Y-112392842D01*
X225699000Y-112679740D01*
X225699000Y-112972260D01*
X225756068Y-113259158D01*
X225868010Y-113529411D01*
X226030525Y-113772632D01*
X226237368Y-113979475D01*
X226411760Y-114096000D01*
X226237368Y-114212525D01*
X226030525Y-114419368D01*
X225868010Y-114662589D01*
X225756068Y-114932842D01*
X225699000Y-115219740D01*
X225699000Y-115512260D01*
X225756068Y-115799158D01*
X225868010Y-116069411D01*
X226030525Y-116312632D01*
X226237368Y-116519475D01*
X226411760Y-116636000D01*
X226237368Y-116752525D01*
X226030525Y-116959368D01*
X225868010Y-117202589D01*
X225756068Y-117472842D01*
X225699000Y-117759740D01*
X225699000Y-118052260D01*
X225756068Y-118339158D01*
X225868010Y-118609411D01*
X226030525Y-118852632D01*
X226237368Y-119059475D01*
X226411760Y-119176000D01*
X226237368Y-119292525D01*
X226030525Y-119499368D01*
X225868010Y-119742589D01*
X225756068Y-120012842D01*
X225699000Y-120299740D01*
X225699000Y-120592260D01*
X225756068Y-120879158D01*
X225868010Y-121149411D01*
X226030525Y-121392632D01*
X226237368Y-121599475D01*
X226411760Y-121716000D01*
X226237368Y-121832525D01*
X226030525Y-122039368D01*
X225868010Y-122282589D01*
X225756068Y-122552842D01*
X225699000Y-122839740D01*
X225699000Y-123132260D01*
X225756068Y-123419158D01*
X225868010Y-123689411D01*
X226030525Y-123932632D01*
X226237368Y-124139475D01*
X226411760Y-124256000D01*
X226237368Y-124372525D01*
X226030525Y-124579368D01*
X225868010Y-124822589D01*
X225852891Y-124859091D01*
X223635001Y-122641202D01*
X223635001Y-120512323D01*
X223638677Y-120475000D01*
X223635001Y-120437677D01*
X223635001Y-120437668D01*
X223624004Y-120326015D01*
X223580547Y-120182754D01*
X223509975Y-120050725D01*
X223476754Y-120010246D01*
X223492247Y-120005546D01*
X223624276Y-119934974D01*
X223740001Y-119840001D01*
X223763804Y-119810998D01*
X224711003Y-118863799D01*
X224740001Y-118840001D01*
X224834974Y-118724276D01*
X224905546Y-118592247D01*
X224949003Y-118448986D01*
X224960000Y-118337333D01*
X224963677Y-118300000D01*
X224960000Y-118262667D01*
X224960000Y-112837322D01*
X224963676Y-112799999D01*
X224960000Y-112762676D01*
X224960000Y-112762667D01*
X224949003Y-112651014D01*
X224905546Y-112507753D01*
X224834974Y-112375724D01*
X224740001Y-112259999D01*
X224711004Y-112236202D01*
X223643804Y-111169002D01*
X223620001Y-111139999D01*
X223504276Y-111045026D01*
X223372247Y-110974454D01*
X223228986Y-110930997D01*
X223117333Y-110920000D01*
X223117322Y-110920000D01*
X223080000Y-110916324D01*
X223042678Y-110920000D01*
X222978178Y-110920000D01*
X222853475Y-110733368D01*
X222646632Y-110526525D01*
X222464466Y-110404805D01*
X222581355Y-110335178D01*
X222797588Y-110140269D01*
X222971641Y-109906920D01*
X223096825Y-109644099D01*
X223141476Y-109496890D01*
X223020155Y-109267000D01*
X221827000Y-109267000D01*
X221827000Y-109287000D01*
X221573000Y-109287000D01*
X221573000Y-109267000D01*
X220379845Y-109267000D01*
X220258524Y-109496890D01*
X220303175Y-109644099D01*
X220428359Y-109906920D01*
X220602412Y-110140269D01*
X220818645Y-110335178D01*
X220935534Y-110404805D01*
X220753368Y-110526525D01*
X220546525Y-110733368D01*
X220384010Y-110976589D01*
X220272068Y-111246842D01*
X220215000Y-111533740D01*
X220215000Y-111826260D01*
X220272068Y-112113158D01*
X220384010Y-112383411D01*
X220546525Y-112626632D01*
X220753368Y-112833475D01*
X220927760Y-112950000D01*
X220753368Y-113066525D01*
X220546525Y-113273368D01*
X220384010Y-113516589D01*
X220272068Y-113786842D01*
X220215000Y-114073740D01*
X220215000Y-114366260D01*
X220272068Y-114653158D01*
X220384010Y-114923411D01*
X220546525Y-115166632D01*
X220753368Y-115373475D01*
X220927760Y-115490000D01*
X220753368Y-115606525D01*
X220546525Y-115813368D01*
X220421822Y-116000000D01*
X219577323Y-116000000D01*
X219540000Y-115996324D01*
X219502677Y-116000000D01*
X219502667Y-116000000D01*
X219391014Y-116010997D01*
X219275623Y-116046000D01*
X219247753Y-116054454D01*
X219115723Y-116125026D01*
X219071006Y-116161725D01*
X218999999Y-116219999D01*
X218976201Y-116248997D01*
X217189003Y-118036196D01*
X217159999Y-118059999D01*
X217118965Y-118110000D01*
X217065026Y-118175724D01*
X217032287Y-118236974D01*
X216994454Y-118307754D01*
X216950997Y-118451015D01*
X216940000Y-118562668D01*
X216940000Y-118562678D01*
X216936324Y-118600000D01*
X216940000Y-118637323D01*
X216940001Y-123862668D01*
X216936324Y-123900000D01*
X216940001Y-123937333D01*
X216950212Y-124041000D01*
X216950998Y-124048985D01*
X216994454Y-124192246D01*
X217065026Y-124324276D01*
X217107701Y-124376275D01*
X217160000Y-124440001D01*
X217188998Y-124463799D01*
X219566012Y-126840814D01*
X219494247Y-126802454D01*
X219350986Y-126758997D01*
X219239333Y-126748000D01*
X219239322Y-126748000D01*
X219202000Y-126744324D01*
X219164678Y-126748000D01*
X194878803Y-126748000D01*
X191768000Y-123637199D01*
X191768000Y-105750000D01*
X220211928Y-105750000D01*
X220211928Y-107450000D01*
X220224188Y-107574482D01*
X220260498Y-107694180D01*
X220319463Y-107804494D01*
X220398815Y-107901185D01*
X220495506Y-107980537D01*
X220605820Y-108039502D01*
X220686466Y-108063966D01*
X220602412Y-108139731D01*
X220428359Y-108373080D01*
X220303175Y-108635901D01*
X220258524Y-108783110D01*
X220379845Y-109013000D01*
X221573000Y-109013000D01*
X221573000Y-108993000D01*
X221827000Y-108993000D01*
X221827000Y-109013000D01*
X223020155Y-109013000D01*
X223141476Y-108783110D01*
X223096825Y-108635901D01*
X222971641Y-108373080D01*
X222797588Y-108139731D01*
X222713534Y-108063966D01*
X222794180Y-108039502D01*
X222904494Y-107980537D01*
X223001185Y-107901185D01*
X223080537Y-107804494D01*
X223139502Y-107694180D01*
X223175812Y-107574482D01*
X223188072Y-107450000D01*
X223188072Y-105750000D01*
X223175812Y-105625518D01*
X223139502Y-105505820D01*
X223080537Y-105395506D01*
X223001185Y-105298815D01*
X222904494Y-105219463D01*
X222794180Y-105160498D01*
X222674482Y-105124188D01*
X222550000Y-105111928D01*
X220850000Y-105111928D01*
X220725518Y-105124188D01*
X220605820Y-105160498D01*
X220495506Y-105219463D01*
X220398815Y-105298815D01*
X220319463Y-105395506D01*
X220260498Y-105505820D01*
X220224188Y-105625518D01*
X220211928Y-105750000D01*
X191768000Y-105750000D01*
X191768000Y-86143325D01*
X191771676Y-86106000D01*
X191768000Y-86068675D01*
X191768000Y-86068667D01*
X191757003Y-85957014D01*
X191713546Y-85813753D01*
X191642974Y-85681724D01*
X191548001Y-85565999D01*
X191519003Y-85542201D01*
X190271804Y-84295003D01*
X190248001Y-84265999D01*
X190132276Y-84171026D01*
X190000247Y-84100454D01*
X189856986Y-84056997D01*
X189745333Y-84046000D01*
X189745322Y-84046000D01*
X189708000Y-84042324D01*
X189670678Y-84046000D01*
X180242178Y-84046000D01*
X180117475Y-83859368D01*
X179910632Y-83652525D01*
X179736240Y-83536000D01*
X179910632Y-83419475D01*
X180117475Y-83212632D01*
X180279990Y-82969411D01*
X180391932Y-82699158D01*
X180449000Y-82412260D01*
X180449000Y-82119740D01*
X180391932Y-81832842D01*
X180279990Y-81562589D01*
X180117475Y-81319368D01*
X179910632Y-81112525D01*
X179736240Y-80996000D01*
X179910632Y-80879475D01*
X180117475Y-80672632D01*
X180279990Y-80429411D01*
X180391932Y-80159158D01*
X180449000Y-79872260D01*
X180449000Y-79579740D01*
X180391932Y-79292842D01*
X180279990Y-79022589D01*
X180117475Y-78779368D01*
X179910632Y-78572525D01*
X179728466Y-78450805D01*
X179845355Y-78381178D01*
X180061588Y-78186269D01*
X180235641Y-77952920D01*
X180360825Y-77690099D01*
X180405476Y-77542890D01*
X180284155Y-77313000D01*
X179091000Y-77313000D01*
X179091000Y-77333000D01*
X178837000Y-77333000D01*
X178837000Y-77313000D01*
X178817000Y-77313000D01*
X178817000Y-77059000D01*
X178837000Y-77059000D01*
X178837000Y-77039000D01*
X179091000Y-77039000D01*
X179091000Y-77059000D01*
X180284155Y-77059000D01*
X180405476Y-76829110D01*
X180360825Y-76681901D01*
X180235641Y-76419080D01*
X180061588Y-76185731D01*
X179845355Y-75990822D01*
X179728466Y-75921195D01*
X179910632Y-75799475D01*
X180117475Y-75592632D01*
X180279990Y-75349411D01*
X180391932Y-75079158D01*
X180449000Y-74792260D01*
X180449000Y-74499740D01*
X180391932Y-74212842D01*
X180279990Y-73942589D01*
X180117475Y-73699368D01*
X179985620Y-73567513D01*
X180058180Y-73545502D01*
X180168494Y-73486537D01*
X180265185Y-73407185D01*
X180344537Y-73310494D01*
X180403502Y-73200180D01*
X180439812Y-73080482D01*
X180452072Y-72956000D01*
X180449000Y-72391750D01*
X180290250Y-72233000D01*
X179091000Y-72233000D01*
X179091000Y-72253000D01*
X178837000Y-72253000D01*
X178837000Y-72233000D01*
X176551000Y-72233000D01*
X176551000Y-72253000D01*
X176297000Y-72253000D01*
X176297000Y-72233000D01*
X176277000Y-72233000D01*
X176277000Y-71979000D01*
X176297000Y-71979000D01*
X176297000Y-70785186D01*
X176551000Y-70785186D01*
X176551000Y-71979000D01*
X178837000Y-71979000D01*
X178837000Y-70779750D01*
X179091000Y-70779750D01*
X179091000Y-71979000D01*
X180290250Y-71979000D01*
X180440140Y-71829110D01*
X225742524Y-71829110D01*
X225863845Y-72059000D01*
X227057000Y-72059000D01*
X227057000Y-70865186D01*
X227311000Y-70865186D01*
X227311000Y-72059000D01*
X229597000Y-72059000D01*
X229597000Y-70859750D01*
X229851000Y-70859750D01*
X229851000Y-72059000D01*
X231050250Y-72059000D01*
X231139250Y-71970000D01*
X236384928Y-71970000D01*
X236397188Y-72094482D01*
X236433498Y-72214180D01*
X236492463Y-72324494D01*
X236571815Y-72421185D01*
X236668506Y-72500537D01*
X236778820Y-72559502D01*
X236898518Y-72595812D01*
X237023000Y-72608072D01*
X237712250Y-72605000D01*
X237871000Y-72446250D01*
X237871000Y-71247000D01*
X238125000Y-71247000D01*
X238125000Y-72446250D01*
X238283750Y-72605000D01*
X238973000Y-72608072D01*
X239097482Y-72595812D01*
X239217180Y-72559502D01*
X239327494Y-72500537D01*
X239424185Y-72421185D01*
X239503537Y-72324494D01*
X239562502Y-72214180D01*
X239598812Y-72094482D01*
X239611072Y-71970000D01*
X242480928Y-71970000D01*
X242493188Y-72094482D01*
X242529498Y-72214180D01*
X242588463Y-72324494D01*
X242667815Y-72421185D01*
X242764506Y-72500537D01*
X242874820Y-72559502D01*
X242994518Y-72595812D01*
X243119000Y-72608072D01*
X243808250Y-72605000D01*
X243967000Y-72446250D01*
X243967000Y-71247000D01*
X244221000Y-71247000D01*
X244221000Y-72446250D01*
X244379750Y-72605000D01*
X245069000Y-72608072D01*
X245193482Y-72595812D01*
X245313180Y-72559502D01*
X245423494Y-72500537D01*
X245520185Y-72421185D01*
X245599537Y-72324494D01*
X245658502Y-72214180D01*
X245694812Y-72094482D01*
X245707072Y-71970000D01*
X245704000Y-71405750D01*
X245545250Y-71247000D01*
X244221000Y-71247000D01*
X243967000Y-71247000D01*
X242642750Y-71247000D01*
X242484000Y-71405750D01*
X242480928Y-71970000D01*
X239611072Y-71970000D01*
X239608000Y-71405750D01*
X239449250Y-71247000D01*
X238125000Y-71247000D01*
X237871000Y-71247000D01*
X236546750Y-71247000D01*
X236388000Y-71405750D01*
X236384928Y-71970000D01*
X231139250Y-71970000D01*
X231209000Y-71900250D01*
X231212072Y-71336000D01*
X231199812Y-71211518D01*
X231163502Y-71091820D01*
X231104537Y-70981506D01*
X231025185Y-70884815D01*
X230928494Y-70805463D01*
X230818180Y-70746498D01*
X230698482Y-70710188D01*
X230574000Y-70697928D01*
X230009750Y-70701000D01*
X229851000Y-70859750D01*
X229597000Y-70859750D01*
X229438250Y-70701000D01*
X228874000Y-70697928D01*
X228749518Y-70710188D01*
X228629820Y-70746498D01*
X228519506Y-70805463D01*
X228422815Y-70884815D01*
X228343463Y-70981506D01*
X228284498Y-71091820D01*
X228261502Y-71167626D01*
X228065355Y-70990822D01*
X227815252Y-70841843D01*
X227540891Y-70744519D01*
X227311000Y-70865186D01*
X227057000Y-70865186D01*
X226827109Y-70744519D01*
X226552748Y-70841843D01*
X226302645Y-70990822D01*
X226086412Y-71185731D01*
X225912359Y-71419080D01*
X225787175Y-71681901D01*
X225742524Y-71829110D01*
X180440140Y-71829110D01*
X180449000Y-71820250D01*
X180452072Y-71256000D01*
X180439812Y-71131518D01*
X180403502Y-71011820D01*
X180344537Y-70901506D01*
X180265185Y-70804815D01*
X180168494Y-70725463D01*
X180058180Y-70666498D01*
X179938482Y-70630188D01*
X179814000Y-70617928D01*
X179249750Y-70621000D01*
X179091000Y-70779750D01*
X178837000Y-70779750D01*
X178678250Y-70621000D01*
X178114000Y-70617928D01*
X177989518Y-70630188D01*
X177869820Y-70666498D01*
X177759506Y-70725463D01*
X177662815Y-70804815D01*
X177583463Y-70901506D01*
X177524498Y-71011820D01*
X177501502Y-71087626D01*
X177305355Y-70910822D01*
X177055252Y-70761843D01*
X176780891Y-70664519D01*
X176551000Y-70785186D01*
X176297000Y-70785186D01*
X176067109Y-70664519D01*
X175792748Y-70761843D01*
X175542645Y-70910822D01*
X175512000Y-70938445D01*
X175512000Y-70672801D01*
X176336802Y-69848000D01*
X231610678Y-69848000D01*
X231648000Y-69851676D01*
X231685322Y-69848000D01*
X231685333Y-69848000D01*
X231796986Y-69837003D01*
X231940247Y-69793546D01*
X232072276Y-69722974D01*
X232188001Y-69628001D01*
X232211804Y-69598997D01*
X234930802Y-66880000D01*
X236595405Y-66880000D01*
X236632294Y-66949014D01*
X236817866Y-67175134D01*
X237043986Y-67360706D01*
X237061374Y-67370000D01*
X237043986Y-67379294D01*
X236817866Y-67564866D01*
X236632294Y-67790986D01*
X236494401Y-68048966D01*
X236409487Y-68328889D01*
X236380815Y-68620000D01*
X236409487Y-68911111D01*
X236494401Y-69191034D01*
X236632294Y-69449014D01*
X236813608Y-69669945D01*
X236778820Y-69680498D01*
X236668506Y-69739463D01*
X236571815Y-69818815D01*
X236492463Y-69915506D01*
X236433498Y-70025820D01*
X236397188Y-70145518D01*
X236384928Y-70270000D01*
X236388000Y-70834250D01*
X236546750Y-70993000D01*
X237871000Y-70993000D01*
X237871000Y-70973000D01*
X238125000Y-70973000D01*
X238125000Y-70993000D01*
X239449250Y-70993000D01*
X239608000Y-70834250D01*
X239611072Y-70270000D01*
X239598812Y-70145518D01*
X239562502Y-70025820D01*
X239503537Y-69915506D01*
X239424185Y-69818815D01*
X239327494Y-69739463D01*
X239217180Y-69680498D01*
X239182392Y-69669945D01*
X239363706Y-69449014D01*
X239501599Y-69191034D01*
X239586513Y-68911111D01*
X239615185Y-68620000D01*
X239586513Y-68328889D01*
X239501599Y-68048966D01*
X239363706Y-67790986D01*
X239178134Y-67564866D01*
X238952014Y-67379294D01*
X238934626Y-67370000D01*
X238952014Y-67360706D01*
X239178134Y-67175134D01*
X239363706Y-66949014D01*
X239501599Y-66691034D01*
X239586513Y-66411111D01*
X239615185Y-66120000D01*
X239586513Y-65828889D01*
X239501599Y-65548966D01*
X239363706Y-65290986D01*
X239178134Y-65064866D01*
X239125902Y-65022000D01*
X241921199Y-65022000D01*
X242557296Y-65658098D01*
X242505487Y-65828889D01*
X242476815Y-66120000D01*
X242505487Y-66411111D01*
X242590401Y-66691034D01*
X242728294Y-66949014D01*
X242913866Y-67175134D01*
X243139986Y-67360706D01*
X243157374Y-67370000D01*
X243139986Y-67379294D01*
X242913866Y-67564866D01*
X242728294Y-67790986D01*
X242590401Y-68048966D01*
X242505487Y-68328889D01*
X242476815Y-68620000D01*
X242505487Y-68911111D01*
X242590401Y-69191034D01*
X242728294Y-69449014D01*
X242909608Y-69669945D01*
X242874820Y-69680498D01*
X242764506Y-69739463D01*
X242667815Y-69818815D01*
X242588463Y-69915506D01*
X242529498Y-70025820D01*
X242493188Y-70145518D01*
X242480928Y-70270000D01*
X242484000Y-70834250D01*
X242642750Y-70993000D01*
X243967000Y-70993000D01*
X243967000Y-70973000D01*
X244221000Y-70973000D01*
X244221000Y-70993000D01*
X245545250Y-70993000D01*
X245704000Y-70834250D01*
X245707072Y-70270000D01*
X245694812Y-70145518D01*
X245658502Y-70025820D01*
X245599537Y-69915506D01*
X245520185Y-69818815D01*
X245423494Y-69739463D01*
X245313180Y-69680498D01*
X245278392Y-69669945D01*
X245459706Y-69449014D01*
X245597599Y-69191034D01*
X245682513Y-68911111D01*
X245711185Y-68620000D01*
X245682513Y-68328889D01*
X245597599Y-68048966D01*
X245459706Y-67790986D01*
X245274134Y-67564866D01*
X245048014Y-67379294D01*
X245030626Y-67370000D01*
X245048014Y-67360706D01*
X245274134Y-67175134D01*
X245459706Y-66949014D01*
X245597599Y-66691034D01*
X245682513Y-66411111D01*
X245711185Y-66120000D01*
X245682513Y-65828889D01*
X245597599Y-65548966D01*
X245459706Y-65290986D01*
X245274134Y-65064866D01*
X245048014Y-64879294D01*
X244790034Y-64741401D01*
X244510111Y-64656487D01*
X244291950Y-64635000D01*
X243896050Y-64635000D01*
X243702832Y-64654030D01*
X243391912Y-64343110D01*
X248369524Y-64343110D01*
X248490845Y-64573000D01*
X249809000Y-64573000D01*
X249809000Y-63373835D01*
X250063000Y-63373835D01*
X250063000Y-64573000D01*
X251381155Y-64573000D01*
X251502476Y-64343110D01*
X251410352Y-64080142D01*
X251263496Y-63828807D01*
X251070429Y-63610951D01*
X250838570Y-63434947D01*
X250576830Y-63307558D01*
X250295267Y-63233680D01*
X250063000Y-63373835D01*
X249809000Y-63373835D01*
X249576733Y-63233680D01*
X249295170Y-63307558D01*
X249033430Y-63434947D01*
X248801571Y-63610951D01*
X248608504Y-63828807D01*
X248461648Y-64080142D01*
X248369524Y-64343110D01*
X243391912Y-64343110D01*
X242799804Y-63751003D01*
X242776001Y-63721999D01*
X242660276Y-63627026D01*
X242528247Y-63556454D01*
X242384986Y-63512997D01*
X242273333Y-63502000D01*
X242273322Y-63502000D01*
X242236000Y-63498324D01*
X242198678Y-63502000D01*
X234987322Y-63502000D01*
X234949999Y-63498324D01*
X234912676Y-63502000D01*
X234912667Y-63502000D01*
X234801014Y-63512997D01*
X234657753Y-63556454D01*
X234525724Y-63627026D01*
X234525722Y-63627027D01*
X234525723Y-63627027D01*
X234438996Y-63698201D01*
X234438992Y-63698205D01*
X234409999Y-63721999D01*
X234386205Y-63750992D01*
X231079199Y-67058000D01*
X178871884Y-67058000D01*
X179058669Y-66980631D01*
X179424729Y-66736038D01*
X179736038Y-66424729D01*
X179980631Y-66058669D01*
X180149110Y-65651925D01*
X180235000Y-65220128D01*
X180235000Y-64779872D01*
X180149110Y-64348075D01*
X179980631Y-63941331D01*
X179736038Y-63575271D01*
X179424729Y-63263962D01*
X179058669Y-63019369D01*
X178651925Y-62850890D01*
X178220128Y-62765000D01*
X177779872Y-62765000D01*
X177348075Y-62850890D01*
X176941331Y-63019369D01*
X176575271Y-63263962D01*
X176263962Y-63575271D01*
X176019369Y-63941331D01*
X175850890Y-64348075D01*
X175765000Y-64779872D01*
X175765000Y-65220128D01*
X175850890Y-65651925D01*
X176019369Y-66058669D01*
X176263962Y-66424729D01*
X176575271Y-66736038D01*
X176941331Y-66980631D01*
X177128116Y-67058000D01*
X175551322Y-67058000D01*
X175513999Y-67054324D01*
X175476676Y-67058000D01*
X175476667Y-67058000D01*
X175365014Y-67068997D01*
X175221753Y-67112454D01*
X175089724Y-67183026D01*
X175089722Y-67183027D01*
X175089723Y-67183027D01*
X175002996Y-67254201D01*
X175002992Y-67254205D01*
X174973999Y-67277999D01*
X174950205Y-67306992D01*
X173660000Y-68597199D01*
X173660000Y-62660000D01*
X252340000Y-62660000D01*
X252340000Y-66861199D01*
G37*
%TD.AperFunction*%
D17*
X181358001Y-95894803D02*
X181358000Y-124225198D01*
X180405209Y-123272408D01*
X180449000Y-123052260D01*
X180449000Y-122759740D01*
X180391932Y-122472842D01*
X180279990Y-122202589D01*
X180117475Y-121959368D01*
X179910632Y-121752525D01*
X179736240Y-121636000D01*
X179910632Y-121519475D01*
X180117475Y-121312632D01*
X180279990Y-121069411D01*
X180391932Y-120799158D01*
X180449000Y-120512260D01*
X180449000Y-120219740D01*
X180391932Y-119932842D01*
X180279990Y-119662589D01*
X180117475Y-119419368D01*
X179910632Y-119212525D01*
X179736240Y-119096000D01*
X179910632Y-118979475D01*
X180117475Y-118772632D01*
X180279990Y-118529411D01*
X180391932Y-118259158D01*
X180449000Y-117972260D01*
X180449000Y-117679740D01*
X180391932Y-117392842D01*
X180279990Y-117122589D01*
X180117475Y-116879368D01*
X179910632Y-116672525D01*
X179736240Y-116556000D01*
X179910632Y-116439475D01*
X180117475Y-116232632D01*
X180279990Y-115989411D01*
X180391932Y-115719158D01*
X180449000Y-115432260D01*
X180449000Y-115139740D01*
X180391932Y-114852842D01*
X180279990Y-114582589D01*
X180117475Y-114339368D01*
X179910632Y-114132525D01*
X179736240Y-114016000D01*
X179910632Y-113899475D01*
X180117475Y-113692632D01*
X180279990Y-113449411D01*
X180391932Y-113179158D01*
X180449000Y-112892260D01*
X180449000Y-112599740D01*
X180391932Y-112312842D01*
X180279990Y-112042589D01*
X180117475Y-111799368D01*
X179910632Y-111592525D01*
X179736240Y-111476000D01*
X179910632Y-111359475D01*
X180117475Y-111152632D01*
X180279990Y-110909411D01*
X180391932Y-110639158D01*
X180449000Y-110352260D01*
X180449000Y-110059740D01*
X180391932Y-109772842D01*
X180279990Y-109502589D01*
X180117475Y-109259368D01*
X179910632Y-109052525D01*
X179736240Y-108936000D01*
X179910632Y-108819475D01*
X180117475Y-108612632D01*
X180279990Y-108369411D01*
X180391932Y-108099158D01*
X180449000Y-107812260D01*
X180449000Y-107519740D01*
X180391932Y-107232842D01*
X180279990Y-106962589D01*
X180117475Y-106719368D01*
X179910632Y-106512525D01*
X179736240Y-106396000D01*
X179910632Y-106279475D01*
X180117475Y-106072632D01*
X180279990Y-105829411D01*
X180391932Y-105559158D01*
X180449000Y-105272260D01*
X180449000Y-104979740D01*
X180391932Y-104692842D01*
X180279990Y-104422589D01*
X180117475Y-104179368D01*
X179910632Y-103972525D01*
X179736240Y-103856000D01*
X179910632Y-103739475D01*
X180117475Y-103532632D01*
X180279990Y-103289411D01*
X180391932Y-103019158D01*
X180449000Y-102732260D01*
X180449000Y-102439740D01*
X180391932Y-102152842D01*
X180279990Y-101882589D01*
X180117475Y-101639368D01*
X179910632Y-101432525D01*
X179728466Y-101310805D01*
X179845355Y-101241178D01*
X180061588Y-101046269D01*
X180235641Y-100812920D01*
X180360825Y-100550099D01*
X180405476Y-100402890D01*
X180284155Y-100173000D01*
X179091000Y-100173000D01*
X179091000Y-100193000D01*
X178837000Y-100193000D01*
X178837000Y-100173000D01*
X178817000Y-100173000D01*
X178817000Y-99919000D01*
X178837000Y-99919000D01*
X178837000Y-99899000D01*
X179091000Y-99899000D01*
X179091000Y-99919000D01*
X180284155Y-99919000D01*
X180405476Y-99689110D01*
X180360825Y-99541901D01*
X180235641Y-99279080D01*
X180061588Y-99045731D01*
X179845355Y-98850822D01*
X179728466Y-98781195D01*
X179910632Y-98659475D01*
X180117475Y-98452632D01*
X180279990Y-98209411D01*
X180391932Y-97939158D01*
X180449000Y-97652260D01*
X180449000Y-97359740D01*
X180391932Y-97072842D01*
X180279990Y-96802589D01*
X180117475Y-96559368D01*
X179910632Y-96352525D01*
X179736240Y-96236000D01*
X179910632Y-96119475D01*
X180117475Y-95912632D01*
X180279990Y-95669411D01*
X180391932Y-95399158D01*
X180449000Y-95112260D01*
X180449000Y-94985802D01*
X181358001Y-95894803D01*
%TA.AperFunction,Conductor*%
D18*
G36*
X181358001Y-95894803D02*
G01*
X181358000Y-124225198D01*
X180405209Y-123272408D01*
X180449000Y-123052260D01*
X180449000Y-122759740D01*
X180391932Y-122472842D01*
X180279990Y-122202589D01*
X180117475Y-121959368D01*
X179910632Y-121752525D01*
X179736240Y-121636000D01*
X179910632Y-121519475D01*
X180117475Y-121312632D01*
X180279990Y-121069411D01*
X180391932Y-120799158D01*
X180449000Y-120512260D01*
X180449000Y-120219740D01*
X180391932Y-119932842D01*
X180279990Y-119662589D01*
X180117475Y-119419368D01*
X179910632Y-119212525D01*
X179736240Y-119096000D01*
X179910632Y-118979475D01*
X180117475Y-118772632D01*
X180279990Y-118529411D01*
X180391932Y-118259158D01*
X180449000Y-117972260D01*
X180449000Y-117679740D01*
X180391932Y-117392842D01*
X180279990Y-117122589D01*
X180117475Y-116879368D01*
X179910632Y-116672525D01*
X179736240Y-116556000D01*
X179910632Y-116439475D01*
X180117475Y-116232632D01*
X180279990Y-115989411D01*
X180391932Y-115719158D01*
X180449000Y-115432260D01*
X180449000Y-115139740D01*
X180391932Y-114852842D01*
X180279990Y-114582589D01*
X180117475Y-114339368D01*
X179910632Y-114132525D01*
X179736240Y-114016000D01*
X179910632Y-113899475D01*
X180117475Y-113692632D01*
X180279990Y-113449411D01*
X180391932Y-113179158D01*
X180449000Y-112892260D01*
X180449000Y-112599740D01*
X180391932Y-112312842D01*
X180279990Y-112042589D01*
X180117475Y-111799368D01*
X179910632Y-111592525D01*
X179736240Y-111476000D01*
X179910632Y-111359475D01*
X180117475Y-111152632D01*
X180279990Y-110909411D01*
X180391932Y-110639158D01*
X180449000Y-110352260D01*
X180449000Y-110059740D01*
X180391932Y-109772842D01*
X180279990Y-109502589D01*
X180117475Y-109259368D01*
X179910632Y-109052525D01*
X179736240Y-108936000D01*
X179910632Y-108819475D01*
X180117475Y-108612632D01*
X180279990Y-108369411D01*
X180391932Y-108099158D01*
X180449000Y-107812260D01*
X180449000Y-107519740D01*
X180391932Y-107232842D01*
X180279990Y-106962589D01*
X180117475Y-106719368D01*
X179910632Y-106512525D01*
X179736240Y-106396000D01*
X179910632Y-106279475D01*
X180117475Y-106072632D01*
X180279990Y-105829411D01*
X180391932Y-105559158D01*
X180449000Y-105272260D01*
X180449000Y-104979740D01*
X180391932Y-104692842D01*
X180279990Y-104422589D01*
X180117475Y-104179368D01*
X179910632Y-103972525D01*
X179736240Y-103856000D01*
X179910632Y-103739475D01*
X180117475Y-103532632D01*
X180279990Y-103289411D01*
X180391932Y-103019158D01*
X180449000Y-102732260D01*
X180449000Y-102439740D01*
X180391932Y-102152842D01*
X180279990Y-101882589D01*
X180117475Y-101639368D01*
X179910632Y-101432525D01*
X179728466Y-101310805D01*
X179845355Y-101241178D01*
X180061588Y-101046269D01*
X180235641Y-100812920D01*
X180360825Y-100550099D01*
X180405476Y-100402890D01*
X180284155Y-100173000D01*
X179091000Y-100173000D01*
X179091000Y-100193000D01*
X178837000Y-100193000D01*
X178837000Y-100173000D01*
X178817000Y-100173000D01*
X178817000Y-99919000D01*
X178837000Y-99919000D01*
X178837000Y-99899000D01*
X179091000Y-99899000D01*
X179091000Y-99919000D01*
X180284155Y-99919000D01*
X180405476Y-99689110D01*
X180360825Y-99541901D01*
X180235641Y-99279080D01*
X180061588Y-99045731D01*
X179845355Y-98850822D01*
X179728466Y-98781195D01*
X179910632Y-98659475D01*
X180117475Y-98452632D01*
X180279990Y-98209411D01*
X180391932Y-97939158D01*
X180449000Y-97652260D01*
X180449000Y-97359740D01*
X180391932Y-97072842D01*
X180279990Y-96802589D01*
X180117475Y-96559368D01*
X179910632Y-96352525D01*
X179736240Y-96236000D01*
X179910632Y-96119475D01*
X180117475Y-95912632D01*
X180279990Y-95669411D01*
X180391932Y-95399158D01*
X180449000Y-95112260D01*
X180449000Y-94985802D01*
X181358001Y-95894803D01*
G37*
%TD.AperFunction*%
D17*
X252340001Y-124011199D02*
X251031804Y-122703003D01*
X251008001Y-122673999D01*
X250892276Y-122579026D01*
X250760247Y-122508454D01*
X250616986Y-122464997D01*
X250505333Y-122454000D01*
X250505322Y-122454000D01*
X250468000Y-122450324D01*
X250430678Y-122454000D01*
X248544595Y-122454000D01*
X248507706Y-122384986D01*
X248322134Y-122158866D01*
X248258663Y-122106777D01*
X248360386Y-122052405D01*
X248494962Y-121941962D01*
X248605405Y-121807386D01*
X248687472Y-121653850D01*
X248738008Y-121487254D01*
X248755072Y-121314000D01*
X248755072Y-120114000D01*
X248738008Y-119940746D01*
X248687472Y-119774150D01*
X248605405Y-119620614D01*
X248494962Y-119486038D01*
X248360386Y-119375595D01*
X248206850Y-119293528D01*
X248040254Y-119242992D01*
X247867000Y-119225928D01*
X246417000Y-119225928D01*
X246330339Y-119234463D01*
X246694803Y-118870000D01*
X249390678Y-118870000D01*
X249428000Y-118873676D01*
X249465322Y-118870000D01*
X249465333Y-118870000D01*
X249576986Y-118859003D01*
X249720247Y-118815546D01*
X249852276Y-118744974D01*
X249968001Y-118650001D01*
X249991803Y-118620998D01*
X251463008Y-117149795D01*
X251492001Y-117126001D01*
X251515795Y-117097008D01*
X251515799Y-117097004D01*
X251586973Y-117010277D01*
X251598354Y-116988985D01*
X251657546Y-116878247D01*
X251701003Y-116734986D01*
X251712000Y-116623333D01*
X251712000Y-116623324D01*
X251715676Y-116586001D01*
X251712000Y-116548678D01*
X251712000Y-112305333D01*
X251715677Y-112268000D01*
X251701003Y-112119014D01*
X251657546Y-111975753D01*
X251586974Y-111843724D01*
X251515799Y-111756997D01*
X251492001Y-111727999D01*
X251463004Y-111704202D01*
X250927803Y-111169002D01*
X250904001Y-111139999D01*
X250788276Y-111045026D01*
X250656247Y-110974454D01*
X250512986Y-110930997D01*
X250401333Y-110920000D01*
X250401322Y-110920000D01*
X250364000Y-110916324D01*
X250326678Y-110920000D01*
X248544595Y-110920000D01*
X248507706Y-110850986D01*
X248322134Y-110624866D01*
X248096014Y-110439294D01*
X248070278Y-110425538D01*
X248276429Y-110269049D01*
X248469496Y-110051193D01*
X248616352Y-109799858D01*
X248708476Y-109536890D01*
X248587155Y-109307000D01*
X247269000Y-109307000D01*
X247269000Y-109327000D01*
X247015000Y-109327000D01*
X247015000Y-109307000D01*
X246995000Y-109307000D01*
X246995000Y-109053000D01*
X247015000Y-109053000D01*
X247015000Y-109033000D01*
X247269000Y-109033000D01*
X247269000Y-109053000D01*
X248587155Y-109053000D01*
X248708476Y-108823110D01*
X248616352Y-108560142D01*
X248469496Y-108308807D01*
X248276429Y-108090951D01*
X248255039Y-108074714D01*
X248360386Y-108018405D01*
X248494962Y-107907962D01*
X248605405Y-107773386D01*
X248687472Y-107619850D01*
X248738008Y-107453254D01*
X248755072Y-107280000D01*
X248755072Y-106080000D01*
X248738008Y-105906746D01*
X248687472Y-105740150D01*
X248605405Y-105586614D01*
X248494962Y-105452038D01*
X248360386Y-105341595D01*
X248206850Y-105259528D01*
X248040254Y-105208992D01*
X247867000Y-105191928D01*
X247164874Y-105191928D01*
X247653008Y-104703795D01*
X247682001Y-104680001D01*
X247705795Y-104651008D01*
X247705799Y-104651004D01*
X247776973Y-104564277D01*
X247776974Y-104564276D01*
X247847546Y-104432247D01*
X247891003Y-104288986D01*
X247902000Y-104177333D01*
X247902000Y-104177324D01*
X247905676Y-104140001D01*
X247902000Y-104102678D01*
X247902000Y-101808409D01*
X248096014Y-101704706D01*
X248322134Y-101519134D01*
X248507706Y-101293014D01*
X248645599Y-101035034D01*
X248730513Y-100755111D01*
X248759185Y-100464000D01*
X248730513Y-100172889D01*
X248645599Y-99892966D01*
X248507706Y-99634986D01*
X248322134Y-99408866D01*
X248096014Y-99223294D01*
X248078626Y-99214000D01*
X248096014Y-99204706D01*
X248322134Y-99019134D01*
X248507706Y-98793014D01*
X248645599Y-98535034D01*
X248730513Y-98255111D01*
X248759185Y-97964000D01*
X248730513Y-97672889D01*
X248645599Y-97392966D01*
X248507706Y-97134986D01*
X248322134Y-96908866D01*
X248096014Y-96723294D01*
X248070278Y-96709538D01*
X248276429Y-96553049D01*
X248469496Y-96335193D01*
X248616352Y-96083858D01*
X248708476Y-95820890D01*
X248587155Y-95591000D01*
X247269000Y-95591000D01*
X247269000Y-95611000D01*
X247015000Y-95611000D01*
X247015000Y-95591000D01*
X245696845Y-95591000D01*
X245575524Y-95820890D01*
X245667648Y-96083858D01*
X245814504Y-96335193D01*
X246007571Y-96553049D01*
X246213722Y-96709538D01*
X246187986Y-96723294D01*
X245961866Y-96908866D01*
X245776294Y-97134986D01*
X245638401Y-97392966D01*
X245553487Y-97672889D01*
X245524815Y-97964000D01*
X245553487Y-98255111D01*
X245605296Y-98425902D01*
X245362000Y-98669199D01*
X245362000Y-92364000D01*
X245528928Y-92364000D01*
X245528928Y-93564000D01*
X245545992Y-93737254D01*
X245596528Y-93903850D01*
X245678595Y-94057386D01*
X245789038Y-94191962D01*
X245923614Y-94302405D01*
X246028961Y-94358714D01*
X246007571Y-94374951D01*
X245814504Y-94592807D01*
X245667648Y-94844142D01*
X245575524Y-95107110D01*
X245696845Y-95337000D01*
X247015000Y-95337000D01*
X247015000Y-95317000D01*
X247269000Y-95317000D01*
X247269000Y-95337000D01*
X248587155Y-95337000D01*
X248708476Y-95107110D01*
X248616352Y-94844142D01*
X248469496Y-94592807D01*
X248276429Y-94374951D01*
X248255039Y-94358714D01*
X248360386Y-94302405D01*
X248494962Y-94191962D01*
X248605405Y-94057386D01*
X248687472Y-93903850D01*
X248738008Y-93737254D01*
X248755072Y-93564000D01*
X248755072Y-92364000D01*
X248738008Y-92190746D01*
X248687472Y-92024150D01*
X248605405Y-91870614D01*
X248494962Y-91736038D01*
X248360386Y-91625595D01*
X248206850Y-91543528D01*
X248040254Y-91492992D01*
X247867000Y-91475928D01*
X246417000Y-91475928D01*
X246243746Y-91492992D01*
X246077150Y-91543528D01*
X245923614Y-91625595D01*
X245789038Y-91736038D01*
X245678595Y-91870614D01*
X245596528Y-92024150D01*
X245545992Y-92190746D01*
X245528928Y-92364000D01*
X245362000Y-92364000D01*
X245362000Y-91246801D01*
X246186802Y-90422000D01*
X249136678Y-90422000D01*
X249174000Y-90425676D01*
X249211322Y-90422000D01*
X249211333Y-90422000D01*
X249322986Y-90411003D01*
X249466247Y-90367546D01*
X249598276Y-90296974D01*
X249714001Y-90202001D01*
X249737804Y-90172997D01*
X250955004Y-88955798D01*
X250984001Y-88932001D01*
X251078974Y-88816276D01*
X251149546Y-88684247D01*
X251193003Y-88540986D01*
X251204000Y-88429333D01*
X251204000Y-88429324D01*
X251207676Y-88392001D01*
X251204000Y-88354678D01*
X251204000Y-85381325D01*
X251207676Y-85344000D01*
X251204000Y-85306675D01*
X251204000Y-85306667D01*
X251193003Y-85195014D01*
X251149546Y-85051753D01*
X251078974Y-84919724D01*
X250984001Y-84803999D01*
X250955003Y-84780201D01*
X249721804Y-83547003D01*
X249698001Y-83517999D01*
X249582276Y-83423026D01*
X249450247Y-83352454D01*
X249306986Y-83308997D01*
X249195333Y-83298000D01*
X249195322Y-83298000D01*
X249158000Y-83294324D01*
X249120678Y-83298000D01*
X248544595Y-83298000D01*
X248507706Y-83228986D01*
X248322134Y-83002866D01*
X248096014Y-82817294D01*
X248070278Y-82803538D01*
X248276429Y-82647049D01*
X248469496Y-82429193D01*
X248616352Y-82177858D01*
X248708476Y-81914890D01*
X248587155Y-81685000D01*
X247269000Y-81685000D01*
X247269000Y-81705000D01*
X247015000Y-81705000D01*
X247015000Y-81685000D01*
X246995000Y-81685000D01*
X246995000Y-81431000D01*
X247015000Y-81431000D01*
X247015000Y-81411000D01*
X247269000Y-81411000D01*
X247269000Y-81431000D01*
X248587155Y-81431000D01*
X248708476Y-81201110D01*
X248616352Y-80938142D01*
X248469496Y-80686807D01*
X248276429Y-80468951D01*
X248255039Y-80452714D01*
X248360386Y-80396405D01*
X248494962Y-80285962D01*
X248605405Y-80151386D01*
X248687472Y-79997850D01*
X248738008Y-79831254D01*
X248755072Y-79658000D01*
X248755072Y-78458000D01*
X248738008Y-78284746D01*
X248687472Y-78118150D01*
X248605405Y-77964614D01*
X248494962Y-77830038D01*
X248360386Y-77719595D01*
X248206850Y-77637528D01*
X248040254Y-77586992D01*
X247867000Y-77569928D01*
X246417000Y-77569928D01*
X246330338Y-77578463D01*
X247710802Y-76198000D01*
X250660678Y-76198000D01*
X250698000Y-76201676D01*
X250735322Y-76198000D01*
X250735333Y-76198000D01*
X250846986Y-76187003D01*
X250990247Y-76143546D01*
X251122276Y-76072974D01*
X251238001Y-75978001D01*
X251261803Y-75948998D01*
X252340000Y-74870802D01*
X252340001Y-124011199D01*
%TA.AperFunction,Conductor*%
D18*
G36*
X252340001Y-124011199D02*
G01*
X251031804Y-122703003D01*
X251008001Y-122673999D01*
X250892276Y-122579026D01*
X250760247Y-122508454D01*
X250616986Y-122464997D01*
X250505333Y-122454000D01*
X250505322Y-122454000D01*
X250468000Y-122450324D01*
X250430678Y-122454000D01*
X248544595Y-122454000D01*
X248507706Y-122384986D01*
X248322134Y-122158866D01*
X248258663Y-122106777D01*
X248360386Y-122052405D01*
X248494962Y-121941962D01*
X248605405Y-121807386D01*
X248687472Y-121653850D01*
X248738008Y-121487254D01*
X248755072Y-121314000D01*
X248755072Y-120114000D01*
X248738008Y-119940746D01*
X248687472Y-119774150D01*
X248605405Y-119620614D01*
X248494962Y-119486038D01*
X248360386Y-119375595D01*
X248206850Y-119293528D01*
X248040254Y-119242992D01*
X247867000Y-119225928D01*
X246417000Y-119225928D01*
X246330339Y-119234463D01*
X246694803Y-118870000D01*
X249390678Y-118870000D01*
X249428000Y-118873676D01*
X249465322Y-118870000D01*
X249465333Y-118870000D01*
X249576986Y-118859003D01*
X249720247Y-118815546D01*
X249852276Y-118744974D01*
X249968001Y-118650001D01*
X249991803Y-118620998D01*
X251463008Y-117149795D01*
X251492001Y-117126001D01*
X251515795Y-117097008D01*
X251515799Y-117097004D01*
X251586973Y-117010277D01*
X251598354Y-116988985D01*
X251657546Y-116878247D01*
X251701003Y-116734986D01*
X251712000Y-116623333D01*
X251712000Y-116623324D01*
X251715676Y-116586001D01*
X251712000Y-116548678D01*
X251712000Y-112305333D01*
X251715677Y-112268000D01*
X251701003Y-112119014D01*
X251657546Y-111975753D01*
X251586974Y-111843724D01*
X251515799Y-111756997D01*
X251492001Y-111727999D01*
X251463004Y-111704202D01*
X250927803Y-111169002D01*
X250904001Y-111139999D01*
X250788276Y-111045026D01*
X250656247Y-110974454D01*
X250512986Y-110930997D01*
X250401333Y-110920000D01*
X250401322Y-110920000D01*
X250364000Y-110916324D01*
X250326678Y-110920000D01*
X248544595Y-110920000D01*
X248507706Y-110850986D01*
X248322134Y-110624866D01*
X248096014Y-110439294D01*
X248070278Y-110425538D01*
X248276429Y-110269049D01*
X248469496Y-110051193D01*
X248616352Y-109799858D01*
X248708476Y-109536890D01*
X248587155Y-109307000D01*
X247269000Y-109307000D01*
X247269000Y-109327000D01*
X247015000Y-109327000D01*
X247015000Y-109307000D01*
X246995000Y-109307000D01*
X246995000Y-109053000D01*
X247015000Y-109053000D01*
X247015000Y-109033000D01*
X247269000Y-109033000D01*
X247269000Y-109053000D01*
X248587155Y-109053000D01*
X248708476Y-108823110D01*
X248616352Y-108560142D01*
X248469496Y-108308807D01*
X248276429Y-108090951D01*
X248255039Y-108074714D01*
X248360386Y-108018405D01*
X248494962Y-107907962D01*
X248605405Y-107773386D01*
X248687472Y-107619850D01*
X248738008Y-107453254D01*
X248755072Y-107280000D01*
X248755072Y-106080000D01*
X248738008Y-105906746D01*
X248687472Y-105740150D01*
X248605405Y-105586614D01*
X248494962Y-105452038D01*
X248360386Y-105341595D01*
X248206850Y-105259528D01*
X248040254Y-105208992D01*
X247867000Y-105191928D01*
X247164874Y-105191928D01*
X247653008Y-104703795D01*
X247682001Y-104680001D01*
X247705795Y-104651008D01*
X247705799Y-104651004D01*
X247776973Y-104564277D01*
X247776974Y-104564276D01*
X247847546Y-104432247D01*
X247891003Y-104288986D01*
X247902000Y-104177333D01*
X247902000Y-104177324D01*
X247905676Y-104140001D01*
X247902000Y-104102678D01*
X247902000Y-101808409D01*
X248096014Y-101704706D01*
X248322134Y-101519134D01*
X248507706Y-101293014D01*
X248645599Y-101035034D01*
X248730513Y-100755111D01*
X248759185Y-100464000D01*
X248730513Y-100172889D01*
X248645599Y-99892966D01*
X248507706Y-99634986D01*
X248322134Y-99408866D01*
X248096014Y-99223294D01*
X248078626Y-99214000D01*
X248096014Y-99204706D01*
X248322134Y-99019134D01*
X248507706Y-98793014D01*
X248645599Y-98535034D01*
X248730513Y-98255111D01*
X248759185Y-97964000D01*
X248730513Y-97672889D01*
X248645599Y-97392966D01*
X248507706Y-97134986D01*
X248322134Y-96908866D01*
X248096014Y-96723294D01*
X248070278Y-96709538D01*
X248276429Y-96553049D01*
X248469496Y-96335193D01*
X248616352Y-96083858D01*
X248708476Y-95820890D01*
X248587155Y-95591000D01*
X247269000Y-95591000D01*
X247269000Y-95611000D01*
X247015000Y-95611000D01*
X247015000Y-95591000D01*
X245696845Y-95591000D01*
X245575524Y-95820890D01*
X245667648Y-96083858D01*
X245814504Y-96335193D01*
X246007571Y-96553049D01*
X246213722Y-96709538D01*
X246187986Y-96723294D01*
X245961866Y-96908866D01*
X245776294Y-97134986D01*
X245638401Y-97392966D01*
X245553487Y-97672889D01*
X245524815Y-97964000D01*
X245553487Y-98255111D01*
X245605296Y-98425902D01*
X245362000Y-98669199D01*
X245362000Y-92364000D01*
X245528928Y-92364000D01*
X245528928Y-93564000D01*
X245545992Y-93737254D01*
X245596528Y-93903850D01*
X245678595Y-94057386D01*
X245789038Y-94191962D01*
X245923614Y-94302405D01*
X246028961Y-94358714D01*
X246007571Y-94374951D01*
X245814504Y-94592807D01*
X245667648Y-94844142D01*
X245575524Y-95107110D01*
X245696845Y-95337000D01*
X247015000Y-95337000D01*
X247015000Y-95317000D01*
X247269000Y-95317000D01*
X247269000Y-95337000D01*
X248587155Y-95337000D01*
X248708476Y-95107110D01*
X248616352Y-94844142D01*
X248469496Y-94592807D01*
X248276429Y-94374951D01*
X248255039Y-94358714D01*
X248360386Y-94302405D01*
X248494962Y-94191962D01*
X248605405Y-94057386D01*
X248687472Y-93903850D01*
X248738008Y-93737254D01*
X248755072Y-93564000D01*
X248755072Y-92364000D01*
X248738008Y-92190746D01*
X248687472Y-92024150D01*
X248605405Y-91870614D01*
X248494962Y-91736038D01*
X248360386Y-91625595D01*
X248206850Y-91543528D01*
X248040254Y-91492992D01*
X247867000Y-91475928D01*
X246417000Y-91475928D01*
X246243746Y-91492992D01*
X246077150Y-91543528D01*
X245923614Y-91625595D01*
X245789038Y-91736038D01*
X245678595Y-91870614D01*
X245596528Y-92024150D01*
X245545992Y-92190746D01*
X245528928Y-92364000D01*
X245362000Y-92364000D01*
X245362000Y-91246801D01*
X246186802Y-90422000D01*
X249136678Y-90422000D01*
X249174000Y-90425676D01*
X249211322Y-90422000D01*
X249211333Y-90422000D01*
X249322986Y-90411003D01*
X249466247Y-90367546D01*
X249598276Y-90296974D01*
X249714001Y-90202001D01*
X249737804Y-90172997D01*
X250955004Y-88955798D01*
X250984001Y-88932001D01*
X251078974Y-88816276D01*
X251149546Y-88684247D01*
X251193003Y-88540986D01*
X251204000Y-88429333D01*
X251204000Y-88429324D01*
X251207676Y-88392001D01*
X251204000Y-88354678D01*
X251204000Y-85381325D01*
X251207676Y-85344000D01*
X251204000Y-85306675D01*
X251204000Y-85306667D01*
X251193003Y-85195014D01*
X251149546Y-85051753D01*
X251078974Y-84919724D01*
X250984001Y-84803999D01*
X250955003Y-84780201D01*
X249721804Y-83547003D01*
X249698001Y-83517999D01*
X249582276Y-83423026D01*
X249450247Y-83352454D01*
X249306986Y-83308997D01*
X249195333Y-83298000D01*
X249195322Y-83298000D01*
X249158000Y-83294324D01*
X249120678Y-83298000D01*
X248544595Y-83298000D01*
X248507706Y-83228986D01*
X248322134Y-83002866D01*
X248096014Y-82817294D01*
X248070278Y-82803538D01*
X248276429Y-82647049D01*
X248469496Y-82429193D01*
X248616352Y-82177858D01*
X248708476Y-81914890D01*
X248587155Y-81685000D01*
X247269000Y-81685000D01*
X247269000Y-81705000D01*
X247015000Y-81705000D01*
X247015000Y-81685000D01*
X246995000Y-81685000D01*
X246995000Y-81431000D01*
X247015000Y-81431000D01*
X247015000Y-81411000D01*
X247269000Y-81411000D01*
X247269000Y-81431000D01*
X248587155Y-81431000D01*
X248708476Y-81201110D01*
X248616352Y-80938142D01*
X248469496Y-80686807D01*
X248276429Y-80468951D01*
X248255039Y-80452714D01*
X248360386Y-80396405D01*
X248494962Y-80285962D01*
X248605405Y-80151386D01*
X248687472Y-79997850D01*
X248738008Y-79831254D01*
X248755072Y-79658000D01*
X248755072Y-78458000D01*
X248738008Y-78284746D01*
X248687472Y-78118150D01*
X248605405Y-77964614D01*
X248494962Y-77830038D01*
X248360386Y-77719595D01*
X248206850Y-77637528D01*
X248040254Y-77586992D01*
X247867000Y-77569928D01*
X246417000Y-77569928D01*
X246330338Y-77578463D01*
X247710802Y-76198000D01*
X250660678Y-76198000D01*
X250698000Y-76201676D01*
X250735322Y-76198000D01*
X250735333Y-76198000D01*
X250846986Y-76187003D01*
X250990247Y-76143546D01*
X251122276Y-76072974D01*
X251238001Y-75978001D01*
X251261803Y-75948998D01*
X252340000Y-74870802D01*
X252340001Y-124011199D01*
G37*
%TD.AperFunction*%
D17*
X236752205Y-91015008D02*
X236775999Y-91044001D01*
X236804992Y-91067795D01*
X236804996Y-91067799D01*
X236856431Y-91110010D01*
X236891724Y-91138974D01*
X237023753Y-91209546D01*
X237167014Y-91253003D01*
X237278667Y-91264000D01*
X237278676Y-91264000D01*
X237315999Y-91267676D01*
X237353322Y-91264000D01*
X239389405Y-91264000D01*
X239426294Y-91333014D01*
X239611866Y-91559134D01*
X239837986Y-91744706D01*
X239855374Y-91754000D01*
X239837986Y-91763294D01*
X239611866Y-91948866D01*
X239426294Y-92174986D01*
X239288401Y-92432966D01*
X239203487Y-92712889D01*
X239174815Y-93004000D01*
X239203487Y-93295111D01*
X239288401Y-93575034D01*
X239426294Y-93833014D01*
X239607608Y-94053945D01*
X239572820Y-94064498D01*
X239462506Y-94123463D01*
X239365815Y-94202815D01*
X239286463Y-94299506D01*
X239227498Y-94409820D01*
X239191188Y-94529518D01*
X239178928Y-94654000D01*
X239182000Y-95218250D01*
X239340750Y-95377000D01*
X240665000Y-95377000D01*
X240665000Y-95357000D01*
X240919000Y-95357000D01*
X240919000Y-95377000D01*
X240939000Y-95377000D01*
X240939000Y-95631000D01*
X240919000Y-95631000D01*
X240919000Y-95651000D01*
X240665000Y-95651000D01*
X240665000Y-95631000D01*
X239340750Y-95631000D01*
X239182000Y-95789750D01*
X239179396Y-96268000D01*
X234733333Y-96268000D01*
X234696000Y-96264323D01*
X234658667Y-96268000D01*
X234547014Y-96278997D01*
X234403753Y-96322454D01*
X234271724Y-96393026D01*
X234155999Y-96487999D01*
X234132201Y-96516997D01*
X232648198Y-98001001D01*
X231155544Y-98001001D01*
X231209000Y-97732260D01*
X231209000Y-97439740D01*
X231151932Y-97152842D01*
X231039990Y-96882589D01*
X230877475Y-96639368D01*
X230670632Y-96432525D01*
X230496240Y-96316000D01*
X230670632Y-96199475D01*
X230877475Y-95992632D01*
X231039990Y-95749411D01*
X231151932Y-95479158D01*
X231209000Y-95192260D01*
X231209000Y-94899740D01*
X231151932Y-94612842D01*
X231039990Y-94342589D01*
X230877475Y-94099368D01*
X230670632Y-93892525D01*
X230496240Y-93776000D01*
X230670632Y-93659475D01*
X230877475Y-93452632D01*
X231039990Y-93209411D01*
X231151932Y-92939158D01*
X231209000Y-92652260D01*
X231209000Y-92359740D01*
X231151932Y-92072842D01*
X231039990Y-91802589D01*
X230877475Y-91559368D01*
X230670632Y-91352525D01*
X230496240Y-91236000D01*
X230670632Y-91119475D01*
X230877475Y-90912632D01*
X231039990Y-90669411D01*
X231151932Y-90399158D01*
X231209000Y-90112260D01*
X231209000Y-89819740D01*
X231151932Y-89532842D01*
X231039990Y-89262589D01*
X230877475Y-89019368D01*
X230670632Y-88812525D01*
X230496240Y-88696000D01*
X230670632Y-88579475D01*
X230877475Y-88372632D01*
X231039990Y-88129411D01*
X231151932Y-87859158D01*
X231209000Y-87572260D01*
X231209000Y-87279740D01*
X231151932Y-86992842D01*
X231080753Y-86821001D01*
X232558200Y-86821001D01*
X236752205Y-91015008D01*
%TA.AperFunction,Conductor*%
D18*
G36*
X236752205Y-91015008D02*
G01*
X236775999Y-91044001D01*
X236804992Y-91067795D01*
X236804996Y-91067799D01*
X236856431Y-91110010D01*
X236891724Y-91138974D01*
X237023753Y-91209546D01*
X237167014Y-91253003D01*
X237278667Y-91264000D01*
X237278676Y-91264000D01*
X237315999Y-91267676D01*
X237353322Y-91264000D01*
X239389405Y-91264000D01*
X239426294Y-91333014D01*
X239611866Y-91559134D01*
X239837986Y-91744706D01*
X239855374Y-91754000D01*
X239837986Y-91763294D01*
X239611866Y-91948866D01*
X239426294Y-92174986D01*
X239288401Y-92432966D01*
X239203487Y-92712889D01*
X239174815Y-93004000D01*
X239203487Y-93295111D01*
X239288401Y-93575034D01*
X239426294Y-93833014D01*
X239607608Y-94053945D01*
X239572820Y-94064498D01*
X239462506Y-94123463D01*
X239365815Y-94202815D01*
X239286463Y-94299506D01*
X239227498Y-94409820D01*
X239191188Y-94529518D01*
X239178928Y-94654000D01*
X239182000Y-95218250D01*
X239340750Y-95377000D01*
X240665000Y-95377000D01*
X240665000Y-95357000D01*
X240919000Y-95357000D01*
X240919000Y-95377000D01*
X240939000Y-95377000D01*
X240939000Y-95631000D01*
X240919000Y-95631000D01*
X240919000Y-95651000D01*
X240665000Y-95651000D01*
X240665000Y-95631000D01*
X239340750Y-95631000D01*
X239182000Y-95789750D01*
X239179396Y-96268000D01*
X234733333Y-96268000D01*
X234696000Y-96264323D01*
X234658667Y-96268000D01*
X234547014Y-96278997D01*
X234403753Y-96322454D01*
X234271724Y-96393026D01*
X234155999Y-96487999D01*
X234132201Y-96516997D01*
X232648198Y-98001001D01*
X231155544Y-98001001D01*
X231209000Y-97732260D01*
X231209000Y-97439740D01*
X231151932Y-97152842D01*
X231039990Y-96882589D01*
X230877475Y-96639368D01*
X230670632Y-96432525D01*
X230496240Y-96316000D01*
X230670632Y-96199475D01*
X230877475Y-95992632D01*
X231039990Y-95749411D01*
X231151932Y-95479158D01*
X231209000Y-95192260D01*
X231209000Y-94899740D01*
X231151932Y-94612842D01*
X231039990Y-94342589D01*
X230877475Y-94099368D01*
X230670632Y-93892525D01*
X230496240Y-93776000D01*
X230670632Y-93659475D01*
X230877475Y-93452632D01*
X231039990Y-93209411D01*
X231151932Y-92939158D01*
X231209000Y-92652260D01*
X231209000Y-92359740D01*
X231151932Y-92072842D01*
X231039990Y-91802589D01*
X230877475Y-91559368D01*
X230670632Y-91352525D01*
X230496240Y-91236000D01*
X230670632Y-91119475D01*
X230877475Y-90912632D01*
X231039990Y-90669411D01*
X231151932Y-90399158D01*
X231209000Y-90112260D01*
X231209000Y-89819740D01*
X231151932Y-89532842D01*
X231039990Y-89262589D01*
X230877475Y-89019368D01*
X230670632Y-88812525D01*
X230496240Y-88696000D01*
X230670632Y-88579475D01*
X230877475Y-88372632D01*
X231039990Y-88129411D01*
X231151932Y-87859158D01*
X231209000Y-87572260D01*
X231209000Y-87279740D01*
X231151932Y-86992842D01*
X231080753Y-86821001D01*
X232558200Y-86821001D01*
X236752205Y-91015008D01*
G37*
%TD.AperFunction*%
%TD*%
M02*
