M48
; DRILL file {KiCad (5.1.10)-1} date 05/23/22 20:20:49
; FORMAT={-:-/ absolute / inch / decimal}
; #@! TF.CreationDate,2022-05-23T20:20:49+03:00
; #@! TF.GenerationSoftware,Kicad,Pcbnew,(5.1.10)-1
; #@! TF.FileFunction,Plated,1,2,PTH
FMAT,2
INCH
T1C0.0157
T2C0.0374
T3C0.0394
T4C0.0551
%
G90
G05
T1
X7.4803Y-3.1496
X7.4803Y-3.5433
X7.4803Y-3.937
X7.4803Y-4.3307
X7.874Y-3.1496
X7.874Y-3.5433
X7.874Y-3.937
X7.874Y-4.3307
X8.2677Y-3.1496
X8.2677Y-3.5433
X9.3701Y-4.5669
T2
X7.3631Y-5.46
X7.4616Y-5.46
X7.56Y-5.46
X7.8254Y-5.4628
X7.9239Y-5.4628
X8.0223Y-5.4628
X8.2731Y-5.4628
X8.3716Y-5.4628
X8.47Y-5.4628
X8.7331Y-5.46
X8.8316Y-5.46
X8.93Y-5.46
X9.1754Y-5.4628
X9.2739Y-5.4628
X9.3723Y-5.4628
X9.4094Y-2.5984
X9.4094Y-2.6969
X9.4094Y-2.7953
X9.4094Y-3.0709
X9.4094Y-3.1693
X9.4094Y-3.2677
X9.4094Y-3.5236
X9.4094Y-3.622
X9.4094Y-3.7205
X9.4094Y-3.8189
X9.6231Y-5.46
X9.7216Y-5.46
X9.7244Y-2.5591
X9.7244Y-2.6575
X9.7244Y-2.7559
X9.7244Y-2.8543
X9.7244Y-3.1102
X9.7244Y-3.2087
X9.7244Y-3.3071
X9.7244Y-3.4055
X9.7244Y-3.6614
X9.7244Y-3.7598
X9.7244Y-3.8583
X9.7244Y-3.9567
X9.7244Y-4.2126
X9.7244Y-4.311
X9.7244Y-4.4094
X9.7244Y-4.5079
X9.73Y-4.7525
X9.73Y-4.8509
X9.73Y-4.9494
X9.73Y-5.0478
X9.82Y-5.46
T3
X6.9458Y-2.8388
X6.9458Y-2.9388
X6.9458Y-3.0388
X6.9458Y-3.1388
X6.9458Y-3.2388
X6.9458Y-3.3388
X6.9458Y-3.4388
X6.9458Y-3.5388
X6.9458Y-3.6388
X6.9458Y-3.7388
X6.9458Y-3.8388
X6.9458Y-3.9388
X6.9458Y-4.0388
X6.9458Y-4.1388
X6.9458Y-4.2388
X6.9458Y-4.3388
X6.9458Y-4.4388
X6.9458Y-4.5388
X6.9458Y-4.6388
X6.9458Y-4.7388
X6.9458Y-4.8388
X6.9458Y-4.9388
X6.9458Y-5.0388
X6.9458Y-5.1388
X6.9458Y-5.2388
X7.0458Y-2.8388
X7.0458Y-2.9388
X7.0458Y-3.0388
X7.0458Y-3.1388
X7.0458Y-3.2388
X7.0458Y-3.3388
X7.0458Y-3.4388
X7.0458Y-3.5388
X7.0458Y-3.6388
X7.0458Y-3.7388
X7.0458Y-3.8388
X7.0458Y-3.9388
X7.0458Y-4.0388
X7.0458Y-4.1388
X7.0458Y-4.2388
X7.0458Y-4.3388
X7.0458Y-4.4388
X7.0458Y-4.5388
X7.0458Y-4.6388
X7.0458Y-4.7388
X7.0458Y-4.8388
X7.0458Y-4.9388
X7.0458Y-5.0388
X7.0458Y-5.1388
X7.0458Y-5.2388
X8.0283Y-4.1339
X8.1283Y-4.1339
X8.2283Y-4.1339
X8.3283Y-4.1339
X8.4283Y-4.1339
X8.5283Y-4.1339
X8.6283Y-4.1339
X8.7283Y-4.1339
X8.9443Y-2.842
X8.9443Y-2.942
X8.9443Y-3.042
X8.9443Y-3.142
X8.9443Y-3.242
X8.9443Y-3.342
X8.9443Y-3.442
X8.9443Y-3.542
X8.9443Y-3.642
X8.9443Y-3.742
X8.9443Y-3.842
X8.9443Y-3.942
X8.9443Y-4.042
X8.9443Y-4.142
X8.9443Y-4.242
X8.9443Y-4.342
X8.9443Y-4.442
X8.9443Y-4.542
X8.9443Y-4.642
X8.9443Y-4.742
X8.9443Y-4.842
X8.9443Y-4.942
X8.9443Y-5.042
X8.9443Y-5.142
X8.9443Y-5.242
X9.0443Y-2.842
X9.0443Y-2.942
X9.0443Y-3.042
X9.0443Y-3.142
X9.0443Y-3.242
X9.0443Y-3.342
X9.0443Y-3.442
X9.0443Y-3.542
X9.0443Y-3.642
X9.0443Y-3.742
X9.0443Y-3.842
X9.0443Y-3.942
X9.0443Y-4.042
X9.0443Y-4.142
X9.0443Y-4.242
X9.0443Y-4.342
X9.0443Y-4.442
X9.0443Y-4.542
X9.0443Y-4.642
X9.0443Y-4.742
X9.0443Y-4.842
X9.0443Y-4.942
X9.0443Y-5.042
X9.0443Y-5.142
X9.0443Y-5.242
X9.4882Y-4.7
X9.4882Y-4.8
X9.4882Y-4.9
X9.4882Y-5.0
T4
X6.8898Y-5.5906
X7.0866Y-5.5906
T0
M30
